<svg width="51" height="67" viewBox="0 0 51 67" fill="none" xmlns="http://www.w3.org/2000/svg">
<path d="M38.3073 48.9741C38.1443 48.7758 38.0112 48.5548 37.9122 48.3179C37.6786 47.8748 37.3454 47.2152 36.9229 46.3598C36.0778 44.6422 34.8617 42.1585 33.3983 39.0496C30.444 32.8318 26.3801 24.1543 21.8455 14.3501H22.6562C22.0379 15.7895 21.3783 17.3044 20.76 18.864C19.6435 21.6122 18.6233 24.3604 17.7232 27.0056C17.256 28.3316 16.8472 29.6473 16.4281 30.9321C16.009 32.2169 15.6415 33.4879 15.2911 34.7109C13.8689 39.6714 12.8177 44.2025 12.0516 48.0328C11.2855 51.8631 10.7977 54.9858 10.4611 57.1465C10.2928 58.2287 10.1794 59.0703 10.0798 59.6371C10.0521 59.9311 9.98867 60.2207 9.89083 60.4994C9.85019 60.2065 9.85019 59.9094 9.89083 59.6165C9.93205 59.0428 9.99045 58.1909 10.1038 57.1019C10.334 54.9239 10.7325 51.7772 11.4195 47.916C12.1066 44.0548 13.0994 39.4859 14.4872 34.4876C14.8307 33.2372 15.2155 31.9627 15.6037 30.6607C15.9918 29.3587 16.4178 28.0396 16.8816 26.7067C17.7782 24.0307 18.7985 21.2893 19.9183 18.5102C20.5436 16.9437 21.21 15.4185 21.8318 13.9757C21.8549 13.9221 21.8884 13.8737 21.9303 13.8332C21.9723 13.7926 22.0218 13.7607 22.076 13.7394C22.1303 13.718 22.1882 13.7075 22.2465 13.7086C22.3048 13.7096 22.3623 13.7222 22.4158 13.7455C22.5156 13.7875 22.5956 13.8662 22.6391 13.9654C27.153 23.7799 31.1173 32.5158 33.9273 38.7851C35.3324 41.9284 36.4522 44.4601 37.2046 46.2121C37.579 47.0881 37.8641 47.7683 38.0496 48.2321C38.1704 48.4659 38.2571 48.7157 38.3073 48.9741Z" fill="white"/>
<path d="M32.5562 34.1752C32.6214 34.4157 26.1563 36.3807 18.1281 38.5655C10.0999 40.7503 3.51449 42.3443 3.44922 42.0901C3.38395 41.8359 9.84911 39.8846 17.8945 37.6998C25.9399 35.515 32.4909 33.9451 32.5562 34.1752Z" fill="white"/>
<path d="M28.0556 6.85447C28.1832 6.75775 28.323 6.67807 28.4712 6.61744L28.9968 6.35636C29.2098 6.26018 29.4675 6.16742 29.756 6.05406C30.4747 5.7896 31.2165 5.59293 31.9718 5.46663C33.0095 5.31053 34.0638 5.29897 35.1047 5.43228C36.41 5.61642 37.6769 6.01086 38.856 6.60027C40.2479 7.3171 41.5345 8.2222 42.6795 9.29007C43.9931 10.5128 45.1608 11.8835 46.1594 13.3746C46.4339 13.7751 46.6785 14.1953 46.8911 14.6319C47.1109 15.0682 47.3411 15.5079 47.561 15.9579L48.1518 17.3664C48.3579 17.8404 48.4953 18.342 48.674 18.8401C49.3504 20.9464 49.7725 23.1261 49.9313 25.3327C50.0929 27.7203 50.0077 30.1182 49.6771 32.4884C49.321 35.0191 48.7779 37.5199 48.0522 39.9704C47.8804 40.6059 47.664 41.2311 47.4716 41.8701C47.2793 42.509 47.0182 43.1411 46.7846 43.7835C46.5063 44.4053 46.2487 45.0408 45.943 45.6626L45.4655 46.5867L45.2284 47.0504L44.9605 47.5005C43.515 49.9721 41.7856 52.2664 39.8076 54.3366C37.7519 56.4918 35.4795 58.4292 33.0264 60.1182C30.5055 61.8992 27.7831 63.3763 24.9157 64.5187C21.9295 65.7095 18.7344 66.2877 15.5203 66.2192C13.8871 66.1685 12.2731 65.8517 10.7419 65.2813C9.21881 64.7098 7.82795 63.8344 6.65392 62.7083C6.07431 62.1591 5.54648 61.5577 5.07712 60.9117C4.61025 60.2767 4.19224 59.6072 3.82669 58.9089C3.10653 57.5399 2.53088 56.0997 2.10907 54.6114C0.565688 48.9608 0.256379 43.0442 1.20215 37.2634C1.63036 34.5835 2.29364 31.9465 3.1843 29.3829C3.29767 29.0737 3.40759 28.7646 3.52783 28.4554C3.64806 28.1462 3.74769 27.8405 3.87135 27.5416C4.12098 26.9439 4.36832 26.3496 4.61337 25.7587L5.43096 24.0411C5.69204 23.4674 6.01496 22.9315 6.30008 22.3818C7.43844 20.2848 8.73982 18.2805 10.1922 16.3873L10.7075 15.7003L11.2469 15.0476C11.611 14.6182 11.9545 14.1819 12.3221 13.7731L13.4248 12.5707C13.7683 12.1654 14.1806 11.8116 14.5481 11.4371C15.2833 10.6848 16.0803 10.0321 16.8223 9.37596L17.9834 8.45531L18.5536 8.00529L19.1376 7.59306L20.285 6.7892L21.4358 6.0678L21.9958 5.72427L22.566 5.4048L23.6791 4.78988C24.4176 4.40514 25.1493 4.06161 25.8467 3.72495C26.5441 3.3883 27.2414 3.12035 27.9079 2.85583L29.8282 2.14474L31.5939 1.58135C33.8405 0.918349 35.6131 0.523295 36.8223 0.293132C37.4269 0.183204 37.8907 0.100758 38.1964 0.0526641C38.3511 0.0125603 38.5108 -0.0047987 38.6705 0.00113473C38.5243 0.0660356 38.371 0.113316 38.2136 0.14198C37.9079 0.220991 37.451 0.33092 36.8395 0.46833C35.6475 0.756892 33.8921 1.20347 31.6866 1.91457L29.9484 2.51231L28.0556 3.23715C27.4029 3.51197 26.7364 3.82114 26.0322 4.13032C25.328 4.43949 24.634 4.81737 23.9092 5.21586L22.8202 5.84107L22.2603 6.16055L21.7106 6.50408L20.5839 7.22892L19.4674 8.04995L18.8972 8.46218L18.3407 8.90876L17.207 9.82597C16.4822 10.4924 15.7058 11.1417 14.9913 11.8871C14.6306 12.2581 14.239 12.6085 13.892 13.0105C13.545 13.4124 13.1775 13.8006 12.8168 14.2059C12.4561 14.6113 12.1297 15.0476 11.769 15.4701L11.24 16.1194L10.7384 16.8064C9.31982 18.6804 8.0506 20.6629 6.94248 22.7357C6.66422 23.2784 6.3516 23.8075 6.09739 24.3709L5.30385 26.0679L4.58588 27.8267C4.45878 28.1187 4.34885 28.421 4.24236 28.7268L3.92288 29.6405C3.06642 32.1604 2.43079 34.7501 2.02318 37.3802C1.59139 40.1461 1.44176 42.9488 1.5766 45.745C1.70609 48.6575 2.1671 51.5457 2.95071 54.3538C3.35714 55.7809 3.9097 57.1624 4.59963 58.4761C4.94643 59.136 5.34262 59.7687 5.7848 60.3689C6.22495 60.9727 6.71939 61.535 7.26195 62.0488C8.34949 63.0881 9.63442 63.8988 11.0407 64.4328C12.4838 64.9652 14.0035 65.261 15.5409 65.3088C18.6338 65.3694 21.7076 64.8123 24.5825 63.6702C27.3911 62.5576 30.0591 61.1187 32.5317 59.383C34.9394 57.7333 37.1714 55.8409 39.1927 53.7354C41.1269 51.7179 42.8203 49.4826 44.2391 47.0745L44.5001 46.6348L44.7337 46.1847L45.2009 45.2881C45.4998 44.687 45.7506 44.0686 46.0254 43.4675C46.2487 42.8422 46.4926 42.2342 46.6953 41.609C46.898 40.9838 47.1075 40.362 47.2793 39.7333C48.008 37.3244 48.558 34.8649 48.9248 32.375C49.2659 30.0556 49.3661 27.7071 49.2236 25.3671C49.0882 23.212 48.6961 21.0808 48.0556 19.0187C47.8873 18.5344 47.7568 18.0397 47.561 17.5759C47.3652 17.1122 47.1831 16.6484 46.9976 16.2018L46.3586 14.8964C46.1602 14.4745 45.9305 14.068 45.6716 13.6803C44.7169 12.2124 43.5965 10.8591 42.3325 9.64734C41.2354 8.59393 39.9999 7.6948 38.6602 6.97471C37.5328 6.38608 36.3186 5.98135 35.0635 5.7758C34.0536 5.62048 33.0272 5.6043 32.013 5.72771C31.2694 5.82859 30.5361 5.99411 29.8213 6.22239C29.5327 6.32201 29.2751 6.39759 29.0552 6.48003L28.5159 6.69989C28.3694 6.77015 28.2148 6.82207 28.0556 6.85447Z" fill="white"/>
<path d="M35.76 29.5135C35.5127 29.5135 35.097 25.3911 34.8359 20.2383C34.5749 15.0854 34.5577 10.9287 34.805 10.9287C35.0524 10.9287 35.4646 15.051 35.7291 20.2039C35.9936 25.3568 36.0039 29.4997 35.76 29.5135Z" fill="white"/>
<path d="M41.3326 17.9847C41.4254 18.2114 38.7252 19.5306 35.2385 20.7638C31.7517 21.9971 28.8248 22.6841 28.7561 22.4505C28.6874 22.2169 31.4768 21.1555 34.9396 19.9222C38.4023 18.6889 41.2398 17.7545 41.3326 17.9847Z" fill="white"/>
</svg>
