<svg width="335" height="432" viewBox="0 0 335 432" fill="none" xmlns="http://www.w3.org/2000/svg">
<path d="M30.6539 220.715C30.1463 219.802 29.6387 218.888 29.8417 218.076L30.0448 217.365C30.2478 216.654 31.06 216.858 31.263 216.147L77.7584 199.092C78.469 199.295 78.7736 198.584 79.3827 198.787L124.254 210.157C135.421 204.98 146.994 200.818 158.872 197.772C277.546 165.692 331.656 206.909 333.483 209.041C333.991 209.954 334.498 210.868 334.295 211.68C332.975 215.639 331.351 219.395 329.422 223.05C317.748 243.658 286.379 281.728 205.874 308.833C192.779 313.198 179.48 316.853 165.978 319.696L137.147 354.516C136.944 355.227 136.131 355.024 135.928 355.735L87.7072 367.511C87.5041 367.612 87.3011 367.714 87.0981 367.714C86.895 367.714 86.692 367.714 86.3874 367.714C86.1844 367.612 85.9814 367.511 85.7783 367.409C85.5753 367.308 85.4738 367.105 85.3723 366.902C84.8647 365.988 84.3571 365.074 84.5601 364.262L92.0725 318.477C85.0677 318.173 78.266 316.041 72.3779 312.386C66.3883 308.732 61.5155 303.554 58.1653 297.565C55.5259 290.56 54.7137 283.047 55.9319 275.637C57.1502 268.226 60.0942 261.323 64.6625 255.434L30.6539 220.715ZM252.776 254.216C255.415 249.546 256.532 244.267 256.126 238.989C255.72 233.71 253.69 228.634 250.34 224.37C246.989 220.208 242.523 217.061 237.345 215.335C232.168 213.609 226.686 213.507 221.508 214.929C216.331 216.35 211.661 219.192 208.209 223.253C204.656 227.314 202.524 232.187 201.814 237.466C201.205 242.745 202.118 248.125 204.555 252.897C206.991 257.668 210.849 261.627 215.519 264.267C218.666 266.094 222.117 267.312 225.671 267.82C229.224 268.327 232.878 268.124 236.33 267.109C239.782 266.195 243.03 264.571 245.873 262.338C248.715 260.104 251.05 257.363 252.776 254.216Z" fill="white"/>
<path d="M149.677 313.471L105.328 317.309C103.253 317.489 101.506 318.936 100.945 320.942L92.3544 351.621C91.3253 355.297 94.6275 358.723 98.3384 357.831L132.698 349.567C133.875 349.284 134.91 348.583 135.61 347.594L154.189 321.341C156.648 317.866 153.917 313.104 149.677 313.471Z" fill="#3DBCA1"/>
<path d="M86.4011 224.92L72.6008 242.003C70.7944 244.239 67.479 244.496 65.3506 242.563L44.5351 223.667C41.4878 220.901 42.9011 215.843 46.9411 215.057L70.5733 210.46C71.7647 210.228 72.9998 210.438 74.0482 211.05L85.0318 217.459C87.676 219.003 88.325 222.538 86.4011 224.92Z" fill="#3DBCA1"/>
<path d="M333.196 210.663C324.19 202.783 304.678 195.654 297.736 195.466C305.053 199.218 321.714 209.763 323.065 210.663C324.416 211.564 320.626 218.543 319.125 221.921C318.224 226.874 322.127 227.737 324.19 227.549C328.243 223.947 332.633 214.791 333.196 210.663Z" fill="#C4C4C4" fill-opacity="0.3"/>
<path d="M261.295 241.621C261.295 259.099 247.126 273.267 229.649 273.267C212.171 273.267 198.003 259.099 198.003 241.621C198.003 224.143 212.171 209.975 229.649 209.975C247.126 209.975 261.295 224.143 261.295 241.621Z" stroke="#3DBCA1" stroke-width="2"/>
<path opacity="0.04" d="M237.215 228.89C238.115 229.21 238.976 229.624 239.769 230.144C239.473 229.957 239.191 229.77 238.895 229.584C239.782 230.171 240.602 230.864 241.315 231.651C241.086 231.398 240.844 231.144 240.616 230.891C241.395 231.758 242.054 232.719 242.592 233.746C242.43 233.439 242.269 233.132 242.108 232.812C242.739 234.04 243.196 235.347 243.492 236.694C243.412 236.348 243.344 235.987 243.264 235.64C243.452 236.494 243.573 237.375 243.627 238.255C243.654 238.816 243.801 239.323 244.097 239.776C244.299 240.256 244.608 240.67 245.038 241.004C245.441 241.364 245.898 241.617 246.409 241.737C246.907 241.951 247.444 242.031 247.996 241.964C248.345 241.884 248.708 241.817 249.057 241.737C249.73 241.497 250.294 241.097 250.765 240.563C250.953 240.27 251.141 239.99 251.329 239.696C251.652 239.042 251.773 238.349 251.719 237.615C251.679 236.975 251.598 236.334 251.491 235.707C251.383 235.067 251.235 234.426 251.087 233.786C251.02 233.493 250.953 233.199 250.859 232.919C250.455 231.505 249.837 230.211 249.125 228.917C248.627 228.009 248.036 227.142 247.337 226.368C246.772 225.741 246.221 225.114 245.589 224.554C245.226 224.234 244.836 223.927 244.42 223.647C243.25 222.846 242.067 222.113 240.723 221.646C240.239 221.392 239.715 221.272 239.177 221.285C238.626 221.205 238.088 221.272 237.564 221.486C237.053 221.646 236.61 221.926 236.247 222.313C235.83 222.633 235.507 223.033 235.292 223.527C235.185 223.86 235.064 224.194 234.956 224.514C234.822 225.248 234.876 225.955 235.131 226.662C235.292 226.969 235.454 227.276 235.615 227.596C236.058 228.129 236.583 228.583 237.215 228.89Z" fill="white"/>
<path opacity="0.04" d="M233.895 230.286C235.028 230.699 236.111 231.232 237.109 231.903C236.737 231.662 236.382 231.421 236.01 231.181C237.126 231.937 238.158 232.832 239.055 233.846C238.767 233.52 238.462 233.193 238.175 232.866C239.156 233.984 239.985 235.222 240.662 236.547C240.459 236.151 240.256 235.755 240.053 235.343C240.848 236.925 241.423 238.611 241.795 240.348C241.694 239.9 241.609 239.436 241.507 238.989C241.744 240.09 241.897 241.225 241.964 242.36C241.998 243.082 242.184 243.736 242.556 244.321C242.81 244.94 243.199 245.473 243.74 245.903C244.248 246.367 244.823 246.694 245.466 246.849C246.092 247.124 246.768 247.227 247.462 247.141C247.902 247.038 248.359 246.952 248.798 246.849C249.644 246.539 250.355 246.023 250.947 245.335C251.184 244.957 251.42 244.596 251.657 244.217C252.063 243.375 252.216 242.48 252.148 241.534C252.097 240.709 251.996 239.883 251.86 239.075C251.725 238.249 251.539 237.424 251.353 236.598C251.268 236.22 251.184 235.841 251.065 235.48C250.558 233.657 249.78 231.989 248.883 230.321C248.257 229.151 247.513 228.033 246.633 227.036C245.923 226.227 245.229 225.419 244.434 224.696C243.977 224.284 243.487 223.888 242.962 223.527C241.491 222.495 240.002 221.549 238.31 220.947C237.735 220.569 237.092 220.414 236.399 220.431C235.705 220.328 235.028 220.414 234.369 220.689C233.726 220.913 233.168 221.257 232.711 221.755C232.187 222.168 231.781 222.684 231.51 223.321C231.375 223.751 231.222 224.181 231.087 224.593C230.918 225.539 230.985 226.451 231.307 227.362C231.51 227.758 231.713 228.154 231.916 228.566C232.423 229.306 233.083 229.873 233.895 230.286Z" fill="white"/>
<g opacity="0.45">
<path d="M215.54 225.931C216.261 224.342 221.609 215.663 236.42 220.59C251.232 225.517 254.4 242.996 250.818 247.976C247.235 252.957 240.858 250.647 236.768 243.316C232.677 235.985 221.836 237.548 218.053 233.395C214.27 229.242 214.804 227.587 215.54 225.931Z" fill="url(#paint0_radial_86_2462)" fill-opacity="0.2" style="mix-blend-mode:screen"/>
</g>
<g clip-path="url(#clip0_86_2462)">
<path fill-rule="evenodd" clip-rule="evenodd" d="M33.1822 389.476C32.9799 390.085 33.1822 390.896 33.1822 391.708C33.5869 391.302 35.6102 389.882 35.6102 389.274C35.6102 387.651 33.7892 388.057 33.1822 389.071V389.476Z" fill="#636BDE"/>
<path fill-rule="evenodd" clip-rule="evenodd" d="M36.824 380.552C36.4193 380.552 36.6217 380.957 36.0147 380.754C37.431 379.132 38.645 382.58 38.645 383.797C37.6333 384.203 33.9914 384 33.3844 382.986C32.7774 381.566 35.2054 380.146 36.4193 379.74L36.824 380.552Z" fill="#636BDE"/>
<path fill-rule="evenodd" clip-rule="evenodd" d="M48.1547 383.594C48.5593 384.203 48.964 384.405 49.571 383.594C49.1663 383.188 48.5593 382.986 47.75 382.783L48.1547 383.594Z" fill="#636BDE"/>
<path fill-rule="evenodd" clip-rule="evenodd" d="M2.63044 404.486C2.63044 403.269 3.23743 403.066 4.24908 403.472C4.24908 404.689 3.23743 405.095 2.02345 404.892C1.82112 404.486 2.22578 404.486 2.22578 404.283L2.63044 404.486Z" fill="#636BDE"/>
<path fill-rule="evenodd" clip-rule="evenodd" d="M69.6014 406.717C68.7921 407.123 67.9828 407.934 67.5781 408.948C70.2084 409.557 73.4457 409.151 73.648 405.906C72.2317 405.703 70.4107 406.311 69.3991 407.326V406.717H69.6014Z" fill="#636BDE"/>
<path fill-rule="evenodd" clip-rule="evenodd" d="M59.6872 391.099C60.0919 390.693 61.3058 390.288 61.9128 391.302C61.3058 391.707 60.2942 391.707 59.4849 391.707L59.6872 391.099Z" fill="#636BDE"/>
<path fill-rule="evenodd" clip-rule="evenodd" d="M82.7529 384.811C83.3599 383.594 84.9785 383.391 85.5855 384.405C84.7762 384.811 83.9669 384.811 83.1576 384.405L82.7529 384.811Z" fill="#636BDE"/>
<path fill-rule="evenodd" clip-rule="evenodd" d="M108.651 415.033C110.877 416.25 108.246 418.076 107.842 415.439L108.651 415.033Z" fill="#636BDE"/>
<path fill-rule="evenodd" clip-rule="evenodd" d="M34.8007 413.816C34.5984 412.194 35.61 410.165 37.0263 409.354C36.6216 410.774 35.61 412.194 34.8007 413.614V413.816Z" fill="#636BDE"/>
<path fill-rule="evenodd" clip-rule="evenodd" d="M26.1008 412.194C26.3031 411.788 27.5171 412.599 28.5287 413.208C27.5171 413.208 26.5054 413.208 25.8984 412.802L26.1008 412.194Z" fill="#636BDE"/>
<path fill-rule="evenodd" clip-rule="evenodd" d="M41.0729 399.415C41.0729 398.807 41.2752 400.024 41.2752 400.226C42.0845 400.024 42.2869 400.226 42.8939 400.226C42.0846 401.849 40.2636 400.835 40.6682 399.618L41.0729 399.415Z" fill="#636BDE"/>
<path fill-rule="evenodd" clip-rule="evenodd" d="M115.53 394.344C114.923 392.924 117.553 392.113 117.756 393.938C117.958 395.155 115.935 395.967 115.125 395.358L115.53 394.344Z" fill="#636BDE"/>
<path fill-rule="evenodd" clip-rule="evenodd" d="M111.281 378.523C111.484 378.32 111.686 378.32 111.888 377.915C111.484 378.32 111.686 378.929 111.484 379.334C113.912 380.349 114.316 377.103 111.686 377.509L111.281 378.523Z" fill="#636BDE"/>
<path fill-rule="evenodd" clip-rule="evenodd" d="M121.195 368.179C120.791 367.367 120.993 366.353 121.398 365.542C122.207 365.948 123.016 366.353 123.623 366.962C122.814 367.773 121.6 367.773 120.588 367.773L121.195 368.179Z" fill="#636BDE"/>
<path fill-rule="evenodd" clip-rule="evenodd" d="M110.27 372.438C109.461 373.047 110.472 373.655 111.686 373.452C111.484 372.641 110.877 372.235 110.068 372.235L110.27 372.438Z" fill="#636BDE"/>
<path fill-rule="evenodd" clip-rule="evenodd" d="M142.035 406.311C144.059 405.5 143.047 408.137 142.238 408.948C141.226 408.543 141.226 407.934 141.631 406.92L142.035 406.311Z" fill="#636BDE"/>
<path fill-rule="evenodd" clip-rule="evenodd" d="M143.249 389.476C143.452 389.274 142.642 390.288 142.44 390.491C143.047 391.099 143.654 391.099 144.463 390.693C144.261 390.288 143.856 390.085 143.452 389.679L143.249 389.476Z" fill="#636BDE"/>
<path fill-rule="evenodd" clip-rule="evenodd" d="M99.1416 409.962C99.5463 408.543 100.558 408.948 100.356 410.368C99.9509 410.571 99.5463 410.368 99.1416 410.165V409.962Z" fill="#636BDE"/>
<path fill-rule="evenodd" clip-rule="evenodd" d="M33.182 424.364C33.182 423.755 32.7773 423.349 33.789 423.349C33.9913 424.364 33.5867 424.364 32.7773 424.566L33.182 424.364Z" fill="#636BDE"/>
<path fill-rule="evenodd" clip-rule="evenodd" d="M21.0422 412.193C22.2562 414.019 16.9956 414.425 16.7933 411.585C16.5909 408.745 20.2329 410.774 21.0422 412.193Z" fill="#573493"/>
<path fill-rule="evenodd" clip-rule="evenodd" d="M18.4119 416.25C18.2096 416.048 18.0072 415.845 17.8049 415.642C16.9956 416.048 17.4003 417.265 18.2096 416.656L18.4119 416.25Z" fill="#573493"/>
<path fill-rule="evenodd" clip-rule="evenodd" d="M35.8124 368.381C31.5635 369.598 35.0031 365.136 35.4077 367.773L35.8124 368.381Z" fill="#573493"/>
<path fill-rule="evenodd" clip-rule="evenodd" d="M30.7543 369.193C30.9567 368.584 29.7427 368.584 29.7427 368.99C29.7427 369.801 30.3497 369.801 30.9567 369.396L30.7543 369.193Z" fill="#573493"/>
<path fill-rule="evenodd" clip-rule="evenodd" d="M27.3146 365.542C25.089 365.948 26.3029 363.717 27.3146 365.136V365.542Z" fill="#573493"/>
<path fill-rule="evenodd" clip-rule="evenodd" d="M13.354 365.136C12.9493 364.528 11.9377 364.933 11.7354 365.542C12.14 365.948 12.747 365.542 13.1517 364.933L13.354 365.136Z" fill="#573493"/>
<path fill-rule="evenodd" clip-rule="evenodd" d="M10.5209 369.396C10.5209 370.004 10.1163 370.207 9.50928 370.004C9.50928 369.193 10.1163 368.99 10.9256 369.193C10.9256 369.396 10.7233 369.396 10.5209 369.396Z" fill="#573493"/>
<path fill-rule="evenodd" clip-rule="evenodd" d="M15.9843 388.665C15.9843 388.665 16.1866 388.665 16.1866 388.056C13.1517 387.245 15.3773 392.316 15.9843 388.665Z" fill="#573493"/>
<path fill-rule="evenodd" clip-rule="evenodd" d="M26.3027 377.915C25.6957 378.118 25.0887 377.712 24.6841 377.103C25.4934 376.089 26.3027 377.509 27.3144 377.509C27.3144 377.712 27.3144 377.915 27.112 378.32C26.7074 378.523 26.7074 378.321 26.505 378.118L26.3027 377.915Z" fill="#573493"/>
<path fill-rule="evenodd" clip-rule="evenodd" d="M43.7031 367.367C44.3101 366.962 44.9171 366.353 45.3217 365.745C44.7147 365.136 43.7031 365.136 42.8938 364.933C42.4891 366.353 41.2751 367.773 43.7031 367.367Z" fill="#573493"/>
<path fill-rule="evenodd" clip-rule="evenodd" d="M47.5477 363.311C47.5477 363.716 46.536 363.716 46.1313 363.311C46.536 362.702 46.9407 362.499 47.3453 362.905L47.5477 363.311Z" fill="#573493"/>
<path fill-rule="evenodd" clip-rule="evenodd" d="M50.5825 369.598C50.5825 368.584 49.3685 368.787 48.9639 369.396C49.5709 369.396 50.1778 369.598 50.5825 369.598Z" fill="#573493"/>
<path fill-rule="evenodd" clip-rule="evenodd" d="M42.6916 377.509C41.68 377.915 41.4777 376.698 42.287 376.292C42.6916 376.495 42.4893 376.698 42.6916 376.9V377.509Z" fill="#573493"/>
<path fill-rule="evenodd" clip-rule="evenodd" d="M52.6056 377.509C54.4265 377.306 52.6056 375.481 51.3916 376.495C51.5939 376.901 51.9986 376.901 52.4033 376.901L52.6056 377.509Z" fill="#573493"/>
<path fill-rule="evenodd" clip-rule="evenodd" d="M72.434 365.948C72.2317 365.339 71.827 365.136 71.4224 365.542C71.6247 365.948 71.827 365.948 72.434 365.948Z" fill="#573493"/>
<path fill-rule="evenodd" clip-rule="evenodd" d="M71.6248 402.255C71.8271 402.458 71.8271 402.458 71.6248 402.255C71.0178 402.255 71.0178 402.255 70.8154 402.661C71.2201 402.863 71.4224 402.661 71.6248 402.458V402.255Z" fill="#573493"/>
<path fill-rule="evenodd" clip-rule="evenodd" d="M68.1852 411.788C68.1852 411.991 67.9828 412.194 67.9828 412.599C67.3759 412.599 66.9712 412.194 66.9712 411.585C67.5782 411.179 67.5782 411.382 67.7805 411.788H68.1852Z" fill="#573493"/>
<path fill-rule="evenodd" clip-rule="evenodd" d="M80.7297 406.514C81.1344 405.703 80.7297 405.297 79.9204 405.906C80.1227 406.109 80.5274 406.717 80.7297 406.717V406.514Z" fill="#573493"/>
<path fill-rule="evenodd" clip-rule="evenodd" d="M50.5824 416.25C50.5824 416.859 50.1778 417.467 49.5708 417.873C49.7731 417.264 49.9755 416.25 50.5824 416.25Z" fill="#573493"/>
<path fill-rule="evenodd" clip-rule="evenodd" d="M39.4542 344.041C39.2519 344.65 39.4542 345.461 39.4542 346.273C39.8588 345.867 41.8821 344.447 41.8821 343.839C41.8821 342.216 40.0612 342.622 39.4542 343.636V344.041Z" fill="#636BDE"/>
<path fill-rule="evenodd" clip-rule="evenodd" d="M43.0965 335.117C42.6918 335.117 42.8941 335.522 42.2871 335.32C43.7035 333.697 44.9174 337.145 44.9174 338.362C43.9058 338.768 40.2638 338.565 39.6569 337.551C39.0499 336.131 41.4778 334.711 42.6918 334.305L43.0965 335.117Z" fill="#636BDE"/>
<path fill-rule="evenodd" clip-rule="evenodd" d="M54.4266 337.956C54.8313 338.565 55.236 338.768 55.8429 337.956C55.4383 337.551 54.8313 337.348 54.022 337.145L54.4266 337.956Z" fill="#636BDE"/>
<path fill-rule="evenodd" clip-rule="evenodd" d="M4.24902 365.948C4.85601 366.962 6.27232 366.353 7.08164 365.542C6.27232 364.731 5.26067 365.339 4.85601 366.353L4.24902 365.948Z" fill="#636BDE"/>
<path fill-rule="evenodd" clip-rule="evenodd" d="M8.90241 359.051C8.90241 357.834 9.5094 357.631 10.521 358.037C10.521 359.254 9.5094 359.66 8.29542 359.457C8.09309 359.051 8.49775 359.051 8.49775 358.848L8.90241 359.051Z" fill="#636BDE"/>
<path fill-rule="evenodd" clip-rule="evenodd" d="M75.8739 361.282C75.0646 361.688 74.2552 362.499 73.8506 363.514C76.4809 364.122 79.7182 363.716 79.9205 360.471C78.5042 360.268 76.6832 360.877 75.6716 361.891V361.282H75.8739Z" fill="#636BDE"/>
<path fill-rule="evenodd" clip-rule="evenodd" d="M65.9597 345.664C66.3643 345.258 67.5783 344.853 68.1853 345.867C67.5783 346.273 66.5666 346.273 65.7573 346.273L65.9597 345.664Z" fill="#636BDE"/>
<path fill-rule="evenodd" clip-rule="evenodd" d="M89.2275 339.173C89.8345 337.956 91.4532 337.754 92.0602 338.768C91.2508 339.173 90.4415 339.173 89.6322 338.768L89.2275 339.173Z" fill="#636BDE"/>
<path fill-rule="evenodd" clip-rule="evenodd" d="M115.126 369.599C117.351 370.816 114.721 372.641 114.316 370.004L115.126 369.599Z" fill="#636BDE"/>
<path fill-rule="evenodd" clip-rule="evenodd" d="M41.0731 368.382C40.8708 366.759 41.8825 364.731 43.2988 363.919C42.8941 365.339 41.8825 366.759 41.0731 368.179V368.382Z" fill="#636BDE"/>
<path fill-rule="evenodd" clip-rule="evenodd" d="M32.5749 366.759C32.7772 366.353 33.9912 367.165 35.0028 367.773C33.9912 367.773 32.9795 367.773 32.3726 367.367L32.5749 366.759Z" fill="#636BDE"/>
<path fill-rule="evenodd" clip-rule="evenodd" d="M47.3454 353.777C47.3454 353.169 47.5477 354.386 47.5477 354.589C48.357 354.386 48.5593 354.589 49.1663 354.589C48.357 356.211 46.536 355.197 46.9407 353.98L47.3454 353.777Z" fill="#636BDE"/>
<path fill-rule="evenodd" clip-rule="evenodd" d="M0.202341 328.423C0.202341 328.423 -0.202318 328.423 1.16937e-05 329.437C4.65359 330.654 1.01166 322.338 0.202341 328.423Z" fill="#636BDE"/>
<path fill-rule="evenodd" clip-rule="evenodd" d="M122.005 348.909C121.398 347.489 124.028 346.678 124.23 348.504C124.433 349.721 122.409 350.532 121.6 349.923L122.005 348.909Z" fill="#636BDE"/>
<path fill-rule="evenodd" clip-rule="evenodd" d="M117.554 333.088C117.756 332.885 117.958 332.885 118.161 332.48C117.756 332.885 117.958 333.494 117.756 333.9C120.184 334.914 120.589 331.668 117.958 332.074L117.554 333.088Z" fill="#636BDE"/>
<path fill-rule="evenodd" clip-rule="evenodd" d="M127.67 322.744C127.265 321.933 127.468 320.919 127.872 320.107C128.682 320.513 129.491 320.919 130.098 321.527C129.289 322.338 128.075 322.338 127.063 322.338L127.67 322.744Z" fill="#636BDE"/>
<path fill-rule="evenodd" clip-rule="evenodd" d="M116.542 327.003C115.733 327.612 116.744 328.22 117.958 328.018C117.756 327.206 117.149 326.801 116.339 326.801L116.542 327.003Z" fill="#636BDE"/>
<path fill-rule="evenodd" clip-rule="evenodd" d="M148.308 360.674C150.331 359.863 149.32 362.499 148.51 363.311C147.499 362.905 147.499 362.297 147.903 361.282L148.308 360.674Z" fill="#636BDE"/>
<path fill-rule="evenodd" clip-rule="evenodd" d="M149.522 344.041C149.724 343.838 148.915 344.853 148.712 345.055C149.319 345.664 149.926 345.664 150.736 345.258C150.533 344.853 150.129 344.65 149.724 344.244L149.522 344.041Z" fill="#636BDE"/>
<path fill-rule="evenodd" clip-rule="evenodd" d="M105.414 364.528C105.818 363.108 106.83 363.513 106.628 364.933C106.223 365.136 105.818 364.933 105.414 364.73V364.528Z" fill="#636BDE"/>
<path fill-rule="evenodd" clip-rule="evenodd" d="M39.4545 378.726C39.4545 378.118 39.0498 377.712 40.0615 377.712C40.2638 378.726 39.8591 378.726 39.0498 378.929L39.4545 378.726Z" fill="#636BDE"/>
<path fill-rule="evenodd" clip-rule="evenodd" d="M27.3144 366.759C28.5283 368.584 23.2678 368.99 23.0654 366.15C23.0654 363.311 26.7074 365.339 27.3144 366.759Z" fill="#573493"/>
<path fill-rule="evenodd" clip-rule="evenodd" d="M24.6844 370.816C24.482 370.613 24.2797 370.41 24.0774 370.207C23.2681 370.613 23.6727 371.83 24.482 371.221L24.6844 370.816Z" fill="#573493"/>
<path fill-rule="evenodd" clip-rule="evenodd" d="M42.0844 322.947C37.8355 324.164 41.2751 319.701 41.6797 322.338L42.0844 322.947Z" fill="#573493"/>
<path fill-rule="evenodd" clip-rule="evenodd" d="M37.0263 323.555C37.2286 322.947 36.0146 322.947 36.0146 323.352C36.0146 324.164 36.6216 324.164 37.2286 323.758L37.0263 323.555Z" fill="#573493"/>
<path fill-rule="evenodd" clip-rule="evenodd" d="M33.5866 320.107C31.3609 320.513 32.5749 318.282 33.5866 319.702V320.107Z" fill="#573493"/>
<path fill-rule="evenodd" clip-rule="evenodd" d="M19.8281 319.499C19.4235 318.89 18.4118 319.296 18.2095 319.904C18.6141 320.513 19.2211 320.107 19.6258 319.499H19.8281Z" fill="#573493"/>
<path fill-rule="evenodd" clip-rule="evenodd" d="M16.7934 323.961C16.7934 324.569 16.3887 324.772 15.7817 324.569C15.7817 323.758 16.3887 323.555 17.198 323.758C17.198 323.961 16.9957 323.961 16.7934 323.961Z" fill="#573493"/>
<path fill-rule="evenodd" clip-rule="evenodd" d="M2.02324 319.093C1.82091 319.296 1.01159 318.89 0.606934 318.484C1.21392 318.484 1.82091 318.484 2.22557 318.89L2.02324 319.093Z" fill="#573493"/>
<path fill-rule="evenodd" clip-rule="evenodd" d="M22.2563 343.23C22.2563 343.23 22.4586 343.23 22.4586 342.622C19.4237 341.607 21.6493 346.881 22.2563 343.23Z" fill="#573493"/>
<path fill-rule="evenodd" clip-rule="evenodd" d="M32.5752 332.48C31.9682 332.683 31.3612 332.277 30.9565 331.669C31.7659 330.655 32.5752 332.074 33.5868 332.074C33.5868 332.277 33.5868 332.48 33.3845 332.886C32.9798 333.089 32.9798 332.886 32.7775 332.683L32.5752 332.48Z" fill="#573493"/>
<path fill-rule="evenodd" clip-rule="evenodd" d="M49.9755 321.933C50.5824 321.527 51.1894 320.918 51.5941 320.31C50.9871 319.701 49.9755 319.701 49.1661 319.499C48.7615 320.716 47.7498 322.135 49.9755 321.933Z" fill="#573493"/>
<path fill-rule="evenodd" clip-rule="evenodd" d="M53.8196 317.673C53.8196 318.079 52.808 318.079 52.4033 317.673C52.808 317.065 53.2126 316.862 53.6173 317.267L53.8196 317.673Z" fill="#573493"/>
<path fill-rule="evenodd" clip-rule="evenodd" d="M57.0571 324.164C57.0571 323.15 55.8431 323.352 55.4385 323.961C56.0455 323.961 56.4501 323.961 57.0571 324.164Z" fill="#573493"/>
<path fill-rule="evenodd" clip-rule="evenodd" d="M48.9636 332.074C47.952 332.48 47.7496 331.263 48.559 330.857C48.9636 331.06 48.7613 331.263 48.9636 331.466V332.074Z" fill="#573493"/>
<path fill-rule="evenodd" clip-rule="evenodd" d="M58.878 332.074C60.699 331.871 58.878 330.046 57.6641 331.06C57.8664 331.466 58.2711 331.466 58.6757 331.466L58.878 332.074Z" fill="#573493"/>
<path fill-rule="evenodd" clip-rule="evenodd" d="M78.7065 320.31C78.5041 319.701 78.0995 319.498 77.6948 319.904C77.8972 320.513 78.3018 320.31 78.7065 320.31Z" fill="#573493"/>
<path fill-rule="evenodd" clip-rule="evenodd" d="M78.0994 356.82C78.0994 356.82 78.0994 357.023 78.0994 356.82C77.4924 356.82 77.4924 356.82 77.29 357.226C77.6947 357.429 77.897 357.226 78.0994 357.023V356.82Z" fill="#573493"/>
<path fill-rule="evenodd" clip-rule="evenodd" d="M74.6598 366.353C74.6598 366.556 74.4574 366.759 74.4574 367.164C73.8505 367.164 73.4458 366.759 73.4458 366.15C74.0528 365.745 74.0528 365.947 74.2551 366.353H74.6598Z" fill="#573493"/>
<path fill-rule="evenodd" clip-rule="evenodd" d="M87.0017 361.079C87.4064 360.268 87.0017 359.862 86.1924 360.471C86.3947 360.674 86.7994 361.282 87.0017 361.282V361.079Z" fill="#573493"/>
<path fill-rule="evenodd" clip-rule="evenodd" d="M57.0571 370.815C57.0571 371.424 56.6524 372.032 56.0454 372.438C56.0454 371.83 56.4501 370.815 57.0571 370.815Z" fill="#573493"/>
<path fill-rule="evenodd" clip-rule="evenodd" d="M208.602 383.797C207.995 385.014 206.377 385.217 205.77 384.203C206.579 383.797 207.388 383.797 208.197 384.203L208.602 383.797Z" fill="#636BDE"/>
<path fill-rule="evenodd" clip-rule="evenodd" d="M182.906 353.372C180.68 352.155 183.311 350.329 183.715 352.966L182.906 353.372Z" fill="#636BDE"/>
<path fill-rule="evenodd" clip-rule="evenodd" d="M176.027 374.264C176.634 375.684 174.004 376.495 173.801 374.669C173.599 373.452 175.622 372.641 176.431 373.25L176.027 374.264Z" fill="#636BDE"/>
<path fill-rule="evenodd" clip-rule="evenodd" d="M180.276 390.085C180.074 390.287 179.871 390.287 179.669 390.693C180.074 390.287 179.871 389.679 180.074 389.273C177.646 388.259 177.241 391.504 179.871 391.099L180.276 390.085Z" fill="#636BDE"/>
<path fill-rule="evenodd" clip-rule="evenodd" d="M170.362 400.429C170.766 401.241 170.564 402.255 170.159 403.066C169.35 402.66 168.541 402.255 167.934 401.646C168.743 400.835 169.957 400.835 170.969 400.835L170.362 400.429Z" fill="#636BDE"/>
<path fill-rule="evenodd" clip-rule="evenodd" d="M181.287 396.17C182.097 395.561 181.085 394.953 179.871 395.156C180.073 395.967 180.68 396.373 181.49 396.373L181.287 396.17Z" fill="#636BDE"/>
<path fill-rule="evenodd" clip-rule="evenodd" d="M149.522 362.297C147.499 363.108 148.51 360.471 149.32 359.66C150.331 360.065 150.331 360.674 149.927 361.688L149.522 362.297Z" fill="#636BDE"/>
<path fill-rule="evenodd" clip-rule="evenodd" d="M148.308 379.132C148.105 379.335 148.915 378.32 149.117 378.118C148.51 377.509 147.903 377.509 147.094 377.915C147.296 378.32 147.701 378.523 148.105 378.929L148.308 379.132Z" fill="#636BDE"/>
<path fill-rule="evenodd" clip-rule="evenodd" d="M192.416 358.645C192.011 360.065 190.999 359.66 191.202 358.24C191.606 358.037 192.011 358.24 192.416 358.443V358.645Z" fill="#636BDE"/>
<path fill-rule="evenodd" clip-rule="evenodd" d="M210.828 362.094C210.423 362.905 210.828 363.311 211.637 362.702C211.435 362.499 211.03 361.891 210.828 361.891V362.094Z" fill="#573493"/>
<path fill-rule="evenodd" clip-rule="evenodd" d="M115.935 377.915C116.137 377.306 115.935 376.495 115.935 375.683C115.53 376.089 113.507 377.509 113.507 378.117C113.507 379.74 115.328 379.334 115.935 378.32V377.915Z" fill="#636BDE"/>
<path fill-rule="evenodd" clip-rule="evenodd" d="M112.091 386.839C112.495 386.839 112.293 386.434 112.9 386.637C111.484 388.259 110.27 384.811 110.27 383.594C111.281 383.188 114.923 383.391 115.53 384.405C116.137 385.825 113.709 387.245 112.495 387.651L112.091 386.839Z" fill="#636BDE"/>
<path fill-rule="evenodd" clip-rule="evenodd" d="M100.76 383.797C100.355 383.188 99.9507 382.986 99.3438 383.797C99.7484 384.203 100.355 384.405 101.165 384.608L100.76 383.797Z" fill="#636BDE"/>
<path fill-rule="evenodd" clip-rule="evenodd" d="M151.14 356.009C150.533 354.994 149.117 355.603 148.308 356.414C149.117 357.226 150.129 356.617 150.533 355.603L151.14 356.009Z" fill="#636BDE"/>
<path fill-rule="evenodd" clip-rule="evenodd" d="M146.487 362.905C146.487 364.122 145.88 364.325 144.868 363.919C144.868 362.702 145.88 362.296 147.094 362.499C147.296 362.905 146.891 362.905 146.891 363.108L146.487 362.905Z" fill="#636BDE"/>
<path fill-rule="evenodd" clip-rule="evenodd" d="M79.5153 360.674C80.3247 360.268 81.134 359.457 81.5386 358.443C78.9084 357.834 75.6711 358.24 75.4688 361.485C76.8851 361.688 78.706 361.079 79.7177 360.065V360.674H79.5153Z" fill="#636BDE"/>
<path fill-rule="evenodd" clip-rule="evenodd" d="M89.2276 376.089C88.8229 376.495 87.6089 376.901 87.002 375.886C87.6089 375.481 88.6206 375.481 89.4299 375.481L89.2276 376.089Z" fill="#636BDE"/>
<path fill-rule="evenodd" clip-rule="evenodd" d="M66.1617 382.58C65.5547 383.797 63.9361 384 63.3291 382.985C64.1384 382.58 64.9477 382.58 65.7571 382.985L66.1617 382.58Z" fill="#636BDE"/>
<path fill-rule="evenodd" clip-rule="evenodd" d="M40.2638 352.155C38.0381 350.938 40.6684 349.112 41.0731 351.749L40.2638 352.155Z" fill="#636BDE"/>
<path fill-rule="evenodd" clip-rule="evenodd" d="M114.114 353.372C114.316 354.994 113.304 357.023 111.888 357.834C112.293 356.414 113.305 354.994 114.114 353.575V353.372Z" fill="#636BDE"/>
<path fill-rule="evenodd" clip-rule="evenodd" d="M122.814 355.197C122.612 355.603 121.398 354.792 120.386 354.183C121.398 354.183 122.41 354.183 123.017 354.589L122.814 355.197Z" fill="#636BDE"/>
<path fill-rule="evenodd" clip-rule="evenodd" d="M108.044 367.976C108.044 368.584 107.842 367.367 107.842 367.165C107.032 367.367 106.83 367.165 106.223 367.165C107.032 365.542 108.853 366.556 108.449 367.773L108.044 367.976Z" fill="#636BDE"/>
<path fill-rule="evenodd" clip-rule="evenodd" d="M154.984 393.533C154.984 393.533 155.389 393.533 155.187 392.519C150.533 391.099 154.175 399.618 154.984 393.533Z" fill="#636BDE"/>
<path fill-rule="evenodd" clip-rule="evenodd" d="M33.3843 373.047C33.9913 374.467 31.361 375.278 31.1587 373.452C30.9563 372.235 32.9796 371.424 33.789 372.033L33.3843 373.047Z" fill="#636BDE"/>
<path fill-rule="evenodd" clip-rule="evenodd" d="M37.8356 388.868C37.6332 389.071 37.4309 389.071 37.2286 389.476C37.6332 389.071 37.4309 388.462 37.6332 388.056C35.2053 387.042 34.8006 390.288 37.4309 389.882L37.8356 388.868Z" fill="#636BDE"/>
<path fill-rule="evenodd" clip-rule="evenodd" d="M27.719 399.212C28.1236 400.023 27.9213 401.038 27.5166 401.849C26.7073 401.443 25.898 401.038 25.291 400.429C26.1003 399.618 27.3143 399.618 28.326 399.618L27.719 399.212Z" fill="#636BDE"/>
<path fill-rule="evenodd" clip-rule="evenodd" d="M38.8475 394.953C39.6568 394.344 38.6451 393.736 37.4312 393.939C37.6335 394.75 38.2405 395.156 39.0498 395.156L38.8475 394.953Z" fill="#636BDE"/>
<path fill-rule="evenodd" clip-rule="evenodd" d="M7.08148 361.079C5.05818 361.891 6.06983 359.254 6.87915 358.443C7.8908 358.848 7.8908 359.457 7.48614 360.471L7.08148 361.079Z" fill="#636BDE"/>
<path fill-rule="evenodd" clip-rule="evenodd" d="M5.66515 377.915C5.46282 378.117 6.27214 377.103 6.47447 376.9C5.86748 376.292 5.26049 376.292 4.45117 376.698C4.6535 377.103 5.05816 377.306 5.46282 377.712L5.66515 377.915Z" fill="#636BDE"/>
<path fill-rule="evenodd" clip-rule="evenodd" d="M49.7731 357.428C49.3685 358.848 48.3568 358.443 48.5592 357.023C48.9638 356.82 49.3685 357.023 49.7731 357.226V357.428Z" fill="#636BDE"/>
<path fill-rule="evenodd" clip-rule="evenodd" d="M67.7806 403.878C67.1736 404.08 66.3643 404.486 65.7573 404.892C66.162 405.095 68.5899 406.312 68.9946 405.906C70.4109 405.095 69.1969 403.675 68.1853 403.675L67.7806 403.878Z" fill="#636BDE"/>
<path fill-rule="evenodd" clip-rule="evenodd" d="M77.2898 403.066C77.0874 402.66 76.8851 403.066 76.6828 402.458C78.9084 403.066 76.2781 405.5 75.2665 406.109C74.4571 405.5 72.8385 402.052 73.6478 401.038C74.6595 399.821 77.0874 401.443 77.8968 402.255L77.2898 403.066Z" fill="#636BDE"/>
<path fill-rule="evenodd" clip-rule="evenodd" d="M79.9201 414.425C79.7178 415.033 79.5154 415.439 80.5271 415.845C80.7294 415.236 80.7294 414.628 80.3247 414.019L79.9201 414.425Z" fill="#636BDE"/>
<path fill-rule="evenodd" clip-rule="evenodd" d="M93.2742 337.348C94.8928 334.508 99.344 341.405 95.2974 343.839C91.4532 346.07 91.6555 339.376 93.0718 337.551L93.2742 337.348Z" fill="#636BDE"/>
<path fill-rule="evenodd" clip-rule="evenodd" d="M100.962 337.957C100.76 338.362 100.558 338.768 100.558 339.376C101.772 340.188 103.39 338.768 101.569 338.159L100.962 337.957Z" fill="#636BDE"/>
<path fill-rule="evenodd" clip-rule="evenodd" d="M20.4351 348.301C25.0887 353.372 16.3885 351.952 19.8281 349.112L20.4351 348.301Z" fill="#636BDE"/>
<path fill-rule="evenodd" clip-rule="evenodd" d="M25.0888 354.792C24.0772 354.792 24.8865 356.617 25.4935 356.211C26.7075 355.603 26.3028 354.589 25.0888 354.183V354.792Z" fill="#636BDE"/>
<path fill-rule="evenodd" clip-rule="evenodd" d="M22.6607 362.297C24.8864 365.136 20.6374 365.136 22.0537 362.702L22.6607 362.297Z" fill="#636BDE"/>
<path fill-rule="evenodd" clip-rule="evenodd" d="M32.1705 382.377C31.5635 383.188 32.7775 384.405 33.7892 384.608C34.1938 383.594 33.1822 382.985 32.1705 382.985V382.377Z" fill="#636BDE"/>
<path fill-rule="evenodd" clip-rule="evenodd" d="M40.2637 383.391C41.2754 382.986 41.8824 383.391 41.8824 384.405C40.8707 385.014 40.0614 384.203 39.6567 383.188C40.0614 382.783 40.0614 382.986 40.4661 382.986L40.2637 383.391Z" fill="#636BDE"/>
<path fill-rule="evenodd" clip-rule="evenodd" d="M78.3018 428.218C78.9088 428.42 79.7181 429.232 79.1111 430.246C78.5041 429.84 77.8972 429.029 77.6948 428.218H78.3018Z" fill="#636BDE"/>
<path fill-rule="evenodd" clip-rule="evenodd" d="M46.7383 416.453C47.9523 415.642 50.3802 415.642 51.5942 416.453C49.9756 416.656 48.3569 416.453 46.9406 416.453H46.7383Z" fill="#636BDE"/>
<path fill-rule="evenodd" clip-rule="evenodd" d="M44.3101 407.934C44.7148 407.934 44.7148 409.354 44.5124 410.571C44.1078 409.76 43.7031 408.745 43.7031 407.934H44.3101Z" fill="#636BDE"/>
<path fill-rule="evenodd" clip-rule="evenodd" d="M62.5197 415.236C63.1267 414.83 62.1151 415.642 62.1151 415.845C62.722 416.453 62.5197 416.859 62.722 417.264C61.1034 417.264 61.1034 415.236 62.1151 415.033L62.5197 415.236Z" fill="#636BDE"/>
<path fill-rule="evenodd" clip-rule="evenodd" d="M63.5317 361.688C63.5317 361.688 63.3293 361.485 62.52 361.891C63.5317 366.759 69.3992 359.66 63.5317 361.688Z" fill="#636BDE"/>
<path fill-rule="evenodd" clip-rule="evenodd" d="M40.8705 354.792C41.6799 355.603 41.6799 356.82 41.0729 357.834C39.0496 357.631 40.4659 355.197 39.8589 353.778C40.2635 353.575 40.4659 353.372 41.0729 353.575C41.4775 353.98 41.2752 354.183 41.2752 354.589L40.8705 354.792Z" fill="#636BDE"/>
<path fill-rule="evenodd" clip-rule="evenodd" d="M36.8239 419.699C37.4309 419.293 37.6332 418.887 38.0379 419.901C37.2286 420.51 37.0262 420.104 36.6216 419.699H36.8239Z" fill="#636BDE"/>
<path fill-rule="evenodd" clip-rule="evenodd" d="M58.0685 361.688C58.4731 361.485 58.8778 361.282 59.2824 361.08C59.0801 360.877 57.6638 360.268 57.2591 360.471C56.4498 360.877 57.0568 361.891 57.8661 361.891L58.0685 361.688Z" fill="#573493"/>
<path fill-rule="evenodd" clip-rule="evenodd" d="M51.9989 362.296C51.9989 362.499 52.2012 362.296 52.4036 362.702C50.9872 362.296 52.6059 360.674 53.2129 360.268C53.6175 360.674 54.6292 362.702 54.2245 363.513C53.6175 364.325 52.2012 363.311 51.5942 362.702L51.9989 362.296Z" fill="#573493"/>
<path fill-rule="evenodd" clip-rule="evenodd" d="M50.3802 354.994C50.5826 354.589 50.5826 354.386 49.9756 354.183C49.9756 354.589 49.9756 354.994 49.9756 355.4L50.3802 354.994Z" fill="#573493"/>
<path fill-rule="evenodd" clip-rule="evenodd" d="M42.0847 403.472C41.073 405.297 38.2404 400.835 40.8707 399.415C43.0963 397.995 42.894 402.052 42.0847 403.472Z" fill="#573493"/>
<path fill-rule="evenodd" clip-rule="evenodd" d="M37.0263 402.863C37.2286 402.66 37.2286 402.255 37.2286 402.052C36.4193 401.646 35.4076 402.458 36.6216 402.66L37.0263 402.863Z" fill="#573493"/>
<path fill-rule="evenodd" clip-rule="evenodd" d="M87.6089 396.576C84.5739 393.33 90.2392 394.344 88.0135 395.967L87.6089 396.576Z" fill="#573493"/>
<path fill-rule="evenodd" clip-rule="evenodd" d="M84.574 392.316C85.181 392.316 84.7763 391.302 84.3717 391.302C83.5624 391.707 83.967 392.316 84.574 392.519V392.316Z" fill="#573493"/>
<path fill-rule="evenodd" clip-rule="evenodd" d="M86.1925 387.651C84.7762 385.825 87.4065 385.825 86.5972 387.448L86.1925 387.651Z" fill="#573493"/>
<path fill-rule="evenodd" clip-rule="evenodd" d="M80.3248 375.075C80.7294 374.467 79.9201 373.858 79.3131 373.655C79.1108 374.264 79.7178 374.669 80.3248 374.669V375.075Z" fill="#573493"/>
<path fill-rule="evenodd" clip-rule="evenodd" d="M75.0644 374.467C74.4574 374.669 74.0527 374.467 74.0527 373.858C74.6597 373.452 75.2667 373.858 75.469 374.669C75.2667 374.872 75.0644 374.669 75.0644 374.669V374.467Z" fill="#573493"/>
<path fill-rule="evenodd" clip-rule="evenodd" d="M57.2593 336.334C57.6639 336.74 58.4732 336.942 59.0802 336.74C58.6756 335.117 57.4616 333.291 55.6406 334.306C56.0453 335.117 56.6523 335.928 57.6639 336.131L57.2593 336.334Z" fill="#573493"/>
<path fill-rule="evenodd" clip-rule="evenodd" d="M51.3918 346.273C50.9871 346.273 50.5824 345.664 50.7848 345.056C51.1894 345.258 51.3918 345.867 51.5941 346.273H51.3918Z" fill="#573493"/>
<path fill-rule="evenodd" clip-rule="evenodd" d="M41.0731 335.32C40.2637 335.32 39.6568 334.508 40.0614 333.697C40.4661 334.103 40.6684 334.508 40.8707 335.117L41.0731 335.32Z" fill="#573493"/>
<path fill-rule="evenodd" clip-rule="evenodd" d="M71.0179 353.777C70.2085 354.386 68.7922 354.386 67.9829 353.777C68.9946 353.575 70.0062 353.777 71.0179 353.777Z" fill="#573493"/>
<path fill-rule="evenodd" clip-rule="evenodd" d="M72.6362 359.051C72.2316 359.051 72.4339 358.037 72.4339 357.428C72.8385 358.037 73.0409 358.443 72.8385 359.051H72.6362Z" fill="#573493"/>
<path fill-rule="evenodd" clip-rule="evenodd" d="M61.306 354.386C60.9014 354.589 61.5084 353.98 61.7107 353.98C61.306 353.575 61.5084 353.372 61.306 352.966C62.3177 352.966 62.3177 354.183 61.7107 354.386H61.306Z" fill="#573493"/>
<path fill-rule="evenodd" clip-rule="evenodd" d="M60.4964 388.056C60.4964 388.056 60.6988 388.259 61.1034 387.854C60.4964 384.811 57.0568 389.273 60.4964 388.056Z" fill="#573493"/>
<path fill-rule="evenodd" clip-rule="evenodd" d="M74.8621 392.519C74.2551 392.113 74.4574 391.302 74.8621 390.693C76.0761 390.896 75.2668 392.316 75.6714 393.33C75.4691 393.533 75.2668 393.533 74.8621 393.533C74.6598 393.33 74.6598 393.127 74.6598 392.924L74.8621 392.519Z" fill="#573493"/>
<path fill-rule="evenodd" clip-rule="evenodd" d="M92.0601 403.269C92.6671 403.675 93.4765 403.877 94.2858 404.08C94.4881 403.269 94.0835 402.255 93.8811 401.646C92.4648 401.443 90.8462 401.241 92.0601 403.269Z" fill="#573493"/>
<path fill-rule="evenodd" clip-rule="evenodd" d="M97.5231 404.689C97.1184 404.689 96.7138 404.08 96.9161 403.472C97.5231 403.472 97.9278 403.877 97.7254 404.486L97.5231 404.689Z" fill="#573493"/>
<path fill-rule="evenodd" clip-rule="evenodd" d="M93.274 410.368C94.0833 409.962 93.274 408.948 92.667 408.745C92.8693 409.354 93.0716 409.962 93.274 410.571V410.368Z" fill="#573493"/>
<path fill-rule="evenodd" clip-rule="evenodd" d="M82.7526 406.717C81.9433 406.109 82.9549 405.297 83.7643 405.906C83.7643 406.312 83.5619 406.312 83.3596 406.514L82.7526 406.717Z" fill="#573493"/>
<path fill-rule="evenodd" clip-rule="evenodd" d="M87.2041 415.642C88.2158 417.265 89.0251 414.831 87.4064 414.019C87.2041 414.425 87.4064 414.831 87.4064 415.236L87.2041 415.642Z" fill="#573493"/>
<path fill-rule="evenodd" clip-rule="evenodd" d="M77.2898 351.749C76.8851 351.952 76.8851 352.155 76.4805 351.546C76.8851 351.141 77.0875 351.343 77.4921 351.749H77.2898Z" fill="#573493"/>
<path fill-rule="evenodd" clip-rule="evenodd" d="M51.7966 431.666C51.1896 432.071 50.5826 431.869 49.9756 431.666C50.5826 431.26 51.5942 431.26 51.9989 431.869L51.7966 431.666Z" fill="#573493"/>
<path fill-rule="evenodd" clip-rule="evenodd" d="M110.877 388.665C110.27 388.868 109.461 389.273 108.854 389.679C109.258 389.882 111.686 391.099 112.091 390.693C113.507 389.882 112.293 388.462 111.281 388.462L110.877 388.665Z" fill="#636BDE"/>
<path fill-rule="evenodd" clip-rule="evenodd" d="M120.589 387.854C120.386 387.448 120.184 387.854 119.982 387.245C122.207 387.854 119.577 390.288 118.565 390.896C117.756 390.288 116.137 386.839 116.947 385.825C117.958 384.608 120.386 386.231 121.196 387.042L120.589 387.854Z" fill="#636BDE"/>
<path fill-rule="evenodd" clip-rule="evenodd" d="M123.016 399.212C122.814 399.821 122.612 400.226 123.623 400.632C123.826 400.024 123.826 399.415 123.421 398.807L123.016 399.212Z" fill="#636BDE"/>
<path fill-rule="evenodd" clip-rule="evenodd" d="M75.2667 367.367C74.6597 368.179 75.8737 369.396 76.8854 369.599C77.29 368.584 76.2784 367.976 75.2667 367.976V367.367Z" fill="#636BDE"/>
<path fill-rule="evenodd" clip-rule="evenodd" d="M83.5621 368.179C84.5737 367.773 85.1807 368.179 85.1807 369.193C84.1691 369.801 83.3597 368.99 82.9551 367.976C83.3597 367.57 83.3597 367.773 83.7644 367.773L83.5621 368.179Z" fill="#636BDE"/>
<path fill-rule="evenodd" clip-rule="evenodd" d="M90.0366 401.241C91.2506 400.429 93.6786 400.429 94.8925 401.241C93.2739 401.443 91.6553 401.241 90.2389 401.241H90.0366Z" fill="#636BDE"/>
<path fill-rule="evenodd" clip-rule="evenodd" d="M87.6089 392.924C88.0136 392.924 88.0136 394.344 87.8113 395.561C87.4066 394.75 87.002 393.736 87.002 392.924H87.6089Z" fill="#636BDE"/>
<path fill-rule="evenodd" clip-rule="evenodd" d="M105.819 400.227C106.426 399.821 105.414 400.632 105.414 400.835C106.021 401.444 105.819 401.849 106.021 402.255C104.402 402.255 104.402 400.227 105.414 400.024L105.819 400.227Z" fill="#636BDE"/>
<path fill-rule="evenodd" clip-rule="evenodd" d="M106.83 346.678C106.83 346.678 106.628 346.475 105.818 346.881C106.83 351.749 112.495 344.65 106.83 346.678Z" fill="#636BDE"/>
<path fill-rule="evenodd" clip-rule="evenodd" d="M80.1227 404.486C80.7297 404.08 80.9321 403.675 81.3367 404.689C80.5274 405.298 80.3251 404.892 79.9204 404.486H80.1227Z" fill="#636BDE"/>
<path fill-rule="evenodd" clip-rule="evenodd" d="M101.165 346.475C101.569 346.273 101.974 346.07 102.379 345.867C102.176 345.664 100.76 345.056 100.355 345.258C99.546 345.664 100.153 346.678 100.962 346.678L101.165 346.475Z" fill="#573493"/>
<path fill-rule="evenodd" clip-rule="evenodd" d="M95.2972 347.084C95.2972 347.287 95.4996 347.084 95.7019 347.49C94.2856 347.084 95.9042 345.461 96.5112 345.056C96.9159 345.461 97.9275 347.49 97.5229 348.301C96.9159 349.112 95.4996 348.098 94.8926 347.49L95.2972 347.084Z" fill="#573493"/>
<path fill-rule="evenodd" clip-rule="evenodd" d="M85.1809 388.259C84.1692 390.085 81.3366 385.622 83.9669 384.203C86.3948 382.783 86.1925 387.042 85.1809 388.259Z" fill="#573493"/>
<path fill-rule="evenodd" clip-rule="evenodd" d="M80.3251 387.854C80.5274 387.651 80.5274 387.245 80.5274 387.042C79.7181 386.637 78.7064 387.448 79.9204 387.651L80.3251 387.854Z" fill="#573493"/>
<path fill-rule="evenodd" clip-rule="evenodd" d="M103.795 372.844C103.795 372.844 103.998 373.047 104.402 372.641C103.795 369.801 100.153 374.264 103.795 372.844Z" fill="#573493"/>
<path fill-rule="evenodd" clip-rule="evenodd" d="M117.958 377.306C117.351 376.901 117.554 376.089 117.958 375.481C119.172 375.684 118.363 377.103 118.768 378.118C118.565 378.32 118.363 378.32 117.958 378.32C117.756 378.118 117.756 377.915 117.756 377.712L117.958 377.306Z" fill="#573493"/>
<path fill-rule="evenodd" clip-rule="evenodd" d="M125.849 391.708C125.04 391.099 126.052 390.288 126.861 390.896C126.861 391.302 126.659 391.302 126.456 391.505L125.849 391.708Z" fill="#573493"/>
<path fill-rule="evenodd" clip-rule="evenodd" d="M130.502 400.429C131.514 402.052 132.323 399.618 130.705 398.807C130.502 399.212 130.705 399.618 130.705 400.024L130.502 400.429Z" fill="#573493"/>
<path fill-rule="evenodd" clip-rule="evenodd" d="M95.0949 416.656C94.4879 417.062 93.8809 416.859 93.2739 416.656C93.8809 416.25 94.8926 416.25 95.2972 416.859L95.0949 416.656Z" fill="#573493"/>
<path fill-rule="evenodd" clip-rule="evenodd" d="M88.8225 430.043C87.6086 430.043 86.5969 428.826 87.2039 427.609C87.8109 428.015 88.2155 428.826 88.4179 429.84L88.8225 430.043Z" fill="#636BDE"/>
<path fill-rule="evenodd" clip-rule="evenodd" d="M103.998 393.127C103.998 390.491 107.033 392.113 104.807 393.533L103.998 393.127Z" fill="#636BDE"/>
<path fill-rule="evenodd" clip-rule="evenodd" d="M82.3482 396.575C81.3366 397.793 79.5156 395.764 80.9319 394.75C81.9436 394.141 83.5622 395.358 83.3599 396.575H82.3482Z" fill="#636BDE"/>
<path fill-rule="evenodd" clip-rule="evenodd" d="M70.4108 407.731C70.0062 407.731 70.0062 407.325 69.6015 407.528C70.2085 407.528 70.6132 407.325 71.0178 407.325C70.8155 404.689 67.7806 405.906 69.3992 407.934L70.4108 407.731Z" fill="#636BDE"/>
<path fill-rule="evenodd" clip-rule="evenodd" d="M56.6521 403.472C56.0451 404.283 55.0334 404.486 54.2241 404.486C54.2241 403.675 54.2241 402.66 54.4265 401.849C55.4381 402.255 56.0451 403.269 56.6521 404.283V403.472Z" fill="#636BDE"/>
<path fill-rule="evenodd" clip-rule="evenodd" d="M65.3523 411.382C66.364 411.788 66.364 410.571 65.5547 409.76C64.9477 410.368 64.9477 410.977 65.3523 411.788V411.382Z" fill="#636BDE"/>
<path fill-rule="evenodd" clip-rule="evenodd" d="M80.932 367.57C79.3133 366.15 82.1459 365.948 83.1576 366.15C83.1576 367.165 82.7529 367.57 81.7413 367.57H80.932Z" fill="#636BDE"/>
<path fill-rule="evenodd" clip-rule="evenodd" d="M65.3527 374.061C65.1504 374.061 66.3644 374.264 66.5667 374.264C66.769 373.452 66.5667 372.844 65.7574 372.438C65.3527 372.844 65.3527 373.25 65.3527 373.655V374.061Z" fill="#636BDE"/>
<path fill-rule="evenodd" clip-rule="evenodd" d="M103.795 404.08C102.379 404.486 102.177 403.269 103.593 402.863C103.998 403.269 103.998 403.472 103.998 404.08H103.795Z" fill="#636BDE"/>
<path fill-rule="evenodd" clip-rule="evenodd" d="M115.935 343.027C115.935 343.636 116.34 344.041 115.328 344.041C115.126 343.027 115.53 343.027 116.34 342.824L115.935 343.027Z" fill="#636BDE"/>
<path fill-rule="evenodd" clip-rule="evenodd" d="M157.615 388.462C157.615 388.868 157.615 389.476 157.615 389.882C157.817 389.679 159.233 388.665 159.233 388.259C159.233 387.245 158.019 387.448 157.615 388.056V388.462Z" fill="#573493"/>
<path fill-rule="evenodd" clip-rule="evenodd" d="M159.84 382.985C159.638 382.985 159.638 383.188 159.436 383.188C160.245 382.174 161.054 384.405 161.054 385.014C160.447 385.217 158.222 385.217 157.817 384.405C157.412 383.391 159.031 382.58 159.638 382.377L159.84 382.985Z" fill="#573493"/>
<path fill-rule="evenodd" clip-rule="evenodd" d="M127.873 355.197C126.659 353.372 131.919 352.966 132.121 355.806C132.324 358.645 128.682 356.617 127.873 355.197Z" fill="#573493"/>
<path fill-rule="evenodd" clip-rule="evenodd" d="M130.502 350.938C130.705 351.141 130.907 351.343 131.109 351.546C131.919 351.141 131.514 349.924 130.705 350.532L130.502 350.938Z" fill="#573493"/>
<path fill-rule="evenodd" clip-rule="evenodd" d="M113.103 399.01C117.351 397.793 113.912 402.255 113.507 399.618L113.103 399.01Z" fill="#573493"/>
<path fill-rule="evenodd" clip-rule="evenodd" d="M118.16 398.198C117.958 398.807 119.172 398.807 119.172 398.401C119.172 397.59 118.565 397.59 117.958 397.995L118.16 398.198Z" fill="#573493"/>
<path fill-rule="evenodd" clip-rule="evenodd" d="M121.6 401.849C123.826 401.444 122.612 403.675 121.6 402.255V401.849Z" fill="#573493"/>
<path fill-rule="evenodd" clip-rule="evenodd" d="M135.561 402.255C135.966 402.863 136.977 402.458 137.18 401.849C136.775 401.241 136.168 401.646 135.763 402.255H135.561Z" fill="#573493"/>
<path fill-rule="evenodd" clip-rule="evenodd" d="M138.393 397.995C138.393 397.387 138.798 397.184 139.405 397.387C139.405 398.198 138.798 398.401 137.989 398.198C137.989 397.995 138.191 397.995 138.393 397.995Z" fill="#573493"/>
<path fill-rule="evenodd" clip-rule="evenodd" d="M158.627 403.878C158.424 402.863 159.234 401.646 160.043 401.038C159.841 402.052 159.234 402.863 158.627 403.878Z" fill="#573493"/>
<path fill-rule="evenodd" clip-rule="evenodd" d="M153.366 402.66C153.568 402.458 154.378 402.863 154.782 403.269C154.175 403.269 153.568 403.269 153.164 402.863L153.366 402.66Z" fill="#573493"/>
<path fill-rule="evenodd" clip-rule="evenodd" d="M133.133 378.726C133.133 378.726 132.931 378.726 132.931 379.335C135.966 380.146 133.538 374.872 133.133 378.726Z" fill="#573493"/>
<path fill-rule="evenodd" clip-rule="evenodd" d="M122.612 389.476C123.219 389.273 123.826 389.679 124.23 390.288C123.421 391.302 122.612 389.882 121.6 389.882C121.6 389.679 121.6 389.476 121.802 389.071C122.207 388.868 122.207 389.071 122.409 389.273L122.612 389.476Z" fill="#573493"/>
<path fill-rule="evenodd" clip-rule="evenodd" d="M43.703 313.414C43.096 311.994 45.7263 311.183 45.9286 313.008C46.131 314.225 44.1077 315.036 43.2983 314.428L43.703 313.414Z" fill="#636BDE"/>
<path fill-rule="evenodd" clip-rule="evenodd" d="M39.252 297.593C39.4543 297.39 39.6566 297.39 39.8589 296.984C39.4543 297.39 39.6566 297.998 39.4543 298.404C41.8822 299.418 42.2869 296.173 39.6566 296.579L39.252 297.593Z" fill="#636BDE"/>
<path fill-rule="evenodd" clip-rule="evenodd" d="M49.3682 287.248C48.9636 286.437 49.1659 285.422 49.5705 284.611C50.3799 285.017 51.1892 285.422 51.7962 286.031C50.9869 286.842 49.7729 286.842 48.7612 286.842L49.3682 287.248Z" fill="#636BDE"/>
<path fill-rule="evenodd" clip-rule="evenodd" d="M38.2401 291.508C37.4307 292.116 38.4424 292.725 39.6564 292.522C39.454 291.71 38.8471 291.305 38.0377 291.305L38.2401 291.508Z" fill="#636BDE"/>
<path fill-rule="evenodd" clip-rule="evenodd" d="M70.0061 325.381C72.0294 324.569 71.0177 327.206 70.2084 328.018C69.1968 327.612 69.1968 327.003 69.6014 325.989L70.0061 325.381Z" fill="#636BDE"/>
<path fill-rule="evenodd" clip-rule="evenodd" d="M71.4226 308.545C71.6249 308.343 70.8156 309.357 70.6133 309.56C71.2203 310.168 71.8273 310.168 72.6366 309.762C72.4342 309.357 72.0296 309.154 71.6249 308.748L71.4226 308.545Z" fill="#636BDE"/>
<path fill-rule="evenodd" clip-rule="evenodd" d="M43.0964 288.668C45.3221 289.885 42.6918 291.71 42.2871 289.073L43.0964 288.668Z" fill="#636BDE"/>
<path fill-rule="evenodd" clip-rule="evenodd" d="M76.4807 279.743C78.504 278.932 77.4924 281.569 76.683 282.38C75.6714 281.974 75.6714 281.366 76.0761 280.352L76.4807 279.743Z" fill="#636BDE"/>
<path fill-rule="evenodd" clip-rule="evenodd" d="M77.6948 281.366C75.6715 282.177 76.6831 279.54 77.4924 278.729C78.5041 279.135 78.5041 279.743 78.0994 280.757L77.6948 281.366Z" fill="#636BDE"/>
<path fill-rule="evenodd" clip-rule="evenodd" d="M76.4806 298.201C76.2782 298.404 77.0876 297.39 77.2899 297.187C76.6829 296.578 76.0759 296.578 75.2666 296.984C75.4689 297.39 75.8736 297.592 76.2782 297.998L76.4806 298.201Z" fill="#636BDE"/>
<path fill-rule="evenodd" clip-rule="evenodd" d="M43.9055 296.984C44.1078 296.376 43.9055 295.564 43.9055 294.753C43.5008 295.159 41.4775 296.578 41.4775 297.187C41.4775 298.81 43.2985 298.404 43.9055 297.39V296.984Z" fill="#636BDE"/>
<path fill-rule="evenodd" clip-rule="evenodd" d="M40.2638 305.909C40.6685 305.909 40.4662 305.503 41.0732 305.706C39.6568 307.329 38.4429 303.88 38.4429 302.663C39.4545 302.258 43.0965 302.461 43.7034 303.475C44.3104 304.895 41.8825 306.314 40.6685 306.72L40.2638 305.909Z" fill="#636BDE"/>
<path fill-rule="evenodd" clip-rule="evenodd" d="M74.4575 281.974C74.4575 283.191 73.8505 283.394 72.8389 282.988C72.8389 281.771 73.8505 281.366 75.0645 281.569C75.2668 281.974 74.8622 281.974 74.8622 282.177L74.4575 281.974Z" fill="#636BDE"/>
<path fill-rule="evenodd" clip-rule="evenodd" d="M83.1577 312.602C83.1577 312.602 83.5624 312.602 83.3601 311.588C78.7065 310.168 82.3484 318.484 83.1577 312.602Z" fill="#636BDE"/>
<path fill-rule="evenodd" clip-rule="evenodd" d="M39.0497 307.734C38.4427 307.937 37.6334 308.343 37.0264 308.748C37.431 308.951 39.859 310.168 40.2636 309.763C41.6799 308.951 40.466 307.531 39.4543 307.531L39.0497 307.734Z" fill="#636BDE"/>
<path fill-rule="evenodd" clip-rule="evenodd" d="M48.5593 306.923C48.357 306.517 48.1546 306.923 47.9523 306.314C50.1779 306.923 47.5476 309.357 46.536 309.965C45.7267 309.357 44.108 305.909 44.9174 304.895C45.929 303.678 48.357 305.3 49.1663 306.112L48.5593 306.923Z" fill="#636BDE"/>
<path fill-rule="evenodd" clip-rule="evenodd" d="M51.1896 318.282C50.9873 318.89 50.785 319.296 51.7966 319.701C51.9989 319.093 51.9989 318.484 51.5943 317.876L51.1896 318.282Z" fill="#636BDE"/>
<path fill-rule="evenodd" clip-rule="evenodd" d="M46.1311 296.375C45.5241 295.97 45.7265 295.158 46.1311 294.55C47.3451 294.753 46.5358 296.172 46.9405 297.187C46.7381 297.389 46.5358 297.389 46.1311 297.389C45.9288 297.187 45.9288 296.984 45.9288 296.781L46.1311 296.375Z" fill="#573493"/>
<path fill-rule="evenodd" clip-rule="evenodd" d="M54.0221 310.777C53.2128 310.168 54.2245 309.357 55.0338 309.965C55.0338 310.371 54.8315 310.371 54.6291 310.574L54.0221 310.777Z" fill="#573493"/>
<path fill-rule="evenodd" clip-rule="evenodd" d="M58.4731 319.499C59.4848 321.121 60.2941 318.687 58.6755 317.876C58.4731 318.282 58.6755 318.687 58.6755 319.093L58.4731 319.499Z" fill="#573493"/>
<path fill-rule="evenodd" clip-rule="evenodd" d="M85.7876 307.531C85.7876 307.937 85.7876 308.546 85.7876 308.951C85.9899 308.748 87.4062 307.734 87.4062 307.329C87.4062 306.314 86.1923 306.517 85.7876 307.126V307.531Z" fill="#573493"/>
<path fill-rule="evenodd" clip-rule="evenodd" d="M88.0132 302.055C87.8109 302.055 87.8109 302.258 87.6086 302.258C88.4179 301.243 89.2272 303.475 89.2272 304.083C88.6202 304.286 86.3946 304.286 85.9899 303.475C85.5853 302.46 87.2039 301.649 87.8109 301.446L88.0132 302.055Z" fill="#573493"/>
<path fill-rule="evenodd" clip-rule="evenodd" d="M41.2754 318.079C45.5243 316.862 42.0847 321.324 41.6801 318.687L41.2754 318.079Z" fill="#573493"/>
<path fill-rule="evenodd" clip-rule="evenodd" d="M46.3337 317.267C46.1313 317.876 47.3453 317.876 47.3453 317.47C47.3453 316.659 46.7383 316.659 46.1313 317.065L46.3337 317.267Z" fill="#573493"/>
<path fill-rule="evenodd" clip-rule="evenodd" d="M49.7729 320.918C51.9986 320.513 50.7846 322.744 49.7729 321.324V320.918Z" fill="#573493"/>
<path fill-rule="evenodd" clip-rule="evenodd" d="M63.7339 321.324C64.1385 321.933 65.1502 321.527 65.3525 320.918C64.9479 320.31 64.3409 320.716 63.9362 321.324H63.7339Z" fill="#573493"/>
<path fill-rule="evenodd" clip-rule="evenodd" d="M66.5663 317.064C66.5663 316.456 66.9709 316.253 67.5779 316.456C67.5779 317.267 66.9709 317.47 66.1616 317.267C66.1616 317.064 66.364 316.862 66.5663 317.064Z" fill="#573493"/>
<path fill-rule="evenodd" clip-rule="evenodd" d="M86.7995 322.947C86.5972 321.933 87.4065 320.716 88.2158 320.107C87.8112 320.919 87.4065 321.933 86.7995 322.947Z" fill="#573493"/>
<path fill-rule="evenodd" clip-rule="evenodd" d="M81.3366 321.73C81.5389 321.527 82.3483 321.933 82.7529 322.338C82.1459 322.338 81.5389 322.338 81.1343 321.933L81.3366 321.73Z" fill="#573493"/>
<path fill-rule="evenodd" clip-rule="evenodd" d="M61.1037 297.795C61.1037 297.795 60.9014 297.795 60.9014 298.404C63.9363 299.215 61.7107 293.942 61.1037 297.795Z" fill="#573493"/>
<path fill-rule="evenodd" clip-rule="evenodd" d="M50.7846 308.546C51.3916 308.343 51.9986 308.748 52.4032 309.357C51.5939 310.371 50.7846 308.951 49.7729 308.951C49.7729 308.748 49.7729 308.546 49.9753 308.14C50.3799 307.937 50.3799 308.14 50.5823 308.343L50.7846 308.546Z" fill="#573493"/>
<path fill-rule="evenodd" clip-rule="evenodd" d="M105.211 400.023C104.604 400.429 103.997 401.038 103.593 401.646C104.2 402.255 105.211 402.255 106.021 402.457C106.628 401.038 107.639 399.618 105.211 400.023Z" fill="#573493"/>
<path fill-rule="evenodd" clip-rule="evenodd" d="M101.367 404.08C101.367 403.675 102.379 403.675 102.783 404.08C102.379 404.689 101.974 404.892 101.57 404.486L101.367 404.08Z" fill="#573493"/>
<path fill-rule="evenodd" clip-rule="evenodd" d="M98.332 397.792C98.332 398.807 99.546 398.604 99.9507 397.995C99.3437 397.995 98.7367 397.792 98.332 397.792Z" fill="#573493"/>
<path fill-rule="evenodd" clip-rule="evenodd" d="M106.425 389.882C107.437 389.476 107.639 390.693 106.83 391.099C106.425 390.896 106.628 390.693 106.425 390.49V389.882Z" fill="#573493"/>
<path fill-rule="evenodd" clip-rule="evenodd" d="M96.5111 389.882C94.6901 390.085 96.5111 391.91 97.7251 390.896C97.5227 390.49 97.1181 390.49 96.7134 390.49L96.5111 389.882Z" fill="#573493"/>
<path fill-rule="evenodd" clip-rule="evenodd" d="M76.4805 401.444C76.6828 402.052 77.0875 402.255 77.4921 401.849C77.2898 401.444 77.0875 401.444 76.4805 401.444Z" fill="#573493"/>
<path fill-rule="evenodd" clip-rule="evenodd" d="M77.2899 365.136C77.0876 364.933 77.0876 364.933 77.2899 365.136C77.8969 365.136 77.8969 365.136 78.0992 364.73C77.6946 364.528 77.4923 364.731 77.2899 364.933V365.136Z" fill="#573493"/>
<path fill-rule="evenodd" clip-rule="evenodd" d="M80.7295 355.603C80.7295 355.4 80.9318 355.197 80.9318 354.792C81.5388 354.792 81.9435 355.197 81.9435 355.806C81.3365 356.212 81.3365 356.009 81.1341 355.603H80.7295Z" fill="#573493"/>
<path fill-rule="evenodd" clip-rule="evenodd" d="M68.3873 360.674C67.9826 361.485 68.3873 361.891 69.1966 361.282C68.9943 361.079 68.5896 360.471 68.3873 360.471V360.674Z" fill="#573493"/>
<path fill-rule="evenodd" clip-rule="evenodd" d="M98.332 350.938C98.332 350.329 98.7367 349.721 99.3437 349.315C99.1413 350.127 98.939 351.141 98.332 350.938Z" fill="#573493"/>
<path fill-rule="evenodd" clip-rule="evenodd" d="M204.555 280.554C207.995 283.191 202.33 283.191 204.151 281.163L204.555 280.554Z" fill="#573493"/>
<path fill-rule="evenodd" clip-rule="evenodd" d="M208.197 284.205C207.59 284.408 208.197 285.22 208.602 285.017C209.209 284.611 209.007 284.003 208.197 283.8V284.205Z" fill="#573493"/>
<path fill-rule="evenodd" clip-rule="evenodd" d="M207.388 289.073C209.007 290.493 206.376 291.102 206.983 289.276L207.388 289.073Z" fill="#573493"/>
<path fill-rule="evenodd" clip-rule="evenodd" d="M199.295 274.672C198.485 274.267 197.676 274.267 196.867 274.267C196.867 275.078 197.271 276.092 197.676 276.701C199.092 276.295 200.913 276.498 199.295 274.672Z" fill="#573493"/>
</g>
<path fill-rule="evenodd" clip-rule="evenodd" d="M150.638 178.768C144.571 180.564 139.343 184.728 135.527 189.798C133.078 193.055 131.1 196.891 131.135 200.968C131.177 205.744 134.125 210.251 138.233 212.694C142.571 215.275 147.761 215.515 152.606 214.529C154.893 214.067 157.025 213.22 159.003 211.989C159.561 211.641 164.862 207.372 164.599 207.162C173.015 214.053 177.221 217.493 177.221 217.493C183.652 222.837 189.808 220.839 195.692 211.508C198.455 207.266 205.898 198.936 203.877 193.5C202.846 190.735 200.333 188.803 197.396 188.521C194.459 188.239 191.622 189.677 190.099 192.192C190.279 191.903 178.733 184.334 177.783 183.717C175.674 182.338 173.698 180.52 171.612 179.215C169.338 177.793 166.041 177.855 163.446 177.736C159.571 177.557 155.651 177.532 151.877 178.431C151.444 178.542 151.043 178.643 150.638 178.768Z" fill="white"/>
<path d="M142.644 214.494C142.548 213.578 142.387 212.681 142.166 211.816C144.378 212.661 146.503 213.148 148.544 213.252C154.029 213.54 158.883 211.185 163.394 206.063C163.991 205.388 165.024 205.29 165.728 205.867L178.455 216.084C180.876 218.056 183.114 218.835 185.289 218.465C188.286 217.958 191.341 215.226 194.366 210.319C194.899 209.476 195.609 208.486 196.348 207.44C199.231 203.394 203.58 197.294 202.224 193.743C201.412 191.612 199.416 190.104 197.136 189.91C195.076 189.742 193.069 190.655 191.834 192.287C191.699 192.457 191.582 192.645 191.465 192.833C191.22 193.247 190.819 193.535 190.358 193.631C189.897 193.727 189.409 193.621 189.019 193.345C183.911 189.67 177.355 185.356 169.541 180.522C169.018 180.193 168.71 179.611 168.741 178.994C168.757 178.557 168.784 178.116 168.801 177.679C169.366 177.843 169.946 177.944 170.501 178.041C170.835 178.101 171.176 178.147 171.515 178.182C171.937 178.379 172.403 178.526 172.879 178.59C179.418 182.662 185.048 186.363 189.651 189.61C191.589 187.457 194.48 186.27 197.432 186.525C200.993 186.824 204.119 189.186 205.398 192.527C207.409 197.78 202.619 204.494 199.115 209.398C198.398 210.402 197.714 211.362 197.242 212.103C196.573 213.186 195.899 214.178 195.219 215.077C192.247 219.022 189.157 221.228 185.849 221.784C182.697 222.316 179.476 221.269 176.317 218.684L164.831 209.461C159.937 214.515 154.397 216.918 148.355 216.604C146.539 216.512 144.694 216.172 142.8 215.602C142.762 215.252 142.703 214.873 142.644 214.494Z" fill="#280052"/>
<g opacity="0.3">
<path opacity="0.3" fill-rule="evenodd" clip-rule="evenodd" d="M159.082 206.054C154.805 208.99 149.71 209.282 144.882 207.646C141.816 206.609 138.994 204.925 136.373 203.061C134.393 201.642 131.91 198.147 129.158 199.863C122.108 204.252 142.051 213.859 145.456 214.558C151.868 215.879 157.66 214.063 162.82 209.114L162.856 209.079L163.083 208.869L163.119 208.834L163.224 208.72L163.26 208.686L163.296 208.651L163.332 208.617L163.368 208.582L163.404 208.548L163.422 208.53C163.841 208.109 164.249 207.655 164.669 207.199C173.143 214.013 177.386 217.419 177.386 217.419C183.867 222.701 190.006 220.649 195.803 211.263C198.535 206.996 205.888 198.6 203.824 193.177C202.772 190.419 200.233 188.519 197.292 188.261C200.893 191.97 199.156 205.227 185.15 213.976C173.852 207.51 165.468 204.043 161.514 204.402L161.377 204.223C161.294 204.295 161.204 204.381 161.121 204.454C160.017 204.62 159.328 205.149 159.082 206.054Z" fill="#280052"/>
</g>
<path d="M176.215 182.883C176.233 182.865 176.248 182.838 176.266 182.82C176.798 182.048 176.599 180.989 175.816 180.46C170.62 176.917 165.485 175.61 160.538 176.569C154.41 177.753 148.559 182.472 143.14 190.584C142.622 191.364 142.832 192.42 143.611 192.938C144.39 193.456 145.45 193.256 145.965 192.466C150.856 185.136 155.98 180.899 161.182 179.897C165.205 179.119 169.479 180.249 173.903 183.26C174.657 183.774 175.678 183.598 176.215 182.883Z" fill="#280052"/>
<path d="M174.17 205.368C178.254 199.958 181.131 193.555 182.757 186.242C182.964 185.326 182.38 184.42 181.467 184.224C180.55 184.017 179.644 184.601 179.448 185.514C177.482 194.369 173.559 201.773 167.795 207.563C166.604 206.623 165.184 205.392 162.526 202.956C161.841 202.327 160.757 202.371 160.131 203.067C159.506 203.763 159.546 204.836 160.242 205.462C163.893 208.805 165.301 209.958 166.923 211.161C167.576 211.648 168.494 211.598 169.092 211.039C170.944 209.286 172.637 207.396 174.17 205.368Z" fill="#280052"/>
<path d="M196.779 189.471C196.994 189.183 197.104 188.822 197.056 188.44C196.956 187.665 196.248 187.113 195.473 187.213C191.067 187.77 187.688 191.759 185.451 199.062C185.227 199.809 185.648 200.602 186.384 200.829C187.131 201.054 187.923 200.633 188.151 199.897C190.034 193.755 192.615 190.433 195.828 190.023C196.221 189.971 196.554 189.763 196.779 189.471Z" fill="#280052"/>
<path fill-rule="evenodd" clip-rule="evenodd" d="M141.008 168.786C132.33 167.995 118.742 167.187 115.654 166.679C115.745 166.407 116.759 160.702 117.107 158.996C117.484 157.159 118.142 155.285 118.297 153.407C118.487 151.189 119.162 148.992 119.308 146.861C119.43 145.104 119.283 143.271 119.27 141.494C119.811 140.9 120.411 140.311 121.068 139.718C125.592 142.184 130.571 143.742 136.025 144.383C144.39 144.881 163.506 142.453 193.373 137.101C196.21 125.209 201.954 126.261 201.173 137.359C204.022 135.245 207.823 134.996 210.996 136.721C214.17 138.447 216.188 141.836 216.216 145.511C216.322 158.005 162.498 170.368 141.008 168.786Z" fill="white"/>
<path d="M114.806 167.374C114.478 167.335 113.218 166.849 113.833 164.533C114.677 161.562 115.375 158.532 116.172 155.599C117.502 150.725 117.535 146.417 117.562 141.445C117.567 141.011 117.732 140.598 118.021 140.287C118.592 139.678 119.251 139.054 119.949 138.44C120.474 137.986 121.217 137.896 121.842 138.217C126.096 140.416 130.869 141.8 136.032 142.328C144.106 142.679 162.868 140.166 191.78 134.863C193.477 129.023 196.035 125.966 198.883 126.451C201.2 126.844 202.541 129.477 202.676 133.651C205.515 132.633 208.676 132.811 211.458 134.251C215.203 136.163 217.5 139.961 217.49 144.157C217.462 151.687 206.231 157.744 196.826 161.507C188.304 164.916 175.373 167.516 169.525 168.356C144.09 169.839 116.623 167.699 114.806 167.374C114.806 167.374 115.458 165.292 116.431 164.85C116.595 164.776 117.092 165.137 117.323 165.205C120.978 166.223 168.656 165.133 169.503 165.116C179.187 164.969 214.062 154.363 214.099 144.143C214.109 141.232 212.511 138.597 209.928 137.27C207.331 135.937 204.263 136.174 201.904 137.873C201.37 138.26 200.645 138.298 200.077 137.971C199.498 137.648 199.173 137.013 199.226 136.354C199.623 131.747 198.657 130.06 198.327 129.823C197.886 129.948 196.178 131.411 194.792 136.781C194.626 137.416 194.111 137.902 193.459 138.022C163.217 143.597 144.377 146.122 135.849 145.737C135.813 145.736 135.789 145.732 135.753 145.731C130.57 145.21 125.729 143.87 121.355 141.778C121.219 141.902 121.085 142.037 120.952 142.171C120.933 145.319 120.696 148.253 120.111 151.343C119.092 156.692 117.925 161.188 116.739 164.942" fill="#280052"/>
<path d="M184.987 165.067C184.686 164.926 184.43 164.702 184.242 164.398C179.945 157.155 177.426 148.638 176.754 139.07C176.69 138.144 177.388 137.343 178.303 137.282C179.229 137.217 180.03 137.916 180.091 138.831C180.728 147.873 183.082 155.892 187.11 162.681C187.58 163.482 187.324 164.507 186.524 164.977C186.044 165.277 185.465 165.292 184.987 165.067Z" fill="#280052"/>
<path d="M202.675 135.006C202.725 135.621 202.689 136.146 202.681 136.686C202.684 137.223 202.654 137.769 202.737 138.339C202.809 138.912 202.962 139.519 203.192 140.149C203.411 140.782 203.715 141.424 204.039 142.129C204.103 142.261 204.046 142.419 203.911 142.472C203.851 142.503 203.78 142.501 203.727 142.483C202.963 142.24 202.262 141.861 201.613 141.35C200.975 140.835 200.382 140.201 199.933 139.429C199.487 138.668 199.146 137.792 199.056 136.897C198.966 136.002 199.059 135.097 199.408 134.3C199.783 133.437 200.78 133.035 201.644 133.41C202.238 133.67 202.621 134.229 202.668 134.833L202.675 135.006Z" fill="#280052"/>
<g opacity="0.3">
<path opacity="0.3" fill-rule="evenodd" clip-rule="evenodd" d="M214.896 141.584C215.752 156.164 180.477 169.931 162.545 165.389C183.467 161.741 207.128 154.185 214.896 141.584Z" fill="#280052"/>
</g>
<path fill-rule="evenodd" clip-rule="evenodd" d="M113.749 209.094C96.4889 210.838 89.4933 193.744 92.7588 157.8C97.368 159.749 101.542 161.085 105.271 161.811C104.851 182.684 107.911 198.836 113.749 209.094Z" fill="white"/>
<path d="M114.25 210.714C114.676 210.582 115.05 210.28 115.252 209.878C115.514 209.365 115.502 208.761 115.22 208.265C109.406 198.046 106.553 181.993 106.978 161.855C106.992 161.033 106.418 160.311 105.61 160.152C102.004 159.446 97.9072 158.133 93.4309 156.236C92.9343 156.028 92.3618 156.065 91.9004 156.348C91.439 156.631 91.1322 157.111 91.0888 157.65C88.8072 182.697 91.4046 198.524 99.0023 206.054C102.807 209.817 107.829 211.405 113.934 210.788C114.033 210.769 114.143 210.747 114.25 210.714ZM103.558 163.182C103.317 181.803 105.878 197.023 110.998 207.527C107.086 207.453 103.919 206.167 101.373 203.638C94.8429 197.18 92.4517 182.585 94.2512 160.245C97.5723 161.542 100.692 162.527 103.558 163.182Z" fill="#280052"/>
<path fill-rule="evenodd" clip-rule="evenodd" d="M156.835 141.24C152.097 142.951 147.001 143.734 141.556 143.574C133.253 142.861 114.671 137.843 85.8107 128.52C84.3568 116.765 78.5755 116.954 78.0934 127.661C75.5235 125.245 71.8029 124.469 68.481 125.66C65.159 126.852 62.7833 129.818 62.337 133.32C60.8264 145.233 95.8917 160.415 105.267 161.8C104.868 203.912 115.193 222.557 136.221 217.743C139.115 228.224 140.55 233.467 140.55 233.467C142.712 241.546 148.892 243.476 159.087 239.246C163.8 237.379 174.682 234.876 176.169 229.265C176.922 226.416 175.986 223.389 173.754 221.463C171.513 219.54 168.375 219.063 165.671 220.25C163.655 214.228 160.881 206.923 157.329 198.352C158.878 196.412 160.327 194.492 161.695 192.609L161.844 192.411C163.361 190.295 164.896 188.009 166.467 185.573L166.536 185.458C166.58 185.374 164.278 182.653 164.069 182.355C163.371 181.345 162.499 180.225 161.962 179.13C161.397 177.985 161.249 176.489 160.945 175.24C160.274 172.469 159.604 169.698 158.933 166.928C158.755 166.2 158.584 165.459 158.645 164.716C158.791 163.036 158.717 161.891 158.57 160.207C158.408 158.401 157.965 156.517 158.022 154.701C158.093 152.553 157.671 150.359 157.762 148.311C157.844 146.615 158.196 144.883 158.409 143.194C157.953 142.552 157.424 141.898 156.835 141.24Z" fill="white"/>
<path d="M159.795 199.714C159.055 198.191 158.516 197.167 159.226 195.499C159.955 193.778 160.831 192.117 161.825 190.536C162.399 189.635 163.064 188.915 163.533 187.941C163.98 187.008 164.308 186.031 164.422 185.003C164.712 182.39 163.797 179.812 162.99 177.317C162.52 175.874 162.079 174.41 161.737 172.928C161.437 171.619 161.397 170.358 161.171 169.062C160.501 165.275 160.164 161.431 159.64 157.622C158.954 152.614 159.487 148.338 160.099 143.406C160.154 142.981 160.043 142.548 159.783 142.196C159.293 141.519 158.725 140.818 158.112 140.12C157.647 139.598 156.924 139.413 156.263 139.653C151.756 141.281 146.852 142.04 141.656 141.896C133.601 141.189 115.338 136.259 87.3565 127.247C86.4312 121.238 84.2806 117.874 81.395 117.985C79.0531 118.079 77.3738 120.502 76.7021 124.635C74.0215 123.257 70.8539 123.022 67.9123 124.085C63.9714 125.503 61.1896 128.968 60.6656 133.125C59.7172 140.59 70.0653 148.062 78.9082 153.011C87.9497 158.073 98.1731 162.01 103.582 163.221C103.478 191.039 108.028 208.271 117.487 215.891C122.201 219.688 128.088 220.973 135.029 219.736L138.943 233.93C140.001 237.877 141.989 240.602 144.866 242.013C147.872 243.5 151.662 243.518 156.384 242.057C157.461 241.724 158.585 241.318 159.763 240.824C160.586 240.5 161.695 240.121 162.868 239.723C168.578 237.793 176.389 235.142 177.84 229.717C178.755 226.257 177.6 222.527 174.891 220.188C172.649 218.266 169.616 217.523 166.772 218.146C166.662 218.168 163.307 208.648 162.989 207.847C162.234 205.897 161.468 203.95 160.681 202.01C160.373 201.241 160.153 200.456 159.795 199.714ZM164.075 220.791C164.228 221.246 164.562 221.61 164.996 221.803C165.429 221.995 165.923 222.006 166.365 221.811C166.571 221.724 166.771 221.65 166.984 221.584C168.934 220.981 171.102 221.419 172.672 222.756C174.405 224.24 175.143 226.628 174.556 228.842C173.58 232.519 166.473 234.917 161.78 236.509C160.564 236.921 159.412 237.312 158.487 237.681C153.167 239.888 149.095 240.318 146.365 238.968C144.381 237.993 143.019 236.044 142.216 233.034L137.883 217.299C137.648 216.426 136.76 215.895 135.877 216.098C129.223 217.62 123.911 216.683 119.623 213.244C110.99 206.292 106.734 188.992 106.982 161.83C106.99 160.987 106.367 160.257 105.537 160.14C95.9571 158.737 62.7557 143.69 64.0477 133.561C64.4137 130.668 66.3466 128.272 69.0783 127.286C71.8206 126.297 74.8314 126.931 76.9552 128.925C77.4358 129.383 78.139 129.504 78.7547 129.267C79.367 129.019 79.782 128.435 79.8104 127.772C80.0162 123.154 81.1966 121.609 81.5433 121.408C81.9627 121.593 83.4724 123.264 84.1474 128.766C84.2322 129.417 84.6826 129.967 85.3064 130.171C114.56 139.595 132.91 144.544 141.418 145.275C141.453 145.276 141.477 145.28 141.513 145.281C146.722 145.432 151.692 144.735 156.295 143.229C156.411 143.38 156.525 143.52 156.642 143.67C156.253 146.792 156.112 149.733 156.291 152.877C156.581 157.892 157.115 162.9 158.06 167.84C158.723 171.303 159.706 174.631 160.933 177.918C161.531 179.509 162.103 181.13 162.228 182.82C162.521 186.444 159.804 189.515 157.751 192.241C156.392 194.04 155.962 196.123 156.097 198.371C156.267 201.145 157.69 203.706 158.711 206.287C160.622 211.068 162.445 215.9 164.075 220.791Z" fill="#280052"/>
<g opacity="0.3">
<path opacity="0.3" fill-rule="evenodd" clip-rule="evenodd" d="M105.273 161.857C105.146 175.035 106.083 185.911 108.061 194.491C110.072 201.18 112.837 207.169 116.336 212.474C120.759 217.296 126.516 219.216 133.603 218.226L133.649 218.224L133.95 218.177L133.996 218.175L134.152 218.15L134.208 218.144L134.265 218.138L134.311 218.136L134.367 218.13L134.424 218.124L134.456 218.114C135.044 218.014 135.639 217.9 136.239 217.761C139.132 228.242 140.568 233.485 140.568 233.485C142.729 241.564 148.909 243.494 159.105 239.264C163.818 237.397 174.699 234.894 176.186 229.283C176.94 226.434 176.003 223.407 173.772 221.481C174.515 226.6 165.355 236.326 148.876 235.235C143.503 223.385 138.719 215.662 135.304 213.647L135.305 213.425C135.192 213.436 135.079 213.448 134.966 213.46C133.974 212.972 133.095 212.999 132.376 213.584C118.517 213.259 111.543 196.345 111.473 162.834C109.41 162.62 107.349 162.301 105.273 161.857Z" fill="#280052"/>
</g>
<g opacity="0.3">
<path opacity="0.3" fill-rule="evenodd" clip-rule="evenodd" d="M156.835 141.239C152.097 142.95 147.001 143.733 141.556 143.573C135.824 143.093 125.176 140.537 109.61 135.94C118.25 144.35 128.538 149.062 140.473 150.075C145.751 149.166 151.485 148.863 157.669 149.145C157.669 149.145 157.921 147.163 158.412 143.203C157.953 142.551 157.424 141.897 156.835 141.239Z" fill="#280052"/>
</g>
<path d="M183.376 116.534C146.946 175.555 63.182 127.896 91.9566 67.6126C127.819 6.30376 214.348 55.6526 183.376 116.534Z" fill="white"/>
<path d="M183.376 116.534C146.946 175.555 63.182 127.896 91.9566 67.6126C127.819 6.30376 214.348 55.6526 183.376 116.534Z" fill="white"/>
<path d="M183.376 116.534C146.946 175.555 63.182 127.896 91.9566 67.6126C127.819 6.30376 214.348 55.6526 183.376 116.534Z" fill="white"/>
<path d="M153.355 142.258C165.709 138.435 176.321 129.779 184.184 117.032L184.221 116.962C191.566 102.542 192.882 87.7342 188.048 74.1519C183.736 62.0314 174.821 51.7911 162.955 45.302C151.117 38.8277 137.765 36.9332 125.369 39.9401C111.391 43.3434 99.5486 52.7429 91.1309 67.1327L91.0941 67.2024C84.2629 81.51 83.2374 96.1231 88.1301 109.442C92.5062 121.356 101.334 131.425 112.991 137.768C124.616 144.121 137.774 146.029 150.025 143.16C151.15 142.906 152.257 142.598 153.355 142.258ZM182.546 116.079C164.195 145.771 134.854 147.54 113.895 136.122C93.4235 124.961 78.0953 98.9058 92.787 68.0684C110.761 37.3832 141.284 35.6223 162.044 46.9622C183.017 58.4232 198.367 84.9272 182.546 116.079Z" fill="#371A45"/>
<g opacity="0.35">
<path opacity="0.35" d="M183.376 116.534C152.789 168.058 77.9175 139.243 86.9329 82.3653C90.072 100.887 96.4382 101.72 106.032 111.283C135.419 142.612 182.686 120.684 189.204 83.4761C191.019 95.0027 188.834 106.623 183.376 116.534Z" fill="#371A45"/>
</g>
<path d="M153.47 142.631C165.92 138.779 176.597 130.067 184.507 117.247L184.559 117.149C191.949 102.61 193.281 87.704 188.403 74.0184C184.051 61.8052 175.077 51.4896 163.131 44.967C151.21 38.4485 137.77 36.5344 125.278 39.5711C111.2 42.9934 99.272 52.4546 90.8029 66.942L90.7514 67.0397C83.8792 81.4417 82.8482 96.15 87.7739 109.575C92.1764 121.574 101.073 131.715 112.803 138.106C124.509 144.493 137.765 146.417 150.105 143.533C151.24 143.275 152.372 142.971 153.47 142.631ZM182.218 115.888C163.995 145.354 134.874 147.114 114.081 135.784C93.7672 124.714 78.5583 98.8558 93.1322 68.2417C110.963 37.811 141.264 36.0489 161.87 47.3078C182.672 58.6698 197.914 84.9738 182.218 115.888Z" fill="#293856"/>
<path d="M153.662 143.214C166.25 139.319 177.049 130.511 185.037 117.562C185.07 117.517 185.092 117.475 185.11 117.422C192.585 102.741 193.921 87.6577 188.993 73.8123C184.599 61.4606 175.518 51.0262 163.429 44.4193C151.382 37.8346 137.769 35.8921 125.139 38.9716C110.888 42.436 98.8372 51.9934 90.2731 66.627C90.2404 66.6721 90.2216 66.7247 90.1995 66.7666C83.2497 81.3327 82.2116 96.2067 87.1975 109.789C91.6568 121.934 100.646 132.186 112.516 138.651C124.361 145.111 137.765 147.06 150.258 144.139C151.403 143.878 152.532 143.564 153.662 143.214ZM181.667 115.58C163.657 144.676 134.903 146.415 114.376 135.225C94.3127 124.289 79.2873 98.7586 93.6764 68.5287C111.309 38.4748 141.217 36.7289 161.569 47.8447C182.12 59.0742 197.157 85.0562 181.667 115.58Z" fill="#280052"/>
<path d="M175.531 127.266C124.385 160.322 77.4042 100.977 115.717 63.8919C161.154 24.953 216.178 80.5129 175.531 127.266Z" fill="#280052"/>
<path d="M188.075 90.6582C190.539 145.642 112.077 153.421 101.573 103.518C127.971 132.092 174.422 117.869 188.075 90.6582Z" fill="#14002D"/>
<path d="M156.147 141.733C167.712 138.154 177.627 129.736 184.829 117.381L184.837 117.367C196.639 96.7441 193.129 64.0414 169.081 48.2296C169.005 48.1715 168.921 48.1273 168.83 48.0971C155.908 42.4604 140.531 42.6643 126.642 48.6563C112.794 54.6352 102.153 65.6135 97.4463 78.7848C93.2082 91.6591 93.9296 104.482 99.5017 115.92C104.564 126.278 113.238 134.643 123.93 139.452C134.296 144.115 145.695 144.944 156.012 141.786C156.051 141.763 156.104 141.746 156.147 141.733ZM181.926 115.698C166.198 142.699 141.589 143.716 125.295 136.39C106.56 127.973 92.0648 105.853 100.61 79.8731C104.993 67.6195 114.977 57.3468 127.966 51.7271C140.968 46.1146 155.312 45.892 167.354 51.1002C189.726 65.9124 192.955 96.4245 181.926 115.698Z" fill="#280052"/>
<path d="M160.415 135.974C165.765 134.318 171.082 131.797 176.29 128.433C176.397 128.365 176.498 128.275 176.584 128.178C186.353 116.945 191.371 104.366 191.11 91.8213C190.876 80.576 186.39 70.0045 178.484 62.0447C170.761 54.2618 160.529 49.7667 149.689 49.384C137.632 48.9574 125.571 53.6126 114.816 62.8275C114.798 62.8448 114.769 62.8653 114.751 62.8826C105.808 71.5367 100.825 81.9669 100.35 93.0345C99.9139 103.062 103.258 113.076 109.745 121.241C116.77 130.093 126.793 135.949 137.953 137.74C145.289 138.915 152.879 138.306 160.415 135.974ZM174.605 126.198C148.369 143.054 124.234 135.001 111.917 119.506C100.745 105.444 97.8749 83.1136 116.652 64.9106C139.341 45.497 163.055 50.4566 176.497 64.0027C189.871 77.4768 194.955 102.661 174.605 126.198Z" fill="#280052"/>
<path d="M79.6706 104.526C83.9672 128.6 108.456 126.324 106.671 102.933C103.095 77.5269 76.9162 79.964 79.6706 104.526Z" fill="white"/>
<g opacity="0.35">
<path opacity="0.35" d="M95.7089 121.59C103.06 120.962 108.124 111.815 106.515 101.708C102.212 112.488 90.4973 95.2775 89.5573 90.2775C70.8078 95.6245 82.2458 123.036 95.7089 121.59Z" fill="#371A45"/>
</g>
<path d="M98.1646 122.431C103.984 120.63 108.937 114.215 108.064 102.829C108.065 102.793 108.058 102.772 108.059 102.737C106.109 88.9629 97.5553 82.7219 90.1026 83.6618C83.3684 84.5078 76.8057 91.4559 78.2841 104.687C78.2834 104.722 78.29 104.743 78.2998 104.775C80.7355 118.458 89.2712 123.735 96.1613 122.864C96.8338 122.772 97.5038 122.635 98.1646 122.431ZM105.281 103.083C106.095 113.903 101.11 119.417 95.7975 120.103C90.1779 120.815 83.1739 116.185 81.048 104.334C79.7966 93.0064 85.0412 87.1203 90.4451 86.429C96.5355 85.6537 103.592 91.1318 105.281 103.083Z" fill="#280052"/>
<path d="M78.7549 105.907C82.2574 125.415 100.629 124.016 99.1991 105.093C96.3605 84.2593 76.3982 85.8004 78.7549 105.907Z" fill="white"/>
<path d="M92.9592 120.935C97.4572 119.543 101.297 114.325 100.581 104.993C100.585 104.968 100.575 104.936 100.569 104.915C99.0044 93.3691 92.2265 88.0735 86.3379 88.8213C81.1111 89.4812 76.0721 95.1635 77.3605 106.082C77.3671 106.104 77.3664 106.139 77.373 106.16C79.4143 117.512 86.1227 121.941 91.5053 121.256C91.9974 121.186 92.4902 121.08 92.9592 120.935ZM97.8088 105.243C98.437 113.727 94.9248 118.002 91.1628 118.489C87.0613 119.011 81.8634 115.235 80.1425 105.712C79.0983 96.7147 82.8052 92.087 86.705 91.5926C91.2174 91.002 96.4805 95.5166 97.8088 105.243Z" fill="#280052"/>
<g opacity="0.4">
<path opacity="0.4" d="M111.074 92.2499C114.161 102.075 125.382 98.7423 124.146 89.8046C121.953 78.6051 108.667 82.3198 111.074 92.2499Z" fill="white"/>
</g>
<g opacity="0.4">
<path opacity="0.4" d="M117.538 107.629C118.937 111.319 123.865 109.957 122.72 105.803C121.331 102.11 116.393 103.475 117.538 107.629Z" fill="white"/>
</g>
<g opacity="0.4">
<path opacity="0.4" d="M179.877 92.7745C184.905 58.5625 149.478 54.8918 138.919 62.364C161.603 63.4263 171.928 77.2015 179.877 92.7745Z" fill="white"/>
</g>
<g opacity="0.35">
<path opacity="0.35" d="M100.287 109.511C100.583 106.733 100.109 103.878 99.0814 101.276C95.8817 114.6 82.4252 109.047 79.1319 99.6129C76.6143 119.255 96.7254 127.969 100.287 109.511Z" fill="#371A45"/>
</g>
<path fill-rule="evenodd" clip-rule="evenodd" d="M92.392 183.222C91.8815 174.515 91.8849 167.507 92.4061 162.171C86.128 160.528 84.9103 168.369 88.7563 185.702C90.2729 184.602 91.4873 183.771 92.392 183.222Z" fill="white"/>
<path d="M89.2545 187.312C89.425 187.259 89.5857 187.174 89.7397 187.068C91.2097 186.006 92.3986 185.206 93.2787 184.653C93.8081 184.326 94.114 183.729 94.0851 183.107C93.5789 174.528 93.5856 167.529 94.0898 162.328C94.1713 161.497 93.6442 160.737 92.8301 160.522C89.9841 159.779 88.2343 160.73 87.2719 161.658C84.1325 164.685 84.0779 172.434 87.0901 186.055C87.2157 186.611 87.6045 187.075 88.1437 187.27C88.5041 187.416 88.8921 187.424 89.2545 187.312ZM90.6434 182.327C90.4 182.484 90.1493 182.655 89.8805 182.843C86.9879 168.59 88.717 165.007 89.6327 164.116C89.7588 163.995 90.0184 163.74 90.581 163.671C90.2093 168.621 90.2293 174.875 90.6434 182.327Z" fill="#280052"/>
<path d="M159.818 204.811C159.84 204.804 159.872 204.794 159.893 204.788C160.775 204.468 161.234 203.497 160.914 202.615C158.78 196.7 155.385 192.635 150.804 190.514C145.133 187.889 137.632 188.295 128.491 191.707C127.613 192.038 127.168 193.016 127.495 193.884C127.825 194.763 128.793 195.211 129.672 194.881C137.933 191.799 144.563 191.37 149.375 193.595C153.096 195.317 155.895 198.737 157.72 203.767C158.041 204.614 158.966 205.075 159.818 204.811Z" fill="#280052"/>
<path d="M146.494 185.903C147.469 185.602 148.181 184.83 148.124 184.078C148.062 183.265 147.142 182.749 146.024 182.918C143.622 183.287 142.056 183.189 141.21 182.629C140.153 181.906 139.854 180.137 140.3 177.232C140.875 173.466 140.998 170.411 141.083 168.18C141.157 166.389 141.214 164.967 141.461 164.204C141.626 163.695 141.459 163.206 141.039 162.889C140.225 162.288 139.288 161.673 138.25 161.058C138.014 160.913 137.724 160.826 137.395 160.802C134.453 160.559 132.13 161.038 130.289 162.274C126.864 164.582 125.99 168.992 125.641 175.85C125.37 181.166 125.842 184.817 129.003 186.573C132.378 188.452 138.097 187.743 146.23 185.996C146.321 185.957 146.401 185.932 146.494 185.903ZM137.211 164.885C137.035 165.876 136.981 167.12 136.925 168.687C136.831 170.983 136.722 173.846 136.162 177.472C135.657 180.801 135.988 183.008 137.271 184.41C134.61 184.651 132.905 184.482 131.859 183.89C130.112 182.923 129.543 180.519 129.796 175.334C130.01 171.014 130.538 165.868 132.694 164.421C132.937 164.262 133.651 163.781 135.686 163.88C136.23 164.221 136.745 164.561 137.211 164.885Z" fill="#280052"/>
<path fill-rule="evenodd" clip-rule="evenodd" d="M129.166 178.604C131.224 177.932 131.601 175.036 131.142 172.912C130.687 170.799 129.129 168.256 126.98 168.559C116.69 169.991 109.274 168.747 104.102 168.036C101.371 167.666 100.681 172.341 101.289 175.026C101.888 177.714 104.064 179.879 106.804 180.164C115.441 181.088 123.021 180.599 129.166 178.604Z" fill="white"/>
<path d="M129.22 180.363C129.369 180.316 129.529 180.267 129.678 180.221C132.607 179.268 133.462 175.651 132.784 172.556C132.104 169.414 129.796 166.449 126.731 166.884C117.382 168.189 110.461 167.224 105.416 166.508L104.318 166.357C103.086 166.189 101.92 166.608 101.067 167.55C99.3895 169.377 99.0721 172.956 99.6192 175.403C100.401 178.91 103.211 181.498 106.605 181.86C115.429 182.785 123.027 182.279 129.22 180.363ZM128.644 176.99C122.818 178.887 115.531 179.378 106.974 178.487C105.055 178.287 103.399 176.709 102.942 174.666C102.562 172.985 102.885 170.596 103.576 169.845C103.706 169.7 103.766 169.705 103.875 169.718L104.962 169.872C110.211 170.606 117.393 171.619 127.223 170.247C128.118 170.122 129.159 171.75 129.493 173.282C129.81 174.796 129.546 176.699 128.644 176.99Z" fill="#280052"/>
<path d="M90.1695 158.075C90.4786 157.979 90.7687 157.784 90.9864 157.507C96.1797 150.889 99.7857 142.765 101.69 133.37C101.876 132.46 101.288 131.579 100.378 131.393C99.4675 131.208 98.5866 131.795 98.4011 132.706C96.5961 141.592 93.2157 149.237 88.3383 155.441C87.7686 156.167 87.8975 157.225 88.6227 157.794C89.095 158.15 89.6685 158.23 90.1695 158.075Z" fill="#280052"/>
<path d="M76.5348 125.983C76.4053 126.583 76.3726 127.119 76.3046 127.654C76.2332 128.178 76.1931 128.728 76.0398 129.289C75.8865 129.851 75.6692 130.432 75.3601 131.018C75.0576 131.626 74.6812 132.221 74.2647 132.876C74.1845 132.994 74.2233 133.157 74.3416 133.237C74.4007 133.277 74.4606 133.282 74.5279 133.273C75.3143 133.135 76.0653 132.844 76.7766 132.425C77.474 131.999 78.1425 131.442 78.6836 130.737C79.2279 130.043 79.6728 129.216 79.879 128.335C80.0884 127.464 80.1082 126.547 79.8755 125.72C79.6198 124.818 78.6747 124.293 77.7728 124.549C77.1513 124.729 76.6993 125.231 76.5698 125.832L76.5348 125.983Z" fill="#280052"/>
<path d="M111.958 164.436C112.587 164.242 113.079 163.681 113.144 162.983C113.231 162.057 112.55 161.217 111.624 161.13C106.736 160.657 101.775 159.459 96.8712 157.578C95.9962 157.241 95.0199 157.672 94.6834 158.547C94.3468 159.422 94.7807 160.409 95.6525 160.735C100.836 162.728 106.099 163.996 111.297 164.489C111.522 164.536 111.745 164.502 111.958 164.436Z" fill="#280052"/>
<path d="M144.999 221.836C151.469 219.834 157.555 216.327 163.15 211.349C163.845 210.725 163.91 209.653 163.297 208.955C162.673 208.261 161.602 208.195 160.904 208.808C154.125 214.831 146.609 218.547 138.551 219.872C138.135 218.413 137.708 216.583 136.966 213.051C136.774 212.13 135.88 211.542 134.958 211.734C134.036 211.926 133.449 212.82 133.641 213.742C134.648 218.581 135.114 220.352 135.732 222.275C135.984 223.049 136.757 223.546 137.567 223.447C140.097 223.131 142.569 222.588 144.999 221.836Z" fill="#280052"/>
<path fill-rule="evenodd" clip-rule="evenodd" d="M92.5724 193.655C90.697 192.576 89.4204 189.923 88.7458 185.705C89.6061 185.089 90.3657 184.562 91.0319 184.11C91.508 183.799 91.9521 183.498 92.3921 183.222C101.665 177.409 103.622 180.751 98.2351 193.234C96.7901 193.961 95.4986 194.279 94.3746 194.195C93.7191 194.152 93.1233 193.963 92.5724 193.655Z" fill="#FDC06B"/>
<path d="M97.1203 195.518C97.7278 195.33 98.3615 195.075 99.0074 194.747L99.5533 194.473L99.7985 193.906C103.28 185.833 103.803 181.56 101.544 179.619C99.0803 177.508 94.8764 179.662 91.4919 181.784C91.0412 182.064 90.5758 182.371 90.0923 182.696C89.3761 183.175 88.5985 183.719 87.7595 184.329L86.9099 184.942L87.0781 185.976C87.8496 190.772 89.3729 193.769 91.7327 195.129C92.4995 195.569 93.3515 195.831 94.2465 195.893C95.1416 195.955 96.1077 195.831 97.1203 195.518ZM96.9324 191.967C96.0061 192.37 95.1869 192.554 94.5035 192.496C94.1089 192.467 93.7617 192.364 93.4234 192.177C92.5416 191.667 91.3654 190.244 90.6111 186.448C91.0913 186.113 91.5534 185.794 91.9762 185.5C92.4203 185.199 92.8677 184.909 93.2898 184.65C98.1518 181.603 99.3216 182.176 99.3356 182.183C99.3422 182.204 100.503 183.503 96.9324 191.967Z" fill="#280052"/>
<path d="M172.635 222.183C172.976 222.077 173.277 221.844 173.454 221.509C173.825 220.821 173.572 219.965 172.885 219.594C168.982 217.473 163.915 218.726 157.819 223.334C157.195 223.807 157.073 224.697 157.544 225.311C158.017 225.935 158.907 226.057 159.521 225.587C164.641 221.713 168.69 220.53 171.525 222.07C171.888 222.262 172.283 222.291 172.635 222.183Z" fill="#280052"/>
<path d="M142.366 183.924L166.3 179.429C169.122 178.899 170.995 176.155 170.465 173.331L167.95 159.94C167.42 157.116 164.677 155.239 161.857 155.769L137.922 160.264C135.101 160.794 133.228 163.538 133.758 166.362L136.273 179.753C136.803 182.576 139.545 184.454 142.366 183.924Z" fill="white"/>
<path d="M167.951 159.945L170.466 173.335C170.996 176.158 169.125 178.903 166.301 179.433L142.368 183.928C139.545 184.458 136.805 182.58 136.275 179.756L133.76 166.367C133.229 163.54 135.101 160.796 137.924 160.265L161.857 155.771C164.68 155.24 167.42 157.119 167.951 159.945Z" fill="white"/>
<path d="M169.321 167.242L170.466 173.338C170.996 176.161 169.125 178.906 166.301 179.436L142.368 183.931C139.545 184.461 136.805 182.583 136.275 179.76L135.634 176.351C136.402 177.051 137.35 177.691 138.018 177.384C139.418 176.746 138.276 174.265 138.981 171.331C139.684 168.394 146.828 167.572 147.695 169.192C148.565 170.815 148.579 177.559 157.476 175.888C164.852 174.503 168.499 172.098 169.321 167.242Z" fill="#E5E5E5"/>
<path d="M166.543 180.725L142.608 185.22C139.066 185.886 135.644 183.542 134.978 179.997L132.463 166.606C131.797 163.06 134.137 159.634 137.678 158.969L161.612 154.474C165.154 153.809 168.577 156.153 169.243 159.698L171.758 173.089C172.425 176.634 170.085 180.06 166.543 180.725ZM138.164 161.559C136.049 161.956 134.652 164.002 135.05 166.12L137.565 179.511C137.962 181.628 140.007 183.027 142.122 182.63L166.056 178.135C168.171 177.738 169.568 175.692 169.17 173.575L166.655 160.184C166.258 158.067 164.214 156.666 162.099 157.064L138.164 161.559Z" fill="#280052"/>
<path d="M144.063 175.868C146.377 175.434 147.886 173.132 147.434 170.727C146.983 168.321 144.741 166.724 142.428 167.158C140.114 167.593 138.605 169.895 139.057 172.3C139.508 174.705 141.75 176.303 144.063 175.868Z" fill="#3DBCA1"/>
<path d="M139.056 172.302C139.111 172.598 139.193 172.882 139.3 173.151C139.313 171.083 140.723 169.265 142.751 168.884C144.779 168.503 146.754 169.686 147.513 171.608C147.515 171.319 147.489 171.025 147.433 170.728C146.982 168.323 144.741 166.724 142.428 167.158C140.116 167.592 138.604 169.897 139.056 172.302Z" fill="white"/>
<path d="M139.058 172.307C139.51 174.714 141.752 176.309 144.064 175.875C146.375 175.441 147.886 173.141 147.434 170.734C147.358 170.331 147.23 169.947 147.062 169.596C146.915 171.525 145.546 173.178 143.624 173.539C141.703 173.9 139.827 172.856 138.989 171.112C138.963 171.499 138.982 171.904 139.058 172.307Z" fill="#34AB92"/>
<path d="M144.249 176.844C141.404 177.378 138.641 175.424 138.09 172.487C137.538 169.55 139.404 166.726 142.248 166.192C145.092 165.658 147.855 167.612 148.407 170.549C148.959 173.486 147.093 176.31 144.249 176.844ZM142.613 168.134C140.838 168.468 139.68 170.256 140.03 172.122C140.381 173.989 142.11 175.235 143.884 174.902C145.659 174.569 146.817 172.78 146.466 170.914C146.116 169.048 144.388 167.801 142.613 168.134Z" fill="#280052"/>
<path d="M156.912 182.539C156.198 182.673 155.509 182.202 155.375 181.487L154.017 174.255C153.608 172.079 154.219 169.807 155.651 168.177L156.193 167.559C157.095 166.534 157.477 165.094 157.217 163.709L155.935 156.884C155.801 156.17 156.271 155.48 156.986 155.346C157.701 155.212 158.388 155.683 158.523 156.398L159.804 163.223C160.213 165.399 159.602 167.671 158.17 169.3L157.628 169.917C156.726 170.943 156.344 172.382 156.604 173.768L157.962 181C158.097 181.716 157.626 182.405 156.912 182.539Z" fill="#280052"/>
<g opacity="0.3">
<path opacity="0.3" fill-rule="evenodd" clip-rule="evenodd" d="M63.5653 130.908C60.82 145.247 94.0159 163.484 112.379 161.304C92.1071 154.976 69.6256 144.414 63.5653 130.908Z" fill="#280052"/>
</g>
<g opacity="0.3">
<path opacity="0.3" fill-rule="evenodd" clip-rule="evenodd" d="M111.896 175.972C114.941 176.828 119.812 176.605 126.518 175.289C128.017 175.001 129.612 174.647 131.298 174.242C131.37 176.1 130.798 178.064 129.153 178.597C128.431 178.832 127.693 179.049 126.933 179.237C122.625 180.336 117.711 180.76 112.276 180.561C110.492 180.494 108.663 180.359 106.783 180.17C106.47 180.139 106.171 180.079 105.866 179.999C103.56 179.381 101.793 177.405 101.269 175.033C100.67 172.345 101.358 167.659 104.081 168.042C104.457 168.089 104.837 168.147 105.242 168.208C105.256 168.216 105.277 168.209 105.291 168.217C106.34 168.359 107.462 168.514 108.676 168.664C107.308 172.545 108.377 174.982 111.896 175.972Z" fill="#280052"/>
</g>
<defs>
<radialGradient id="paint0_radial_86_2462" cx="0" cy="0" r="1" gradientUnits="userSpaceOnUse" gradientTransform="translate(233.658 194.455) rotate(38.0716) scale(60.4626 59.6049)">
<stop offset="0.05" stop-color="#FFFAF1"/>
<stop offset="0.41" stop-color="#7987FF" stop-opacity="0.99"/>
<stop offset="0.713542" stop-color="#00B2FF" stop-opacity="0.94"/>
<stop offset="0.98" stop-color="#001D83"/>
</radialGradient>
<clipPath id="clip0_86_2462">
<rect width="211.637" height="157.602" fill="white" transform="translate(0 274.267)"/>
</clipPath>
</defs>
</svg>
