<svg width="227" height="200" viewBox="0 0 227 200" fill="none" xmlns="http://www.w3.org/2000/svg">
<path d="M55.4888 82.224C52.6394 81.4883 40.9285 74.9008 47.5434 66.0312C49.6155 63.2567 53.9522 63.4195 56.9705 64.0033C58.6403 64.3292 60.04 65.1056 61.6225 65.5977C63.3453 66.1265 64.9683 65.1579 66.7775 65.9121C68.9929 66.8326 70.1654 69.2192 71.9063 70.7374C74.1093 72.6578 76.1802 74.8365 78.281 76.9539C80.9398 79.6276 83.6565 82.2472 86.4334 84.795C89.9863 88.0622 91.9055 91.774 94.5758 95.7882C95.5659 97.2762 96.5267 99.1232 95.8062 100.759C95.4757 101.503 94.8457 102.069 94.2306 102.605C92.9752 103.702 91.6617 104.827 90.0666 105.31C86.9068 106.264 83.6291 104.485 80.8576 102.692C71.8718 96.875 65.8688 84.9052 55.4888 82.224Z" fill="white"/>
<path d="M90.7798 106.612C90.6886 106.644 90.5973 106.675 90.5034 106.699C86.8365 107.812 83.1786 105.917 80.0868 103.912C76.3291 101.481 73.0898 98.0376 69.9586 94.71C65.3223 89.7828 60.9407 85.1252 55.1295 83.6245C53.0837 83.0966 46.531 79.7924 44.619 74.3506C43.5567 71.3217 44.1617 68.1429 46.3842 65.1633C49.0433 61.5991 54.3341 62.0113 57.2454 62.581C58.3951 62.8054 59.3812 63.197 60.3495 63.5862C60.932 63.8192 61.4838 64.0372 62.0555 64.2143C62.5788 64.3742 63.1709 64.3145 63.8545 64.2488C64.8253 64.152 66.035 64.0324 67.3382 64.5783C69.0758 65.2978 70.2378 66.6923 71.2735 67.9178C71.8094 68.5583 72.317 69.1661 72.8665 69.6487C74.669 71.2223 76.3944 72.967 78.0609 74.6641C78.48 75.0896 78.8992 75.5152 79.3157 75.9331C81.9514 78.5892 84.6757 81.2062 87.4193 83.7314C90.3094 86.3849 92.1411 89.2759 94.084 92.3413C94.6273 93.2005 95.1989 94.0925 95.7884 94.9869C96.8637 96.5986 98.1637 99.0093 97.1376 101.338C96.6755 102.391 95.8512 103.109 95.1908 103.686C93.9583 104.775 92.5668 105.996 90.7798 106.612ZM50.7053 65.5273C49.9068 65.8028 49.2067 66.2402 48.705 66.9069C47.0419 69.1403 46.5987 71.259 47.3539 73.3982C48.7545 77.3826 54.0724 80.3641 55.8582 80.8286C62.4728 82.537 67.351 87.7211 72.0671 92.7314C75.0773 95.9305 78.1957 99.2455 81.6562 101.481C84.3176 103.2 87.1292 104.69 89.6576 103.928C90.9812 103.522 92.1535 102.505 93.2853 101.518C93.7769 101.093 94.2785 100.648 94.4848 100.185C94.8276 99.4033 94.4746 98.2571 93.3759 96.6024C92.7607 95.6828 92.1914 94.773 91.6353 93.9012C89.801 91.0025 88.065 88.2657 85.4601 85.8713C82.6832 83.3235 79.9279 80.6661 77.2666 77.9848C76.8474 77.5593 76.4282 77.1338 75.9988 76.7033C74.3736 75.0516 72.6841 73.3369 70.9689 71.8439C70.25 71.2155 69.6419 70.4892 69.0519 69.7907C68.1553 68.7215 67.3128 67.7103 66.232 67.2663C65.5957 67.0008 64.9553 67.0686 64.1395 67.1459C63.2678 67.234 62.2868 67.3258 61.2021 66.9938C60.5257 66.7847 59.8947 66.5344 59.2815 66.2865C58.4027 65.9345 57.575 65.6074 56.7006 65.4411C55.3928 65.1776 52.7509 64.8213 50.7053 65.5273Z" fill="#583F66"/>
<path d="M67.2995 76.8201C66.9345 76.9461 66.5121 76.9302 66.1436 76.7255C65.4963 76.3787 64.5368 76.5821 63.4302 76.8279C62.0291 77.1327 60.4376 77.4777 58.8858 76.7537L58.8346 76.7288C56.7512 75.7714 55.702 73.9889 55.703 71.4271C55.7004 70.7046 56.0192 69.3351 58.1353 68.3155C59.0894 67.8501 60.0825 67.6946 60.9563 67.5632C61.7461 67.4353 62.4871 67.9796 62.615 68.7694C62.7429 69.5592 62.1987 70.3002 61.4088 70.4281C60.6672 70.5479 59.9637 70.6545 59.3941 70.9277C58.8828 71.1722 58.6563 71.4035 58.5937 71.4932C58.6143 73.4519 59.5373 73.8823 60.0408 74.1085L60.1022 74.1384C60.772 74.4518 61.7619 74.2379 62.8051 74.0055C64.262 73.69 65.9169 73.3316 67.5032 74.1798C68.2118 74.5565 68.473 75.4365 68.0937 76.1376C67.9191 76.4701 67.6265 76.7073 67.2995 76.8201Z" fill="#583F66"/>
<path d="M150.857 89.0844C159.425 71.4847 152.104 50.2708 134.505 41.702C116.905 33.1331 95.6911 40.454 87.1223 58.0538C78.5534 75.6535 85.8743 96.8673 103.474 105.436C121.074 114.005 142.288 106.684 150.857 89.0844Z" fill="white"/>
<path d="M131.012 108.404C111.803 115.033 90.7836 104.799 84.1546 85.5899C77.5257 66.3813 87.7598 45.3615 106.968 38.7326C126.177 32.1036 147.197 42.3377 153.826 61.5463C160.455 80.7549 150.221 101.775 131.012 108.404ZM107.887 41.3941C90.1459 47.5165 80.6937 66.9305 86.8162 84.6714C92.9386 102.412 112.353 111.865 130.094 105.742C147.834 99.6197 157.287 80.2057 151.164 62.4648C145.042 44.7238 125.628 35.2716 107.887 41.3941Z" fill="#583F66"/>
<path fill-rule="evenodd" clip-rule="evenodd" d="M94.528 99.2253C90.5499 95.4411 87.4011 90.6814 85.4854 85.1303C80.927 71.9215 84.6353 57.8597 93.861 48.5657C94.4486 48.3204 95.0415 48.0903 95.6499 47.8803C109.946 42.9467 125.527 50.5389 130.458 64.8275C131.589 68.105 132.062 71.4479 131.941 74.7233C129.013 77.5806 127.764 81.9263 129.031 86.0673C125.939 92.2234 120.532 97.2209 113.506 99.6458C107.077 101.856 100.391 101.542 94.528 99.2253Z" fill="#381B49"/>
<path d="M113.621 99.9551C107.37 102.112 100.545 101.966 94.404 99.5321C94.3657 99.5198 94.3297 99.4896 94.2964 99.4671C90.1282 95.5017 87.0554 90.7158 85.1659 85.2407C80.681 72.2448 83.9178 58.099 93.6193 48.3344C93.6521 48.3061 93.6849 48.2778 93.7229 48.2646C94.3231 48.0064 94.9312 47.7711 95.5319 47.5637C109.98 42.5776 125.783 50.2718 130.77 64.7201C131.888 67.9595 132.396 71.3326 132.277 74.7352C132.273 74.8218 132.241 74.901 132.178 74.9652C129.237 77.8354 128.154 82.047 129.353 85.9649C129.382 86.0485 129.37 86.1377 129.328 86.2119C126.071 92.7055 120.488 97.5854 113.621 99.9551ZM94.708 98.9336C100.683 101.28 107.317 101.416 113.393 99.319C120.054 97.0201 125.471 92.2997 128.669 86.0306C127.474 81.9499 128.588 77.5828 131.609 74.5744C131.712 71.2966 131.214 68.0557 130.138 64.9379C125.273 50.8394 109.848 43.3295 95.7498 48.1949C95.187 48.3891 94.6094 48.614 94.0446 48.8514C84.5598 58.4306 81.4014 72.2856 85.797 85.0228C87.6495 90.3661 90.6449 95.0511 94.708 98.9336Z" fill="#381B49"/>
<path d="M86.2192 126.959C77.973 134.579 68.4402 140.813 58.1591 145.322C56.8879 145.88 55.5682 146.421 54.1893 146.42C51.2638 146.426 48.9088 144.09 47.0885 141.799C44.4588 138.494 42.1772 134.916 40.2928 131.132C38.7569 128.063 37.46 124.502 38.5782 121.257C40.0318 117.011 45.4422 115.007 49.7181 116.4C51.3774 116.942 52.9291 117.887 54.6607 118.047C57.22 118.287 59.5753 116.802 61.8809 115.666C67.5323 112.881 74.4322 112.211 80.4197 114.272C82.853 115.109 86.9554 116.935 88.6125 118.95C90.8341 121.664 88.4438 124.897 86.2192 126.959Z" fill="white"/>
<path d="M72.7158 139.491C72.7835 139.637 72.8485 139.777 72.9238 139.921C73.0866 139.677 73.2596 139.439 73.4353 139.208C73.866 138.557 74.3481 137.957 74.8664 137.412C74.7909 137.243 74.7153 137.073 74.6397 136.903C74.4781 136.534 74.1646 136.242 73.7817 136.119C73.5622 136.05 73.3356 136.034 73.1172 136.067C72.947 136.092 72.7823 136.157 72.6255 136.245C70.8887 137.279 69.1529 138.414 67.4778 139.503C61.664 143.296 56.1762 146.875 53.0857 144.75C43.8603 138.411 39.0808 130.529 40.2931 123.66C40.8836 120.316 42.8975 117.817 45.5565 117.138C48.1824 116.462 51.0632 117.757 53.422 120.695C53.6591 120.988 54.0045 121.175 54.3764 121.217C54.7483 121.259 55.1261 121.146 55.4161 120.901C65.681 112.448 76.5412 112.428 88.6303 120.85C88.9455 121.074 89.3279 121.146 89.6885 121.081C89.516 120.409 89.336 119.739 89.1483 119.072C88.9696 118.529 88.7832 117.989 88.5969 117.449C76.533 109.716 65.1449 109.859 54.6947 117.873C51.7697 114.798 48.2483 113.545 44.8535 114.411C41.1163 115.368 38.3101 118.728 37.52 123.171C36.1059 131.156 41.3264 140.094 51.4871 147.072C56.1382 150.266 62.3966 146.183 69.0138 141.857C70.2317 141.071 71.4672 140.262 72.7158 139.491Z" fill="#583F66"/>
<path d="M145.03 91.3711C139.768 93.1871 134.009 90.3833 132.193 85.1211C130.377 79.8589 133.181 74.1002 138.443 72.2842C143.706 70.4682 149.464 73.2719 151.28 78.5342C153.096 83.7964 150.293 89.5551 145.03 91.3711ZM139.099 74.1853C134.887 75.6391 132.641 80.2522 134.094 84.465C135.548 88.6778 140.161 90.9239 144.374 89.47C148.587 88.0161 150.833 83.403 149.379 79.1902C147.925 74.9774 143.312 72.7314 139.099 74.1853Z" fill="#583F66"/>
<path d="M143.848 94.553C137.361 96.7915 130.255 93.3379 128.014 86.8438C125.776 80.3573 129.229 73.251 135.723 71.0099C142.217 68.7687 149.316 72.2249 151.557 78.719C153.796 85.2055 150.342 92.3118 143.848 94.553ZM136.51 73.2912C131.279 75.0967 128.49 80.8247 130.295 86.0565C132.101 91.2883 137.829 94.0772 143.061 92.2717C148.292 90.4661 151.081 84.7381 149.276 79.5063C147.47 74.2745 141.742 71.4857 136.51 73.2912Z" fill="#583F66"/>
<path fill-rule="evenodd" clip-rule="evenodd" d="M142.855 99.789C139.398 102.939 135.252 105.451 130.553 107.073C128.758 107.692 126.952 108.154 125.149 108.478C124.705 114.835 124.015 121.047 123.071 127.117C120.23 126.872 117.55 128.775 116.912 131.634L114.07 144.435C113.437 147.334 115.098 150.225 117.84 151.167C116.246 156.756 114.423 162.201 112.35 167.512C127.095 169.921 138.321 168.421 146.028 163.013C157.397 160.298 163.508 148.76 164.346 128.404C163.793 127.59 158.907 122.333 158.243 121.915C157.802 117.208 157.044 112.151 155.956 106.731C150.733 102.866 146.369 100.551 142.855 99.789Z" fill="white"/>
<g opacity="0.3">
<path opacity="0.3" fill-rule="evenodd" clip-rule="evenodd" d="M136.795 149.477C136.108 152.59 132.995 154.567 129.889 153.877L125.74 152.952C128.846 153.641 131.959 151.665 132.647 148.551L135.488 135.75C135.915 133.807 135.312 131.863 134.039 130.515C135.172 131.851 135.695 133.688 135.29 135.521L134.709 138.155L132.451 148.33C131.764 151.443 128.65 153.42 125.537 152.733L118.275 151.12C117.104 150.86 116.095 150.255 115.321 149.442C115.823 150.034 116.444 150.526 117.155 150.885C117.373 150.997 117.61 151.094 117.843 151.175C117.705 151.665 117.56 152.158 117.416 152.65C116.785 154.817 116.11 156.956 115.397 159.083C114.445 161.922 113.432 164.731 112.345 167.523C117.765 168.409 122.704 168.764 127.172 168.592C132.315 163.941 135.844 159.864 137.761 156.343C140.578 150.92 142.199 143.902 142.596 135.289C141.957 129.714 138.052 127.496 130.874 128.62C131.354 128.727 131.811 128.892 132.235 129.112L135.229 129.772C138.342 130.459 140.319 133.573 139.629 136.679L136.795 149.477Z" fill="#381B49"/>
</g>
<path d="M139.576 167.818C132.306 170.326 123.113 170.691 112.127 168.891C111.712 168.822 111.343 168.566 111.13 168.197C110.918 167.828 110.885 167.388 111.044 166.984C112.938 162.118 114.656 157.057 116.153 151.928C113.461 150.389 112.011 147.248 112.7 144.116L115.539 131.308C116.224 128.238 118.823 126.004 121.86 125.705C122.704 120.061 123.332 114.237 123.748 108.366C123.754 108.236 123.781 108.116 123.823 107.991C123.991 107.516 124.407 107.168 124.902 107.074C126.659 106.765 128.407 106.307 130.095 105.724C134.506 104.202 138.485 101.85 141.902 98.7306C142.24 98.4269 142.706 98.2998 143.148 98.3944C146.891 99.2046 151.352 101.554 156.793 105.582C157.078 105.79 157.269 106.099 157.337 106.441C158.376 111.648 159.136 116.611 159.589 121.204C161.246 122.725 165.065 126.938 165.512 127.593C165.683 127.84 165.77 128.142 165.753 128.437C164.939 148.198 159.096 160.069 148.374 163.769C147.803 163.966 147.217 164.142 146.621 164.288C144.523 165.753 142.169 166.923 139.576 167.818ZM114.291 166.383C127.754 168.332 138.156 166.81 145.227 161.851C145.371 161.75 145.533 161.677 145.705 161.635C156.241 159.122 162.035 148.093 162.918 128.854C161.836 127.568 158.156 123.613 157.464 123.086C157.11 122.85 156.877 122.471 156.84 122.042C156.418 117.541 155.695 112.659 154.684 107.535C150.17 104.243 146.327 102.157 143.232 101.327C139.658 104.458 135.544 106.839 131.004 108.406C129.521 108.918 127.999 109.341 126.466 109.657C126.023 115.648 125.343 121.593 124.454 127.329C124.34 128.058 123.679 128.584 122.94 128.515C120.756 128.325 118.754 129.798 118.275 131.938L115.434 144.739C114.953 146.921 116.177 149.112 118.291 149.837C118.996 150.079 119.393 150.836 119.189 151.553C117.754 156.592 116.113 161.575 114.291 166.383ZM157.484 123.096C157.495 123.101 157.497 123.108 157.505 123.106C157.495 123.101 157.487 123.103 157.484 123.096Z" fill="#583F66"/>
<g opacity="0.35">
<path opacity="0.35" fill-rule="evenodd" clip-rule="evenodd" d="M144.638 163.918C145.116 163.625 145.576 163.33 146.028 163.013C154.818 160.915 160.467 153.536 162.961 140.889C159.586 149.406 155.34 154.165 150.242 155.15C147.545 158.557 145.679 161.482 144.638 163.918Z" fill="#381B49"/>
</g>
<path d="M137.464 72.8009C137.388 72.8272 137.31 72.8458 137.226 72.8492C136.674 72.9034 136.184 72.4939 136.13 71.9424C135.262 62.7448 129.997 54.4433 122.053 49.7214C114.112 45.0073 104.298 44.3604 95.8114 48.0039C95.2998 48.223 94.7071 47.9851 94.488 47.4735C94.2689 46.9619 94.5069 46.3692 95.0184 46.1501C104.093 42.2612 114.591 42.9441 123.081 47.9883C131.577 53.0299 137.197 61.9154 138.13 71.7458C138.178 72.2312 137.89 72.654 137.464 72.8009Z" fill="#583F66"/>
<path d="M118.817 103.029C118.034 103.3 117.233 103.542 116.426 103.744C109.601 105.495 102.311 104.837 95.912 101.905C95.4058 101.671 95.1833 101.076 95.4171 100.569C95.6509 100.063 96.2464 99.8407 96.7526 100.074C109.054 105.709 123.848 101.923 131.93 91.0662C132.261 90.6201 132.894 90.5294 133.34 90.8605C133.786 91.1916 133.877 91.8241 133.546 92.2703C129.828 97.2551 124.665 101.011 118.817 103.029Z" fill="#583F66"/>
<path fill-rule="evenodd" clip-rule="evenodd" d="M123.071 127.117C120.227 126.865 117.548 128.768 116.911 131.634L114.073 144.443C113.429 147.337 115.1 150.232 117.843 151.175C116.256 156.761 114.425 162.209 112.352 167.52C91.6121 172.226 76.633 167.413 67.4201 153.096C60.2142 159.242 53.4881 167.469 48.0838 164.977C19.5584 151.785 32.7777 127.259 45.895 138.858C54.9757 128.355 66.4383 126.356 80.2854 132.87C82.2359 130.631 83.7808 127.562 84.9075 123.676C76.9726 118.117 69.6896 110.699 63.0636 101.412C58.3929 101.416 59.2676 96.7993 55.5818 94.429C55.7542 94.8546 54.7356 95.972 54.3696 96.243C53.996 96.5166 53.487 96.4965 53.1378 96.2C44.1523 89.1996 62.2138 73.9204 68.0846 80.6001C70.5992 79.2557 73.6809 79.5794 75.8577 81.4237C78.0345 83.268 76.0017 86.8714 77.947 88.9574C91.649 103.657 104.871 108.31 112.42 108.411C116.542 109.21 120.845 109.248 125.141 108.481C124.704 114.835 124.014 121.047 123.071 127.117Z" fill="white"/>
<path d="M112.809 168.843C112.763 168.859 112.71 168.877 112.662 168.885C92.0385 173.56 76.7309 168.954 67.1397 155.193C66.0458 156.166 64.9549 157.172 63.8967 158.15C58.092 163.523 52.6098 168.598 47.4968 166.235C36.3021 161.069 29.6523 153.144 29.7041 145.033C29.7302 140.522 31.9392 136.739 35.4563 135.167C38.6492 133.742 42.3347 134.385 45.7373 136.921C54.8706 127.063 66.344 125.121 79.8756 131.14C81.2304 129.344 82.3635 127.03 83.2576 124.245C75.7003 118.794 68.6612 111.59 62.3076 102.796C59.3203 102.5 58.2098 100.441 57.3041 98.7533C56.8993 97.9994 56.5125 97.2734 55.9716 96.6431C55.5642 97.0901 55.1882 97.3815 55.1806 97.3841C54.2894 98.0321 53.0858 97.9964 52.2388 97.2931C49.8249 95.4029 48.8249 92.727 49.432 89.7517C50.5447 84.2958 56.5637 79.2231 61.5056 77.9091C64.2403 77.178 66.6305 77.5446 68.3571 78.923C71.1922 77.817 74.3956 78.3454 76.765 80.3531C78.377 81.72 78.3898 83.6559 78.391 85.2128C78.3976 86.5636 78.4398 87.4256 78.9699 88C91.8871 101.856 104.727 106.905 112.428 107.004C112.515 107.008 112.602 107.013 112.693 107.032C116.696 107.804 120.799 107.834 124.895 107.102C125.393 107.015 125.888 107.193 126.218 107.581C126.463 107.871 126.576 108.249 126.542 108.618C126.095 114.968 125.393 121.269 124.45 127.339C124.335 128.068 123.674 128.594 122.936 128.525C120.751 128.335 118.747 129.801 118.276 131.938L115.437 144.746C114.954 146.921 116.18 149.119 118.284 149.84C118.989 150.082 119.386 150.838 119.182 151.555C117.585 157.161 115.728 162.704 113.65 168.025C113.512 168.413 113.197 168.709 112.809 168.843ZM66.966 151.755C67.1789 151.682 67.4026 151.664 67.6345 151.695C68.037 151.751 68.3906 151.987 68.6104 152.328C77.4406 166.054 91.4199 170.633 111.312 166.304C113.102 161.653 114.73 156.827 116.152 151.946C113.459 150.407 112.001 147.268 112.698 144.134L115.537 131.325C116.222 128.255 118.821 126.022 121.858 125.723C122.616 120.645 123.202 115.413 123.612 110.14C119.806 110.628 116.007 110.518 112.283 109.812C103.985 109.663 90.377 104.36 76.9168 89.917C75.5942 88.5012 75.5877 86.6823 75.5774 85.2221C75.5682 83.8637 75.5336 82.9991 74.9432 82.4965C73.1976 81.014 70.7603 80.7573 68.7415 81.837C68.1673 82.1458 67.4511 82.0185 67.0185 81.5295C65.7337 80.0752 63.7053 80.2391 62.2313 80.6286C57.7741 81.8179 52.9916 86.4298 52.2033 90.3101C51.8235 92.1687 52.3328 93.6694 53.7652 94.8856C53.9136 94.7237 54.0819 94.521 54.1771 94.3775C54.1883 93.9907 54.3623 93.6073 54.6801 93.3444C55.1491 92.9528 55.8228 92.9075 56.3453 93.2378C58.1946 94.4292 59.0872 96.0785 59.8008 97.4066C60.7946 99.2507 61.2656 99.9987 63.0719 100.005C63.5221 100.003 63.957 100.227 64.2204 100.596C70.7097 109.709 77.9438 117.084 85.7198 122.527C86.2145 122.876 86.4271 123.492 86.2628 124.076C85.0871 128.141 83.4324 131.41 81.3537 133.795C80.9389 134.27 80.2637 134.41 79.6961 134.146C66.3578 127.873 55.6517 129.721 46.9606 139.775C46.7168 140.055 46.3626 140.237 45.9889 140.264C45.6152 140.291 45.2475 140.162 44.965 139.911C42.1453 137.412 39.0892 136.62 36.6129 137.73C34.1137 138.848 32.5457 141.652 32.5255 145.046C32.4821 152.022 38.5214 158.993 48.6758 163.684C52.0861 165.256 56.8906 160.806 61.9848 156.087C63.4561 154.728 64.9702 153.32 66.5082 152.007C66.6419 151.901 66.7987 151.813 66.966 151.755Z" fill="#583F66"/>
<g opacity="0.35">
<path opacity="0.35" fill-rule="evenodd" clip-rule="evenodd" d="M58.0502 97.168C55.7004 91.222 53.2882 89.7313 50.8162 92.7033C51.0943 93.9775 51.832 95.1781 53.135 96.1921C53.4842 96.4887 53.9932 96.5087 54.3668 96.2351C54.7328 95.9641 55.759 94.8441 55.579 94.4212C56.7624 95.1871 57.4775 96.1743 58.0502 97.168Z" fill="#381B49"/>
</g>
<g opacity="0.35">
<path opacity="0.35" fill-rule="evenodd" clip-rule="evenodd" d="M57.2579 82.149L56.6979 81.8827C60.6408 78.9562 65.5145 77.6913 68.0765 80.6025C68.4205 80.4157 68.7701 80.2696 69.1351 80.1436C71.6533 83.9636 72.3875 86.0419 70.9084 86.663C67.7398 81.4762 62.9336 80.2244 57.2579 82.149Z" fill="#381B49"/>
</g>
<g opacity="0.35">
<path opacity="0.35" fill-rule="evenodd" clip-rule="evenodd" d="M46.3905 138.297C43.9038 142.04 44.3706 147.462 46.9331 152.101C43.4095 151.606 41.114 147.199 40.8818 141.347C40.036 137.861 37.3103 137.755 31.5491 141.947L31.8698 141.002C33.9415 135.786 39.9298 133.583 45.8953 138.86C46.0586 138.667 46.2245 138.482 46.3905 138.297Z" fill="#381B49"/>
<path opacity="0.35" d="M42.9921 118.472C43.9303 117.372 45.7473 118.019 46.8273 118.972C47.9149 119.924 48.9352 120.616 49.222 122.032C49.5164 123.445 49.6944 124.916 50.3814 126.185C51.3754 128.02 53.443 129.219 55.5361 129.165C54.3047 127.898 54.6086 125.681 55.7525 124.339C56.904 122.995 58.6438 122.34 60.3449 121.844C63.9625 120.785 67.7312 120.236 71.5038 120.213C72.8037 120.205 74.3346 120.151 75.0696 119.079C75.7321 118.117 75.3591 116.722 74.525 115.913C73.6834 115.106 73.2655 114.663 72.1184 114.473C67.0582 113.631 60.8906 115.218 56.9645 118.529C56.3198 119.076 55.6658 119.695 54.8359 119.855C53.3309 120.155 52.0159 118.917 50.9092 117.862C49.7949 116.809 48.3969 116.46 46.8408 116.565C46.6164 116.605 45.5269 116.983 44.9822 117.172" fill="#381B49"/>
</g>
<g opacity="0.3">
<path opacity="0.3" fill-rule="evenodd" clip-rule="evenodd" d="M99.3444 165.558C67.7923 158.934 68.9797 142.968 65.502 145.368C57.9402 150.581 57.2394 167.341 34.7363 154.93C37.4094 158.483 41.6977 162.007 48.0864 164.96C53.4907 167.452 60.2167 159.225 67.4227 153.079C76.6356 167.396 91.6147 172.209 112.355 167.502C113.44 164.728 114.45 161.911 115.407 159.062C115.97 157.14 115.707 153.419 114.144 151.873C112.448 150.782 111.798 150.232 111.205 148.513C113.865 154.148 113.06 156.23 111.329 159.253C109.163 163.038 111.728 165.71 99.3444 165.558Z" fill="#381B49"/>
</g>
<g opacity="0.3">
<path opacity="0.3" fill-rule="evenodd" clip-rule="evenodd" d="M76.943 131.446C82.7113 133.71 87.8294 137.518 92.3024 142.884C93.2632 144.731 94.5715 141.42 95.753 141.761C101.872 143.513 106.952 145.904 110.51 146.055C111.464 149.904 111.81 150.389 114.139 151.883C115.699 153.421 115.965 157.151 115.403 159.072C116.108 156.948 116.782 154.809 117.421 152.64C117.384 152.065 117.291 151.476 117.16 150.875C116.449 150.516 115.829 150.024 115.326 149.431C114.06 148.081 113.455 146.154 113.869 144.224C113.614 143.878 113.348 143.527 113.075 143.179C111.24 143.14 109.164 142.844 106.838 142.293C105.374 141.973 103.884 141.576 102.358 141.099C106.046 142.192 109.752 142.896 113.485 143.208C113.748 141.432 113.542 141.179 114.21 140.574C98.7611 138.247 92.0482 134.947 92.7098 132.549C93.1091 131.339 93.6601 130.272 94.3524 129.344L94.3249 129.387C97.2665 130.661 99.9159 131.73 102.309 132.597C106.492 133.375 110.758 134.294 115.122 135.35C115.676 132.171 116.758 129.883 118.359 128.48C119.407 127.471 120.825 126.871 122.318 126.858C122.549 126.838 122.793 126.83 123.04 126.83C123.04 126.805 123.035 126.789 123.034 126.764C118.237 126.13 115.591 128.252 114.122 132.256C108.97 132.469 103.502 130.926 98.7889 128.587C99.9811 127.776 99.6115 126.261 99.0328 125.669C98.0503 126.102 95.896 126.147 94.8759 126.15C90.5774 126 88.2308 125.661 84.1875 123.167C84.4259 123.34 84.6643 123.513 84.9077 123.676C83.7811 127.562 82.2411 130.621 80.2932 132.868C79.1581 132.341 78.0414 131.866 76.943 131.446Z" fill="#381B49"/>
</g>
<g opacity="0.3">
<path opacity="0.3" fill-rule="evenodd" clip-rule="evenodd" d="M77.9546 88.9546C87.1058 106.101 101.231 115.787 120.324 117.998L120.156 117.979C121.449 118.818 122.409 121.797 123.051 126.911C123.069 126.913 123.087 126.916 123.112 126.915C123.55 124.092 123.925 121.231 124.256 118.343C124.623 115.093 124.927 111.805 125.159 108.483C120.87 109.248 116.56 109.212 112.438 108.414C104.879 108.308 91.6566 103.654 77.9546 88.9546Z" fill="#381B49"/>
</g>
<path d="M133.332 154.655C132.161 155.059 130.902 155.136 129.665 154.856L125.516 153.931C124.973 153.812 124.634 153.273 124.753 152.73C124.872 152.187 125.411 151.848 125.954 151.967C127.198 152.244 128.473 152.017 129.554 151.329C130.636 150.641 131.383 149.574 131.66 148.33L134.501 135.529C135.055 133.015 133.478 130.47 130.984 129.85C130.453 129.718 130.122 129.177 130.243 128.642C130.373 128.103 130.903 127.767 131.439 127.889L135.447 128.777C139.107 129.591 141.424 133.225 140.611 136.884L137.769 149.685C137.376 151.455 136.313 152.962 134.779 153.942C134.322 154.245 133.834 154.481 133.332 154.655ZM130.699 152.993C131.746 153.092 132.799 152.839 133.706 152.262C134.787 151.574 135.534 150.508 135.811 149.263L138.653 136.462C139.182 134.075 137.829 131.708 135.579 130.91C136.493 132.374 136.86 134.179 136.46 135.977L133.618 148.777C133.24 150.516 132.2 152.016 130.699 152.993Z" fill="#583F66"/>
<path d="M154.156 135.571C153.89 135.663 153.592 135.638 153.349 135.501L146.817 131.934C146.325 131.67 146.148 131.058 146.413 130.567C146.677 130.076 147.289 129.899 147.78 130.163L153.829 133.463C158.951 130.674 162.286 128.698 163.742 127.591C164.186 127.25 164.813 127.34 165.153 127.785C165.494 128.229 165.404 128.856 164.96 129.196C163.354 130.414 159.863 132.478 154.308 135.493C154.252 135.529 154.202 135.555 154.156 135.571Z" fill="#583F66"/>
<path d="M145.214 164.723C144.88 164.839 144.5 164.774 144.22 164.53C143.804 164.163 143.764 163.53 144.131 163.114C149.921 156.538 152.844 146.959 152.819 134.628C152.815 134.076 153.263 133.624 153.823 133.618C154.375 133.615 154.827 134.063 154.833 134.622C154.862 147.454 151.77 157.482 145.644 164.439C145.518 164.567 145.374 164.668 145.214 164.723Z" fill="#583F66"/>
<path d="M124.296 169.431C124.159 169.479 124.03 169.523 123.893 169.57C123.366 169.744 122.798 169.455 122.625 168.928C122.454 168.408 122.735 167.843 123.252 167.664C123.26 167.662 123.26 167.662 123.268 167.659C130.833 165.167 136.158 159.466 139.032 150.705C141.97 141.759 142.481 129.405 140.55 113.971C140.497 113.521 140.747 113.086 141.165 112.916C146.102 110.897 150.918 108.529 155.454 105.866C155.929 105.591 156.544 105.745 156.829 106.225C157.114 106.706 156.952 107.323 156.469 107.6C152.065 110.176 147.418 112.494 142.631 114.478C144.483 129.855 143.909 142.248 140.931 151.326C137.902 160.575 132.304 166.668 124.296 169.431Z" fill="#583F66"/>
<path d="M124.687 109.582C124.079 109.324 123.797 108.629 124.047 108.024C124.298 107.418 125 107.134 125.605 107.384C127.397 108.136 133.373 110.312 135.181 112.692C130.748 113.336 126.476 110.326 124.687 109.582Z" fill="#583F66"/>
<path d="M115.507 136.493C115.408 136.527 115.304 136.546 115.198 136.557C109.656 136.946 100.62 133.895 84.0062 126.021C83.4053 125.734 83.1484 125.015 83.4346 124.414C83.7208 123.813 84.4406 123.556 85.0415 123.842C101.034 131.42 110.004 134.503 115.032 134.155C115.698 134.112 116.271 134.612 116.321 135.276C116.358 135.825 116.017 136.317 115.507 136.493Z" fill="#583F66"/>
<path d="M113.871 144.351C113.726 144.4 113.571 144.42 113.416 144.414C104.319 143.945 94.2917 140.215 80.9031 132.317C80.3271 131.98 80.1387 131.236 80.4786 130.668C80.816 130.092 81.5594 129.903 82.1278 130.243C95.1657 137.939 104.851 141.566 113.538 142.006C114.205 142.04 114.715 142.604 114.681 143.271C114.653 143.783 114.319 144.196 113.871 144.351Z" fill="#583F66"/>
<path d="M80.405 121.8C79.8993 121.371 79.843 120.616 80.2677 120.12C80.6974 119.614 81.4524 119.558 81.9479 119.983C84.1478 121.845 86.4881 123.275 88.9484 124.264C91.4114 125.261 94.0122 125.819 96.7458 125.948C99.0441 126.048 94.3445 129.346 88.061 126.477C85.3528 125.386 82.7974 123.826 80.405 121.8Z" fill="#583F66"/>
<path d="M77.7815 133.062C77.1882 132.773 76.9492 132.056 77.238 131.463C77.5268 130.869 78.2443 130.63 78.8375 130.919C82.2974 132.61 85.2342 134.388 87.6326 136.258C90.0745 138.155 91.9629 140.15 93.3129 142.237C96.5048 147.22 87.834 139.43 86.1692 138.133C83.8941 136.373 81.1058 134.681 77.7815 133.062Z" fill="#583F66"/>
<path d="M47.2354 135.69C47.7063 135.229 48.4697 135.247 48.9224 135.72C49.3827 136.191 49.3654 136.954 48.8919 137.407C47.0535 139.182 46.0207 141.121 45.791 143.217C45.5592 145.357 45.5956 148.569 47.0016 151.139C48.5739 154.043 43.5969 150.102 43.4197 142.955C43.7146 140.283 44.989 137.86 47.2354 135.69Z" fill="#583F66"/>
<path d="M67.7531 154.036C67.4642 154.136 67.1382 154.104 66.8717 153.924C60.0597 149.424 55.5882 142.04 53.5841 131.967C53.474 131.426 53.8348 130.893 54.3755 130.783C54.9162 130.673 55.4465 131.026 55.5592 131.574C57.4507 141.099 61.6275 148.049 67.9759 152.241C68.4396 152.549 68.5682 153.168 68.2602 153.632C68.1325 153.829 67.9509 153.968 67.7531 154.036Z" fill="#583F66"/>
<path d="M73.3697 114.433C72.883 114.601 72.3362 114.373 72.1276 113.891C71.9009 113.382 72.1286 112.785 72.63 112.561C80.4261 109.062 84.9868 103.931 86.1865 97.3214C86.2876 96.7759 86.8078 96.4091 87.3532 96.5102C87.8987 96.6113 88.2655 97.1315 88.1644 97.677C86.8371 104.977 81.8848 110.601 73.4481 114.389C73.4305 114.412 73.4001 114.422 73.3697 114.433Z" fill="#583F66"/>
<path fill-rule="evenodd" clip-rule="evenodd" d="M123.619 127.004L130.881 128.617C133.995 129.304 135.971 132.417 135.284 135.531L132.443 148.332C131.756 151.445 128.642 153.422 125.529 152.735L118.267 151.122C115.153 150.435 113.177 147.321 113.864 144.208L116.705 131.407C117.4 128.291 120.511 126.307 123.619 127.004Z" fill="white"/>
<path d="M128.987 153.508C127.839 153.904 126.578 153.999 125.306 153.714L118.043 152.102C114.384 151.288 112.066 147.654 112.877 143.987L115.719 131.187C116.112 129.417 117.175 127.91 118.709 126.929C120.243 125.949 122.063 125.627 123.833 126.02L131.095 127.633C134.754 128.447 137.072 132.081 136.261 135.747L133.42 148.548C132.891 150.935 131.154 152.76 128.987 153.508ZM120.825 128.131C120.468 128.254 120.126 128.423 119.798 128.63C118.716 129.318 117.969 130.384 117.692 131.629L114.851 144.43C114.278 147.01 115.91 149.57 118.491 150.143L125.753 151.756C128.334 152.329 130.893 150.697 131.467 148.116L134.308 135.315C134.881 132.735 133.249 130.175 130.668 129.602L123.406 127.989C122.536 127.787 121.646 127.847 120.825 128.131Z" fill="#583F66"/>
<path d="M147.549 163.696C145.594 164.371 143.435 164.869 141.082 165.179C140.739 165.221 140.394 165.085 140.175 164.82C139.954 164.547 139.889 164.187 140.005 163.857C145.178 148.788 147.293 137.803 146.303 131.21C146.248 130.829 146.414 130.448 146.73 130.228C152.426 126.365 156.025 123.378 157.418 121.349L159.078 122.486C157.565 124.685 154.06 127.648 148.374 131.541C149.186 138.333 147.242 148.629 142.437 162.941C147.663 162.006 151.713 160.055 154.496 157.12L155.96 158.504C153.799 160.773 150.986 162.51 147.549 163.696Z" fill="#583F66"/>
<path fill-rule="evenodd" clip-rule="evenodd" d="M83.4848 122.661C82.7032 122.122 81.9388 121.535 81.1842 120.901C81.0072 120.758 80.8301 120.615 80.6557 120.48C79.0743 124.429 77.2256 127.876 75.1118 130.801C76.1585 131.146 77.2236 131.544 78.307 131.996C78.9637 132.271 79.6181 132.564 80.2879 132.878C80.7153 132.39 81.1269 131.857 81.5101 131.29C82.7026 129.543 83.7081 127.426 84.5188 124.942C84.6519 124.538 84.7798 124.12 84.9051 123.694C84.4358 123.345 83.9616 123.007 83.4848 122.661Z" fill="white"/>
<path d="M80.6522 134.599L79.6884 134.149C79.039 133.845 78.3949 133.557 77.7662 133.289C76.7313 132.855 75.6867 132.466 74.6783 132.133L72.8453 131.532L73.9736 129.968C76.0121 127.146 77.8184 123.774 79.3579 119.949L80.0718 118.171L81.5524 119.379C81.7269 119.514 81.8963 119.66 82.0707 119.796C82.8151 120.424 83.5537 120.986 84.2918 121.497L84.3251 121.52C84.7841 121.863 85.2481 122.197 85.7171 122.52L86.5373 123.097L86.2574 124.061C86.1298 124.505 85.997 124.934 85.8615 125.355C85.0062 127.957 83.9386 130.214 82.6785 132.062C82.2601 132.674 81.8134 133.254 81.3509 133.788L80.6522 134.599ZM77.3125 130.076C77.8208 130.266 78.3343 130.472 78.8505 130.685C79.1877 130.824 79.5379 130.975 79.8804 131.13C80.0385 130.922 80.1939 130.707 80.3468 130.484C81.4591 128.849 82.4147 126.834 83.1861 124.483C83.2082 124.399 83.2404 124.319 83.27 124.233C83.0675 124.09 82.8726 123.944 82.6778 123.799C82.1959 123.463 81.7165 123.109 81.2394 122.738C80.0594 125.434 78.7446 127.888 77.3125 130.076Z" fill="#583F66"/>
<path d="M71.4614 85.9704C71.3093 86.0229 71.1357 85.9637 71.0578 85.8119C69.024 82.0885 67.0386 80.059 65.1632 79.7786C64.9822 79.7475 64.8558 79.5783 64.8794 79.4C64.9105 79.2191 65.0796 79.0926 65.258 79.1162C67.3856 79.4372 69.4733 81.5165 71.6446 85.4902C71.7354 85.6546 71.6764 85.8537 71.512 85.9445C71.4994 85.9573 71.4842 85.9626 71.4614 85.9704Z" fill="#583F66"/>
<path d="M57.5182 95.9477C57.3966 95.9897 57.2487 95.9557 57.161 95.8497C56.4942 95.1012 55.2717 93.9998 53.5421 92.5883C53.3984 92.4678 53.3784 92.2619 53.4914 92.1208C53.612 91.977 53.8178 91.9571 53.9589 92.0701C55.7218 93.5041 56.9599 94.6256 57.655 95.407C57.7785 95.543 57.7681 95.7594 57.6294 95.8753C57.5917 95.9139 57.5563 95.9346 57.5182 95.9477Z" fill="#583F66"/>
<g opacity="0.3">
<path opacity="0.3" fill-rule="evenodd" clip-rule="evenodd" d="M134.092 112.225C140.55 109.384 145.767 106.179 149.739 102.621C147.161 101.17 144.869 100.225 142.863 99.786C139.405 102.936 135.26 105.448 130.56 107.07C128.766 107.689 126.959 108.151 125.156 108.475C124.924 111.797 124.621 115.085 124.253 118.335C123.922 121.223 123.545 124.077 123.11 126.908C125.828 127.263 124.771 113.203 134.092 112.225Z" fill="#381B49"/>
</g>
<g opacity="0.3">
<path opacity="0.3" fill-rule="evenodd" clip-rule="evenodd" d="M114.631 148.428C119.353 149.36 123.419 150.689 126.986 150.743C130.032 150.789 132.554 146.038 134.694 138.16L135.275 135.526C133.323 143.186 126.521 144.955 114.866 140.824C114.787 140.792 114.711 140.767 114.631 140.735L113.862 144.201C113.434 146.144 114.035 148.081 115.308 149.429C115.051 149.126 114.823 148.787 114.631 148.428Z" fill="#381B49"/>
</g>
<g opacity="0.3">
<path opacity="0.3" fill-rule="evenodd" clip-rule="evenodd" d="M144.366 93.0469C144.07 93.1747 143.763 93.2975 143.459 93.4025C141.147 94.2003 138.748 94.2027 136.564 93.544C127.895 104.254 116.676 108.117 102.899 105.136C105.894 106.664 109.106 107.76 112.43 108.391C112.504 108.408 112.575 108.418 112.649 108.435C116.356 109.113 120.201 109.207 124.049 108.645C124.422 108.593 124.785 108.536 125.154 108.468C126.964 108.141 128.77 107.679 130.557 107.063C135.257 105.441 139.403 102.929 142.86 99.779C145.616 97.2619 147.946 94.3473 149.77 91.148C147.845 91.9824 146.046 92.612 144.366 93.0469Z" fill="#381B49"/>
</g>
<g opacity="0.35">
<path opacity="0.35" fill-rule="evenodd" clip-rule="evenodd" d="M140.953 164.186C141.742 161.888 142.462 159.682 143.106 157.579C144.26 152.883 145.403 148.404 146.526 144.136C142.518 154.591 140.97 154.299 141.884 143.261C141.92 142.823 141.961 142.375 142.005 141.909C141.556 145.196 140.891 148.2 140.006 150.913C139.37 152.869 138.616 154.678 137.758 156.335C136.257 159.211 134.423 161.639 132.249 163.624C130.777 165.204 129.082 166.852 127.17 168.585C132.502 168.378 137.153 167.429 141.134 165.723C141.263 165.185 141.39 164.639 141.522 164.108C141.334 164.131 141.148 164.161 140.953 164.186Z" fill="#381B49"/>
</g>
<g opacity="0.35">
<path opacity="0.35" fill-rule="evenodd" clip-rule="evenodd" d="M151.4 152.044C147.522 157.995 145.713 159.19 145.976 155.635C146.693 151.55 146.96 147.219 146.797 142.629C146.711 143.119 146.63 143.623 146.533 144.133C145.796 148.064 144.656 152.551 143.114 157.576C142.462 159.682 141.75 161.885 140.96 164.183C141.156 164.158 141.341 164.128 141.537 164.103C142.847 163.906 144.089 163.656 145.261 163.354C147.929 160.186 149.983 156.422 151.4 152.044Z" fill="#381B49"/>
</g>
<g opacity="0.35">
<path opacity="0.35" fill-rule="evenodd" clip-rule="evenodd" d="M138.414 131.702C135.972 143.318 135.31 154.295 129.248 152.634C128.171 153.091 126.952 153.231 125.728 152.964L129.876 153.889C132.982 154.579 136.096 152.603 136.783 149.489L139.624 136.688C140.037 134.852 139.53 133.036 138.414 131.702Z" fill="#381B49"/>
</g>
<g opacity="0.3">
<path opacity="0.3" fill-rule="evenodd" clip-rule="evenodd" d="M144.511 72.5811C146.447 73.4791 148.128 74.9242 149.303 76.7994L149.306 76.807C149.693 77.388 150.013 78.0181 150.267 78.7049C151.172 80.3159 152.006 82.1896 152.759 84.3467C155.005 77.3167 155.083 69.5287 152.49 62.0156C148.336 49.9779 138.341 41.6067 126.769 38.9966C142.381 47.4458 150.271 59.0879 150.43 73.9255C147.588 70.9663 144.115 70.1736 140.01 71.5474C141.613 71.5051 143.12 71.853 144.511 72.5811Z" fill="#583F66"/>
</g>
<g opacity="0.3">
<path opacity="0.3" fill-rule="evenodd" clip-rule="evenodd" d="M141.102 72.7621C145.357 72.4679 149.24 75.1618 150.456 79.2524C151.664 83.3457 149.871 87.7175 146.143 89.7869C142.413 91.8488 137.746 91.0509 134.924 87.8549C137.699 89.4588 141.152 89.3054 143.773 87.4562C146.394 85.607 147.709 82.4131 147.131 79.2595C146.558 76.0957 144.204 73.5638 141.102 72.7621Z" fill="#583F66"/>
</g>
<g opacity="0.35">
<path opacity="0.35" fill-rule="evenodd" clip-rule="evenodd" d="M94.7177 97.9258C94.5777 97.1997 94.3308 96.4595 93.9821 95.7203C94.6992 96.4174 95.2968 97.36 95.7851 98.5531C95.4193 98.356 95.066 98.146 94.7177 97.9258ZM90.6086 94.5017C90.4563 94.0606 90.2813 93.6275 90.0835 93.2021C90.8568 93.9139 91.4945 94.8002 91.9891 95.8634C91.5164 95.4308 91.0537 94.9778 90.6086 94.5017Z" fill="#381B49"/>
</g>
<g opacity="0.8">
<path opacity="0.8" fill-rule="evenodd" clip-rule="evenodd" d="M93.0773 96.7731C92.4444 95.1363 91.2126 93.8849 90.5283 93.4062C92.365 94.117 93.5215 95.4709 94.003 97.4578C93.6903 97.2423 93.38 97.009 93.0773 96.7731Z" fill="white"/>
</g>
<path fill-rule="evenodd" clip-rule="evenodd" d="M93.0775 96.7733C92.1803 94.4448 90.0702 92.8923 90.0231 93.249C90.0675 93.3528 90.6792 94.1884 91.2543 95.1643C91.8353 95.7382 92.4464 96.2762 93.0775 96.7733ZM96.2697 98.6501C95.68 96.7687 93.9439 95.4616 93.9115 95.7621C93.943 95.8534 94.9881 97.2543 95.3964 98.3388C95.5884 98.4512 95.788 98.5611 95.9876 98.6709L96.2697 98.6501Z" fill="#381B49"/>
<path fill-rule="evenodd" clip-rule="evenodd" d="M94.5278 99.2255C90.5498 95.4413 87.4009 90.6816 85.4852 85.1304C85.0679 83.9213 84.7194 82.714 84.4445 81.4984C86.9089 88.1707 92.65 93.1677 99.7047 94.6221C107.389 96.1997 115.304 93.3152 120.153 87.1482C119.208 79.3048 124.076 71.9318 131.659 69.7147C131.916 71.3962 132 73.0692 131.944 74.7311C129.015 77.5884 127.766 81.934 129.033 86.075C125.941 92.2311 120.535 97.2287 113.508 99.6535C107.077 101.856 100.391 101.542 94.5278 99.2255Z" fill="#291138"/>
<g opacity="0.4">
<path opacity="0.4" fill-rule="evenodd" clip-rule="evenodd" d="M86.1246 73.6426C90.9981 51.392 102.665 45.5957 121.112 56.2665C108.126 53.0124 96.4672 58.8061 86.1246 73.6426Z" fill="white"/>
</g>
<g opacity="0.4">
<path opacity="0.4" fill-rule="evenodd" clip-rule="evenodd" d="M107.228 86.4602C110.642 85.2819 113.864 85.6422 114.426 87.2695C114.987 88.8969 112.673 91.1677 109.259 92.346C105.845 93.5243 102.62 93.1564 102.061 91.5366C101.502 89.9169 103.813 87.6385 107.228 86.4602Z" fill="white"/>
</g>
<g opacity="0.4">
<path opacity="0.4" fill-rule="evenodd" clip-rule="evenodd" d="M119.019 78.4853C120.532 77.963 122.197 78.7926 122.733 80.3439C123.268 81.8952 122.477 83.5724 120.956 84.0973C119.443 84.6195 117.778 83.7899 117.242 82.2386C116.707 80.6873 117.506 79.0075 119.019 78.4853Z" fill="white"/>
</g>
<path d="M113.839 100.586C107.436 102.796 100.449 102.646 94.159 100.153C94.0415 100.108 93.9313 100.035 93.8338 99.95C89.5884 95.9092 86.4587 91.0322 84.5351 85.4582C79.9662 72.2191 83.2637 57.8055 93.1415 47.861C93.2372 47.7684 93.3408 47.6986 93.4598 47.649C94.0752 47.3855 94.6985 47.1449 95.3145 46.9324C110.113 41.8255 126.297 49.7116 131.401 64.502C132.548 67.8251 133.065 71.2719 132.942 74.7611C132.929 75.0207 132.825 75.2609 132.641 75.4435C129.884 78.1311 128.867 82.0901 129.992 85.7696C130.069 86.0156 130.044 86.2881 129.926 86.5157C126.588 93.1654 120.873 98.1586 113.839 100.586ZM95.0814 98.3621C100.877 100.608 107.3 100.724 113.186 98.6926C119.596 96.4803 124.83 91.9679 127.964 85.9589C126.844 81.8011 127.973 77.4033 130.96 74.2961C131.021 71.1943 130.539 68.1186 129.515 65.1529C124.771 51.4042 109.727 44.0861 95.9857 48.8282C95.4763 49.004 94.9568 49.2003 94.4426 49.4118C85.2103 58.8102 82.1478 72.3512 86.4438 84.7995C88.2338 90.0112 91.1413 94.5648 95.0814 98.3621Z" fill="#583F66"/>
<path d="M53.6743 126.506C53.2639 125.218 52.9672 123.865 53.1617 122.53C53.3065 121.544 53.7615 120.545 54.5176 119.875C55.1579 119.314 56.18 118.774 56.0785 120.009C56.0129 120.78 54.5882 122.225 54.2535 123.056C53.8046 124.147 53.5269 125.315 53.6743 126.506Z" fill="#583F66"/>
</svg>
