<svg width="187" height="82" viewBox="0 0 187 82" fill="none" xmlns="http://www.w3.org/2000/svg">
<path d="M8 58.04L13.8 48.92V58.04H8ZM22.16 62.32V58.04H18.68V41.84H13.92L0.88 62.32H13.8V68H18.68V62.32H22.16ZM26.2253 65.36C26.2253 67.12 27.6253 68.4 29.3453 68.4C31.1053 68.4 32.5453 67.12 32.5453 65.36C32.5453 63.6 31.1053 62.32 29.3453 62.32C27.6253 62.32 26.2253 63.6 26.2253 65.36ZM51.2838 59.04C51.2838 61.44 49.2038 63.56 45.7238 63.56C43.7638 63.56 41.8438 62.24 40.7638 60.32C40.4438 60.56 36.9638 62.64 36.6438 62.88C38.5238 66.24 42.0438 68.4 45.7238 68.4C52.0438 68.4 56.1638 64.6 56.1638 59.04C56.1638 53.36 52.2838 50.32 47.4838 50.32C45.8038 50.32 43.7238 50.76 42.6438 51.72L43.5638 46.36H54.5238V41.84H39.6438L37.4438 55.48L40.2438 57.16C42.1638 55.08 44.4438 54.52 46.2438 54.52C49.0038 54.52 51.2838 56 51.2838 59.04ZM69.8869 59.96C69.8869 64.68 73.8869 68.44 79.7669 68.44C84.7669 68.44 89.2469 65.6 89.4469 60.64C89.6469 57.4 88.1269 53.96 81.9269 52.24L78.5269 51.24C75.5669 50.52 75.2469 48.88 75.2469 48.08C75.2469 46.12 77.0869 44.84 79.3669 44.84C81.9269 44.84 83.4869 46.24 83.4869 48.44H88.6069C88.6069 43.32 84.6469 40.12 79.4469 40.12C74.3669 40.12 70.1669 43.36 70.1669 48.2C70.1669 50.6 71.1269 54.16 77.1269 55.88L80.5269 56.76C83.1669 57.48 84.4469 58.72 84.3269 60.52C84.2069 62.4 82.5269 63.84 79.7669 63.84C76.8069 63.84 75.1269 62 75.0069 59.96H69.8869ZM92.0575 45.12H99.8175V68H104.978V45.12H112.738V40.44H92.0575V45.12ZM132.557 68H137.957L127.637 40.44H122.117L111.797 68H117.237L119.757 61.32H130.037L132.557 68ZM124.877 46.32L128.357 56.84H121.477L124.877 46.32ZM152.209 45C154.769 45 155.929 47.36 155.929 49.36C155.929 51.4 154.769 53.64 152.049 53.64H146.529V45H152.209ZM154.249 58C159.169 57.24 161.249 53.28 161.249 49.36C161.249 44.88 158.529 40.44 152.449 40.44H141.409V68H146.529V58.2H148.649L155.129 68H161.289L154.249 58ZM165.043 59.96C165.043 64.68 169.043 68.44 174.923 68.44C179.923 68.44 184.403 65.6 184.603 60.64C184.803 57.4 183.283 53.96 177.083 52.24L173.683 51.24C170.723 50.52 170.403 48.88 170.403 48.08C170.403 46.12 172.243 44.84 174.523 44.84C177.083 44.84 178.643 46.24 178.643 48.44H183.763C183.763 43.32 179.803 40.12 174.603 40.12C169.523 40.12 165.323 43.36 165.323 48.2C165.323 50.6 166.283 54.16 172.283 55.88L175.683 56.76C178.323 57.48 179.603 58.72 179.483 60.52C179.363 62.4 177.683 63.84 174.923 63.84C171.963 63.84 170.283 62 170.163 59.96H165.043Z" fill="white"/>
<path d="M22.4299 0L25.6696 9.97079H36.1535L27.6718 16.1331L30.9115 26.1039L22.4299 19.9416L13.9482 26.1039L17.1879 16.1331L8.70625 9.97079H19.1902L22.4299 0Z" fill="#FFC727"/>
<path d="M57.965 0L61.2047 9.97079H71.6886L63.207 16.1331L66.4467 26.1039L57.965 19.9416L49.4834 26.1039L52.7231 16.1331L44.2414 9.97079H54.7253L57.965 0Z" fill="#FFC727"/>
<path d="M93.5002 0L96.7399 9.97079H107.224L98.7421 16.1331L101.982 26.1039L93.5002 19.9416L85.0185 26.1039L88.2582 16.1331L79.7766 9.97079H90.2605L93.5002 0Z" fill="#FFC727"/>
<path d="M129.035 0L132.275 9.97079H142.758L134.277 16.1331L137.517 26.1039L129.035 19.9416L120.553 26.1039L123.793 16.1331L115.311 9.97079H125.795L129.035 0Z" fill="#FFC727"/>
<path d="M164.57 0L167.81 9.97079H178.294L169.812 16.1331L173.052 26.1039L164.57 19.9416L156.088 26.1039L159.328 16.1331L150.846 9.97079H161.33L164.57 0Z" fill="#EBEBEB"/>
<path d="M164.596 0L164.8 10.1393L164.596 20.2785L156.146 25.9114L158.963 16.3355L150.86 9.97079H161.56L164.596 0Z" fill="#FFC727"/>
</svg>
