<svg width="41" height="40" viewBox="0 0 41 40" fill="none" xmlns="http://www.w3.org/2000/svg">
<path fill-rule="evenodd" clip-rule="evenodd" d="M1.27002 17.4483L1.29937 18.8679L1.96647 21.3348L5.39804 27.2333L12.6708 34.3526L18.8748 37.8109L25.7406 38.2685L30.1142 36.1845L33.8779 33.895L36.7251 30.6929L38.098 27.6669L39.7084 23.2961L39.9499 22.19L40.0153 21.4549C39.9125 17.4016 32.0101 14.509 23.5779 13.3029C13.4113 11.8486 2.08522 11.8633 1.27002 17.4523V17.4483Z" fill="url(#paint0_linear_86_2909)"/>
<path fill-rule="evenodd" clip-rule="evenodd" d="M20.5284 1.51904C24.2938 1.51825 27.975 2.63412 31.1063 4.72554C34.2375 6.81695 36.6783 9.78996 38.1198 13.2686C39.5613 16.7472 39.9389 20.5752 39.2048 24.2684C38.4707 27.9616 36.6578 31.3542 33.9955 34.0171C31.3332 36.68 27.941 38.4935 24.2479 39.2284C20.5549 39.9633 16.7268 39.5866 13.2479 38.1457C9.76894 36.7049 6.79542 34.2648 4.70334 31.134C2.61127 28.0032 1.49463 24.3223 1.49463 20.5568C1.49498 15.5085 3.5003 10.667 7.06963 7.09688C10.639 3.5268 15.48 1.52046 20.5284 1.51904Z" fill="#FFB000"/>
<path fill-rule="evenodd" clip-rule="evenodd" d="M8.25452 5.88333C8.09975 6.20354 7.99568 6.46905 7.70216 6.77725C6.71485 7.81792 4.55344 8.93732 4.50007 10.5277C4.49073 10.7785 4.65751 11.016 4.63349 11.2655C4.5988 11.7618 4.42669 12.2381 4.33997 12.7331C4.21589 13.4443 4.5401 14.3462 5.40733 14.1314C5.87964 14.014 6.83626 13.6818 6.95767 13.7124C7.42198 13.8285 7.99035 14.4062 8.55872 14.3475C9.47131 14.2541 10.2452 13.4283 11.0123 13.1908C12.6787 12.6744 14.3985 14.4569 14.9922 16.0766C15.8555 18.4328 16.7547 21.4135 17.5472 21.9471C18.0236 22.266 18.8921 22.4515 19.1563 22.6329C20.0169 23.2266 20.5425 25.1279 21.0949 25.799C21.7073 26.5435 22.5812 26.877 23.6379 26.5875C24.4864 26.354 26.1729 25.9938 26.7146 25.9204C28.2155 25.7363 31.1054 26.0178 31.7992 25.6922C32.8799 25.1866 33.9673 24.1126 34.4182 23.759C35.583 22.8491 36.577 22.4701 37.1307 21.6403C37.3615 21.2934 37.3028 20.3888 37.3175 19.8431C37.3401 19.0119 37.9419 18.7397 38.2327 18.1393C38.9785 16.6023 37.7938 13.603 37.2668 12.0754C37.1147 11.6351 36.9252 11.2095 36.7838 10.7652C36.6877 10.4636 36.6237 10.1848 36.561 9.90862C36.4209 9.28155 35.619 7.46836 34.6931 6.63982C33.9099 5.9447 32.6838 5.63517 31.8272 4.98274C28.5718 2.50379 23.6819 0.885405 20.5759 0.713293C19.6419 0.662593 16.7067 1.65657 14.8695 2.22761C12.9549 2.824 11.0137 3.40305 9.39927 4.52378C8.90049 4.86172 8.50295 5.32889 8.24918 5.87532L8.25452 5.88333ZM2.68689 19.759C2.57727 19.8193 2.45211 19.8454 2.32753 19.834C2.20294 19.8226 2.08462 19.7742 1.98777 19.695C1.59685 19.3228 1.31133 18.2981 1.26863 17.4429C1.10719 18.4555 1.08318 19.4949 1.02181 20.5516C0.868372 23.2026 1.04849 25.38 1.28197 26.1886C1.57283 27.1932 2.88302 29.4093 4.93369 32.2699C6.36529 34.2618 8.60942 36.7995 9.58072 37.2918C11.0777 38.0523 16.7961 39.7774 20.5279 39.7774C22.0656 39.7872 23.6017 39.6743 25.1215 39.4399C26.7226 39.181 28.98 38.6847 29.6658 38.3178C31.1815 37.5079 33.7165 35.1411 35.3509 33.1264C36.581 31.6081 38.6864 28.8463 38.8798 28.33C39.1467 27.6068 39.9072 23.803 40.0139 21.4468C39.8284 23.3961 39.2 23.3147 38.3808 24.821C38.0353 25.4574 37.7938 26.1472 37.5163 26.8223C36.8772 28.37 36.2661 30.3153 35.3549 31.7042C35.0022 32.2455 34.5643 32.7263 34.058 33.1278C33.7204 33.3817 33.3294 33.5555 32.9146 33.6361C32.6398 33.6961 32.3502 33.5027 32.0754 33.56C30.6891 33.8456 29.9246 35.2038 28.8733 35.9002C28.2691 36.288 27.6084 36.5797 26.9147 36.7648C24.0381 37.5653 22.6279 35.4866 22.3637 35.2638C21.5405 34.5714 18.8187 34.2738 17.6593 33.967C14.8948 33.2372 15.2818 31.1198 15.1417 30.5594C14.9656 29.8536 14.608 29.4814 14.1757 29.2626C13.7434 29.0438 11.0403 28.7996 10.2345 28.4247C8.18114 27.4667 7.44199 25.4588 7.1578 22.5115C7.06975 21.6082 6.79223 19.9458 6.61078 19.639C6.41814 19.3063 6.12407 19.0441 5.77163 18.8907C5.41919 18.7373 5.02689 18.7007 4.65217 18.7864C4.32796 18.8665 3.33932 19.4188 2.68822 19.7657L2.68689 19.759ZM24.6399 23.0852C24.4691 23.2413 24.281 24.1646 24.277 24.4261C24.277 24.6209 24.3677 24.9451 24.5238 24.9184C25.0348 24.8317 25.9541 24.6622 26.6959 24.5528C27.1709 24.4835 27.6965 24.4875 28.1635 24.3821C28.2436 24.3614 28.3166 24.3193 28.3747 24.2603C28.4327 24.2013 28.4737 24.1276 28.493 24.0472C28.5344 23.8297 27.966 23.0919 27.7352 22.9932C27.0294 22.6916 25.2202 22.5555 24.6372 23.0852H24.6399ZM18.1717 12.6411C17.0723 12.7198 17.0229 14.6184 17.1483 15.4429C17.2722 16.3758 17.5609 17.2794 18.0009 18.1113C18.3224 18.6877 19.5766 19.1066 20.1983 18.8971C20.3445 18.8456 20.4741 18.7555 20.5734 18.6365C20.6728 18.5174 20.7381 18.3738 20.7627 18.2207C20.8214 17.5162 20.4278 16.8331 20.4345 16.1273C20.4411 15.4215 20.9588 13.8245 20.6039 13.503C19.9702 12.9293 18.9321 12.589 18.1717 12.6437V12.6411ZM14.3318 9.15346C14.0276 9.1668 13.6874 9.25886 13.4833 9.50969C13.2978 9.73651 13.1564 10.1448 13.2938 10.425C13.6807 11.2188 14.2998 11.8499 14.9082 12.4343C15.0936 12.6117 15.3818 12.7305 15.6006 12.6371C15.8195 12.5437 15.9689 12.2261 16.0396 11.9513C16.2024 11.3215 16.3385 10.6544 16.2811 9.99267C16.2594 9.86435 16.2057 9.74355 16.125 9.64142C16.0444 9.53929 15.9393 9.45912 15.8195 9.4083C15.349 9.21278 14.8405 9.12568 14.3318 9.15346ZM9.46865 10.1888C8.78687 10.3222 7.81423 11.507 8.2225 12.01C8.29199 12.099 8.38412 12.1678 8.48926 12.2091C8.5944 12.2504 8.70869 12.2627 8.82022 12.2448C9.37258 12.1007 9.83822 11.7018 10.3586 11.4523C10.552 11.3589 10.7775 11.3389 10.9563 11.2175C11.2672 11.0053 11.1244 10.4023 10.9176 10.3169C10.4571 10.1358 9.9545 10.0895 9.46865 10.1835V10.1888Z" fill="url(#paint1_radial_86_2909)"/>
<path style="mix-blend-mode:screen" fill-rule="evenodd" clip-rule="evenodd" d="M7.15646 22.5102C7.0684 21.607 6.79089 19.9445 6.60944 19.6377C6.4168 19.3051 6.12273 19.0428 5.77028 18.8894C5.41784 18.736 5.02554 18.6995 4.65083 18.7851C4.32661 18.8652 3.33797 19.4175 2.68688 19.7644C2.62109 19.7992 2.54976 19.8222 2.47607 19.8325C2.47607 20.7931 2.68288 21.6136 3.52342 22.5476C3.98239 23.0572 4.55343 22.9905 5.3793 24.1246C5.62346 24.4595 5.73553 24.8864 6.01572 25.192C6.45734 25.6749 6.93632 26.1553 7.51536 26.4621C7.77206 26.5942 8.04536 26.6911 8.32789 26.7503C7.66079 25.683 7.3259 24.2634 7.15646 22.5089V22.5102ZM18.1663 12.6371C17.0669 12.7158 17.0176 14.6144 17.143 15.4389C17.2668 16.3719 17.5555 17.2754 17.9955 18.1073C18.3171 18.6837 19.5712 19.1027 20.193 18.8932C20.3392 18.8416 20.4688 18.7516 20.5681 18.6325C20.6674 18.5135 20.7328 18.3698 20.7573 18.2168C20.816 17.5123 20.4224 16.8292 20.4291 16.1234C20.4358 15.4176 20.9535 13.8206 20.5986 13.499C19.9648 12.9253 18.9268 12.5851 18.1663 12.6398V12.6371ZM14.3318 9.15351C14.0276 9.16685 13.6874 9.25891 13.4832 9.50974C13.2978 9.73656 13.1564 10.1448 13.2938 10.425C13.6807 11.2189 14.2998 11.8499 14.9082 12.4343C15.0936 12.6118 15.3818 12.7305 15.6006 12.6371C15.8194 12.5437 15.9689 12.2262 16.0396 11.9513C16.2024 11.3216 16.3384 10.6545 16.2811 9.99272C16.2594 9.86439 16.2057 9.7436 16.125 9.64147C16.0444 9.53934 15.9393 9.45917 15.8194 9.40834C15.349 9.21283 14.8405 9.12573 14.3318 9.15351ZM9.46863 10.1889C8.78686 10.3223 7.81422 11.507 8.22249 12.01C8.29198 12.0991 8.38411 12.1679 8.48925 12.2092C8.59438 12.2505 8.70868 12.2628 8.82021 12.2449C9.37257 12.1008 9.83821 11.7018 10.3585 11.4523C10.552 11.3589 10.7775 11.3389 10.9563 11.2175C11.2671 11.0054 11.1244 10.4023 10.9176 10.3169C10.457 10.1358 9.95449 10.0896 9.46863 10.1835V10.1889ZM15.8915 1.91679L14.8722 2.23834C12.9576 2.83472 11.0163 3.41377 9.40192 4.5345C8.90314 4.87245 8.50561 5.33962 8.25184 5.88605C8.21715 5.95543 8.18646 6.01947 8.15444 6.08885C8.04392 6.34381 7.88998 6.57765 7.69948 6.77996C7.28454 7.21758 6.66414 7.66721 6.07842 8.16086C5.36329 8.76526 4.69619 9.43636 4.53475 10.2209C4.51406 10.3202 4.502 10.421 4.49873 10.5224C4.48939 10.7732 4.65616 11.0107 4.63215 11.2602C4.59746 11.7565 4.42535 12.2329 4.33862 12.7278C4.26702 13.0991 4.33294 13.4837 4.52408 13.8099C4.61508 13.9534 4.75138 14.0624 4.91137 14.1197C5.07137 14.177 5.24591 14.1792 5.40732 14.1261C5.87963 14.0087 6.83625 13.6765 6.95766 13.7071C7.42197 13.8232 7.99034 14.4009 8.55871 14.3422C9.4713 14.2488 10.2451 13.423 11.0123 13.1855C12.6787 12.6691 14.3985 14.4516 14.9922 16.0714C15.8555 18.4276 16.7547 21.4082 17.5472 21.9418C18.0235 22.2607 18.8921 22.4462 19.1563 22.6276C19.7193 23.0159 20.1396 23.9618 20.5172 24.7624C20.9441 24.3834 21.271 23.8885 21.6192 23.4282C22.0195 22.9051 22.249 22.246 22.7133 21.7764C23.4791 21.0026 24.5718 21.0386 25.2056 19.5643C25.4724 18.9546 25.2803 18.2074 25.5605 17.6057C25.8993 16.8826 26.6705 16.4209 27.0107 15.6991C27.2679 15.1591 27.4419 14.5833 27.5271 13.9913C27.5566 13.7733 27.5709 13.5535 27.5698 13.3336C27.5591 12.0127 27.1255 10.7292 26.96 9.41768C26.8466 8.52377 26.98 7.58983 26.7306 6.72259C26.3076 5.25497 25.4364 5.08286 24.4624 4.33303C23.8874 3.88741 23.4564 3.24166 22.8093 2.90811C21.9581 2.47049 21.0055 2.241 20.0635 2.06889C19.1523 1.90345 18.4945 1.9248 17.5712 1.98084C17.1995 1.99789 16.827 1.98539 16.4572 1.94348C16.2677 1.92613 16.0783 1.91012 15.8781 1.90479L15.8915 1.91679ZM23.802 6.36903C23.8193 6.19558 24.0368 6.06616 24.2089 6.03815C25.0841 5.90473 25.9634 7.02946 26.1422 7.83132C26.2636 8.37834 26.1635 8.95738 26.2689 9.50974C26.369 10.0328 26.6465 10.5117 26.7519 11.0347C27.1215 12.8693 27.2002 14.2502 26.1168 15.7898C25.4244 16.7731 24.5798 16.5637 24.5398 15.3069C24.5468 14.8244 24.6498 14.3482 24.8427 13.9059C25.4097 12.4383 26.1088 12.1261 26.0888 10.345C26.1011 10.06 26.0302 9.77768 25.8847 9.53242C25.6952 9.25891 25.1268 9.04544 25.0962 8.92136C25.0521 8.73591 24.9988 8.23158 24.8173 7.9554C24.6092 7.63786 24.3183 7.66454 24.0795 7.37102C23.8632 7.08322 23.7632 6.72455 23.7993 6.36636L23.802 6.36903ZM6.7602 9.51241C6.46401 9.36965 6.74686 8.42904 6.93765 8.22891C7.18581 7.96207 7.59007 7.92204 7.90361 7.74593C8.15044 7.61251 8.43729 7.50043 8.61608 7.2883C8.72949 7.15488 9.12041 5.79532 9.4166 5.36838C9.63274 5.05751 10.3719 4.5892 10.592 4.80267C10.7054 4.91341 10.6214 5.5098 10.5467 5.65123C10.3946 5.93808 9.99831 6.14221 9.93827 6.67723C9.91693 6.87202 10.0717 7.66854 9.98897 8.15286C9.9276 8.49175 9.79018 8.87333 9.50599 9.06812C9.19379 9.28026 8.74816 9.13617 8.38659 9.24557C8.15444 9.31628 7.98633 9.56178 7.75151 9.6018C7.41958 9.67192 7.07424 9.64078 6.7602 9.51241Z" fill="url(#paint2_radial_86_2909)"/>
<path style="mix-blend-mode:multiply" opacity="0.7" fill-rule="evenodd" clip-rule="evenodd" d="M17.649 34.7531C16.9352 34.5223 12.6991 33.7484 11.5971 32.5156C11.0794 31.9366 10.6832 30.8332 10.2242 30.6344C10.0507 30.5597 9.3583 30.489 8.59647 30.3676C8.0067 30.2907 7.42581 30.1566 6.862 29.9673C6.10854 29.6604 5.4317 29.1917 4.87938 28.5944C2.72197 26.3449 3.67059 25.9086 2.87007 23.3056C2.67527 22.6745 2.1496 22.1902 1.90411 21.5712C1.66915 20.9998 1.53378 20.3924 1.50384 19.7753C1.50384 19.7206 1.50384 19.6672 1.50384 19.6139C1.5007 19.3648 1.51273 19.1157 1.53987 18.8681C1.38763 18.4053 1.29789 17.9243 1.27303 17.4378C1.11159 18.4505 1.08757 19.4898 1.0262 20.5465C0.872767 23.1975 1.05288 25.375 1.28637 26.1835C1.57723 27.1881 2.88741 29.4043 4.93808 32.2648C6.36968 34.2568 8.61381 36.7944 9.58511 37.2867C11.0821 38.0472 16.8005 39.7724 20.5322 39.7724C22.0685 39.7836 23.6033 39.6726 25.1219 39.4401C26.7229 39.1813 28.9804 38.685 29.6662 38.3181C31.1819 37.5082 33.7168 35.1413 35.3512 33.1267C36.5814 31.6084 38.6867 28.8466 38.8802 28.3302C39.147 27.6071 39.9075 23.8033 40.0143 21.4471C39.9115 22.5144 39.6781 22.9721 39.3472 23.4164C39.0803 23.7819 38.7468 24.1382 38.3759 24.8213C38.0303 25.4577 37.7888 26.1475 37.5113 26.8226C36.8722 28.3703 36.2612 30.3155 35.3499 31.7044C34.9972 32.2458 34.5593 32.7265 34.0531 33.128C33.7154 33.382 33.3244 33.5558 32.9096 33.6363C32.6348 33.6964 32.3453 33.5029 32.0704 33.5603C30.6842 33.8458 29.9197 35.204 28.8683 35.9005C28.2641 36.2883 27.6034 36.5799 26.9097 36.7651C24.7323 37.3735 23.3954 36.3288 22.759 35.6884C22.2494 35.1747 21.2247 34.8291 20.9579 34.7798C20.6364 34.7324 20.3091 34.741 19.9906 34.8051C19.4662 34.8932 18.1467 34.9185 17.645 34.7544L17.649 34.7531ZM33.9263 12.5813C34.0811 13.5446 34.7468 14.4025 34.7909 15.3831C34.8064 15.6576 34.757 15.9318 34.6468 16.1836C34.2865 17.0269 33.4126 17.5992 33.8249 20.6666C33.9212 21.2205 33.9552 21.7835 33.9263 22.345C33.846 23.097 33.6991 23.8404 33.4874 24.5664C33.8876 24.2302 34.2265 23.9234 34.4306 23.7659C35.5954 22.856 36.5894 22.4771 37.1431 21.6472C37.3739 21.3003 37.3152 20.3957 37.3299 19.85C37.3499 19.0775 37.8729 18.7827 38.1797 18.2677C38.2039 18.2285 38.2257 18.188 38.2451 18.1463C38.9909 16.6093 37.8062 13.61 37.2792 12.0823C37.1271 11.642 36.9376 11.2164 36.7962 10.7721C36.7722 10.6974 36.7495 10.624 36.7295 10.5506C36.6681 10.3318 36.6201 10.1237 36.5734 9.91556C36.4333 9.28848 35.6314 7.4753 34.7055 6.64676C33.9223 5.95164 32.6962 5.6421 31.8396 4.98968C28.5842 2.51073 23.6943 0.892338 20.5883 0.720226C20.208 0.698879 19.4916 0.853647 18.651 1.0818C19.8198 1.22322 21.154 1.38466 22.4241 1.61548C23.729 1.84763 24.9685 2.14916 25.8931 2.56543C26.3133 2.75355 26.5335 3.23253 26.9097 3.50604C27.5381 3.953 28.272 4.24252 28.8937 4.70015C29.414 5.08574 29.8023 5.6341 30.3173 6.02235C30.7309 6.33856 31.1779 6.59072 31.5181 6.98965C31.9183 7.46329 32.0958 7.98096 32.408 8.51464C32.9043 9.36853 33.4086 9.90488 33.7555 10.8281C33.9463 11.3391 33.8463 12.0449 33.933 12.584L33.9263 12.5813Z" fill="url(#paint3_radial_86_2909)"/>
<path style="mix-blend-mode:screen" fill-rule="evenodd" clip-rule="evenodd" d="M4.34949 11.0927C3.32483 13.0299 2.48161 15.2127 2.24012 17.3994C2.17341 17.9851 1.90123 19.8143 3.00195 19.1793C4.38419 18.3787 7.08728 16.4281 7.37547 19.6876C7.50889 21.1646 7.66632 25.0844 8.46951 26.1718C9.47684 27.5367 11.7597 28.7735 15.0805 28.2065C16.1705 28.0197 17.3086 26.8536 17.2672 26.4266C17.2059 25.7836 14.1025 25.8623 19.2245 24.9137C19.3311 24.8918 19.4289 24.8392 19.506 24.7624C19.583 24.6855 19.6359 24.5879 19.6581 24.4814C19.6875 24.1852 19.4593 23.6088 19.1872 23.4887C18.9174 23.3892 18.6372 23.3207 18.352 23.2846C16.8416 23.0351 16.5108 22.839 16.1905 21.6635C15.6275 19.5995 15.4674 17.4715 14.3934 15.4408C13.6782 14.0893 12.2453 13.601 10.9872 14.0426C10.0532 14.3708 8.32942 15.5676 7.37547 15.5182C6.79242 15.4875 6.74572 15.1393 6.77241 14.8298C6.79776 14.5429 6.82311 14.3588 6.69769 14.2667C6.46821 14.1 5.7344 14.3921 5.45955 14.4842C4.85516 14.6857 4.18272 14.8004 3.99193 13.8398C3.93968 13.4717 3.95233 13.0974 4.02929 12.7337C4.09986 12.416 4.1935 12.1039 4.30947 11.7998C4.37485 11.589 4.46824 11.3862 4.51227 11.17C4.52561 11.106 4.54029 11.0033 4.48025 10.9739C4.42021 10.9446 4.37485 11.0366 4.34683 11.0873L4.34949 11.0927Z" fill="url(#paint4_radial_86_2909)"/>
<g style="mix-blend-mode:multiply">
<path fill-rule="evenodd" clip-rule="evenodd" d="M33.4825 24.5659C33.1316 25.133 32.6819 25.652 32.4284 26.2697C32.1389 26.9742 32.5392 27.8854 31.6146 29.0155C31.3477 29.3437 30.9101 29.5305 30.4952 29.6252C28.4685 30.0895 25.9349 29.8641 24.091 31.4571C22.9996 32.3977 23.1037 33.9 21.1304 34.7125C21.6574 34.866 22.1057 35.0448 22.3645 35.2622C22.6234 35.4797 24.0416 37.5717 26.9128 36.7632C27.6065 36.5781 28.2673 36.2864 28.8715 35.8987C29.9241 35.2022 30.6886 33.844 32.0735 33.5585C32.3484 33.5024 32.6379 33.6919 32.9128 33.6345C33.3275 33.554 33.7185 33.3801 34.0562 33.1262C34.563 32.7244 35.0014 32.2432 35.3543 31.7012C36.2656 30.3123 36.8767 28.3657 37.5158 26.8194C37.7933 26.1523 38.0348 25.4598 38.3803 24.8181C38.7512 24.135 39.0821 23.7788 39.3516 23.4132C39.4938 22.4654 39.5651 21.5084 39.5651 20.55C39.5704 17.0148 38.5865 13.5486 36.7246 10.5435C36.7446 10.6168 36.7673 10.6902 36.7913 10.7649C36.9327 11.2092 37.1222 11.6348 37.2743 12.0751C37.8013 13.6014 38.986 16.6021 38.2402 18.1391C37.9494 18.7395 37.3476 19.0116 37.325 19.8429C37.3103 20.3885 37.369 21.2931 37.1382 21.64C36.5845 22.4699 35.5905 22.8488 34.4257 23.7587C34.2216 23.9188 33.8921 24.2257 33.4825 24.5593V24.5659ZM22.3979 32.2736C22.4307 32.4368 22.4248 32.6054 22.3808 32.766C22.3368 32.9265 22.2558 33.0746 22.1444 33.1982C21.8642 33.5024 21.4359 33.6519 21.0343 33.7533C20.6968 33.8386 19.5067 33.84 19.2318 33.6198C18.8596 33.313 18.8316 32.1068 19.7402 31.9561C20.1204 31.892 20.5113 32.0281 20.8956 32.0014C21.2025 31.9814 21.496 31.7613 21.7975 31.8173C22.0457 31.8627 22.3312 32.0348 22.3979 32.279V32.2736ZM30.5792 27.2744C30.6591 27.2576 30.7418 27.259 30.821 27.2787C30.9003 27.2983 30.9741 27.3356 31.0369 27.3878C31.3037 27.6199 31.4171 28.4138 31.2917 28.5952C31.0569 28.9368 30.1936 29.1636 29.7027 29.0795C29.6411 29.0605 29.5866 29.0238 29.5458 28.974C29.505 28.9241 29.4797 28.8634 29.4732 28.7994C29.4198 28.2657 29.8734 27.4518 30.5792 27.2744Z" fill="#FFCE00"/>
</g>
<path style="mix-blend-mode:screen" opacity="0.6" fill-rule="evenodd" clip-rule="evenodd" d="M6.68563 21.5528C6.77235 23.8209 6.40011 25.7769 7.39676 28.037C7.94912 29.2898 9.5675 29.6647 10.8043 29.6647C11.338 29.6647 11.849 29.5313 12.3813 29.5126C13.0057 29.4833 14.4707 29.6674 14.5934 30.4279C14.7202 31.2164 14.46 32.0836 14.7709 32.8174C14.9084 33.1223 15.1047 33.3971 15.3486 33.626C16.2425 34.4985 16.6041 34.3731 17.8115 34.5599C18.6361 34.684 21.1217 34.9602 21.8395 35.3604C22.8655 35.9448 23.4806 37.0856 24.9922 37.5979C25.8635 37.8928 28.728 36.9081 29.4685 36.1743C30.3851 35.2684 30.788 34.5012 31.6552 34.1396C32.1249 33.9435 32.3877 34.6627 33.6125 34.0129C34.008 33.8086 34.3684 33.5424 34.6799 33.2244C37.1014 30.624 37.399 27.1751 39.012 23.8609C38.7754 24.1645 38.5643 24.4871 38.381 24.8256C38.0354 25.462 37.7939 26.1518 37.5164 26.8269C36.8773 28.3746 36.2662 30.3198 35.355 31.7087C35.0023 32.2501 34.5644 32.7308 34.0581 33.1323C33.7205 33.3863 33.3295 33.5601 32.9147 33.6407C32.6399 33.7007 32.3504 33.5072 32.0755 33.5646C30.6893 33.8501 29.9248 35.2083 28.8734 35.9048C28.2692 36.2926 27.6085 36.5842 26.9148 36.7694C24.0383 37.5699 22.628 35.4912 22.3638 35.2684C21.5406 34.5759 18.8189 34.2784 17.6594 33.9715C14.895 33.2417 15.2819 31.1243 15.1418 30.564C14.9657 29.8582 14.6081 29.4859 14.1758 29.2671C13.7436 29.0483 11.0405 28.8042 10.2346 28.4293C8.18127 27.4713 7.44212 25.4633 7.15793 22.5161C7.06988 21.6128 6.79236 19.9504 6.61091 19.6435C6.41827 19.3109 6.1242 19.0487 5.77176 18.8953C5.41932 18.7419 5.02702 18.7053 4.6523 18.791C4.32809 18.871 3.33945 19.4234 2.68835 19.7703C2.57873 19.8306 2.45358 19.8567 2.32899 19.8453C2.20441 19.8339 2.08608 19.7854 1.98923 19.7062C1.59831 19.334 1.31279 18.3093 1.2701 17.4541C1.24608 17.6044 1.22473 17.7552 1.20605 17.9064C1.23274 18.5548 1.26342 19.3447 1.4342 19.8797C1.60498 20.4147 2.32945 20.8443 2.79376 20.5028C3.32744 20.1025 3.75705 19.4421 4.34543 19.0792C4.50452 18.9831 4.68247 18.9226 4.86711 18.9017C6.31872 18.7269 6.64693 20.5601 6.68563 21.5581V21.5528Z" fill="url(#paint5_radial_86_2909)"/>
<path style="mix-blend-mode:screen" fill-rule="evenodd" clip-rule="evenodd" d="M24.5237 24.9236C24.3676 24.9503 24.2742 24.6261 24.2769 24.4313C24.2946 24.1963 24.333 23.9632 24.3916 23.7349C24.2235 24.2032 23.9913 24.8943 24.1021 25.2705C24.1595 25.4733 24.6211 25.5934 24.9026 25.5187C25.4189 25.3853 25.9059 25.1531 26.4156 24.985C26.8412 24.8516 27.8552 24.6621 28.1634 24.5207C28.2709 24.4665 28.3628 24.3856 28.4302 24.2859C28.4551 24.2316 28.47 24.1733 28.4743 24.1138C28.4461 24.1787 28.4036 24.2364 28.35 24.2826C28.2964 24.3288 28.2331 24.3623 28.1647 24.3806C27.6951 24.486 27.1694 24.482 26.6971 24.5514C25.9553 24.6608 25.036 24.8302 24.525 24.917L24.5237 24.9236Z" fill="url(#paint6_radial_86_2909)"/>
<path style="mix-blend-mode:screen" fill-rule="evenodd" clip-rule="evenodd" d="M7.70782 12.0743C7.86392 12.5759 8.66444 12.8748 9.04202 12.5639C9.58893 12.1047 10.1686 11.6859 10.7765 11.3111C10.6431 11.3618 10.4923 11.3911 10.3602 11.4552C9.83988 11.7047 9.37424 12.1036 8.82188 12.2477C8.71035 12.2656 8.59605 12.2533 8.49091 12.212C8.38578 12.1707 8.29365 12.1019 8.22416 12.0129C7.94931 11.674 8.3002 11.0256 8.76584 10.5986C8.2922 10.9669 7.57573 11.6406 7.70915 12.0743H7.70782Z" fill="url(#paint7_radial_86_2909)"/>
<path style="mix-blend-mode:screen" fill-rule="evenodd" clip-rule="evenodd" d="M14.1604 12.4893C14.49 13.011 14.8396 13.4673 15.0944 13.6528C15.141 13.6853 15.1964 13.7027 15.2532 13.7027C15.3099 13.7027 15.3654 13.6853 15.4119 13.6528C15.5574 13.5193 15.56 13.2872 15.6788 13.1324C15.7522 13.0377 15.9229 13.0364 15.971 12.9283C16.0261 12.8074 16.0707 12.6819 16.1044 12.5534C16.2378 12.0197 16.2685 11.3419 16.2752 10.7495C16.2279 11.155 16.1503 11.5564 16.043 11.9503C15.9975 12.1677 15.8964 12.3695 15.7495 12.536C15.7076 12.5781 15.6583 12.612 15.6041 12.6361C15.5006 12.6664 15.3913 12.67 15.286 12.6467C15.1808 12.6234 15.0832 12.5738 15.0023 12.5027C14.9703 12.48 14.94 12.455 14.9116 12.428C14.3032 11.8436 13.6841 11.2125 13.2972 10.4187C13.2412 10.2907 13.2267 10.1483 13.2559 10.0117C13.2113 10.1404 13.1892 10.2758 13.1905 10.412C13.2372 10.8122 13.6788 11.7195 14.1631 12.484L14.1604 12.4893Z" fill="url(#paint8_radial_86_2909)"/>
<path style="mix-blend-mode:screen" fill-rule="evenodd" clip-rule="evenodd" d="M17.1403 14.0624C16.8308 14.9456 16.648 15.8889 16.7227 16.556C16.7548 16.8482 16.9122 17.1124 16.9896 17.3952C17.099 17.8035 17.1003 18.2464 17.2818 18.628C17.7447 19.5993 19.3298 19.7861 20.2317 19.3912C20.6426 19.2111 20.7293 18.7094 20.748 18.2811C20.7132 18.4212 20.6443 18.5505 20.5475 18.6576C20.4507 18.7647 20.3289 18.8462 20.193 18.8949C19.5713 19.1043 18.3171 18.6854 17.9956 18.109C17.5556 17.2771 17.2669 16.3735 17.143 15.4406C17.0803 14.9829 17.0803 14.5188 17.143 14.061L17.1403 14.0624Z" fill="url(#paint9_radial_86_2909)"/>
<g style="mix-blend-mode:screen">
<path fill-rule="evenodd" clip-rule="evenodd" d="M8.25452 5.88333C8.09975 6.20354 7.99568 6.46905 7.70216 6.77725C6.71485 7.81792 4.55344 8.93732 4.50007 10.5277C4.49073 10.7785 4.65751 11.016 4.63349 11.2655C4.5988 11.7618 4.42669 12.2381 4.33997 12.7331C4.21589 13.4443 4.5401 14.3462 5.40733 14.1314C5.87964 14.014 6.83626 13.6818 6.95767 13.7124C7.42198 13.8285 7.99035 14.4062 8.55872 14.3475C9.47131 14.2541 10.2452 13.4283 11.0123 13.1908C12.6787 12.6744 14.3985 14.4569 14.9922 16.0766C15.8555 18.4328 16.7547 21.4135 17.5472 21.9471C18.0236 22.266 18.8921 22.4515 19.1563 22.6329C20.0169 23.2266 20.5425 25.1279 21.0949 25.799C21.7073 26.5435 22.5812 26.877 23.6379 26.5875C24.4864 26.354 26.1729 25.9938 26.7146 25.9204C28.2155 25.7363 31.1054 26.0178 31.7992 25.6922C32.8799 25.1866 33.9673 24.1126 34.4182 23.759C35.583 22.8491 36.577 22.4701 37.1307 21.6403C37.3615 21.2934 37.3028 20.3888 37.3175 19.8431C37.3401 19.0119 37.9419 18.7397 38.2327 18.1393C38.9785 16.6023 37.7938 13.603 37.2668 12.0754C37.1147 11.6351 36.9252 11.2095 36.7838 10.7652C36.6877 10.4636 36.6237 10.1848 36.561 9.90862C36.4209 9.28155 35.619 7.46836 34.6931 6.63982C33.9099 5.9447 32.6838 5.63517 31.8272 4.98274C28.5718 2.50379 23.6819 0.885405 20.5759 0.713293C19.6419 0.662593 16.7067 1.65657 14.8695 2.22761C12.9549 2.824 11.0137 3.40305 9.39927 4.52378C8.90049 4.86172 8.50295 5.32889 8.24918 5.87532L8.25452 5.88333ZM2.68689 19.759C2.57727 19.8193 2.45211 19.8454 2.32753 19.834C2.20294 19.8226 2.08462 19.7742 1.98777 19.695C1.59685 19.3228 1.31133 18.2981 1.26863 17.4429C1.10719 18.4555 1.08318 19.4949 1.02181 20.5516C0.868372 23.2026 1.04849 25.38 1.28197 26.1886C1.57283 27.1932 2.88302 29.4093 4.93369 32.2699C6.36529 34.2618 8.60942 36.7995 9.58072 37.2918C11.0777 38.0523 16.7961 39.7774 20.5279 39.7774C22.0656 39.7872 23.6017 39.6743 25.1215 39.4399C26.7226 39.181 28.98 38.6847 29.6658 38.3178C31.1815 37.5079 33.7165 35.1411 35.3509 33.1264C36.581 31.6081 38.6864 28.8463 38.8798 28.33C39.1467 27.6068 39.9072 23.803 40.0139 21.4468C39.8284 23.3961 39.2 23.3147 38.3808 24.821C38.0353 25.4574 37.7938 26.1472 37.5163 26.8223C36.8772 28.37 36.2661 30.3153 35.3549 31.7042C35.0022 32.2455 34.5643 32.7263 34.058 33.1278C33.7204 33.3817 33.3294 33.5555 32.9146 33.6361C32.6398 33.6961 32.3502 33.5027 32.0754 33.56C30.6891 33.8456 29.9246 35.2038 28.8733 35.9002C28.2691 36.288 27.6084 36.5797 26.9147 36.7648C24.0381 37.5653 22.6279 35.4866 22.3637 35.2638C21.5405 34.5714 18.8187 34.2738 17.6593 33.967C14.8948 33.2372 15.2818 31.1198 15.1417 30.5594C14.9656 29.8536 14.608 29.4814 14.1757 29.2626C13.7434 29.0438 11.0403 28.7996 10.2345 28.4247C8.18114 27.4667 7.44199 25.4588 7.1578 22.5115C7.06975 21.6082 6.79223 19.9458 6.61078 19.639C6.41814 19.3063 6.12407 19.0441 5.77163 18.8907C5.41919 18.7373 5.02689 18.7007 4.65217 18.7864C4.32796 18.8665 3.33932 19.4188 2.68822 19.7657L2.68689 19.759ZM24.6399 23.0852C24.4691 23.2413 24.281 24.1646 24.277 24.4261C24.277 24.6209 24.3677 24.9451 24.5238 24.9184C25.0348 24.8317 25.9541 24.6622 26.6959 24.5528C27.1709 24.4835 27.6965 24.4875 28.1635 24.3821C28.2436 24.3614 28.3166 24.3193 28.3747 24.2603C28.4327 24.2013 28.4737 24.1276 28.493 24.0472C28.5344 23.8297 27.966 23.0919 27.7352 22.9932C27.0294 22.6916 25.2202 22.5555 24.6372 23.0852H24.6399ZM18.1717 12.6411C17.0723 12.7198 17.0229 14.6184 17.1483 15.4429C17.2722 16.3758 17.5609 17.2794 18.0009 18.1113C18.3224 18.6877 19.5766 19.1066 20.1983 18.8971C20.3445 18.8456 20.4741 18.7555 20.5734 18.6365C20.6728 18.5174 20.7381 18.3738 20.7627 18.2207C20.8214 17.5162 20.4278 16.8331 20.4345 16.1273C20.4411 15.4215 20.9588 13.8245 20.6039 13.503C19.9702 12.9293 18.9321 12.589 18.1717 12.6437V12.6411ZM14.3318 9.15346C14.0276 9.1668 13.6874 9.25886 13.4833 9.50969C13.2978 9.73651 13.1564 10.1448 13.2938 10.425C13.6807 11.2188 14.2998 11.8499 14.9082 12.4343C15.0936 12.6117 15.3818 12.7305 15.6006 12.6371C15.8195 12.5437 15.9689 12.2261 16.0396 11.9513C16.2024 11.3215 16.3385 10.6544 16.2811 9.99267C16.2594 9.86435 16.2057 9.74355 16.125 9.64142C16.0444 9.53929 15.9393 9.45912 15.8195 9.4083C15.349 9.21278 14.8405 9.12568 14.3318 9.15346ZM9.46865 10.1888C8.78687 10.3222 7.81423 11.507 8.2225 12.01C8.29199 12.099 8.38412 12.1678 8.48926 12.2091C8.5944 12.2504 8.70869 12.2627 8.82022 12.2448C9.37258 12.1007 9.83822 11.7018 10.3586 11.4523C10.552 11.3589 10.7775 11.3389 10.9563 11.2175C11.2672 11.0053 11.1244 10.4023 10.9176 10.3169C10.4571 10.1358 9.9545 10.0895 9.46865 10.1835V10.1888Z" fill="#700063"/>
</g>
<defs>
<linearGradient id="paint0_linear_86_2909" x1="1.27002" y1="25.3774" x2="40.0153" y2="25.3774" gradientUnits="userSpaceOnUse">
<stop stop-color="#4F309E"/>
<stop offset="0.33" stop-color="#472990"/>
<stop offset="1" stop-color="#391D77"/>
</linearGradient>
<radialGradient id="paint1_radial_86_2909" cx="0" cy="0" r="1" gradientUnits="userSpaceOnUse" gradientTransform="translate(14.7854 11.3963) scale(30.7267 30.7267)">
<stop stop-color="#7A369E"/>
<stop offset="0.23" stop-color="#6E349E"/>
<stop offset="0.63" stop-color="#4F309E"/>
<stop offset="1" stop-color="#33128A"/>
</radialGradient>
<radialGradient id="paint2_radial_86_2909" cx="0" cy="0" r="1" gradientUnits="userSpaceOnUse" gradientTransform="translate(7.22317 3.52584) scale(27.2671)">
<stop stop-color="#8D6EFF"/>
<stop offset="1"/>
</radialGradient>
<radialGradient id="paint3_radial_86_2909" cx="0" cy="0" r="1" gradientUnits="userSpaceOnUse" gradientTransform="translate(15.6864 14.9975) scale(32.193 32.193)">
<stop offset="0.45" stop-color="white"/>
<stop offset="0.5" stop-color="#F8F4F9"/>
<stop offset="0.58" stop-color="#E7D6E8"/>
<stop offset="0.69" stop-color="#CAA6CD"/>
<stop offset="0.83" stop-color="#A263A8"/>
<stop offset="0.97" stop-color="#700F79"/>
<stop offset="1" stop-color="#670070"/>
</radialGradient>
<radialGradient id="paint4_radial_86_2909" cx="0" cy="0" r="1" gradientUnits="userSpaceOnUse" gradientTransform="translate(9.59692 9.56766) scale(24.4613 24.4613)">
<stop stop-color="#91FBFF"/>
<stop offset="1"/>
</radialGradient>
<radialGradient id="paint5_radial_86_2909" cx="0" cy="0" r="1" gradientUnits="userSpaceOnUse" gradientTransform="translate(12.4561 21.3593) scale(36.0288 36.0288)">
<stop stop-color="#00E1FF"/>
<stop offset="1"/>
</radialGradient>
<radialGradient id="paint6_radial_86_2909" cx="0" cy="0" r="1" gradientUnits="userSpaceOnUse" gradientTransform="translate(25 23.6628) scale(3.77045 3.77047)">
<stop stop-color="#00E1FF"/>
<stop offset="1"/>
</radialGradient>
<radialGradient id="paint7_radial_86_2909" cx="0" cy="0" r="1" gradientUnits="userSpaceOnUse" gradientTransform="translate(6.88862 12.2157) scale(4.35484 4.35484)">
<stop stop-color="#00E1FF"/>
<stop offset="1"/>
</radialGradient>
<radialGradient id="paint8_radial_86_2909" cx="0" cy="0" r="1" gradientUnits="userSpaceOnUse" gradientTransform="translate(14.8422 11.0017) scale(4.04397)">
<stop stop-color="#00E1FF"/>
<stop offset="1"/>
</radialGradient>
<radialGradient id="paint9_radial_86_2909" cx="0" cy="0" r="1" gradientUnits="userSpaceOnUse" gradientTransform="translate(19.702 16.4493) scale(4.30013 4.30014)">
<stop stop-color="#00E1FF"/>
<stop offset="1"/>
</radialGradient>
</defs>
</svg>
