<svg width="35" height="34" viewBox="0 0 35 34" fill="none" xmlns="http://www.w3.org/2000/svg">
<circle cx="16.9938" cy="16.9938" r="16.9938" fill="#0081B8"/>
<path style="mix-blend-mode:multiply" opacity="0.5" d="M27.6637 3.85596C28.7869 7.3428 28.5968 11.1091 27.128 14.4702C25.6592 17.8312 23.0093 20.5638 19.6599 22.1713C16.3105 23.7787 12.4841 24.1543 8.87635 23.2296C5.26856 22.3049 2.11891 20.1414 0 17.1325C0.0278364 19.9591 0.78539 22.7327 2.202 25.1945C3.6186 27.6563 5.64808 29.7262 8.10107 31.2109C10.5541 32.6956 13.3506 33.5468 16.2298 33.685C19.109 33.8232 21.977 33.244 24.5661 32.0014C27.1553 30.7588 29.3813 28.8933 31.0364 26.579C32.6914 24.2646 33.7217 21.5768 34.031 18.7664C34.3403 15.956 33.9186 13.1146 32.8052 10.5073C31.6917 7.89994 29.9229 5.61166 27.6637 3.85596Z" fill="url(#paint0_radial_86_2874)"/>
<path style="mix-blend-mode:multiply" opacity="0.5" d="M10.7579 3.25354C11.7399 4.05637 11.0744 6.49364 9.27229 8.70771C7.47015 10.9218 5.21117 12.0594 4.23636 11.2566C3.26155 10.4538 3.91982 8.01649 5.72196 5.80241C7.52411 3.58834 9.77589 2.45072 10.7579 3.25354ZM13.3334 1.72349C12.3802 2.13391 11.7507 2.80353 11.9342 3.23194C12.1176 3.66036 13.0349 3.67115 13.9917 3.26433C14.9485 2.85752 15.5744 2.1843 15.391 1.75588C15.2075 1.32747 14.2903 1.31668 13.3334 1.72349ZM1.5889 12.6102C1.07811 13.5139 0.991792 14.4319 1.39467 14.6587C1.79754 14.8855 2.53853 14.3347 3.04572 13.4275C3.55291 12.5203 3.63925 11.6022 3.23638 11.3754C2.8335 11.1486 2.0817 11.703 1.5889 12.6102Z" fill="url(#paint1_radial_86_2874)"/>
<path style="mix-blend-mode:multiply" opacity="0.5" d="M2.01731 13.3945C2.45615 12.6097 3.06407 12.0949 3.48493 12.1129C3.50651 11.7529 3.43097 11.4973 3.23673 11.3929C2.83385 11.1697 2.09644 11.7205 1.58925 12.6277C1.08206 13.5349 0.992143 14.4494 1.39502 14.6762C1.45148 14.7064 1.51442 14.7225 1.57845 14.723C1.62722 14.2537 1.77694 13.8005 2.01731 13.3945Z" fill="url(#paint2_radial_86_2874)"/>
<path style="mix-blend-mode:multiply" opacity="0.5" d="M6.14341 6.57594C7.94196 4.37627 10.1794 3.23504 11.1793 4.01266C11.1378 3.71852 10.9924 3.44902 10.7693 3.25304C9.78729 2.45022 7.53191 3.59144 5.73336 5.80191C3.93481 8.01238 3.26575 10.4569 4.24776 11.2561C4.03193 10.1545 4.74414 8.2932 6.14341 6.57594Z" fill="url(#paint3_radial_86_2874)"/>
<path style="mix-blend-mode:multiply" opacity="0.5" d="M13.7616 2.49717C14.2495 2.26787 14.7894 2.17222 15.3263 2.21998C15.372 2.15275 15.4017 2.07586 15.4129 1.99532C15.4241 1.91478 15.4167 1.83273 15.3911 1.75555C15.2112 1.33073 14.2904 1.31635 13.3335 1.72316C12.3767 2.12997 11.7508 2.80319 11.9343 3.23161C11.9842 3.31988 12.0555 3.39416 12.1416 3.44763C12.2277 3.5011 12.3259 3.53205 12.4271 3.53761C12.7517 3.05916 13.2186 2.69514 13.7616 2.49717Z" fill="url(#paint4_radial_86_2874)"/>
<path style="mix-blend-mode:multiply" opacity="0.5" d="M22.4926 27.9612C22.3835 29.4788 20.5897 30.5871 18.4822 30.437C16.3748 30.287 14.7515 28.9366 14.8607 27.4225C14.9698 25.9083 16.7635 24.7966 18.871 24.9467C20.9785 25.0967 22.5983 26.4369 22.4926 27.9612Z" fill="url(#paint5_radial_86_2874)"/>
<path style="mix-blend-mode:multiply" opacity="0.5" d="M22.182 26.7231C22.1871 26.8015 22.1871 26.8801 22.182 26.9584C22.0763 28.4726 20.2791 29.5809 18.1716 29.4308C16.6712 29.3251 15.4162 28.6055 14.8604 27.6541C14.9251 29.0727 16.4836 30.2936 18.4819 30.4368C20.5894 30.5868 22.3832 29.4785 22.4923 27.961C22.5173 27.5264 22.409 27.0946 22.182 26.7231Z" fill="url(#paint6_radial_86_2874)"/>
<path style="mix-blend-mode:multiply" opacity="0.5" d="M31.5876 16.3461C32.7027 16.7894 32.7982 19.1834 31.799 21.6967C30.7999 24.2099 29.088 25.8843 27.9728 25.4478C26.8577 25.0113 26.7588 22.6072 27.758 20.0939C28.7572 17.5806 30.4725 15.8994 31.5876 16.3461ZM26.9907 27.6338C26.2507 28.2851 25.8824 29.0763 26.1723 29.4036C26.4622 29.731 27.2942 29.4752 28.0342 28.8273C28.7742 28.1794 29.1425 27.3848 28.8527 27.0574C28.5628 26.7301 27.7307 26.9858 26.9907 27.6338ZM29.9507 13.0246C30.2065 14.3648 30.8953 15.3606 31.4887 15.2481C32.0821 15.1355 32.3617 13.9556 32.1059 12.6154C31.8502 11.2752 31.1613 10.2829 30.568 10.3954C29.9746 10.508 29.695 11.6844 29.9507 13.0246ZM27.9285 15.5618C27.5159 16.4553 27.5023 17.3283 27.8978 17.5124C28.2934 17.6966 28.955 17.1202 29.3676 16.2268C29.7802 15.3333 29.7939 14.4603 29.3983 14.2762C29.0027 14.092 28.3445 14.6683 27.9285 15.5618Z" fill="url(#paint7_radial_86_2874)"/>
<path style="mix-blend-mode:multiply" opacity="0.5" d="M31.4201 12.4551C31.6554 13.6964 31.4201 14.7843 30.9256 15.0332C30.999 15.1059 31.0874 15.1615 31.1847 15.1963C31.2819 15.231 31.3855 15.2441 31.4883 15.2344C32.0851 15.1185 32.3613 13.942 32.1056 12.6018C31.8498 11.2616 31.1609 10.2692 30.5676 10.3817C30.523 10.3935 30.4805 10.4119 30.4414 10.4363C30.8574 10.7944 31.2428 11.5446 31.4201 12.4551Z" fill="url(#paint8_radial_86_2874)"/>
<path style="mix-blend-mode:multiply" opacity="0.5" d="M28.6784 16.0797C28.4785 16.5717 28.1381 16.994 27.6997 17.2938C27.7391 17.3868 27.8088 17.4637 27.8975 17.512C28.2965 17.6962 28.9547 17.1198 29.3673 16.2264C29.7799 15.3329 29.7935 14.4599 29.398 14.2758C29.3162 14.2486 29.2292 14.2409 29.1439 14.2533C29.0587 14.2658 28.9775 14.298 28.9069 14.3474C29.0774 14.702 29.0024 15.3841 28.6784 16.0797Z" fill="url(#paint9_radial_86_2874)"/>
<path style="mix-blend-mode:multiply" opacity="0.5" d="M28.1906 26.9551C28.4157 27.2961 28.0576 28.0566 27.3483 28.6807C27.0046 28.9973 26.5928 29.2306 26.1445 29.3627C26.1445 29.3627 26.1445 29.3968 26.1718 29.4104C26.4583 29.7514 27.2937 29.4786 28.0338 28.8307C28.7738 28.1828 29.1421 27.3882 28.8522 27.0608C28.762 26.9846 28.6527 26.9345 28.5361 26.9158C28.4195 26.8972 28.3001 26.9108 28.1906 26.9551Z" fill="url(#paint10_radial_86_2874)"/>
<path style="mix-blend-mode:multiply" opacity="0.5" d="M31.587 16.3463C31.4209 16.283 31.2416 16.2619 31.0653 16.2849C32.0201 16.8954 32.0576 19.1699 31.113 21.5468C30.2605 23.6952 28.8828 25.2264 27.8052 25.3525C27.8582 25.3868 27.9141 25.4165 27.9723 25.4412C29.0874 25.8845 30.8027 24.2067 31.7985 21.69C32.7942 19.1733 32.7021 16.7896 31.587 16.3463Z" fill="url(#paint11_radial_86_2874)"/>
<path style="mix-blend-mode:multiply" opacity="0.5" d="M8.87625 29.3456C8.22832 30.0276 6.48915 29.4752 4.99891 28.0804C3.50867 26.6857 2.82663 24.9908 3.47797 24.2986C4.12931 23.6063 5.86508 24.169 7.35532 25.5637C8.84555 26.9585 9.52759 28.6534 8.87625 29.3456ZM12.1807 29.9322C11.3111 29.407 10.404 29.3115 10.1619 29.7173C9.91977 30.1231 10.4245 30.8768 11.2941 31.4019C12.1637 31.9271 13.0708 32.0226 13.3163 31.6168C13.5618 31.211 13.0503 30.4573 12.1807 29.9322ZM5.09099 21.1885C4.46011 20.3905 3.64849 19.9813 3.27678 20.2746C2.90508 20.5679 3.1165 21.4545 3.74397 22.2525C4.37144 23.0505 5.18988 23.4597 5.56159 23.163C5.9333 22.8663 5.72187 22.0035 5.09099 21.1885Z" fill="url(#paint12_radial_86_2874)"/>
<path style="mix-blend-mode:multiply" opacity="0.5" d="M5.56208 23.1627C5.62279 23.106 5.67017 23.0365 5.70083 22.9592C5.73149 22.882 5.74466 22.7989 5.73939 22.716C5.31994 22.716 4.71635 22.3511 4.20482 21.7168C3.82998 21.2909 3.60376 20.7547 3.5603 20.1891C3.45934 20.1871 3.36033 20.2169 3.27727 20.2743C2.90556 20.571 3.11699 21.4542 3.74446 22.2522C4.37193 23.0502 5.19037 23.4594 5.56208 23.1627Z" fill="url(#paint13_radial_86_2874)"/>
<path style="mix-blend-mode:multiply" opacity="0.5" d="M11.7554 30.8694C11.0734 30.4568 10.6164 29.9044 10.5687 29.5054C10.488 29.5113 10.4097 29.5352 10.3395 29.5753C10.2693 29.6155 10.2089 29.6708 10.1629 29.7373C9.91735 30.1431 10.4255 30.8967 11.2951 31.4219C12.1646 31.947 13.0717 32.0425 13.3173 31.6367C13.366 31.5423 13.3839 31.4349 13.3684 31.3298C12.7948 31.3578 12.2279 31.196 11.7554 30.8694Z" fill="url(#paint14_radial_86_2874)"/>
<path style="mix-blend-mode:multiply" opacity="0.5" d="M5.45965 27.5449C4.17743 26.3445 3.49881 24.9259 3.75457 24.1108C3.6532 24.1548 3.56163 24.2186 3.48517 24.2984C2.83383 24.9804 3.51587 26.6855 5.00611 28.0803C6.49635 29.475 8.23553 30.0411 8.88346 29.3454C8.97287 29.2482 9.03827 29.1315 9.07443 29.0044C8.28668 29.3591 6.77938 28.7793 5.45965 27.5449Z" fill="url(#paint15_radial_86_2874)"/>
<path style="mix-blend-mode:multiply" opacity="0.5" d="M28.0379 9.34833C27.3217 11.1557 24.7061 11.8139 22.1928 10.8181C19.6796 9.82234 18.2234 7.55118 18.9396 5.7438C19.6557 3.93641 22.2713 3.27825 24.7846 4.27402C27.2979 5.26978 28.754 7.54095 28.0379 9.34833ZM17.4664 9.17783C16.3103 8.72086 15.1065 9.02096 14.7757 9.85986C14.445 10.6988 15.1168 11.7354 16.2728 12.1924C17.4289 12.6494 18.6326 12.3493 18.96 11.5104C19.2874 10.6715 18.6224 9.63479 17.4664 9.17783Z" fill="url(#paint16_radial_86_2874)"/>
<path style="mix-blend-mode:multiply" opacity="0.5" d="M17.4658 9.17814C16.3098 8.72118 15.106 9.02127 14.7752 9.86017C14.7303 9.98393 14.705 10.114 14.7002 10.2455C15.2083 9.734 16.1734 9.59418 17.118 9.96589C18.0626 10.3376 18.7242 11.1697 18.6901 11.9131C18.8063 11.8013 18.898 11.6666 18.9595 11.5175C19.2903 10.6786 18.6219 9.6351 17.4658 9.17814Z" fill="url(#paint17_radial_86_2874)"/>
<path style="mix-blend-mode:multiply" opacity="0.5" d="M24.7842 4.27081C22.2709 3.27505 19.669 3.9298 18.9392 5.74059C18.8984 5.84635 18.8643 5.95455 18.8369 6.06456C19.7849 4.61524 22.1516 4.14805 24.4364 5.04151C26.803 5.9793 28.2319 8.04927 27.792 9.79527C27.8891 9.65046 27.9714 9.49621 28.0375 9.33489C28.7536 7.54114 27.2975 5.26999 24.7842 4.27081Z" fill="url(#paint18_radial_86_2874)"/>
<defs>
<radialGradient id="paint0_radial_86_2874" cx="0" cy="0" r="1" gradientUnits="userSpaceOnUse" gradientTransform="translate(10.3863 8.12593) scale(35.1334 34.4518)">
<stop stop-color="#FF0077"/>
<stop offset="0.14" stop-color="#FA0379"/>
<stop offset="0.31" stop-color="#EC0A80"/>
<stop offset="0.49" stop-color="#D4178A"/>
<stop offset="0.67" stop-color="#B32999"/>
<stop offset="0.87" stop-color="#8840AC"/>
<stop offset="0.9" stop-color="#8144AF"/>
</radialGradient>
<radialGradient id="paint1_radial_86_2874" cx="0" cy="0" r="1" gradientUnits="userSpaceOnUse" gradientTransform="translate(-1.19525 -22.1705) scale(32.6077 32.6351)">
<stop stop-color="#FF0077"/>
<stop offset="0.14" stop-color="#FA0379"/>
<stop offset="0.31" stop-color="#EC0A80"/>
<stop offset="0.49" stop-color="#D4178A"/>
<stop offset="0.67" stop-color="#B32999"/>
<stop offset="0.87" stop-color="#8840AC"/>
<stop offset="0.9" stop-color="#8144AF"/>
</radialGradient>
<radialGradient id="paint2_radial_86_2874" cx="0" cy="0" r="1" gradientUnits="userSpaceOnUse" gradientTransform="translate(0.758328 5.31947) scale(7.88124 7.88786)">
<stop stop-color="#FF0077"/>
<stop offset="0.14" stop-color="#FA0379"/>
<stop offset="0.31" stop-color="#EC0A80"/>
<stop offset="0.49" stop-color="#D4178A"/>
<stop offset="0.67" stop-color="#B32999"/>
<stop offset="0.87" stop-color="#8840AC"/>
<stop offset="0.9" stop-color="#8144AF"/>
</radialGradient>
<radialGradient id="paint3_radial_86_2874" cx="0" cy="0" r="1" gradientUnits="userSpaceOnUse" gradientTransform="translate(2.56792 -11.7018) scale(19.7696 19.7862)">
<stop stop-color="#FF0077"/>
<stop offset="0.14" stop-color="#FA0379"/>
<stop offset="0.31" stop-color="#EC0A80"/>
<stop offset="0.49" stop-color="#D4178A"/>
<stop offset="0.67" stop-color="#B32999"/>
<stop offset="0.87" stop-color="#8840AC"/>
<stop offset="0.9" stop-color="#8144AF"/>
</radialGradient>
<radialGradient id="paint4_radial_86_2874" cx="0" cy="0" r="1" gradientUnits="userSpaceOnUse" gradientTransform="translate(11.3264 -2.31978) scale(5.76254 5.76738)">
<stop stop-color="#FF0077"/>
<stop offset="0.14" stop-color="#FA0379"/>
<stop offset="0.31" stop-color="#EC0A80"/>
<stop offset="0.49" stop-color="#D4178A"/>
<stop offset="0.67" stop-color="#B32999"/>
<stop offset="0.87" stop-color="#8840AC"/>
<stop offset="0.9" stop-color="#8144AF"/>
</radialGradient>
<radialGradient id="paint5_radial_86_2874" cx="0" cy="0" r="1" gradientUnits="userSpaceOnUse" gradientTransform="translate(16.0218 13.755) rotate(4.00416) scale(10.4948 16.8946)">
<stop stop-color="#FF0077"/>
<stop offset="0.14" stop-color="#FA0379"/>
<stop offset="0.31" stop-color="#EC0A80"/>
<stop offset="0.49" stop-color="#D4178A"/>
<stop offset="0.67" stop-color="#B32999"/>
<stop offset="0.87" stop-color="#8840AC"/>
<stop offset="0.9" stop-color="#8144AF"/>
</radialGradient>
<radialGradient id="paint6_radial_86_2874" cx="0" cy="0" r="1" gradientUnits="userSpaceOnUse" gradientTransform="translate(13.6088 20.1041) scale(11.0012 11.0011)">
<stop stop-color="#FF0077"/>
<stop offset="0.14" stop-color="#FA0379"/>
<stop offset="0.31" stop-color="#EC0A80"/>
<stop offset="0.49" stop-color="#D4178A"/>
<stop offset="0.67" stop-color="#B32999"/>
<stop offset="0.87" stop-color="#8840AC"/>
<stop offset="0.9" stop-color="#8144AF"/>
</radialGradient>
<radialGradient id="paint7_radial_86_2874" cx="0" cy="0" r="1" gradientUnits="userSpaceOnUse" gradientTransform="translate(25.0231 -23.6618) scale(43.3396 43.3397)">
<stop stop-color="#FF0077"/>
<stop offset="0.14" stop-color="#FA0379"/>
<stop offset="0.31" stop-color="#EC0A80"/>
<stop offset="0.49" stop-color="#D4178A"/>
<stop offset="0.67" stop-color="#B32999"/>
<stop offset="0.87" stop-color="#8840AC"/>
<stop offset="0.9" stop-color="#8144AF"/>
</radialGradient>
<radialGradient id="paint8_radial_86_2874" cx="0" cy="0" r="1" gradientUnits="userSpaceOnUse" gradientTransform="translate(30.155 1.73356) scale(11.0285 11.0285)">
<stop stop-color="#FF0077"/>
<stop offset="0.14" stop-color="#FA0379"/>
<stop offset="0.31" stop-color="#EC0A80"/>
<stop offset="0.49" stop-color="#D4178A"/>
<stop offset="0.67" stop-color="#B32999"/>
<stop offset="0.87" stop-color="#8840AC"/>
<stop offset="0.9" stop-color="#8144AF"/>
</radialGradient>
<radialGradient id="paint9_radial_86_2874" cx="0" cy="0" r="1" gradientUnits="userSpaceOnUse" gradientTransform="translate(27.3757 8.37621) scale(7.62852 7.62851)">
<stop stop-color="#FF0077"/>
<stop offset="0.14" stop-color="#FA0379"/>
<stop offset="0.31" stop-color="#EC0A80"/>
<stop offset="0.49" stop-color="#D4178A"/>
<stop offset="0.67" stop-color="#B32999"/>
<stop offset="0.87" stop-color="#8840AC"/>
<stop offset="0.9" stop-color="#8144AF"/>
</radialGradient>
<radialGradient id="paint10_radial_86_2874" cx="0" cy="0" r="1" gradientUnits="userSpaceOnUse" gradientTransform="translate(25.6876 22.2423) scale(6.45543 6.45541)">
<stop stop-color="#FF0077"/>
<stop offset="0.14" stop-color="#FA0379"/>
<stop offset="0.31" stop-color="#EC0A80"/>
<stop offset="0.49" stop-color="#D4178A"/>
<stop offset="0.67" stop-color="#B32999"/>
<stop offset="0.87" stop-color="#8840AC"/>
<stop offset="0.9" stop-color="#8144AF"/>
</radialGradient>
<radialGradient id="paint11_radial_86_2874" cx="0" cy="0" r="1" gradientUnits="userSpaceOnUse" gradientTransform="translate(27.0379 -0.128173) scale(21.143 21.143)">
<stop stop-color="#FF0077"/>
<stop offset="0.14" stop-color="#FA0379"/>
<stop offset="0.31" stop-color="#EC0A80"/>
<stop offset="0.49" stop-color="#D4178A"/>
<stop offset="0.67" stop-color="#B32999"/>
<stop offset="0.87" stop-color="#8840AC"/>
<stop offset="0.9" stop-color="#8144AF"/>
</radialGradient>
<radialGradient id="paint12_radial_86_2874" cx="0" cy="0" r="1" gradientUnits="userSpaceOnUse" gradientTransform="translate(1.40802 -0.585344) scale(27.8985 27.8985)">
<stop stop-color="#FF0077"/>
<stop offset="0.14" stop-color="#FA0379"/>
<stop offset="0.31" stop-color="#EC0A80"/>
<stop offset="0.49" stop-color="#D4178A"/>
<stop offset="0.67" stop-color="#B32999"/>
<stop offset="0.87" stop-color="#8840AC"/>
<stop offset="0.9" stop-color="#8144AF"/>
</radialGradient>
<radialGradient id="paint13_radial_86_2874" cx="0" cy="0" r="1" gradientUnits="userSpaceOnUse" gradientTransform="translate(2.66003 14.7294) scale(7.31476 7.31481)">
<stop stop-color="#FF0077"/>
<stop offset="0.14" stop-color="#FA0379"/>
<stop offset="0.31" stop-color="#EC0A80"/>
<stop offset="0.49" stop-color="#D4178A"/>
<stop offset="0.67" stop-color="#B32999"/>
<stop offset="0.87" stop-color="#8840AC"/>
<stop offset="0.9" stop-color="#8144AF"/>
</radialGradient>
<radialGradient id="paint14_radial_86_2874" cx="0" cy="0" r="1" gradientUnits="userSpaceOnUse" gradientTransform="translate(9.56611 25.2529) scale(6.15531 6.15533)">
<stop stop-color="#FF0077"/>
<stop offset="0.14" stop-color="#FA0379"/>
<stop offset="0.31" stop-color="#EC0A80"/>
<stop offset="0.49" stop-color="#D4178A"/>
<stop offset="0.67" stop-color="#B32999"/>
<stop offset="0.87" stop-color="#8840AC"/>
<stop offset="0.9" stop-color="#8144AF"/>
</radialGradient>
<radialGradient id="paint15_radial_86_2874" cx="0" cy="0" r="1" gradientUnits="userSpaceOnUse" gradientTransform="translate(2.27457 14.2793) scale(13.552 13.552)">
<stop stop-color="#FF0077"/>
<stop offset="0.14" stop-color="#FA0379"/>
<stop offset="0.31" stop-color="#EC0A80"/>
<stop offset="0.49" stop-color="#D4178A"/>
<stop offset="0.67" stop-color="#B32999"/>
<stop offset="0.87" stop-color="#8840AC"/>
<stop offset="0.9" stop-color="#8144AF"/>
</radialGradient>
<radialGradient id="paint16_radial_86_2874" cx="0" cy="0" r="1" gradientUnits="userSpaceOnUse" gradientTransform="translate(12.4773 -11.4536) scale(23.0527 23.0526)">
<stop stop-color="#FF0077"/>
<stop offset="0.14" stop-color="#FA0379"/>
<stop offset="0.31" stop-color="#EC0A80"/>
<stop offset="0.49" stop-color="#D4178A"/>
<stop offset="0.67" stop-color="#B32999"/>
<stop offset="0.87" stop-color="#8840AC"/>
<stop offset="0.9" stop-color="#8144AF"/>
</radialGradient>
<radialGradient id="paint17_radial_86_2874" cx="0" cy="0" r="1" gradientUnits="userSpaceOnUse" gradientTransform="translate(13.9909 3.73555) scale(7.75128 7.75125)">
<stop stop-color="#FF0077"/>
<stop offset="0.14" stop-color="#FA0379"/>
<stop offset="0.31" stop-color="#EC0A80"/>
<stop offset="0.49" stop-color="#D4178A"/>
<stop offset="0.67" stop-color="#B32999"/>
<stop offset="0.87" stop-color="#8840AC"/>
<stop offset="0.9" stop-color="#8144AF"/>
</radialGradient>
<radialGradient id="paint18_radial_86_2874" cx="0" cy="0" r="1" gradientUnits="userSpaceOnUse" gradientTransform="translate(17.2989 -6.84971) scale(16.0652 16.0653)">
<stop stop-color="#FF0077"/>
<stop offset="0.14" stop-color="#FA0379"/>
<stop offset="0.31" stop-color="#EC0A80"/>
<stop offset="0.49" stop-color="#D4178A"/>
<stop offset="0.67" stop-color="#B32999"/>
<stop offset="0.87" stop-color="#8840AC"/>
<stop offset="0.9" stop-color="#8144AF"/>
</radialGradient>
</defs>
</svg>
