<svg width="810" height="332" viewBox="0 0 810 332" fill="none" xmlns="http://www.w3.org/2000/svg">
<path d="M808.733 171.006C808.462 193.654 796.972 215.144 776.324 234.618C755.674 254.094 725.897 271.522 689.144 286.029C615.64 315.04 514.334 332.327 402.653 330.99C290.973 329.653 190.11 309.946 117.322 279.182C80.9269 263.8 51.575 245.664 31.3978 225.699C11.222 205.736 0.249418 183.978 0.520584 161.329C0.791751 138.68 12.2822 117.191 32.9301 97.7162C53.5795 78.2405 83.3572 60.8123 120.11 46.3059C193.614 17.2942 294.92 0.00710741 406.6 1.34424C518.281 2.68136 619.144 22.3889 691.932 53.1522C728.327 68.5344 757.679 86.6705 777.856 106.635C798.032 126.598 809.004 148.357 808.733 171.006Z" stroke="#C9C9C9" stroke-opacity="0.2"/>
</svg>
