<svg width="1184" height="485" viewBox="0 0 1184 485" fill="none" xmlns="http://www.w3.org/2000/svg">
<path d="M1182.94 249.918C1182.54 283.119 1165.69 314.6 1135.47 343.105C1105.25 371.612 1061.67 397.111 1007.91 418.331C900.391 460.769 752.218 486.051 588.882 484.095C425.547 482.14 278.022 453.317 171.548 408.317C118.31 385.816 75.3599 359.281 45.8265 330.059C16.2945 300.838 0.207952 268.963 0.60547 235.762C1.00299 202.56 17.8481 171.079 48.0712 142.574C78.2958 114.067 121.869 88.568 175.631 67.3485C283.151 24.9104 431.324 -0.371726 594.659 1.58386C757.995 3.53944 905.52 32.3619 1011.99 77.3621C1065.23 99.8627 1108.18 126.398 1137.72 155.62C1167.25 184.841 1183.33 216.716 1182.94 249.918Z" stroke="#C9C9C9" stroke-opacity="0.2"/>
</svg>
