<svg width="1639" height="670" viewBox="0 0 1639 670" fill="none" xmlns="http://www.w3.org/2000/svg">
<path d="M1637.56 345.047C1637 391.048 1613.67 434.646 1571.83 474.104C1529.99 513.563 1469.69 548.851 1395.3 578.212C1246.52 636.933 1041.51 671.912 815.527 669.206C589.545 666.501 385.428 626.624 238.101 564.357C164.436 533.223 104.993 496.502 64.1128 456.052C23.2336 415.604 0.944867 371.46 1.49562 325.459C2.04638 279.458 25.3856 235.861 67.2215 196.403C109.059 156.943 169.364 121.656 243.753 92.2945C392.528 33.573 597.542 -1.40558 823.524 1.30006C1049.51 4.0057 1253.62 43.8828 1400.95 106.149C1474.61 137.283 1534.06 174.005 1574.94 214.454C1615.82 254.903 1638.11 299.047 1637.56 345.047Z" stroke="#C9C9C9" stroke-opacity="0.2"/>
</svg>
