<svg width="1876" height="790" viewBox="0 0 1876 790" fill="none" xmlns="http://www.w3.org/2000/svg">
<path d="M1875.13 406.212C1874.48 460.546 1847.7 512.038 1799.75 558.638C1751.8 605.239 1682.69 646.919 1597.46 681.608C1426.99 750.984 1192.11 792.356 933.229 789.256C674.347 786.157 440.526 739.173 271.77 665.736C187.391 629.016 119.302 585.694 72.478 537.957C25.6559 490.223 0.122998 438.104 0.773521 383.771C1.42404 329.437 28.1975 277.945 76.149 231.345C124.102 184.744 193.209 143.064 278.443 108.375C448.909 38.9992 683.788 -2.37297 942.67 0.726577C1201.55 3.82612 1435.37 50.8099 1604.13 124.247C1688.51 160.967 1756.6 204.289 1803.42 252.026C1850.24 299.76 1875.78 351.879 1875.13 406.212Z" stroke="#C9C9C9" stroke-opacity="0.2"/>
</svg>
