<svg width="12" height="1852" viewBox="0 0 12 1852" fill="none" xmlns="http://www.w3.org/2000/svg">
<path d="M0.666747 1846C0.666747 1848.95 3.05456 1851.33 6.00008 1851.33C8.9456 1851.33 11.3334 1848.95 11.3334 1846C11.3334 1843.05 8.9456 1840.67 6.00008 1840.67C3.05456 1840.67 0.666747 1843.05 0.666747 1846ZM5 4.37114e-08L5 2.99675L7 2.99675L7 -4.37114e-08L5 4.37114e-08ZM5 8.99026L5 14.9838L7 14.9838L7 8.99026L5 8.99026ZM5 20.9773L5 26.9708L7 26.9708L7 20.9773L5 20.9773ZM5 32.9643L5 38.9578L7 38.9578L7 32.9643L5 32.9643ZM5 44.9513L5 50.9448L7 50.9448L7 44.9513L5 44.9513ZM5 56.9383L5 62.9318L7 62.9318L7 56.9383L5 56.9383ZM5 68.9253L5 74.9188L7 74.9188L7 68.9253L5 68.9253ZM5 80.9124L5 86.9059L7 86.9059L7 80.9124L5 80.9124ZM5 92.8994L5 98.8929L7 98.8929L7 92.8994L5 92.8994ZM5 104.886L5 110.88L7 110.88L7 104.886L5 104.886ZM5.00001 116.873L5.00001 122.867L7.00001 122.867L7.00001 116.873L5.00001 116.873ZM5.00001 128.86L5.00001 134.854L7.00001 134.854L7.00001 128.86L5.00001 128.86ZM5.00001 140.847L5.00001 146.841L7.00001 146.841L7.00001 140.847L5.00001 140.847ZM5.00001 152.834L5.00001 158.828L7.00001 158.828L7.00001 152.834L5.00001 152.834ZM5.00001 164.821L5.00001 170.815L7.00001 170.815L7.00001 164.821L5.00001 164.821ZM5.00001 176.808L5.00001 182.802L7.00001 182.802L7.00001 176.808L5.00001 176.808ZM5.00001 188.795L5.00001 194.789L7.00001 194.789L7.00001 188.795L5.00001 188.795ZM5.00001 200.782L5.00001 206.776L7.00001 206.776L7.00001 200.782L5.00001 200.782ZM5.00001 212.769L5.00001 218.763L7.00001 218.763L7.00001 212.769L5.00001 212.769ZM5.00001 224.756L5.00001 230.75L7.00001 230.75L7.00001 224.756L5.00001 224.756ZM5.00001 236.743L5.00001 242.737L7.00001 242.737L7.00001 236.743L5.00001 236.743ZM5.00001 248.73L5.00001 254.724L7.00001 254.724L7.00001 248.73L5.00001 248.73ZM5.00001 260.717L5.00001 266.711L7.00001 266.711L7.00001 260.717L5.00001 260.717ZM5.00001 272.704L5.00001 278.698L7.00001 278.698L7.00001 272.704L5.00001 272.704ZM5.00001 284.691L5.00001 290.685L7.00001 290.685L7.00001 284.691L5.00001 284.691ZM5.00001 296.678L5.00001 302.672L7.00001 302.672L7.00001 296.678L5.00001 296.678ZM5.00001 308.665L5.00001 314.659L7.00001 314.659L7.00001 308.665L5.00001 308.665ZM5.00001 320.652L5.00001 326.646L7.00001 326.646L7.00001 320.652L5.00001 320.652ZM5.00001 332.639L5.00001 338.633L7.00001 338.633L7.00001 332.639L5.00001 332.639ZM5.00002 344.626L5.00002 350.62L7.00002 350.62L7.00002 344.626L5.00002 344.626ZM5.00002 356.613L5.00002 362.607L7.00002 362.607L7.00002 356.613L5.00002 356.613ZM5.00002 368.6L5.00002 374.594L7.00002 374.594L7.00002 368.6L5.00002 368.6ZM5.00002 380.587L5.00002 386.581L7.00002 386.581L7.00002 380.587L5.00002 380.587ZM5.00002 392.574L5.00002 398.568L7.00002 398.568L7.00002 392.574L5.00002 392.574ZM5.00002 404.561L5.00002 410.555L7.00002 410.555L7.00002 404.561L5.00002 404.561ZM5.00002 416.548L5.00002 422.542L7.00002 422.542L7.00002 416.548L5.00002 416.548ZM5.00002 428.535L5.00002 434.529L7.00002 434.529L7.00002 428.535L5.00002 428.535ZM5.00002 440.522L5.00002 446.516L7.00002 446.516L7.00002 440.522L5.00002 440.522ZM5.00002 452.509L5.00002 458.503L7.00002 458.503L7.00002 452.509L5.00002 452.509ZM5.00002 464.496L5.00002 470.49L7.00002 470.49L7.00002 464.496L5.00002 464.496ZM5.00002 476.483L5.00002 482.477L7.00002 482.477L7.00002 476.483L5.00002 476.483ZM5.00002 488.47L5.00002 494.464L7.00002 494.464L7.00002 488.47L5.00002 488.47ZM5.00002 500.457L5.00002 506.451L7.00002 506.451L7.00002 500.457L5.00002 500.457ZM5.00002 512.444L5.00002 518.438L7.00002 518.438L7.00002 512.444L5.00002 512.444ZM5.00002 524.431L5.00002 530.425L7.00002 530.425L7.00002 524.431L5.00002 524.431ZM5.00002 536.419L5.00002 542.412L7.00002 542.412L7.00002 536.419L5.00002 536.419ZM5.00002 548.406L5.00002 554.399L7.00002 554.399L7.00002 548.406L5.00002 548.406ZM5.00002 560.393L5.00002 566.386L7.00002 566.386L7.00002 560.393L5.00002 560.393ZM5.00003 572.38L5.00003 578.373L7.00003 578.373L7.00003 572.38L5.00003 572.38ZM5.00003 584.367L5.00003 590.36L7.00003 590.36L7.00003 584.367L5.00003 584.367ZM5.00003 596.354L5.00003 602.347L7.00003 602.347L7.00003 596.354L5.00003 596.354ZM5.00003 608.341L5.00003 614.334L7.00003 614.334L7.00003 608.341L5.00003 608.341ZM5.00003 620.328L5.00003 626.321L7.00003 626.321L7.00003 620.328L5.00003 620.328ZM5.00003 632.315L5.00003 638.309L7.00003 638.309L7.00003 632.315L5.00003 632.315ZM5.00003 644.302L5.00003 650.296L7.00003 650.296L7.00003 644.302L5.00003 644.302ZM5.00003 656.289L5.00003 662.283L7.00003 662.283L7.00003 656.289L5.00003 656.289ZM5.00003 668.276L5.00003 674.27L7.00003 674.27L7.00003 668.276L5.00003 668.276ZM5.00003 680.263L5.00003 686.257L7.00003 686.257L7.00003 680.263L5.00003 680.263ZM5.00003 692.25L5.00003 698.244L7.00003 698.244L7.00003 692.25L5.00003 692.25ZM5.00003 704.237L5.00003 710.231L7.00003 710.231L7.00003 704.237L5.00003 704.237ZM5.00003 716.224L5.00003 722.218L7.00003 722.218L7.00003 716.224L5.00003 716.224ZM5.00003 728.211L5.00003 734.205L7.00003 734.205L7.00003 728.211L5.00003 728.211ZM5.00003 740.199L5.00003 746.192L7.00003 746.192L7.00003 740.199L5.00003 740.199ZM5.00003 752.186L5.00003 758.179L7.00003 758.179L7.00003 752.186L5.00003 752.186ZM5.00003 764.173L5.00003 770.166L7.00003 770.166L7.00003 764.173L5.00003 764.173ZM5.00003 776.16L5.00003 782.153L7.00003 782.153L7.00003 776.16L5.00003 776.16ZM5.00003 788.147L5.00003 794.14L7.00003 794.14L7.00003 788.147L5.00003 788.147ZM5.00003 800.134L5.00004 806.127L7.00004 806.127L7.00003 800.134L5.00003 800.134ZM5.00004 812.121L5.00004 818.114L7.00004 818.114L7.00004 812.121L5.00004 812.121ZM5.00004 824.108L5.00004 830.102L7.00004 830.102L7.00004 824.108L5.00004 824.108ZM5.00004 836.095L5.00004 842.089L7.00004 842.089L7.00004 836.095L5.00004 836.095ZM5.00004 848.082L5.00004 854.076L7.00004 854.076L7.00004 848.082L5.00004 848.082ZM5.00004 860.069L5.00004 866.063L7.00004 866.063L7.00004 860.069L5.00004 860.069ZM5.00004 872.056L5.00004 878.05L7.00004 878.05L7.00004 872.056L5.00004 872.056ZM5.00004 884.043L5.00004 890.037L7.00004 890.037L7.00004 884.043L5.00004 884.043ZM5.00004 896.03L5.00004 902.024L7.00004 902.024L7.00004 896.03L5.00004 896.03ZM5.00004 908.017L5.00004 914.011L7.00004 914.011L7.00004 908.017L5.00004 908.017ZM5.00004 920.004L5.00004 925.998L7.00004 925.998L7.00004 920.004L5.00004 920.004ZM5.00004 931.992L5.00004 937.985L7.00004 937.985L7.00004 931.992L5.00004 931.992ZM5.00004 943.979L5.00004 949.972L7.00004 949.972L7.00004 943.979L5.00004 943.979ZM5.00004 955.966L5.00004 961.959L7.00004 961.959L7.00004 955.966L5.00004 955.966ZM5.00004 967.953L5.00004 973.946L7.00004 973.946L7.00004 967.953L5.00004 967.953ZM5.00004 979.94L5.00004 985.933L7.00004 985.933L7.00004 979.94L5.00004 979.94ZM5.00004 991.927L5.00004 997.92L7.00004 997.92L7.00004 991.927L5.00004 991.927ZM5.00004 1003.91L5.00004 1009.91L7.00004 1009.91L7.00004 1003.91L5.00004 1003.91ZM5.00004 1015.9L5.00004 1021.89L7.00004 1021.89L7.00004 1015.9L5.00004 1015.9ZM5.00004 1027.89L5.00005 1033.88L7.00005 1033.88L7.00004 1027.89L5.00004 1027.89ZM5.00005 1039.88L5.00005 1045.87L7.00005 1045.87L7.00005 1039.87L5.00005 1039.88ZM5.00005 1051.86L5.00005 1057.86L7.00005 1057.86L7.00005 1051.86L5.00005 1051.86ZM5.00005 1063.85L5.00005 1069.84L7.00005 1069.84L7.00005 1063.85L5.00005 1063.85ZM5.00005 1075.84L5.00005 1081.83L7.00005 1081.83L7.00005 1075.84L5.00005 1075.84ZM5.00005 1087.82L5.00005 1093.82L7.00005 1093.82L7.00005 1087.82L5.00005 1087.82ZM5.00005 1099.81L5.00005 1105.8L7.00005 1105.8L7.00005 1099.81L5.00005 1099.81ZM5.00005 1111.8L5.00005 1117.79L7.00005 1117.79L7.00005 1111.8L5.00005 1111.8ZM5.00005 1123.78L5.00005 1129.78L7.00005 1129.78L7.00005 1123.78L5.00005 1123.78ZM5.00005 1135.77L5.00005 1141.77L7.00005 1141.77L7.00005 1135.77L5.00005 1135.77ZM5.00005 1147.76L5.00005 1153.75L7.00005 1153.75L7.00005 1147.76L5.00005 1147.76ZM5.00005 1159.75L5.00005 1165.74L7.00005 1165.74L7.00005 1159.75L5.00005 1159.75ZM5.00005 1171.73L5.00005 1177.73L7.00005 1177.73L7.00005 1171.73L5.00005 1171.73ZM5.00005 1183.72L5.00005 1189.71L7.00005 1189.71L7.00005 1183.72L5.00005 1183.72ZM5.00005 1195.71L5.00005 1201.7L7.00005 1201.7L7.00005 1195.71L5.00005 1195.71ZM5.00005 1207.69L5.00005 1213.69L7.00005 1213.69L7.00005 1207.69L5.00005 1207.69ZM5.00005 1219.68L5.00005 1225.67L7.00005 1225.67L7.00005 1219.68L5.00005 1219.68ZM5.00005 1231.67L5.00005 1237.66L7.00005 1237.66L7.00005 1231.67L5.00005 1231.67ZM5.00005 1243.66L5.00005 1249.65L7.00005 1249.65L7.00005 1243.66L5.00005 1243.66ZM5.00005 1255.64L5.00006 1261.64L7.00006 1261.64L7.00005 1255.64L5.00005 1255.64ZM5.00006 1267.63L5.00006 1273.62L7.00006 1273.62L7.00006 1267.63L5.00006 1267.63ZM5.00006 1279.62L5.00006 1285.61L7.00006 1285.61L7.00006 1279.62L5.00006 1279.62ZM5.00006 1291.6L5.00006 1297.6L7.00006 1297.6L7.00006 1291.6L5.00006 1291.6ZM5.00006 1303.59L5.00006 1309.58L7.00006 1309.58L7.00006 1303.59L5.00006 1303.59ZM5.00006 1315.58L5.00006 1321.57L7.00006 1321.57L7.00006 1315.58L5.00006 1315.58ZM5.00006 1327.56L5.00006 1333.56L7.00006 1333.56L7.00006 1327.56L5.00006 1327.56ZM5.00006 1339.55L5.00006 1345.55L7.00006 1345.55L7.00006 1339.55L5.00006 1339.55ZM5.00006 1351.54L5.00006 1357.53L7.00006 1357.53L7.00006 1351.54L5.00006 1351.54ZM5.00006 1363.53L5.00006 1369.52L7.00006 1369.52L7.00006 1363.53L5.00006 1363.53ZM5.00006 1375.51L5.00006 1381.51L7.00006 1381.51L7.00006 1375.51L5.00006 1375.51ZM5.00006 1387.5L5.00006 1393.49L7.00006 1393.49L7.00006 1387.5L5.00006 1387.5ZM5.00006 1399.49L5.00006 1405.48L7.00006 1405.48L7.00006 1399.49L5.00006 1399.49ZM5.00006 1411.47L5.00006 1417.47L7.00006 1417.47L7.00006 1411.47L5.00006 1411.47ZM5.00006 1423.46L5.00006 1429.45L7.00006 1429.45L7.00006 1423.46L5.00006 1423.46ZM5.00006 1435.45L5.00006 1441.44L7.00006 1441.44L7.00006 1435.45L5.00006 1435.45ZM5.00006 1447.44L5.00006 1453.43L7.00006 1453.43L7.00006 1447.44L5.00006 1447.44ZM5.00006 1459.42L5.00006 1465.42L7.00006 1465.42L7.00006 1459.42L5.00006 1459.42ZM5.00006 1471.41L5.00006 1477.4L7.00006 1477.4L7.00006 1471.41L5.00006 1471.41ZM5.00006 1483.4L5.00007 1489.39L7.00007 1489.39L7.00006 1483.4L5.00006 1483.4ZM5.00007 1495.38L5.00007 1501.38L7.00007 1501.38L7.00007 1495.38L5.00007 1495.38ZM5.00007 1507.37L5.00007 1513.36L7.00007 1513.36L7.00007 1507.37L5.00007 1507.37ZM5.00007 1519.36L5.00007 1525.35L7.00007 1525.35L7.00007 1519.36L5.00007 1519.36ZM5.00007 1531.34L5.00007 1537.34L7.00007 1537.34L7.00007 1531.34L5.00007 1531.34ZM5.00007 1543.33L5.00007 1549.33L7.00007 1549.33L7.00007 1543.33L5.00007 1543.33ZM5.00007 1555.32L5.00007 1561.31L7.00007 1561.31L7.00007 1555.32L5.00007 1555.32ZM5.00007 1567.31L5.00007 1573.3L7.00007 1573.3L7.00007 1567.31L5.00007 1567.31ZM5.00007 1579.29L5.00007 1585.29L7.00007 1585.29L7.00007 1579.29L5.00007 1579.29ZM5.00007 1591.28L5.00007 1597.27L7.00007 1597.27L7.00007 1591.28L5.00007 1591.28ZM5.00007 1603.27L5.00007 1609.26L7.00007 1609.26L7.00007 1603.27L5.00007 1603.27ZM5.00007 1615.25L5.00007 1621.25L7.00007 1621.25L7.00007 1615.25L5.00007 1615.25ZM5.00007 1627.24L5.00007 1633.23L7.00007 1633.23L7.00007 1627.24L5.00007 1627.24ZM5.00007 1639.23L5.00007 1645.22L7.00007 1645.22L7.00007 1639.23L5.00007 1639.23ZM5.00007 1651.22L5.00007 1657.21L7.00007 1657.21L7.00007 1651.22L5.00007 1651.22ZM5.00007 1663.2L5.00007 1669.2L7.00007 1669.2L7.00007 1663.2L5.00007 1663.2ZM5.00007 1675.19L5.00007 1681.18L7.00007 1681.18L7.00007 1675.19L5.00007 1675.19ZM5.00007 1687.18L5.00007 1693.17L7.00007 1693.17L7.00007 1687.18L5.00007 1687.18ZM5.00007 1699.16L5.00007 1705.16L7.00007 1705.16L7.00007 1699.16L5.00007 1699.16ZM5.00007 1711.15L5.00008 1717.14L7.00008 1717.14L7.00007 1711.15L5.00007 1711.15ZM5.00008 1723.14L5.00008 1729.13L7.00008 1729.13L7.00008 1723.14L5.00008 1723.14ZM5.00008 1735.12L5.00008 1741.12L7.00008 1741.12L7.00008 1735.12L5.00008 1735.12ZM5.00008 1747.11L5.00008 1753.11L7.00008 1753.11L7.00008 1747.11L5.00008 1747.11ZM5.00008 1759.1L5.00008 1765.09L7.00008 1765.09L7.00008 1759.1L5.00008 1759.1ZM5.00008 1771.09L5.00008 1777.08L7.00008 1777.08L7.00008 1771.09L5.00008 1771.09ZM5.00008 1783.07L5.00008 1789.07L7.00008 1789.07L7.00008 1783.07L5.00008 1783.07ZM5.00008 1795.06L5.00008 1801.05L7.00008 1801.05L7.00008 1795.06L5.00008 1795.06ZM5.00008 1807.05L5.00008 1813.04L7.00008 1813.04L7.00008 1807.05L5.00008 1807.05ZM5.00008 1819.03L5.00008 1825.03L7.00008 1825.03L7.00008 1819.03L5.00008 1819.03ZM5.00008 1831.02L5.00008 1837.01L7.00008 1837.01L7.00008 1831.02L5.00008 1831.02ZM5.00008 1843.01L5.00008 1846L7.00008 1846L7.00008 1843.01L5.00008 1843.01Z" fill="white"/>
</svg>
