<svg width="55" height="55" viewBox="0 0 55 55" fill="none" xmlns="http://www.w3.org/2000/svg">
<path d="M49.9836 52.9179C47.0476 53.1276 43.4124 50.7513 42.294 49.9127C39.358 47.676 37.8898 46.3483 37.8898 46.3483H37.8199C32.9963 41.8053 28.3121 35.9345 26.0057 32.8593C26.0057 32.8593 27.8233 33.1387 29.1515 32.1604C30.3399 31.2518 30.5506 29.5032 30.5506 29.5032C31.3195 30.7604 33.4866 33.557 35.7936 36.5622C37.6811 38.9386 39.2889 41.175 41.247 43.3416C42.4939 44.7115 43.8749 45.9529 45.3693 47.0471C50.02 42.7768 53.0333 37.0144 53.888 30.7563C54.7428 24.4982 53.3853 18.138 50.0503 12.7754C46.7154 7.4128 41.6126 3.38505 35.6244 1.38866C29.6362 -0.607736 23.1391 -0.447263 17.2566 1.84233C11.3741 4.13192 6.47606 8.40668 3.4095 13.9274C0.342952 19.4481 -0.699325 25.8676 0.46291 32.0759C1.62514 38.2841 4.91882 43.8908 9.77436 47.9263C14.6299 51.9618 20.742 54.1724 27.0538 54.1759C31.5497 54.1833 35.9745 53.053 39.9167 50.8901C40.1266 51.0298 40.3362 51.0998 40.5449 51.2396C41.8731 52.0084 46.6265 54.8739 50.3319 53.9653C53.9672 53.0567 54.1068 49.9115 54.1068 49.9115C54.1068 49.9115 53.339 52.7082 49.9836 52.9179ZM22.65 35.0956C22.58 35.1656 22.5101 35.2354 22.4401 35.2354H22.3702C22.3002 35.2354 22.3002 35.1654 22.2302 35.1654L19.5749 31.601C19.5749 31.531 19.505 31.531 19.505 31.4612L19.3651 27.3377C18.6328 26.5137 17.9775 25.6242 17.4075 24.6805C11.6052 15.315 13.8423 9.65372 13.9813 9.444C14.0513 9.374 14.1212 9.30428 14.1912 9.30428C14.5674 9.31753 14.9416 9.36429 15.3095 9.444C17.4067 9.93316 21.5313 11.6806 25.9354 17.9014C26.6474 18.9116 27.3009 19.9617 27.893 21.0466L31.6678 22.6541C31.7378 22.6541 31.7378 22.7241 31.8077 22.7241L34.0448 26.5682C34.0611 26.5804 34.0743 26.5962 34.0834 26.6144C34.0925 26.6326 34.0973 26.6527 34.0973 26.6731C34.0973 26.6935 34.0925 26.7135 34.0834 26.7317C34.0743 26.7499 34.0611 26.7658 34.0448 26.778C33.9748 26.848 33.9049 26.9177 33.8349 26.9177L29.6406 27.4068C29.9201 28.8046 29.5007 30.0641 28.6619 30.8315C27.6831 31.6004 26.3549 31.8101 24.8171 31.3207L22.65 35.0956Z" fill="white"/>
</svg>
