<svg width="358" height="143" viewBox="0 0 358 143" fill="none" xmlns="http://www.w3.org/2000/svg">
<path fill-rule="evenodd" clip-rule="evenodd" d="M341.548 0C350.634 0 358 7.36595 358 16.4523V106.548C358 115.634 350.634 123 341.548 123H37.4523C28.4548 123 21.1442 115.777 21.0021 106.814L1.90494 97.1239C-0.547913 95.8793 -0.547913 92.3758 1.90494 91.1312L21 81.4424V16.4523C21 7.36594 28.366 0 37.4523 0H341.548Z" fill="white"/>
<path d="M44.232 32.464V49H50.664C55.392 49 58.152 45.448 58.152 40.768C58.152 36.064 55.392 32.464 50.664 32.464H44.232ZM46.704 46.744V34.72H50.664C53.976 34.72 55.68 37.408 55.68 40.768C55.68 44.128 53.976 46.744 50.664 46.744H46.704ZM66.2323 49.288C69.4243 49.288 72.1363 46.936 72.1363 43.384C72.1363 39.832 69.4243 37.504 66.2323 37.504C63.0403 37.504 60.3523 39.832 60.3523 43.384C60.3523 46.936 63.0403 49.288 66.2323 49.288ZM66.2323 47.08C64.3123 47.08 62.7043 45.568 62.7043 43.384C62.7043 41.224 64.3123 39.712 66.2323 39.712C68.1523 39.712 69.7843 41.224 69.7843 43.384C69.7843 45.568 68.1523 47.08 66.2323 47.08ZM85.1976 45.592L81.9816 37.792H79.4376L83.9256 48.496L81.5016 54.448H83.9976L90.9576 37.792H88.4136L85.1976 45.592ZM97.8261 49.288C101.018 49.288 103.73 46.936 103.73 43.384C103.73 39.832 101.018 37.504 97.8261 37.504C94.6341 37.504 91.9461 39.832 91.9461 43.384C91.9461 46.936 94.6341 49.288 97.8261 49.288ZM97.8261 47.08C95.9061 47.08 94.2981 45.568 94.2981 43.384C94.2981 41.224 95.9061 39.712 97.8261 39.712C99.7461 39.712 101.378 41.224 101.378 43.384C101.378 45.568 99.7461 47.08 97.8261 47.08ZM114.51 43.888C114.51 46.216 112.734 47.08 111.27 47.08C109.83 47.08 108.726 45.976 108.726 44.128V37.792H106.374V44.2C106.35 47.392 108.054 49.288 110.886 49.288C112.062 49.288 113.862 48.664 114.51 47.296V49H116.862V37.792H114.51V43.888ZM137.603 45.448L134.915 37.792H132.707L130.043 45.448L127.355 37.792H124.811L129.059 49H131.003L133.811 40.96L136.715 49H138.707L142.811 37.792H140.267L137.603 45.448ZM153.409 39.472C152.689 38.2 151.153 37.504 149.521 37.504C146.353 37.504 143.977 40.048 143.977 43.384C143.977 46.84 146.497 49.288 149.425 49.288C151.153 49.288 152.689 48.4 153.409 47.104V49H155.761V37.792H153.409V39.472ZM149.833 47.08C147.865 47.08 146.353 45.4 146.353 43.384C146.353 41.392 147.865 39.712 149.785 39.712C151.585 39.712 153.385 41.224 153.385 43.384C153.385 45.496 151.705 47.08 149.833 47.08ZM165.299 37.504C164.099 37.504 162.299 38.128 161.651 39.52V37.792H159.299V49H161.651V42.976C161.651 40.648 163.427 39.808 164.891 39.808C166.331 39.808 167.435 40.912 167.435 42.736V49H169.787V42.592C169.811 39.4 168.131 37.504 165.299 37.504ZM176.298 37.792V33.592H173.946V37.792H171.93V39.76H173.946V49H176.298V39.76H178.698V37.792H176.298ZM190.196 37.792V33.592H187.844V37.792H185.828V39.76H187.844V49H190.196V39.76H192.596V37.792H190.196ZM199.756 49.288C202.948 49.288 205.66 46.936 205.66 43.384C205.66 39.832 202.948 37.504 199.756 37.504C196.564 37.504 193.876 39.832 193.876 43.384C193.876 46.936 196.564 49.288 199.756 49.288ZM199.756 47.08C197.836 47.08 196.228 45.568 196.228 43.384C196.228 41.224 197.836 39.712 199.756 39.712C201.676 39.712 203.308 41.224 203.308 43.384C203.308 45.568 201.676 47.08 199.756 47.08ZM217.88 49.288C220.184 49.288 222.296 47.992 222.296 45.856C222.296 44.656 221.768 43.168 219.368 42.568L217.664 42.16C216.968 41.992 216.32 41.608 216.32 40.912C216.32 40.144 216.992 39.496 217.976 39.496C218.816 39.496 219.656 40.048 219.656 40.864H221.912C221.912 38.512 219.848 37.504 217.928 37.504C215.6 37.504 213.944 39.016 213.944 40.84C213.944 42.496 214.904 43.576 216.992 44.128L218.504 44.488C219.344 44.68 219.944 45.064 219.944 45.808C219.944 46.648 219.152 47.296 217.856 47.296C216.584 47.296 215.792 46.528 215.792 45.64H213.608C213.656 47.992 215.792 49.288 217.88 49.288ZM235.745 43.336C235.745 39.808 233.321 37.504 230.129 37.504C226.937 37.504 224.345 39.808 224.345 43.36C224.345 46.912 226.889 49.288 230.129 49.288C232.265 49.288 234.281 48.28 235.265 46.408L233.393 45.472C232.769 46.504 231.545 47.104 230.225 47.104C228.425 47.104 227.081 46.168 226.769 44.344H235.697C235.721 43.984 235.745 43.648 235.745 43.336ZM226.793 42.448C227.129 40.576 228.425 39.688 230.153 39.688C231.881 39.688 233.153 40.696 233.393 42.448H226.793ZM249.198 43.336C249.198 39.808 246.774 37.504 243.582 37.504C240.39 37.504 237.798 39.808 237.798 43.36C237.798 46.912 240.342 49.288 243.582 49.288C245.718 49.288 247.734 48.28 248.718 46.408L246.846 45.472C246.222 46.504 244.998 47.104 243.678 47.104C241.878 47.104 240.534 46.168 240.222 44.344H249.15C249.174 43.984 249.198 43.648 249.198 43.336ZM240.246 42.448C240.582 40.576 241.878 39.688 243.606 39.688C245.334 39.688 246.606 40.696 246.846 42.448H240.246ZM269.181 45.448L266.493 37.792H264.285L261.621 45.448L258.933 37.792H256.389L260.637 49H262.581L265.389 40.96L268.293 49H270.285L274.389 37.792H271.845L269.181 45.448ZM282.463 37.504C281.263 37.504 279.463 38.128 278.815 39.496V31.696H276.463V49H278.815V42.976C278.815 40.672 280.591 39.808 282.055 39.808C283.495 39.808 284.599 40.912 284.599 42.736V49H286.951V42.592C286.975 39.4 285.295 37.504 282.463 37.504ZM299.027 39.472C298.307 38.2 296.771 37.504 295.139 37.504C291.971 37.504 289.595 40.048 289.595 43.384C289.595 46.84 292.115 49.288 295.043 49.288C296.771 49.288 298.307 48.4 299.027 47.104V49H301.379V37.792H299.027V39.472ZM295.451 47.08C293.483 47.08 291.971 45.4 291.971 43.384C291.971 41.392 293.483 39.712 295.403 39.712C297.203 39.712 299.003 41.224 299.003 43.384C299.003 45.496 297.323 47.08 295.451 47.08ZM308.204 37.792V33.592H305.852V37.792H303.836V39.76H305.852V49H308.204V39.76H310.604V37.792H308.204ZM48.096 73.592L44.88 65.792H42.336L46.824 76.496L44.4 82.448H46.896L53.856 65.792H51.312L48.096 73.592ZM60.7245 77.288C63.9165 77.288 66.6285 74.936 66.6285 71.384C66.6285 67.832 63.9165 65.504 60.7245 65.504C57.5325 65.504 54.8445 67.832 54.8445 71.384C54.8445 74.936 57.5325 77.288 60.7245 77.288ZM60.7245 75.08C58.8045 75.08 57.1965 73.568 57.1965 71.384C57.1965 69.224 58.8045 67.712 60.7245 67.712C62.6445 67.712 64.2765 69.224 64.2765 71.384C64.2765 73.568 62.6445 75.08 60.7245 75.08ZM77.4081 71.888C77.4081 74.216 75.6321 75.08 74.1681 75.08C72.7281 75.08 71.6241 73.976 71.6241 72.128V65.792H69.2721V72.2C69.2481 75.392 70.9521 77.288 73.7841 77.288C74.9601 77.288 76.7601 76.664 77.4081 75.296V77H79.7601V65.792H77.4081V71.888ZM88.7876 65.504C87.3476 65.504 86.2196 66.344 85.6436 68.312V65.792H83.2676V77H85.6436V72.968C85.6436 69.944 86.6036 67.76 88.6436 67.76C89.0996 67.76 89.6756 67.856 90.2996 68.144L90.7076 65.912C90.3476 65.696 89.5556 65.504 88.7876 65.504ZM104.273 65.504C102.761 65.504 101.129 66.2 100.385 67.472V65.792H98.0333V82.448H100.385V75.344C101.129 76.616 102.689 77.288 104.273 77.288C107.321 77.288 109.841 74.984 109.841 71.408C109.841 67.856 107.297 65.504 104.273 65.504ZM103.985 75.08C102.257 75.08 100.409 73.688 100.409 71.432C100.409 69.176 102.113 67.712 103.985 67.712C105.929 67.712 107.465 69.32 107.465 71.432C107.465 73.544 105.929 75.08 103.985 75.08ZM114.987 77V59.696H112.635V77H114.987ZM127.23 67.472C126.51 66.2 124.974 65.504 123.342 65.504C120.174 65.504 117.798 68.048 117.798 71.384C117.798 74.84 120.318 77.288 123.246 77.288C124.974 77.288 126.51 76.4 127.23 75.104V77H129.582V65.792H127.23V67.472ZM123.654 75.08C121.686 75.08 120.174 73.4 120.174 71.384C120.174 69.392 121.686 67.712 123.606 67.712C125.406 67.712 127.206 69.224 127.206 71.384C127.206 73.496 125.526 75.08 123.654 75.08ZM139.119 65.504C137.919 65.504 136.119 66.128 135.471 67.52V65.792H133.119V77H135.471V70.976C135.471 68.648 137.247 67.808 138.711 67.808C140.151 67.808 141.255 68.912 141.255 70.736V77H143.607V70.592C143.631 67.4 141.951 65.504 139.119 65.504ZM164.204 73.448L161.516 65.792H159.308L156.644 73.448L153.956 65.792H151.412L155.66 77H157.604L160.412 68.96L163.316 77H165.308L169.412 65.792H166.868L164.204 73.448ZM176.459 77.288C179.651 77.288 182.363 74.936 182.363 71.384C182.363 67.832 179.651 65.504 176.459 65.504C173.267 65.504 170.579 67.832 170.579 71.384C170.579 74.936 173.267 77.288 176.459 77.288ZM176.459 75.08C174.539 75.08 172.931 73.568 172.931 71.384C172.931 69.224 174.539 67.712 176.459 67.712C178.379 67.712 180.011 69.224 180.011 71.384C180.011 73.568 178.379 75.08 176.459 75.08ZM193.142 71.888C193.142 74.216 191.366 75.08 189.902 75.08C188.462 75.08 187.358 73.976 187.358 72.128V65.792H185.006V72.2C184.982 75.392 186.686 77.288 189.518 77.288C190.694 77.288 192.494 76.664 193.142 75.296V77H195.494V65.792H193.142V71.888ZM201.354 77V59.696H199.002V77H201.354ZM213.621 67.448C212.877 66.176 211.317 65.504 209.733 65.504C206.709 65.504 204.189 67.808 204.189 71.384C204.189 74.936 206.709 77.288 209.757 77.288C211.269 77.288 212.877 76.592 213.621 75.32V77H215.973V59.696H213.621V67.448ZM210.021 75.08C208.101 75.08 206.541 73.448 206.541 71.36C206.541 69.248 208.101 67.712 210.021 67.712C211.749 67.712 213.597 69.104 213.597 71.36C213.597 73.616 211.917 75.08 210.021 75.08ZM227.815 77V59.696H225.463V77H227.815ZM236.506 77.288C239.698 77.288 242.41 74.936 242.41 71.384C242.41 67.832 239.698 65.504 236.506 65.504C233.314 65.504 230.626 67.832 230.626 71.384C230.626 74.936 233.314 77.288 236.506 77.288ZM236.506 75.08C234.586 75.08 232.978 73.568 232.978 71.384C232.978 69.224 234.586 67.712 236.506 67.712C238.426 67.712 240.058 69.224 240.058 71.384C240.058 73.568 238.426 75.08 236.506 75.08ZM250.357 77.288C253.549 77.288 256.261 74.936 256.261 71.384C256.261 67.832 253.549 65.504 250.357 65.504C247.165 65.504 244.477 67.832 244.477 71.384C244.477 74.936 247.165 77.288 250.357 77.288ZM250.357 75.08C248.437 75.08 246.829 73.568 246.829 71.384C246.829 69.224 248.437 67.712 250.357 67.712C252.277 67.712 253.909 69.224 253.909 71.384C253.909 73.568 252.277 75.08 250.357 75.08ZM263.537 70.64L268.265 65.792H265.073L261.401 69.608V59.696H259.049V77H261.401V71.672L266.297 77H269.369L263.537 70.64ZM278.792 77V59.696H276.44V77H278.792ZM283.498 63.224C284.386 63.224 285.106 62.576 285.106 61.712C285.106 60.848 284.386 60.2 283.498 60.2C282.634 60.2 281.89 60.848 281.89 61.712C281.89 62.576 282.634 63.224 283.498 63.224ZM284.674 77V65.792H282.322V77H284.674ZM292.693 70.64L297.421 65.792H294.229L290.557 69.608V59.696H288.205V77H290.557V71.672L295.453 77H298.525L292.693 70.64ZM310.112 71.336C310.112 67.808 307.688 65.504 304.496 65.504C301.304 65.504 298.712 67.808 298.712 71.36C298.712 74.912 301.256 77.288 304.496 77.288C306.632 77.288 308.648 76.28 309.632 74.408L307.76 73.472C307.136 74.504 305.912 75.104 304.592 75.104C302.792 75.104 301.448 74.168 301.136 72.344H310.064C310.088 71.984 310.112 71.648 310.112 71.336ZM301.16 70.448C301.496 68.576 302.792 67.688 304.52 67.688C306.248 67.688 307.52 68.696 307.76 70.448H301.16ZM316.653 72.032L316.677 71.192C316.677 70.088 317.373 69.8 318.357 69.488C320.205 68.888 321.765 67.184 321.765 64.856C321.765 61.976 319.677 60.176 317.037 60.176C314.397 60.176 312.045 62.096 312.045 65.216H314.277C314.349 63.392 315.669 62.384 317.013 62.384C318.429 62.384 319.437 63.296 319.437 64.88C319.437 66.032 318.669 66.944 317.637 67.304L316.845 67.616C315.285 68.192 314.349 69.08 314.445 71.192L314.469 72.032H316.653ZM315.549 77.216C316.461 77.216 317.205 76.544 317.205 75.632C317.205 74.72 316.461 74.048 315.549 74.048C314.637 74.048 313.869 74.72 313.869 75.632C313.869 76.544 314.637 77.216 315.549 77.216Z" fill="#371A45"/>
<rect x="100.608" y="96.6083" width="167.885" height="45.1935" rx="6.71962" fill="#3DBCA1" stroke="white" stroke-width="1.21656"/>
<path d="M144.425 123.877V119.304L148.324 113.779H146.081L143.458 117.663L140.864 113.779H138.636L142.505 119.275V123.877H144.425ZM154.303 120.433C154.303 118.264 152.764 116.886 150.83 116.886C148.88 116.886 147.283 118.264 147.283 120.433C147.283 122.587 148.88 124.024 150.83 124.024C152.09 124.024 153.394 123.54 154.025 122.367C153.57 122.133 153.087 121.869 152.662 121.635C152.324 122.221 151.636 122.514 150.947 122.514C149.936 122.514 149.173 121.972 149.056 121.048H154.274C154.288 120.887 154.303 120.609 154.303 120.433ZM149.042 119.832C149.173 118.894 149.906 118.381 150.844 118.381C151.724 118.381 152.427 118.894 152.559 119.832H149.042ZM158.403 121.254C158.916 121.371 159.165 121.547 159.15 121.898C159.15 122.294 158.769 122.573 158.256 122.587C157.597 122.631 157.04 122.206 156.996 121.723H155.325C155.369 123.188 156.732 124.024 158.08 124.024C159.502 124.024 160.88 123.32 160.88 121.913C160.88 121.356 160.674 120.301 159.092 119.861L157.948 119.583C157.553 119.48 157.23 119.29 157.23 119.011C157.23 118.498 157.641 118.337 158.095 118.337C158.505 118.337 158.974 118.528 159.018 119.041H160.718C160.645 117.472 159.355 116.886 158.051 116.886C156.703 116.886 155.53 117.809 155.53 118.923C155.53 119.715 155.691 120.55 157.465 121.019L158.403 121.254ZM162.464 113.779L162.742 120.931H164.281L164.56 113.779H162.464ZM162.347 122.91C162.347 123.555 162.86 124.024 163.49 124.024C164.135 124.024 164.662 123.555 164.662 122.91C164.662 122.265 164.135 121.796 163.49 121.796C162.86 121.796 162.347 122.265 162.347 122.91ZM169.87 120.931C169.87 122.661 171.335 124.038 173.49 124.038C175.322 124.038 176.963 122.998 177.036 121.18C177.11 119.993 176.553 118.733 174.281 118.103L173.035 117.736C171.951 117.472 171.834 116.871 171.834 116.578C171.834 115.86 172.508 115.391 173.343 115.391C174.281 115.391 174.853 115.904 174.853 116.71H176.729C176.729 114.834 175.278 113.662 173.372 113.662C171.511 113.662 169.972 114.849 169.972 116.622C169.972 117.502 170.324 118.806 172.522 119.436L173.768 119.759C174.735 120.022 175.204 120.477 175.16 121.136C175.116 121.825 174.501 122.353 173.49 122.353C172.405 122.353 171.79 121.679 171.746 120.931H169.87ZM180.453 120.228C180.453 119.041 181.347 118.63 182.095 118.63C182.828 118.63 183.546 119.172 183.546 120.154V123.877H185.334V120.066C185.334 118.059 184.352 116.886 182.578 116.886C181.904 116.886 180.761 117.267 180.453 118.088V113.31H178.665V123.877H180.453V120.228ZM190.403 122.265C189.407 122.265 188.615 121.547 188.615 120.433C188.615 119.334 189.407 118.645 190.403 118.645C191.4 118.645 192.191 119.334 192.191 120.433C192.191 121.547 191.4 122.265 190.403 122.265ZM190.403 124.009C192.338 124.009 193.965 122.587 193.965 120.433C193.965 118.264 192.338 116.886 190.403 116.886C188.469 116.886 186.842 118.264 186.842 120.433C186.842 122.587 188.469 124.009 190.403 124.009ZM205.681 117.033H203.775L202.383 121.356L200.991 117.033H199.408L198.03 121.356L196.638 117.033H194.733L197.254 123.877H198.734L200.214 119.29L201.738 123.877H203.233L205.681 117.033ZM215.925 120.609L212.701 113.779H211.118L209.873 123.877H211.749L212.54 117.15L215.193 122.734H216.688L219.326 117.15L220.102 123.877H221.978L220.747 113.779H219.135L215.925 120.609ZM230.187 120.433C230.187 118.264 228.648 116.886 226.713 116.886C224.764 116.886 223.167 118.264 223.167 120.433C223.167 122.587 224.764 124.024 226.713 124.024C227.974 124.024 229.278 123.54 229.908 122.367C229.454 122.133 228.97 121.869 228.545 121.635C228.208 122.221 227.519 122.514 226.831 122.514C225.819 122.514 225.057 121.972 224.94 121.048H230.158C230.172 120.887 230.187 120.609 230.187 120.433ZM224.925 119.832C225.057 118.894 225.79 118.381 226.728 118.381C227.607 118.381 228.311 118.894 228.443 119.832H224.925Z" fill="white"/>
</svg>
