<svg width="30" height="36" viewBox="0 0 30 36" fill="none" xmlns="http://www.w3.org/2000/svg">
<path d="M15.9394 25.0808C15.859 24.7959 15.6866 24.6059 15.5545 24.3981C14.4743 22.6941 13.4055 20.9724 12.2966 19.2922C11.0498 17.4102 9.87187 15.4866 8.65376 13.5927C8.33774 13.0999 8.24007 12.5775 8.42393 12.0075C8.78592 10.8557 10.2281 10.2739 11.2394 10.8854C11.429 10.9982 11.5669 11.1644 11.6875 11.3485C13.6354 14.3882 15.5832 17.428 17.531 20.4618C17.5425 20.4737 17.5482 20.4915 17.5597 20.5034C17.6459 20.6221 17.7206 20.7884 17.9045 20.6696C18.0941 20.539 17.9562 20.4143 17.8758 20.2956C17.1633 19.1735 16.4508 18.0514 15.7441 16.9234C15.4338 16.4246 15.474 16.2406 15.9164 15.8725C16.9047 15.0591 18.0424 15.2432 18.7434 16.3237C19.1915 17.0243 19.634 17.7249 20.0821 18.4254C20.1453 18.5264 20.2143 18.6332 20.2832 18.7341C20.3579 18.841 20.4441 18.9716 20.5935 18.8588C20.7372 18.7579 20.674 18.6273 20.6108 18.5085C20.559 18.4135 20.5073 18.3245 20.4499 18.2354C20.0362 17.5883 19.6167 16.9412 19.203 16.294C18.9043 15.825 18.956 15.5935 19.3984 15.2788C20.4441 14.5307 21.4382 14.7267 22.1391 15.8309C22.3805 16.205 22.616 16.5849 22.8516 16.959C22.9263 17.0718 23.0068 17.1846 23.1619 17.0896C23.317 16.9887 23.2826 16.864 23.1964 16.7274C22.9206 16.3 22.6505 15.8725 22.3862 15.4391C22.1851 15.1066 22.2311 14.881 22.5356 14.6435C23.1964 14.133 24.1444 14.2636 24.5926 14.976C25.4832 16.389 26.4657 17.7427 27.2299 19.2329C28.2067 21.1386 28.9134 23.1513 29.1433 25.3124C29.1892 25.7398 29.1835 26.1732 29.1203 26.6066C29.0398 27.1291 28.8043 27.5328 28.3791 27.8237C26.707 28.9696 25.035 30.1214 23.3572 31.2613C22.8229 31.6234 22.2426 31.6828 21.6335 31.5225C21.2371 31.4156 20.8578 31.2613 20.4901 31.0594C20.0419 30.8101 19.5363 30.7269 19.0594 30.5726C17.0771 29.9136 15.0948 29.2605 13.1068 28.6015C12.6586 28.4531 12.2162 28.2928 11.768 28.1503C10.7855 27.8415 10.3143 26.8976 10.4809 25.8289C10.6303 24.8612 11.1877 24.2437 11.9978 24.0715C12.3138 24.0062 12.6241 24.0359 12.9344 24.1309C13.9227 24.4396 14.9109 24.7484 15.9394 25.069V25.0808Z" fill="#FFC727"/>
<path d="M0 17.4753C0 12.7198 0 7.95826 0 3.19676C0 1.81343 0.672258 0.863508 1.83291 0.257931C2.16616 0.0857571 2.52815 0.00263868 2.90163 0.00263868C7.55572 0.00263868 12.2156 -0.00329835 16.8696 0.00263868C18.3463 0.00263868 19.6506 1.29097 19.777 2.81679C19.8057 3.13739 19.8115 3.45205 19.8115 3.76671C19.8115 7.01427 19.8115 10.2678 19.8115 13.5153C19.8115 13.7884 19.754 13.9606 19.4782 14.0496C19.2771 14.115 19.099 14.2515 18.9209 14.3702C18.7715 14.4712 18.6681 14.4534 18.5934 14.2812C18.5761 14.2396 18.5589 14.1981 18.5302 14.1684C17.9384 13.4916 17.8579 12.6901 17.8752 11.8114C17.9154 9.36533 17.8924 6.91928 17.8867 4.47322C17.8867 2.87616 16.8696 1.83124 15.3355 1.83124C11.7099 1.83124 8.09008 1.83124 4.46448 1.83124C3.76349 1.83124 3.13146 2.00935 2.62008 2.54369C2.14893 3.03646 1.91335 3.63016 1.91335 4.33073C1.91335 8.04731 1.91335 11.7698 1.91335 15.4864C1.91335 20.0639 1.91335 24.6354 1.91335 29.2128C1.91335 30.5605 2.91312 31.6054 4.22316 31.6411C6.94092 31.7182 9.65868 31.6826 12.3764 31.6707C13.4452 31.6707 14.5139 31.6589 15.5826 31.647C16.0882 31.6411 16.5364 31.4748 16.9443 31.172C17.065 31.083 17.1742 31.0414 17.3236 31.0949C18.0705 31.3383 18.8232 31.5817 19.5759 31.8132C19.7655 31.8726 19.823 31.9735 19.8 32.1873C19.5989 33.8853 18.375 35.0074 16.7145 35.0074C12.1753 35.0074 7.6419 35.0074 3.10273 35.0074C1.32728 35.0074 0.0114916 33.6834 0.0114916 31.8429C0.00574579 27.0577 0.0114916 22.2665 0.0114916 17.4812L0 17.4753ZM9.9 34.194C9.9 34.194 9.9 34.194 9.9 34.188C10.4229 34.188 10.94 34.188 11.4629 34.188C11.888 34.188 11.957 34.1109 11.957 33.6834C11.957 33.5706 11.957 33.4519 11.957 33.339C11.957 32.8344 11.8938 32.7453 11.4054 32.7394C10.4229 32.7275 9.44608 32.7216 8.46355 32.7394C7.84875 32.7513 7.83152 32.7988 7.83152 33.44C7.83152 33.4993 7.83152 33.5647 7.83152 33.624C7.83152 34.099 7.92345 34.194 8.38886 34.194C8.89449 34.194 9.39437 34.194 9.9 34.194Z" fill="#FFC727"/>
</svg>
