<svg width="577" height="707" viewBox="0 0 577 707" fill="none" xmlns="http://www.w3.org/2000/svg">
<rect x="0.5" y="112.275" width="526" height="594.225" rx="14.5" fill="white" fill-opacity="0.06" stroke="white"/>
<rect x="10" y="122.68" width="509" height="576.141" rx="15" fill="url(#paint0_linear_86_3768)"/>
<path opacity="0.04" d="M446.074 158.457C450.013 159.722 453.777 161.355 457.246 163.411C455.953 162.673 454.718 161.935 453.424 161.197C457.305 163.516 460.892 166.256 464.009 169.365C463.009 168.364 461.95 167.363 460.951 166.362C464.361 169.787 467.243 173.581 469.595 177.639C468.889 176.427 468.184 175.215 467.478 173.95C470.242 178.798 472.241 183.962 473.535 189.284C473.182 187.914 472.888 186.492 472.535 185.121C473.358 188.494 473.887 191.972 474.123 195.45C474.24 197.663 474.887 199.666 476.181 201.457C477.063 203.354 478.415 204.988 480.297 206.305C482.061 207.728 484.06 208.729 486.295 209.204C488.471 210.047 490.823 210.363 493.234 210.099C494.762 209.783 496.35 209.52 497.879 209.204C500.819 208.255 503.289 206.674 505.347 204.566C506.17 203.407 506.993 202.3 507.817 201.141C509.228 198.559 509.757 195.819 509.522 192.92C509.346 190.391 508.993 187.862 508.522 185.385C508.052 182.856 507.405 180.326 506.758 177.797C506.464 176.637 506.17 175.478 505.759 174.371C503.995 168.786 501.29 163.674 498.173 158.563C495.997 154.979 493.41 151.554 490.352 148.498C487.883 146.021 485.472 143.544 482.708 141.331C481.12 140.066 479.415 138.854 477.592 137.747C472.476 134.586 467.302 131.687 461.421 129.843C459.422 128.684 457.187 128.209 454.776 128.262C452.366 127.946 450.013 128.209 447.72 129.053C445.486 129.738 443.545 130.792 441.957 132.32C440.135 133.584 438.723 135.165 437.782 137.115C437.312 138.433 436.783 139.75 436.312 141.015C435.724 143.913 435.96 146.706 437.077 149.499C437.782 150.711 438.488 151.923 439.194 153.188C440.958 155.453 443.251 157.192 446.074 158.457Z" fill="white"/>
<path d="M35.0726 102.337C33.6011 102.337 13 111.713 13 111.713C13 111.713 501.357 110.86 508.714 112.565C516.072 114.27 489.585 97.0475 486.641 96.3657C483.698 95.6838 456.292 104.042 441.577 104.894L439.737 104.042L429.621 104.894L426.862 104.042L419.504 104.894L414.905 104.042L407.548 103.189H402.03H396.512L387.315 104.894C380.57 103.758 364.322 101.314 353.286 100.632C339.491 99.78 280.63 104.894 279.711 104.894C278.791 104.894 264.076 102.337 257.638 102.337C251.2 102.337 231.887 108.303 228.208 104.894C225.265 102.167 215.332 100.348 210.734 99.78L206.135 102.337L187.742 104.894C167.876 101.485 135.319 102.337 121.524 103.189L83.8163 104.894L78.2981 103.189L70.9406 104.894L64.5028 102.337L58.0649 104.894H45.1892C42.4302 104.042 36.5441 102.337 35.0726 102.337Z" fill="white"/>
<g clip-path="url(#clip0_86_3768)">
<path d="M121.789 20.2449C122.678 21.0371 124.159 21.0371 125.146 20.2449L132.453 13.7314C133.342 12.9392 133.342 11.6189 132.453 10.7387C131.564 9.94649 130.083 9.94649 129.096 10.7387L121.789 17.2522C120.9 18.0444 120.9 19.4527 121.789 20.2449Z" fill="#FFC727"/>
<path d="M143.512 32.7437C144.203 33.3598 143.907 34.4161 143.018 34.6801C133.638 37.7609 121.69 35.2083 113.001 27.5505C104.312 19.8927 101.448 9.15419 104.904 0.792244C105.201 5.88698e-05 106.385 -0.264003 107.077 0.352141L143.512 32.7437Z" fill="#FCECF8"/>
<path d="M111.52 45.5946H116.655V31.5993C116.655 30.367 115.47 29.3108 114.087 29.3108C112.705 29.3108 111.52 30.367 111.52 31.5993V45.5946Z" fill="#D6527C"/>
<path d="M143.808 33.0077C144.302 33.4478 144.104 34.1519 143.512 34.328C137.291 36.3525 129.392 34.6801 123.764 29.5749C118.037 24.4697 116.161 17.428 118.432 11.9708C118.629 11.4427 119.419 11.2666 119.913 11.7067L143.808 33.0077Z" fill="#7C97CB"/>
<path d="M104.411 50.5239H123.764C123.764 47.7952 121.295 45.5947 118.234 45.5947H110.039C106.879 45.5947 104.411 47.7952 104.411 50.5239Z" fill="#1B3177"/>
<path d="M58.793 64.784H61.064V32.1284C61.064 31.6003 60.5703 31.1602 59.9779 31.1602C59.3854 31.1602 58.8917 31.6003 58.8917 32.1284V64.784H58.793Z" fill="#D6527C"/>
<path d="M43.4878 79.5714V92.2464C43.4878 94.4469 45.4626 96.2073 47.9311 96.2073H156.151C158.619 96.2073 160.594 94.4469 160.594 92.2464V79.5714C160.594 70.4173 152.201 62.9355 141.932 62.9355H62.1498C55.2379 62.9355 49.116 66.3683 45.9563 71.3855C44.3765 73.7621 43.4878 76.5787 43.4878 79.5714Z" fill="#FCECF8"/>
<path d="M43.4878 79.5707V92.2456C43.4878 94.4461 45.4626 96.2065 47.9311 96.2065H93.3518C100.757 96.2065 106.781 90.6612 106.781 83.7957C106.781 80.3629 105.299 77.2821 102.831 74.9936C100.362 72.7931 97.104 71.3848 93.3518 71.3848H45.9563C44.3765 73.7613 43.4878 76.578 43.4878 79.5707Z" fill="#B1FBFC"/>
<path d="M69.8516 62.9342H134.329V53.2519C134.329 51.7556 133.046 50.6113 131.367 50.6113H72.8138C71.1352 50.6113 69.8516 51.7556 69.8516 53.2519V62.9342Z" fill="#395BB4"/>
<path d="M67.4818 35.1199C67.4818 34.8559 67.1856 34.5918 66.8894 34.5918H52.967C52.6707 34.5918 52.3745 34.8559 52.3745 35.1199C52.3745 35.384 52.6707 35.648 52.967 35.648H66.8894C67.1856 35.56 67.4818 35.384 67.4818 35.1199Z" fill="#D6527C"/>
<path d="M64.4206 38.5535C64.4206 38.2895 64.1243 38.0254 63.8281 38.0254H55.9289C55.6326 38.0254 55.3364 38.2895 55.3364 38.5535C55.3364 38.8176 55.6326 39.0816 55.9289 39.0816H63.8281C64.2231 38.9936 64.4206 38.8176 64.4206 38.5535Z" fill="#1F152A"/>
<path d="M67.4818 41.898C67.4818 41.6339 67.1856 41.3699 66.8894 41.3699H52.967C52.6707 41.3699 52.3745 41.6339 52.3745 41.898C52.3745 42.1621 52.6707 42.4261 52.967 42.4261H66.8894C67.1856 42.4261 67.4818 42.2501 67.4818 41.898Z" fill="#D6527C"/>
<path d="M67.4818 49.2915C67.4818 49.0275 67.1856 48.7634 66.8894 48.7634H52.967C52.6707 48.7634 52.3745 49.0275 52.3745 49.2915C52.3745 49.5556 52.6707 49.8197 52.967 49.8197H66.8894C67.1856 49.7316 67.4818 49.5556 67.4818 49.2915Z" fill="#D6527C"/>
<path d="M64.4206 45.3309C64.4206 45.0668 64.1243 44.8027 63.8281 44.8027H55.9289C55.6326 44.8027 55.3364 45.0668 55.3364 45.3309C55.3364 45.5949 55.6326 45.859 55.9289 45.859H63.8281C64.2231 45.859 64.4206 45.5949 64.4206 45.3309Z" fill="#1F152A"/>
<path d="M146.178 108.09C153.049 108.09 158.619 103.124 158.619 96.999C158.619 90.8739 153.049 85.9084 146.178 85.9084C139.307 85.9084 133.737 90.8739 133.737 96.999C133.737 103.124 139.307 108.09 146.178 108.09Z" fill="#D6527C"/>
<path d="M146.178 102.808C149.777 102.808 152.695 100.207 152.695 96.9988C152.695 93.7904 149.777 91.1895 146.178 91.1895C142.579 91.1895 139.661 93.7904 139.661 96.9988C139.661 100.207 142.579 102.808 146.178 102.808Z" fill="#FCECF8"/>
<path d="M116.753 108.09C123.624 108.09 129.195 103.124 129.195 96.999C129.195 90.8739 123.624 85.9084 116.753 85.9084C109.882 85.9084 104.312 90.8739 104.312 96.999C104.312 103.124 109.882 108.09 116.753 108.09Z" fill="#D6527C"/>
<path d="M116.753 102.808C120.352 102.808 123.27 100.207 123.27 96.9988C123.27 93.7904 120.352 91.1895 116.753 91.1895C113.154 91.1895 110.236 93.7904 110.236 96.9988C110.236 100.207 113.154 102.808 116.753 102.808Z" fill="#FCECF8"/>
<path d="M87.329 108.09C94.2002 108.09 99.7703 103.124 99.7703 96.999C99.7703 90.8739 94.2002 85.9084 87.329 85.9084C80.4579 85.9084 74.8877 90.8739 74.8877 96.999C74.8877 103.124 80.4579 108.09 87.329 108.09Z" fill="#D6527C"/>
<path d="M87.3289 102.808C90.9281 102.808 93.8458 100.207 93.8458 96.9988C93.8458 93.7904 90.9281 91.1895 87.3289 91.1895C83.7297 91.1895 80.812 93.7904 80.812 96.9988C80.812 100.207 83.7297 102.808 87.3289 102.808Z" fill="#FCECF8"/>
<path d="M58.0028 108.09C64.874 108.09 70.4442 103.124 70.4442 96.999C70.4442 90.8739 64.874 85.9084 58.0028 85.9084C51.1317 85.9084 45.5615 90.8739 45.5615 96.999C45.5615 103.124 51.1317 108.09 58.0028 108.09Z" fill="#D6527C"/>
<path d="M58.0027 102.808C61.6019 102.808 64.5196 100.207 64.5196 96.9988C64.5196 93.7904 61.6019 91.1895 58.0027 91.1895C54.4035 91.1895 51.4858 93.7904 51.4858 96.9988C51.4858 100.207 54.4035 102.808 58.0027 102.808Z" fill="#FCECF8"/>
<path d="M69.7934 57.8499L134.271 57.8499L134.271 55.3853L69.7934 55.3853L69.7934 57.8499Z" fill="#D6527C"/>
<path d="M43.5284 80.7363L160.635 80.7363L160.635 78.2718L43.5284 78.2718L43.5284 80.7363Z" fill="#FFC727"/>
</g>
<g clip-path="url(#clip1_86_3768)">
<path opacity="0.1" fill-rule="evenodd" clip-rule="evenodd" d="M33.5163 136.567C35.6017 133.954 39.638 132.502 43.2707 132.676C47.307 132.85 50.6706 135.87 51.3433 139.238C51.9487 142.607 50.0651 146.149 47.0379 148.414C44.8852 149.982 30.5564 161.538 29.2782 159.854C28 158.112 25.8473 145.975 33.5163 136.567Z" fill="white"/>
</g>
<rect x="50" y="248" width="27" height="27" rx="4" stroke="white" stroke-width="2"/>
<path d="M62.8814 271.537C62.6268 271.536 62.3751 271.482 62.142 271.379C61.9088 271.276 61.6992 271.126 61.5261 270.938L52.5032 261.264C52.166 260.901 51.9853 260.419 52.0009 259.922C52.0166 259.426 52.2273 258.956 52.5868 258.616C52.9462 258.276 53.4249 258.094 53.9176 258.11C54.4103 258.125 54.8765 258.338 55.2138 258.7L62.8628 266.915L78.4764 249.7C78.6348 249.501 78.8319 249.337 79.0556 249.217C79.2793 249.098 79.5248 249.026 79.777 249.006C80.0293 248.986 80.283 249.018 80.5225 249.1C80.7621 249.182 80.9824 249.313 81.17 249.484C81.3576 249.655 81.5085 249.863 81.6134 250.095C81.7183 250.328 81.7751 250.579 81.7801 250.834C81.7852 251.089 81.7385 251.342 81.6428 251.578C81.5472 251.814 81.4047 252.028 81.2241 252.207L64.2552 270.919C64.0837 271.111 63.8748 271.264 63.6416 271.371C63.4084 271.477 63.1559 271.533 62.8999 271.537H62.8814Z" fill="#FFC727"/>
<rect x="49" y="299" width="27" height="27" rx="4" stroke="white" stroke-width="2"/>
<path d="M61.8814 322.537C61.6268 322.536 61.3751 322.482 61.142 322.379C60.9088 322.276 60.6992 322.126 60.5261 321.938L51.5032 312.264C51.166 311.901 50.9853 311.419 51.0009 310.922C51.0166 310.426 51.2273 309.956 51.5868 309.616C51.9462 309.276 52.4249 309.094 52.9176 309.11C53.4103 309.125 53.8765 309.338 54.2138 309.7L61.8628 317.915L77.4764 300.7C77.6348 300.501 77.8319 300.337 78.0556 300.217C78.2793 300.098 78.5248 300.026 78.777 300.006C79.0293 299.986 79.283 300.018 79.5225 300.1C79.7621 300.182 79.9824 300.313 80.17 300.484C80.3576 300.655 80.5085 300.863 80.6134 301.095C80.7183 301.328 80.7751 301.579 80.7801 301.834C80.7852 302.089 80.7385 302.342 80.6428 302.578C80.5472 302.814 80.4047 303.028 80.2241 303.207L63.2552 321.919C63.0837 322.111 62.8748 322.264 62.6416 322.371C62.4084 322.477 62.1559 322.533 61.8999 322.537H61.8814Z" fill="#FFC727"/>
<rect x="49" y="350" width="27" height="27" rx="4" stroke="white" stroke-width="2"/>
<path d="M61.8814 373.537C61.6268 373.536 61.3751 373.482 61.142 373.379C60.9088 373.276 60.6992 373.126 60.5261 372.938L51.5032 363.264C51.166 362.901 50.9853 362.419 51.0009 361.922C51.0166 361.426 51.2273 360.956 51.5868 360.616C51.9462 360.276 52.4249 360.094 52.9176 360.11C53.4103 360.125 53.8765 360.338 54.2138 360.7L61.8628 368.915L77.4764 351.7C77.6348 351.501 77.8319 351.337 78.0556 351.217C78.2793 351.098 78.5248 351.026 78.777 351.006C79.0293 350.986 79.283 351.018 79.5225 351.1C79.7621 351.182 79.9824 351.313 80.17 351.484C80.3576 351.655 80.5085 351.863 80.6134 352.095C80.7183 352.328 80.7751 352.579 80.7801 352.834C80.7852 353.089 80.7385 353.342 80.6428 353.578C80.5472 353.814 80.4047 354.028 80.2241 354.207L63.2552 372.919C63.0837 373.111 62.8748 373.264 62.6416 373.371C62.4084 373.477 62.1559 373.533 61.8999 373.537H61.8814Z" fill="#FFC727"/>
<rect x="49" y="401" width="27" height="27" rx="4" stroke="white" stroke-width="2"/>
<path d="M61.8814 424.537C61.6268 424.536 61.3751 424.482 61.142 424.379C60.9088 424.276 60.6992 424.126 60.5261 423.938L51.5032 414.264C51.166 413.901 50.9853 413.419 51.0009 412.922C51.0166 412.426 51.2273 411.956 51.5868 411.616C51.9462 411.276 52.4249 411.094 52.9176 411.11C53.4103 411.125 53.8765 411.338 54.2138 411.7L61.8628 419.915L77.4764 402.7C77.6348 402.501 77.8319 402.337 78.0556 402.217C78.2793 402.098 78.5248 402.026 78.777 402.006C79.0293 401.986 79.283 402.018 79.5225 402.1C79.7621 402.182 79.9824 402.313 80.17 402.484C80.3576 402.655 80.5085 402.863 80.6134 403.095C80.7183 403.328 80.7751 403.579 80.7801 403.834C80.7852 404.089 80.7385 404.342 80.6428 404.578C80.5472 404.814 80.4047 405.028 80.2241 405.207L63.2552 423.919C63.0837 424.111 62.8748 424.264 62.6416 424.371C62.4084 424.477 62.1559 424.533 61.8999 424.537H61.8814Z" fill="#FFC727"/>
<rect x="49" y="452" width="27" height="27" rx="4" stroke="white" stroke-width="2"/>
<path d="M61.8814 475.537C61.6268 475.536 61.3751 475.482 61.142 475.379C60.9088 475.276 60.6992 475.126 60.5261 474.938L51.5032 465.264C51.166 464.901 50.9853 464.419 51.0009 463.922C51.0166 463.426 51.2273 462.956 51.5868 462.616C51.9462 462.276 52.4249 462.094 52.9176 462.11C53.4103 462.125 53.8765 462.338 54.2138 462.7L61.8628 470.915L77.4764 453.7C77.6348 453.501 77.8319 453.337 78.0556 453.217C78.2793 453.098 78.5248 453.026 78.777 453.006C79.0293 452.986 79.283 453.018 79.5225 453.1C79.7621 453.182 79.9824 453.313 80.17 453.484C80.3576 453.655 80.5085 453.863 80.6134 454.095C80.7183 454.328 80.7751 454.579 80.7801 454.834C80.7852 455.089 80.7385 455.342 80.6428 455.578C80.5472 455.814 80.4047 456.028 80.2241 456.207L63.2552 474.919C63.0837 475.111 62.8748 475.264 62.6416 475.371C62.4084 475.477 62.1559 475.533 61.8999 475.537H61.8814Z" fill="#FFC727"/>
<rect x="49" y="503" width="27" height="27" rx="4" stroke="white" stroke-width="2"/>
<path d="M61.8814 526.537C61.6268 526.536 61.3751 526.482 61.142 526.379C60.9088 526.276 60.6992 526.126 60.5261 525.938L51.5032 516.264C51.166 515.901 50.9853 515.419 51.0009 514.922C51.0166 514.426 51.2273 513.956 51.5868 513.616C51.9462 513.276 52.4249 513.094 52.9176 513.11C53.4103 513.125 53.8765 513.338 54.2138 513.7L61.8628 521.915L77.4764 504.7C77.6348 504.501 77.8319 504.337 78.0556 504.217C78.2793 504.098 78.5248 504.026 78.777 504.006C79.0293 503.986 79.283 504.018 79.5225 504.1C79.7621 504.182 79.9824 504.313 80.17 504.484C80.3576 504.655 80.5085 504.863 80.6134 505.095C80.7183 505.328 80.7751 505.579 80.7801 505.834C80.7852 506.089 80.7385 506.342 80.6428 506.578C80.5472 506.814 80.4047 507.028 80.2241 507.207L63.2552 525.919C63.0837 526.111 62.8748 526.264 62.6416 526.371C62.4084 526.477 62.1559 526.533 61.8999 526.537H61.8814Z" fill="#FFC727"/>
<rect x="49" y="554" width="27" height="27" rx="4" stroke="white" stroke-width="2"/>
<path d="M61.8814 577.537C61.6268 577.536 61.3751 577.482 61.142 577.379C60.9088 577.276 60.6992 577.126 60.5261 576.938L51.5032 567.264C51.166 566.901 50.9853 566.419 51.0009 565.922C51.0166 565.426 51.2273 564.956 51.5868 564.616C51.9462 564.276 52.4249 564.094 52.9176 564.11C53.4103 564.125 53.8765 564.338 54.2138 564.7L61.8628 572.915L77.4764 555.7C77.6348 555.501 77.8319 555.337 78.0556 555.217C78.2793 555.098 78.5248 555.026 78.777 555.006C79.0293 554.986 79.283 555.018 79.5225 555.1C79.7621 555.182 79.9824 555.313 80.17 555.484C80.3576 555.655 80.5085 555.863 80.6134 556.095C80.7183 556.328 80.7751 556.579 80.7801 556.834C80.7852 557.089 80.7385 557.342 80.6428 557.578C80.5472 557.814 80.4047 558.028 80.2241 558.207L63.2552 576.919C63.0837 577.111 62.8748 577.264 62.6416 577.371C62.4084 577.477 62.1559 577.533 61.8999 577.537H61.8814Z" fill="#FFC727"/>
<path d="M121.72 197C125.52 194.44 127.92 190.12 127.92 185.28C127.92 177.48 121.8 171.12 113.8 171.12C105.92 171.12 99.76 177.48 99.76 185.28C99.76 193.04 105.92 199.4 113.8 199.4C115.12 199.4 116.44 199.2 117.76 198.84L120.76 203.68L124.44 201.44L121.72 197ZM116.28 188.16L112.6 190.36L115 194.36C114.08 194.48 113.32 194.44 112.4 194.28C108.04 193.64 104.88 189.92 104.88 185.28C104.88 180.16 108.76 175.96 113.8 175.96C118.8 175.96 122.76 180.16 122.76 185.28C122.76 188.44 121.36 191.08 119.08 192.72L116.28 188.16ZM144.72 190.28C144.72 193.52 142.72 194.64 140.68 194.64C138.96 194.64 137.12 193.52 137.12 190.48V180.32H132.2V191.36C132.2 196.64 135.12 199.4 139.56 199.4C141.44 199.4 143.68 198.36 144.72 196.36V199H149.6V180.32H144.72V190.28ZM173.135 189.6C173.135 183.68 168.935 179.92 163.655 179.92C158.335 179.92 153.975 183.68 153.975 189.6C153.975 195.48 158.335 199.4 163.655 199.4C167.095 199.4 170.655 198.08 172.375 194.88C171.135 194.24 169.815 193.52 168.655 192.88C167.735 194.48 165.855 195.28 163.975 195.28C161.215 195.28 159.135 193.8 158.815 191.28H173.055C173.095 190.84 173.135 190.08 173.135 189.6ZM158.775 187.96C159.135 185.4 161.135 184 163.695 184C166.095 184 168.015 185.4 168.375 187.96H158.775ZM184.324 191.84C185.724 192.16 186.404 192.64 186.364 193.6C186.364 194.68 185.324 195.44 183.924 195.48C182.124 195.6 180.604 194.44 180.484 193.12H175.924C176.044 197.12 179.764 199.4 183.444 199.4C187.324 199.4 191.084 197.48 191.084 193.64C191.084 192.12 190.524 189.24 186.204 188.04L183.084 187.28C182.004 187 181.124 186.48 181.124 185.72C181.124 184.32 182.244 183.88 183.484 183.88C184.604 183.88 185.884 184.4 186.004 185.8H190.644C190.444 181.52 186.924 179.92 183.364 179.92C179.684 179.92 176.484 182.44 176.484 185.48C176.484 187.64 176.924 189.92 181.764 191.2L184.324 191.84ZM201.808 173.2H196.968V180.32H193.568V184.24H196.968V199H201.808V184.24H205.768V180.32H201.808V173.2ZM215.832 173.2H210.992V180.32H207.592V184.24H210.992V199H215.832V184.24H219.792V180.32H215.832V173.2ZM244.396 176C246.956 176 248.116 178.36 248.116 180.36C248.116 182.4 246.876 184.64 244.236 184.64H238.396V176H244.396ZM233.276 199H238.396V189.2H244.476C250.596 189.2 253.236 184.84 253.236 180.36C253.236 175.88 250.596 171.44 244.476 171.44H233.276V199ZM261.734 192.4C261.734 187.44 263.094 184.48 266.414 184.48C266.894 184.48 268.094 184.48 269.254 185L270.094 180.6C269.334 180.16 268.334 179.92 267.014 179.92C264.894 179.92 262.694 181.32 261.734 184.72V180.32H256.854V199H261.734V192.4ZM281.468 194.6C278.748 194.6 276.588 192.64 276.588 189.6C276.588 186.6 278.748 184.72 281.468 184.72C284.188 184.72 286.348 186.6 286.348 189.6C286.348 192.64 284.188 194.6 281.468 194.6ZM281.468 199.36C286.748 199.36 291.188 195.48 291.188 189.6C291.188 183.68 286.748 179.92 281.468 179.92C276.188 179.92 271.748 183.68 271.748 189.6C271.748 195.48 276.188 199.36 281.468 199.36ZM317.287 176C319.847 176 321.007 178.36 321.007 180.36C321.007 182.4 319.767 184.64 317.127 184.64H311.287V176H317.287ZM306.167 199H311.287V189.2H317.367C323.487 189.2 326.127 184.84 326.127 180.36C326.127 175.88 323.487 171.44 317.367 171.44H306.167V199ZM329.979 199H334.859V170.16H329.979V199ZM354.529 199H359.409V180.32H354.529V182.64C353.129 180.6 350.449 179.92 348.729 179.92C343.809 179.92 339.209 183.68 339.209 189.64C339.209 195.6 343.809 199.36 348.729 199.36C350.529 199.36 353.369 198.52 354.529 196.6V199ZM344.249 189.64C344.249 186.6 346.689 184.6 349.409 184.6C351.969 184.6 354.529 186.44 354.529 189.64C354.529 192.84 352.089 194.68 349.409 194.68C346.689 194.68 344.249 192.68 344.249 189.64ZM369.82 189.04C369.82 185.8 371.66 184.68 373.9 184.68C376.02 184.68 377.46 186.12 377.46 188.84V199H382.34V187.96C382.34 182.64 379.74 179.92 375.38 179.92C373.18 179.92 370.9 181.04 369.82 183.08V180.32H364.94V199H369.82V189.04Z" fill="white"/>
<path d="M111.22 252.452C113.32 252.452 114.188 254.216 114.188 255.84C114.188 257.492 113.236 259.2 111.108 259.2H106.516V252.452H111.22ZM103.52 269H106.516V261.916H111.276C115.42 261.916 117.156 258.892 117.156 255.84C117.156 252.788 115.42 249.708 111.276 249.708H103.52V269ZM131.964 262.42C131.964 258.276 129.108 255.644 125.412 255.644C121.716 255.644 118.692 258.276 118.692 262.42C118.692 266.564 121.716 269.28 125.412 269.28C127.848 269.28 130.34 268.244 131.46 265.92L129.108 264.884C128.436 266.088 127.008 266.76 125.552 266.76C123.424 266.76 121.856 265.5 121.548 263.484H131.936C131.964 263.176 131.964 262.728 131.964 262.42ZM121.548 261.384C121.856 259.368 123.396 258.164 125.412 258.164C127.4 258.164 128.828 259.34 129.136 261.384H121.548ZM137.892 264.296C137.892 260.824 138.928 258.36 141.392 258.36C141.952 258.36 142.568 258.444 143.324 258.808L143.8 256.148C143.38 255.84 142.4 255.644 141.476 255.644C139.824 255.644 138.564 256.568 137.892 258.92V255.924H135.008V269H137.892V264.296ZM151.008 263.764C151.988 263.988 152.828 264.436 152.828 265.304C152.828 266.284 151.82 266.872 150.504 266.872C148.964 266.872 148.068 266.116 147.928 264.996H145.268C145.352 267.768 147.816 269.28 150.28 269.28C153.276 269.28 155.488 267.852 155.488 265.332C155.488 264.044 154.872 262.196 152.072 261.524L150.056 261.02C149.356 260.824 148.656 260.544 148.46 260.012C148.32 259.592 148.348 259.2 148.572 258.836C148.88 258.388 149.664 258.108 150.42 258.108C151.316 258.108 152.212 258.528 152.324 259.508H155.068C154.928 256.708 152.604 255.644 150.308 255.644C147.928 255.644 145.772 257.156 145.632 259.088C145.436 261.216 146.444 262.588 149.244 263.344L151.008 263.764ZM164.597 266.48C162.441 266.48 160.649 264.884 160.649 262.42C160.649 260.04 162.441 258.472 164.597 258.472C166.781 258.472 168.573 260.04 168.573 262.42C168.573 264.884 166.781 266.48 164.597 266.48ZM164.597 269.28C168.321 269.28 171.457 266.564 171.457 262.42C171.457 258.276 168.321 255.644 164.597 255.644C160.901 255.644 157.793 258.276 157.793 262.42C157.793 266.564 160.901 269.28 164.597 269.28ZM177.541 261.972C177.541 259.396 179.193 258.472 180.901 258.472C182.581 258.472 183.645 259.62 183.645 261.72V269H186.529V261.384C186.529 257.66 184.709 255.644 181.545 255.644C180.117 255.644 178.297 256.4 177.541 257.884V255.924H174.657V269H177.541V261.972ZM200.626 269H203.482V255.924H200.626V257.772C199.73 256.288 197.798 255.644 196.23 255.644C192.73 255.644 189.594 258.276 189.594 262.448C189.594 266.62 192.73 269.28 196.23 269.28C197.91 269.28 199.73 268.552 200.626 267.124V269ZM192.562 262.42C192.562 260.012 194.41 258.444 196.566 258.444C198.526 258.444 200.598 259.872 200.598 262.42C200.598 264.996 198.694 266.48 196.566 266.48C194.41 266.48 192.562 264.828 192.562 262.42ZM207.524 269H210.408V248.812H207.524V269ZM217.298 255.924H214.442V269H217.298V255.924ZM213.938 250.632C213.938 251.668 214.834 252.452 215.87 252.452C216.962 252.452 217.774 251.668 217.774 250.632C217.774 249.596 216.962 248.812 215.87 248.812C214.834 248.812 213.938 249.596 213.938 250.632ZM220.912 255.924V258.64H227.856L220.464 266.704V269H232.056V266.284H224.552L232.056 258.22V255.924H220.912ZM247.737 262.42C247.737 258.276 244.881 255.644 241.185 255.644C237.489 255.644 234.465 258.276 234.465 262.42C234.465 266.564 237.489 269.28 241.185 269.28C243.621 269.28 246.113 268.244 247.233 265.92L244.881 264.884C244.209 266.088 242.781 266.76 241.325 266.76C239.197 266.76 237.629 265.5 237.321 263.484H247.709C247.737 263.176 247.737 262.728 247.737 262.42ZM237.321 261.384C237.629 259.368 239.169 258.164 241.185 258.164C243.173 258.164 244.601 259.34 244.909 261.384H237.321ZM260.918 269H263.774V248.812H260.918V257.8C260.106 256.372 258.37 255.644 256.494 255.644C252.966 255.644 249.97 258.276 249.97 262.476C249.97 266.592 252.966 269.28 256.494 269.28C258.286 269.28 260.106 268.524 260.918 267.096V269ZM260.862 262.42C260.862 264.968 258.986 266.48 256.858 266.48C254.702 266.48 252.938 264.828 252.938 262.42C252.938 260.012 254.702 258.444 256.858 258.444C258.79 258.444 260.862 259.872 260.862 262.42ZM278.846 250.968H275.962V255.924H273.61V258.304H275.962V269H278.846V258.304H281.618V255.924H278.846V250.968ZM287.188 255.924H284.332V269H287.188V255.924ZM283.828 250.632C283.828 251.668 284.724 252.452 285.76 252.452C286.852 252.452 287.664 251.668 287.664 250.632C287.664 249.596 286.852 248.812 285.76 248.812C284.724 248.812 283.828 249.596 283.828 250.632ZM306.119 258.472C307.799 258.472 308.891 259.676 308.891 261.72V269H311.775V261.468C311.775 257.744 309.983 255.644 306.735 255.644C305.559 255.644 303.543 255.98 302.339 258.248C301.583 256.568 300.323 255.644 298.223 255.644C297.159 255.644 295.003 256.092 294.107 257.884V255.924H291.223V269H294.107V261.972C294.107 259.396 295.731 258.472 297.411 258.472C298.979 258.472 300.043 259.648 300.071 261.664V269H302.955V261.972C302.955 259.844 304.215 258.472 306.119 258.472ZM328.1 262.42C328.1 258.276 325.244 255.644 321.548 255.644C317.852 255.644 314.828 258.276 314.828 262.42C314.828 266.564 317.852 269.28 321.548 269.28C323.984 269.28 326.476 268.244 327.596 265.92L325.244 264.884C324.572 266.088 323.144 266.76 321.688 266.76C319.56 266.76 317.992 265.5 317.684 263.484H328.072C328.1 263.176 328.1 262.728 328.1 262.42ZM317.684 261.384C317.992 259.368 319.532 258.164 321.548 258.164C323.536 258.164 324.964 259.34 325.272 261.384H317.684ZM335.065 250.968H332.181V255.924H329.829V258.304H332.181V269H335.065V258.304H337.837V255.924H335.065V250.968ZM350.552 269H353.408V255.924H350.552V257.772C349.656 256.288 347.724 255.644 346.156 255.644C342.656 255.644 339.52 258.276 339.52 262.448C339.52 266.62 342.656 269.28 346.156 269.28C347.836 269.28 349.656 268.552 350.552 267.124V269ZM342.488 262.42C342.488 260.012 344.336 258.444 346.492 258.444C348.452 258.444 350.524 259.872 350.524 262.42C350.524 264.996 348.62 266.48 346.492 266.48C344.336 266.48 342.488 264.828 342.488 262.42ZM360.362 262.42C360.362 259.872 362.406 258.444 364.366 258.444C366.55 258.444 368.314 260.012 368.314 262.42C368.314 264.828 366.55 266.48 364.366 266.48C362.238 266.48 360.362 264.968 360.362 262.42ZM360.334 269V267.096C361.146 268.524 362.91 269.28 364.702 269.28C368.202 269.28 371.254 266.592 371.254 262.476C371.254 258.276 368.286 255.644 364.73 255.644C362.854 255.644 361.146 256.372 360.334 257.8V248.812H357.45V269H360.334ZM374.485 269H377.369V248.812H374.485V269ZM393.835 262.42C393.835 258.276 390.979 255.644 387.283 255.644C383.587 255.644 380.563 258.276 380.563 262.42C380.563 266.564 383.587 269.28 387.283 269.28C389.719 269.28 392.211 268.244 393.331 265.92L390.979 264.884C390.307 266.088 388.879 266.76 387.423 266.76C385.295 266.76 383.727 265.5 383.419 263.484H393.807C393.835 263.176 393.835 262.728 393.835 262.42ZM383.419 261.384C383.727 259.368 385.267 258.164 387.283 258.164C389.271 258.164 390.699 259.34 391.007 261.384H383.419ZM106.488 303.48H111.024C114.804 303.48 116.736 306.588 116.736 310.396C116.736 314.232 114.804 317.256 111.024 317.256H106.488V303.48ZM111.024 320C116.512 320 119.704 315.884 119.704 310.396C119.704 304.908 116.512 300.708 111.024 300.708H103.52V320H111.024ZM133.196 320H136.052V306.924H133.196V308.772C132.3 307.288 130.368 306.644 128.8 306.644C125.3 306.644 122.164 309.276 122.164 313.448C122.164 317.62 125.3 320.28 128.8 320.28C130.48 320.28 132.3 319.552 133.196 318.124V320ZM125.132 313.42C125.132 311.012 126.98 309.444 129.136 309.444C131.096 309.444 133.168 310.872 133.168 313.42C133.168 315.996 131.264 317.48 129.136 317.48C126.98 317.48 125.132 315.828 125.132 313.42ZM142.95 306.924H140.094V320H142.95V306.924ZM139.59 301.632C139.59 302.668 140.486 303.452 141.522 303.452C142.614 303.452 143.426 302.668 143.426 301.632C143.426 300.596 142.614 299.812 141.522 299.812C140.486 299.812 139.59 300.596 139.59 301.632ZM146.985 320H149.869V299.812H146.985V320ZM165.719 306.924H162.639L158.971 315.884L155.331 306.924H152.251L157.431 319.384L154.603 326.384H157.627L165.719 306.924ZM178.413 301.968H175.529V306.924H173.177V309.304H175.529V320H178.413V309.304H181.185V306.924H178.413V301.968ZM189.671 317.48C187.515 317.48 185.723 315.884 185.723 313.42C185.723 311.04 187.515 309.472 189.671 309.472C191.855 309.472 193.647 311.04 193.647 313.42C193.647 315.884 191.855 317.48 189.671 317.48ZM189.671 320.28C193.395 320.28 196.531 317.564 196.531 313.42C196.531 309.276 193.395 306.644 189.671 306.644C185.975 306.644 182.867 309.276 182.867 313.42C182.867 317.564 185.975 320.28 189.671 320.28ZM199.563 314.68H209.335V312.076H199.563V314.68ZM223.347 320H226.203V299.812H223.347V308.8C222.535 307.372 220.799 306.644 218.923 306.644C215.395 306.644 212.399 309.276 212.399 313.476C212.399 317.592 215.395 320.28 218.923 320.28C220.715 320.28 222.535 319.524 223.347 318.096V320ZM223.291 313.42C223.291 315.968 221.415 317.48 219.287 317.48C217.131 317.48 215.367 315.828 215.367 313.42C215.367 311.012 217.131 309.444 219.287 309.444C221.219 309.444 223.291 310.872 223.291 313.42ZM236.21 317.48C234.054 317.48 232.262 315.884 232.262 313.42C232.262 311.04 234.054 309.472 236.21 309.472C238.394 309.472 240.186 311.04 240.186 313.42C240.186 315.884 238.394 317.48 236.21 317.48ZM236.21 320.28C239.934 320.28 243.07 317.564 243.07 313.42C243.07 309.276 239.934 306.644 236.21 306.644C232.514 306.644 229.406 309.276 229.406 313.42C229.406 317.564 232.514 320.28 236.21 320.28ZM253.379 320H256.263V299.812H253.379V320ZM263.153 306.924H260.297V320H263.153V306.924ZM259.793 301.632C259.793 302.668 260.689 303.452 261.725 303.452C262.817 303.452 263.629 302.668 263.629 301.632C263.629 300.596 262.817 299.812 261.725 299.812C260.689 299.812 259.793 300.596 259.793 301.632ZM272.004 314.764C272.984 314.988 273.824 315.436 273.824 316.304C273.824 317.284 272.816 317.872 271.5 317.872C269.96 317.872 269.064 317.116 268.924 315.996H266.264C266.348 318.768 268.812 320.28 271.276 320.28C274.272 320.28 276.484 318.852 276.484 316.332C276.484 315.044 275.868 313.196 273.068 312.524L271.052 312.02C270.352 311.824 269.652 311.544 269.456 311.012C269.316 310.592 269.344 310.2 269.568 309.836C269.876 309.388 270.66 309.108 271.416 309.108C272.312 309.108 273.208 309.528 273.32 310.508H276.064C275.924 307.708 273.6 306.644 271.304 306.644C268.924 306.644 266.768 308.156 266.628 310.088C266.432 312.216 267.44 313.588 270.24 314.344L272.004 314.764ZM283.549 301.968H280.665V306.924H278.313V309.304H280.665V320H283.549V309.304H286.321V306.924H283.549V301.968ZM106.488 354.48H111.024C114.804 354.48 116.736 357.588 116.736 361.396C116.736 365.232 114.804 368.256 111.024 368.256H106.488V354.48ZM111.024 371C116.512 371 119.704 366.884 119.704 361.396C119.704 355.908 116.512 351.708 111.024 351.708H103.52V371H111.024ZM135.436 364.42C135.436 360.276 132.58 357.644 128.884 357.644C125.188 357.644 122.164 360.276 122.164 364.42C122.164 368.564 125.188 371.28 128.884 371.28C131.32 371.28 133.812 370.244 134.932 367.92L132.58 366.884C131.908 368.088 130.48 368.76 129.024 368.76C126.896 368.76 125.328 367.5 125.02 365.484H135.408C135.436 365.176 135.436 364.728 135.436 364.42ZM125.02 363.384C125.328 361.368 126.868 360.164 128.884 360.164C130.872 360.164 132.3 361.34 132.608 363.384H125.02ZM142.401 352.968H139.517V357.924H137.165V360.304H139.517V371H142.401V360.304H145.173V357.924H142.401V352.968ZM157.888 371H160.744V357.924H157.888V359.772C156.992 358.288 155.06 357.644 153.492 357.644C149.992 357.644 146.856 360.276 146.856 364.448C146.856 368.62 149.992 371.28 153.492 371.28C155.172 371.28 156.992 370.552 157.888 369.124V371ZM149.824 364.42C149.824 362.012 151.672 360.444 153.828 360.444C155.788 360.444 157.86 361.872 157.86 364.42C157.86 366.996 155.956 368.48 153.828 368.48C151.672 368.48 149.824 366.828 149.824 364.42ZM167.642 357.924H164.786V371H167.642V357.924ZM164.282 352.632C164.282 353.668 165.178 354.452 166.214 354.452C167.306 354.452 168.118 353.668 168.118 352.632C168.118 351.596 167.306 350.812 166.214 350.812C165.178 350.812 164.282 351.596 164.282 352.632ZM171.676 371H174.56V350.812H171.676V371ZM191.026 364.42C191.026 360.276 188.17 357.644 184.474 357.644C180.778 357.644 177.754 360.276 177.754 364.42C177.754 368.564 180.778 371.28 184.474 371.28C186.91 371.28 189.402 370.244 190.522 367.92L188.17 366.884C187.498 368.088 186.07 368.76 184.614 368.76C182.486 368.76 180.918 367.5 180.61 365.484H190.998C191.026 365.176 191.026 364.728 191.026 364.42ZM180.61 363.384C180.918 361.368 182.458 360.164 184.474 360.164C186.462 360.164 187.89 361.34 188.198 363.384H180.61ZM204.207 371H207.063V350.812H204.207V359.8C203.395 358.372 201.659 357.644 199.783 357.644C196.255 357.644 193.259 360.276 193.259 364.476C193.259 368.592 196.255 371.28 199.783 371.28C201.575 371.28 203.395 370.524 204.207 369.096V371ZM204.151 364.42C204.151 366.968 202.275 368.48 200.147 368.48C197.991 368.48 196.227 366.828 196.227 364.42C196.227 362.012 197.991 360.444 200.147 360.444C202.079 360.444 204.151 361.872 204.151 364.42ZM221.099 366.296C221.099 362.824 222.135 360.36 224.599 360.36C225.159 360.36 225.775 360.444 226.531 360.808L227.007 358.148C226.587 357.84 225.607 357.644 224.683 357.644C223.031 357.644 221.771 358.568 221.099 360.92V357.924H218.215V371H221.099V366.296ZM241.557 364.42C241.557 360.276 238.701 357.644 235.005 357.644C231.309 357.644 228.285 360.276 228.285 364.42C228.285 368.564 231.309 371.28 235.005 371.28C237.441 371.28 239.933 370.244 241.053 367.92L238.701 366.884C238.029 368.088 236.601 368.76 235.145 368.76C233.017 368.76 231.449 367.5 231.141 365.484H241.529C241.557 365.176 241.557 364.728 241.557 364.42ZM231.141 363.384C231.449 361.368 232.989 360.164 235.005 360.164C236.993 360.164 238.421 361.34 238.729 363.384H231.141ZM247.486 357.924H244.602V377.356H247.486V369.124C248.298 370.58 250.062 371.28 251.854 371.28C255.382 371.28 258.35 368.648 258.35 364.476C258.35 360.36 255.382 357.644 251.854 357.644C250.062 357.644 248.298 358.428 247.486 359.856V357.924ZM247.514 364.532C247.514 361.984 249.362 360.444 251.49 360.444C253.646 360.444 255.41 362.096 255.41 364.532C255.41 366.94 253.646 368.508 251.49 368.508C249.474 368.508 247.514 367.136 247.514 364.532ZM267.546 368.48C265.39 368.48 263.598 366.884 263.598 364.42C263.598 362.04 265.39 360.472 267.546 360.472C269.73 360.472 271.522 362.04 271.522 364.42C271.522 366.884 269.73 368.48 267.546 368.48ZM267.546 371.28C271.27 371.28 274.406 368.564 274.406 364.42C274.406 360.276 271.27 357.644 267.546 357.644C263.85 357.644 260.742 360.276 260.742 364.42C260.742 368.564 263.85 371.28 267.546 371.28ZM280.49 366.296C280.49 362.824 281.526 360.36 283.99 360.36C284.55 360.36 285.166 360.444 285.922 360.808L286.398 358.148C285.978 357.84 284.998 357.644 284.074 357.644C282.422 357.644 281.162 358.568 280.49 360.92V357.924H277.606V371H280.49V366.296ZM292.709 352.968H289.825V357.924H287.473V360.304H289.825V371H292.709V360.304H295.481V357.924H292.709V352.968ZM303.012 365.764C303.992 365.988 304.832 366.436 304.832 367.304C304.832 368.284 303.824 368.872 302.508 368.872C300.968 368.872 300.072 368.116 299.932 366.996H297.272C297.356 369.768 299.82 371.28 302.284 371.28C305.28 371.28 307.492 369.852 307.492 367.332C307.492 366.044 306.876 364.196 304.076 363.524L302.06 363.02C301.36 362.824 300.66 362.544 300.464 362.012C300.324 361.592 300.352 361.2 300.576 360.836C300.884 360.388 301.668 360.108 302.424 360.108C303.32 360.108 304.216 360.528 304.328 361.508H307.072C306.932 358.708 304.608 357.644 302.312 357.644C299.932 357.644 297.776 359.156 297.636 361.088C297.44 363.216 298.448 364.588 301.248 365.344L303.012 365.764ZM115.196 402.708V411.052H106.488V402.708H103.52V422H106.488V413.768H115.196V422H118.22V402.708H115.196ZM132.649 422H135.505V408.924H132.649V410.772C131.753 409.288 129.821 408.644 128.253 408.644C124.753 408.644 121.617 411.276 121.617 415.448C121.617 419.62 124.753 422.28 128.253 422.28C129.933 422.28 131.753 421.552 132.649 420.124V422ZM124.585 415.42C124.585 413.012 126.433 411.444 128.589 411.444C130.549 411.444 132.621 412.872 132.621 415.42C132.621 417.996 130.717 419.48 128.589 419.48C126.433 419.48 124.585 417.828 124.585 415.42ZM142.431 414.972C142.431 412.396 144.083 411.472 145.791 411.472C147.471 411.472 148.535 412.62 148.535 414.72V422H151.419V414.384C151.419 410.66 149.599 408.644 146.435 408.644C145.007 408.644 143.187 409.4 142.431 410.884V408.924H139.547V422H142.431V414.972ZM165.461 422H168.317V401.812H165.461V410.8C164.649 409.372 162.913 408.644 161.037 408.644C157.509 408.644 154.513 411.276 154.513 415.476C154.513 419.592 157.509 422.28 161.037 422.28C162.829 422.28 164.649 421.524 165.461 420.096V422ZM165.405 415.42C165.405 417.968 163.529 419.48 161.401 419.48C159.245 419.48 157.481 417.828 157.481 415.42C157.481 413.012 159.245 411.444 161.401 411.444C163.333 411.444 165.405 412.872 165.405 415.42ZM191.736 408.924H188.656L185.604 417.744L182.58 408.924H179.892L176.868 417.744L173.844 408.924H170.764L175.692 422H178.044L181.236 412.732L184.568 422H186.948L191.736 408.924ZM197.146 417.296C197.146 413.824 198.182 411.36 200.646 411.36C201.206 411.36 201.822 411.444 202.578 411.808L203.054 409.148C202.634 408.84 201.654 408.644 200.73 408.644C199.078 408.644 197.818 409.568 197.146 411.92V408.924H194.262V422H197.146V417.296ZM208.302 408.924H205.446V422H208.302V408.924ZM204.942 403.632C204.942 404.668 205.838 405.452 206.874 405.452C207.966 405.452 208.778 404.668 208.778 403.632C208.778 402.596 207.966 401.812 206.874 401.812C205.838 401.812 204.942 402.596 204.942 403.632ZM216.256 403.968H213.372V408.924H211.02V411.304H213.372V422H216.256V411.304H219.028V408.924H216.256V403.968ZM225.663 403.968H222.779V408.924H220.427V411.304H222.779V422H225.663V411.304H228.435V408.924H225.663V403.968ZM243.389 415.42C243.389 411.276 240.533 408.644 236.837 408.644C233.141 408.644 230.117 411.276 230.117 415.42C230.117 419.564 233.141 422.28 236.837 422.28C239.273 422.28 241.765 421.244 242.885 418.92L240.533 417.884C239.861 419.088 238.433 419.76 236.977 419.76C234.849 419.76 233.281 418.5 232.973 416.484H243.361C243.389 416.176 243.389 415.728 243.389 415.42ZM232.973 414.384C233.281 412.368 234.821 411.164 236.837 411.164C238.825 411.164 240.253 412.34 240.561 414.384H232.973ZM249.318 414.972C249.318 412.396 250.97 411.472 252.678 411.472C254.358 411.472 255.422 412.62 255.422 414.72V422H258.306V414.384C258.306 410.66 256.486 408.644 253.322 408.644C251.894 408.644 250.074 409.4 249.318 410.884V408.924H246.434V422H249.318V414.972ZM272.205 414.972C272.205 412.396 273.857 411.472 275.565 411.472C277.245 411.472 278.309 412.62 278.309 414.72V422H281.193V414.384C281.193 410.66 279.373 408.644 276.209 408.644C274.781 408.644 272.961 409.4 272.205 410.884V408.924H269.321V422H272.205V414.972ZM291.062 419.48C288.906 419.48 287.114 417.884 287.114 415.42C287.114 413.04 288.906 411.472 291.062 411.472C293.246 411.472 295.038 413.04 295.038 415.42C295.038 417.884 293.246 419.48 291.062 419.48ZM291.062 422.28C294.786 422.28 297.922 419.564 297.922 415.42C297.922 411.276 294.786 408.644 291.062 408.644C287.366 408.644 284.258 411.276 284.258 415.42C284.258 419.564 287.366 422.28 291.062 422.28ZM305.041 403.968H302.157V408.924H299.805V411.304H302.157V422H305.041V411.304H307.813V408.924H305.041V403.968ZM322.768 415.42C322.768 411.276 319.912 408.644 316.216 408.644C312.52 408.644 309.496 411.276 309.496 415.42C309.496 419.564 312.52 422.28 316.216 422.28C318.652 422.28 321.144 421.244 322.264 418.92L319.912 417.884C319.24 419.088 317.812 419.76 316.356 419.76C314.228 419.76 312.66 418.5 312.352 416.484H322.74C322.768 416.176 322.768 415.728 322.768 415.42ZM312.352 414.384C312.66 412.368 314.2 411.164 316.216 411.164C318.204 411.164 319.632 412.34 319.94 414.384H312.352ZM330.629 416.764C331.609 416.988 332.449 417.436 332.449 418.304C332.449 419.284 331.441 419.872 330.125 419.872C328.585 419.872 327.689 419.116 327.549 417.996H324.889C324.973 420.768 327.437 422.28 329.901 422.28C332.897 422.28 335.109 420.852 335.109 418.332C335.109 417.044 334.493 415.196 331.693 414.524L329.677 414.02C328.977 413.824 328.277 413.544 328.081 413.012C327.941 412.592 327.969 412.2 328.193 411.836C328.501 411.388 329.285 411.108 330.041 411.108C330.937 411.108 331.833 411.528 331.945 412.508H334.689C334.549 409.708 332.225 408.644 329.929 408.644C327.549 408.644 325.393 410.156 325.253 412.088C325.057 414.216 326.065 415.588 328.865 416.344L330.629 416.764ZM102.4 467.4C102.4 470.536 105.2 473.28 109.204 473.28C112.872 473.28 115.476 471.124 115.784 468.1C116.092 465.3 114.496 463.144 110.576 462.108L108.112 461.464C105.816 460.876 105.536 459.7 105.536 458.944C105.536 457.376 107.076 456.284 108.868 456.284C110.884 456.284 112.228 457.404 112.228 459.196H115.196C115.196 455.668 112.508 453.484 108.924 453.484C105.536 453.484 102.568 455.696 102.568 459C102.568 460.708 103.212 463.06 107.356 464.18L109.792 464.796C111.584 465.216 112.956 466.14 112.844 467.932C112.648 469.36 111.472 470.564 109.204 470.564C106.88 470.564 105.452 468.968 105.368 467.4H102.4ZM125.058 470.48C122.902 470.48 121.11 468.884 121.11 466.42C121.11 464.04 122.902 462.472 125.058 462.472C127.242 462.472 129.034 464.04 129.034 466.42C129.034 468.884 127.242 470.48 125.058 470.48ZM125.058 473.28C128.782 473.28 131.918 470.564 131.918 466.42C131.918 462.276 128.782 459.644 125.058 459.644C121.362 459.644 118.254 462.276 118.254 466.42C118.254 470.564 121.362 473.28 125.058 473.28ZM135.118 473H138.002V452.812H135.118V473ZM150.856 466.952C150.856 469.556 149.176 470.48 147.496 470.48C145.928 470.48 144.78 469.36 144.78 467.204V459.924H141.896V467.54C141.868 471.264 143.744 473.28 146.964 473.28C148.336 473.28 150.1 472.58 150.856 471.096V473H153.74V459.924H150.856V466.952ZM161.678 454.968H158.794V459.924H156.442V462.304H158.794V473H161.678V462.304H164.45V459.924H161.678V454.968ZM170.02 459.924H167.164V473H170.02V459.924ZM166.66 454.632C166.66 455.668 167.556 456.452 168.592 456.452C169.684 456.452 170.496 455.668 170.496 454.632C170.496 453.596 169.684 452.812 168.592 452.812C167.556 452.812 166.66 453.596 166.66 454.632ZM180.019 470.48C177.863 470.48 176.071 468.884 176.071 466.42C176.071 464.04 177.863 462.472 180.019 462.472C182.203 462.472 183.995 464.04 183.995 466.42C183.995 468.884 182.203 470.48 180.019 470.48ZM180.019 473.28C183.743 473.28 186.879 470.564 186.879 466.42C186.879 462.276 183.743 459.644 180.019 459.644C176.323 459.644 173.215 462.276 173.215 466.42C173.215 470.564 176.323 473.28 180.019 473.28ZM192.963 465.972C192.963 463.396 194.615 462.472 196.323 462.472C198.003 462.472 199.067 463.62 199.067 465.72V473H201.951V465.384C201.951 461.66 200.131 459.644 196.967 459.644C195.539 459.644 193.719 460.4 192.963 461.884V459.924H190.079V473H192.963V465.972ZM210.672 467.764C211.652 467.988 212.492 468.436 212.492 469.304C212.492 470.284 211.484 470.872 210.168 470.872C208.628 470.872 207.732 470.116 207.592 468.996H204.932C205.016 471.768 207.48 473.28 209.944 473.28C212.94 473.28 215.152 471.852 215.152 469.332C215.152 468.044 214.536 466.196 211.736 465.524L209.72 465.02C209.02 464.824 208.32 464.544 208.124 464.012C207.984 463.592 208.012 463.2 208.236 462.836C208.544 462.388 209.328 462.108 210.084 462.108C210.98 462.108 211.876 462.528 211.988 463.508H214.732C214.592 460.708 212.268 459.644 209.972 459.644C207.592 459.644 205.436 461.156 205.296 463.088C205.1 465.216 206.108 466.588 208.908 467.344L210.672 467.764ZM232.864 452.812H231.436C227.852 452.812 226.2 455.136 226.2 458.72V459.924H223.708V462.304H226.2V473H229.112V462.304H232.052V459.924H229.112V458.72C229.112 457.04 229.532 455.584 231.436 455.584H232.864V452.812ZM240.503 470.48C238.347 470.48 236.555 468.884 236.555 466.42C236.555 464.04 238.347 462.472 240.503 462.472C242.687 462.472 244.479 464.04 244.479 466.42C244.479 468.884 242.687 470.48 240.503 470.48ZM240.503 473.28C244.227 473.28 247.363 470.564 247.363 466.42C247.363 462.276 244.227 459.644 240.503 459.644C236.807 459.644 233.699 462.276 233.699 466.42C233.699 470.564 236.807 473.28 240.503 473.28ZM253.447 468.296C253.447 464.824 254.483 462.36 256.947 462.36C257.507 462.36 258.123 462.444 258.879 462.808L259.355 460.148C258.935 459.84 257.955 459.644 257.031 459.644C255.379 459.644 254.119 460.568 253.447 462.92V459.924H250.563V473H253.447V468.296ZM278.392 473H281.248V459.924H278.392V461.772C277.496 460.288 275.564 459.644 273.996 459.644C270.496 459.644 267.36 462.276 267.36 466.448C267.36 470.62 270.496 473.28 273.996 473.28C275.676 473.28 277.496 472.552 278.392 471.124V473ZM270.328 466.42C270.328 464.012 272.176 462.444 274.332 462.444C276.292 462.444 278.364 463.872 278.364 466.42C278.364 468.996 276.46 470.48 274.332 470.48C272.176 470.48 270.328 468.828 270.328 466.42ZM285.289 473H288.173V452.812H285.289V473ZM292.207 473H295.091V452.812H292.207V473ZM310.155 454.968H307.271V459.924H304.919V462.304H307.271V473H310.155V462.304H312.927V459.924H310.155V454.968ZM318.525 465.972C318.525 463.396 320.513 462.472 322.165 462.472C323.817 462.472 325.077 463.676 325.077 465.72V473H327.961V465.552C327.961 461.828 326.029 459.644 322.669 459.644C321.297 459.644 319.281 460.316 318.525 461.912V452.812H315.641V473H318.525V465.972ZM344.261 466.42C344.261 462.276 341.405 459.644 337.709 459.644C334.013 459.644 330.989 462.276 330.989 466.42C330.989 470.564 334.013 473.28 337.709 473.28C340.145 473.28 342.637 472.244 343.757 469.92L341.405 468.884C340.733 470.088 339.305 470.76 337.849 470.76C335.721 470.76 334.153 469.5 333.845 467.484H344.233C344.261 467.176 344.261 466.728 344.261 466.42ZM333.845 465.384C334.153 463.368 335.693 462.164 337.709 462.164C339.697 462.164 341.125 463.34 341.433 465.384H333.845ZM364.438 466.532C364.438 469.136 362.394 470.508 360.462 470.508C358.278 470.508 356.57 468.94 356.57 466.532C356.57 464.096 358.278 462.444 360.462 462.444C362.59 462.444 364.438 463.984 364.438 466.532ZM364.466 461.856C363.682 460.428 361.89 459.644 360.098 459.644C356.57 459.644 353.602 462.36 353.602 466.476C353.602 470.648 356.57 473.28 360.098 473.28C361.89 473.28 363.682 472.58 364.466 471.124V479.356H367.35V459.924H364.466V461.856ZM380.215 466.952C380.215 469.556 378.535 470.48 376.855 470.48C375.287 470.48 374.139 469.36 374.139 467.204V459.924H371.255V467.54C371.227 471.264 373.103 473.28 376.323 473.28C377.695 473.28 379.459 472.58 380.215 471.096V473H383.099V459.924H380.215V466.952ZM399.55 466.42C399.55 462.276 396.694 459.644 392.998 459.644C389.302 459.644 386.278 462.276 386.278 466.42C386.278 470.564 389.302 473.28 392.998 473.28C395.434 473.28 397.926 472.244 399.046 469.92L396.694 468.884C396.022 470.088 394.594 470.76 393.138 470.76C391.01 470.76 389.442 469.5 389.134 467.484H399.522C399.55 467.176 399.55 466.728 399.55 466.42ZM389.134 465.384C389.442 463.368 390.982 462.164 392.998 462.164C394.986 462.164 396.414 463.34 396.722 465.384H389.134ZM407.41 467.764C408.39 467.988 409.23 468.436 409.23 469.304C409.23 470.284 408.222 470.872 406.906 470.872C405.366 470.872 404.47 470.116 404.33 468.996H401.67C401.754 471.768 404.218 473.28 406.682 473.28C409.678 473.28 411.89 471.852 411.89 469.332C411.89 468.044 411.274 466.196 408.474 465.524L406.458 465.02C405.758 464.824 405.058 464.544 404.862 464.012C404.722 463.592 404.75 463.2 404.974 462.836C405.282 462.388 406.066 462.108 406.822 462.108C407.718 462.108 408.614 462.528 408.726 463.508H411.47C411.33 460.708 409.006 459.644 406.71 459.644C404.33 459.644 402.174 461.156 402.034 463.088C401.838 465.216 402.846 466.588 405.646 467.344L407.41 467.764ZM418.956 454.968H416.072V459.924H413.72V462.304H416.072V473H418.956V462.304H421.728V459.924H418.956V454.968ZM427.298 459.924H424.442V473H427.298V459.924ZM423.938 454.632C423.938 455.668 424.834 456.452 425.87 456.452C426.962 456.452 427.774 455.668 427.774 454.632C427.774 453.596 426.962 452.812 425.87 452.812C424.834 452.812 423.938 453.596 423.938 454.632ZM437.296 470.48C435.14 470.48 433.348 468.884 433.348 466.42C433.348 464.04 435.14 462.472 437.296 462.472C439.48 462.472 441.272 464.04 441.272 466.42C441.272 468.884 439.48 470.48 437.296 470.48ZM437.296 473.28C441.02 473.28 444.156 470.564 444.156 466.42C444.156 462.276 441.02 459.644 437.296 459.644C433.6 459.644 430.492 462.276 430.492 466.42C430.492 470.564 433.6 473.28 437.296 473.28ZM450.24 465.972C450.24 463.396 451.892 462.472 453.6 462.472C455.28 462.472 456.344 463.62 456.344 465.72V473H459.228V465.384C459.228 461.66 457.408 459.644 454.244 459.644C452.816 459.644 450.996 460.4 450.24 461.884V459.924H447.356V473H450.24V465.972ZM467.949 467.764C468.929 467.988 469.769 468.436 469.769 469.304C469.769 470.284 468.761 470.872 467.445 470.872C465.905 470.872 465.009 470.116 464.869 468.996H462.209C462.293 471.768 464.757 473.28 467.221 473.28C470.217 473.28 472.429 471.852 472.429 469.332C472.429 468.044 471.813 466.196 469.013 465.524L466.997 465.02C466.297 464.824 465.597 464.544 465.401 464.012C465.261 463.592 465.289 463.2 465.513 462.836C465.821 462.388 466.605 462.108 467.361 462.108C468.257 462.108 469.153 462.528 469.265 463.508H472.009C471.869 460.708 469.545 459.644 467.249 459.644C464.869 459.644 462.713 461.156 462.573 463.088C462.377 465.216 463.385 466.588 466.185 467.344L467.949 467.764ZM102.4 518.4C102.4 521.536 105.2 524.28 109.204 524.28C112.872 524.28 115.476 522.124 115.784 519.1C116.092 516.3 114.496 514.144 110.576 513.108L108.112 512.464C105.816 511.876 105.536 510.7 105.536 509.944C105.536 508.376 107.076 507.284 108.868 507.284C110.884 507.284 112.228 508.404 112.228 510.196H115.196C115.196 506.668 112.508 504.484 108.924 504.484C105.536 504.484 102.568 506.696 102.568 510C102.568 511.708 103.212 514.06 107.356 515.18L109.792 515.796C111.584 516.216 112.956 517.14 112.844 518.932C112.648 520.36 111.472 521.564 109.204 521.564C106.88 521.564 105.452 519.968 105.368 518.4H102.4ZM127.777 517.952C127.777 520.556 126.097 521.48 124.417 521.48C122.849 521.48 121.701 520.36 121.701 518.204V510.924H118.817V518.54C118.789 522.264 120.665 524.28 123.885 524.28C125.257 524.28 127.021 523.58 127.777 522.096V524H130.661V510.924H127.777V517.952ZM137.592 517.42C137.592 514.872 139.636 513.444 141.596 513.444C143.78 513.444 145.544 515.012 145.544 517.42C145.544 519.828 143.78 521.48 141.596 521.48C139.468 521.48 137.592 519.968 137.592 517.42ZM137.564 524V522.096C138.376 523.524 140.14 524.28 141.932 524.28C145.432 524.28 148.484 521.592 148.484 517.476C148.484 513.276 145.516 510.644 141.96 510.644C140.084 510.644 138.376 511.372 137.564 512.8V503.812H134.68V524H137.564ZM147.963 530.468H149.867C153.451 530.468 154.627 528.116 154.627 524.84V510.924H151.715V524.84C151.715 526.184 151.463 527.78 149.531 527.78H147.963V530.468ZM151.239 505.632C151.239 506.668 152.135 507.452 153.171 507.452C154.263 507.452 155.103 506.668 155.103 505.632C155.103 504.596 154.263 503.812 153.171 503.812C152.135 503.812 151.239 504.596 151.239 505.632ZM171.093 517.42C171.093 513.276 168.237 510.644 164.541 510.644C160.845 510.644 157.821 513.276 157.821 517.42C157.821 521.564 160.845 524.28 164.541 524.28C166.977 524.28 169.469 523.244 170.589 520.92L168.237 519.884C167.565 521.088 166.137 521.76 164.681 521.76C162.553 521.76 160.985 520.5 160.677 518.484H171.065C171.093 518.176 171.093 517.728 171.093 517.42ZM160.677 516.384C160.985 514.368 162.525 513.164 164.541 513.164C166.529 513.164 167.957 514.34 168.265 516.384H160.677ZM173.297 517.42C173.297 521.564 176.517 524.28 180.269 524.28C182.397 524.28 184.245 523.44 185.477 521.984L183.209 520.22C182.509 521.032 181.417 521.508 180.269 521.508C178.085 521.508 176.153 519.856 176.153 517.42C176.153 514.984 178.085 513.444 180.269 513.444C181.417 513.444 182.509 513.892 183.209 514.704L185.449 512.912C184.217 511.456 182.369 510.644 180.269 510.644C176.517 510.644 173.297 513.276 173.297 517.42ZM192.44 505.968H189.556V510.924H187.204V513.304H189.556V524H192.44V513.304H195.212V510.924H192.44V505.968ZM200.782 510.924H197.926V524H200.782V510.924ZM197.422 505.632C197.422 506.668 198.318 507.452 199.354 507.452C200.446 507.452 201.258 506.668 201.258 505.632C201.258 504.596 200.446 503.812 199.354 503.812C198.318 503.812 197.422 504.596 197.422 505.632ZM208.625 524H211.285L216.745 510.924H213.665L209.969 520.332L206.217 510.924H203.165L208.625 524ZM231.276 517.42C231.276 513.276 228.42 510.644 224.724 510.644C221.028 510.644 218.004 513.276 218.004 517.42C218.004 521.564 221.028 524.28 224.724 524.28C227.16 524.28 229.652 523.244 230.772 520.92L228.42 519.884C227.748 521.088 226.32 521.76 224.864 521.76C222.736 521.76 221.168 520.5 220.86 518.484H231.248C231.276 518.176 231.276 517.728 231.276 517.42ZM220.86 516.384C221.168 514.368 222.708 513.164 224.724 513.164C226.712 513.164 228.14 514.34 228.448 516.384H220.86ZM245.35 505.968H242.466V510.924H240.114V513.304H242.466V524H245.35V513.304H248.122V510.924H245.35V505.968ZM263.077 517.42C263.077 513.276 260.221 510.644 256.525 510.644C252.829 510.644 249.805 513.276 249.805 517.42C249.805 521.564 252.829 524.28 256.525 524.28C258.961 524.28 261.453 523.244 262.573 520.92L260.221 519.884C259.549 521.088 258.121 521.76 256.665 521.76C254.537 521.76 252.969 520.5 252.661 518.484H263.049C263.077 518.176 263.077 517.728 263.077 517.42ZM252.661 516.384C252.969 514.368 254.509 513.164 256.525 513.164C258.513 513.164 259.941 514.34 260.249 516.384H252.661ZM270.937 518.764C271.917 518.988 272.757 519.436 272.757 520.304C272.757 521.284 271.749 521.872 270.433 521.872C268.893 521.872 267.997 521.116 267.857 519.996H265.197C265.281 522.768 267.745 524.28 270.209 524.28C273.205 524.28 275.417 522.852 275.417 520.332C275.417 519.044 274.801 517.196 272.001 516.524L269.985 516.02C269.285 515.824 268.585 515.544 268.389 515.012C268.249 514.592 268.277 514.2 268.501 513.836C268.809 513.388 269.593 513.108 270.349 513.108C271.245 513.108 272.141 513.528 272.253 514.508H274.997C274.857 511.708 272.533 510.644 270.237 510.644C267.857 510.644 265.701 512.156 265.561 514.088C265.365 516.216 266.373 517.588 269.173 518.344L270.937 518.764ZM282.483 505.968H279.599V510.924H277.247V513.304H279.599V524H282.483V513.304H285.255V510.924H282.483V505.968ZM313.908 510.924H310.828L307.776 519.744L304.752 510.924H302.064L299.04 519.744L296.016 510.924H292.936L297.864 524H300.216L303.408 514.732L306.74 524H309.12L313.908 510.924ZM319.29 510.924H316.434V524H319.29V510.924ZM315.93 505.632C315.93 506.668 316.826 507.452 317.862 507.452C318.954 507.452 319.766 506.668 319.766 505.632C319.766 504.596 318.954 503.812 317.862 503.812C316.826 503.812 315.93 504.596 315.93 505.632ZM327.245 505.968H324.361V510.924H322.009V513.304H324.361V524H327.245V513.304H330.017V510.924H327.245V505.968ZM335.615 516.972C335.615 514.396 337.603 513.472 339.255 513.472C340.907 513.472 342.167 514.676 342.167 516.72V524H345.051V516.552C345.051 512.828 343.119 510.644 339.759 510.644C338.387 510.644 336.371 511.316 335.615 512.912V503.812H332.731V524H335.615V516.972ZM366.22 524H369.076V510.924H366.22V512.772C365.324 511.288 363.392 510.644 361.824 510.644C358.324 510.644 355.188 513.276 355.188 517.448C355.188 521.62 358.324 524.28 361.824 524.28C363.504 524.28 365.324 523.552 366.22 522.124V524ZM358.156 517.42C358.156 515.012 360.004 513.444 362.16 513.444C364.12 513.444 366.192 514.872 366.192 517.42C366.192 519.996 364.288 521.48 362.16 521.48C360.004 521.48 358.156 519.828 358.156 517.42ZM376.002 516.972C376.002 514.396 377.654 513.472 379.362 513.472C381.042 513.472 382.106 514.62 382.106 516.72V524H384.99V516.384C384.99 512.66 383.17 510.644 380.006 510.644C378.578 510.644 376.758 511.4 376.002 512.884V510.924H373.118V524H376.002V516.972ZM393.711 518.764C394.691 518.988 395.531 519.436 395.531 520.304C395.531 521.284 394.523 521.872 393.207 521.872C391.667 521.872 390.771 521.116 390.631 519.996H387.971C388.055 522.768 390.519 524.28 392.983 524.28C395.979 524.28 398.191 522.852 398.191 520.332C398.191 519.044 397.575 517.196 394.775 516.524L392.759 516.02C392.059 515.824 391.359 515.544 391.163 515.012C391.023 514.592 391.051 514.2 391.275 513.836C391.583 513.388 392.367 513.108 393.123 513.108C394.019 513.108 394.915 513.528 395.027 514.508H397.771C397.631 511.708 395.307 510.644 393.011 510.644C390.631 510.644 388.475 512.156 388.335 514.088C388.139 516.216 389.147 517.588 391.947 518.344L393.711 518.764ZM420.548 510.924H417.468L414.416 519.744L411.392 510.924H408.704L405.68 519.744L402.656 510.924H399.576L404.504 524H406.856L410.048 514.732L413.38 524H415.76L420.548 510.924ZM435.261 517.42C435.261 513.276 432.405 510.644 428.709 510.644C425.013 510.644 421.989 513.276 421.989 517.42C421.989 521.564 425.013 524.28 428.709 524.28C431.145 524.28 433.637 523.244 434.757 520.92L432.405 519.884C431.733 521.088 430.305 521.76 428.849 521.76C426.721 521.76 425.153 520.5 424.845 518.484H435.233C435.261 518.176 435.261 517.728 435.261 517.42ZM424.845 516.384C425.153 514.368 426.693 513.164 428.709 513.164C430.697 513.164 432.125 514.34 432.433 516.384H424.845ZM441.189 519.296C441.189 515.824 442.225 513.36 444.689 513.36C445.249 513.36 445.865 513.444 446.621 513.808L447.097 511.148C446.677 510.84 445.697 510.644 444.773 510.644C443.121 510.644 441.861 511.568 441.189 513.92V510.924H438.305V524H441.189V519.296ZM464.37 524H468.066L461.234 516.608L466.806 510.924H462.942L458.798 515.236V503.812H455.942V524H458.798V517.924L464.37 524ZM481.745 517.42C481.745 513.276 478.889 510.644 475.193 510.644C471.497 510.644 468.473 513.276 468.473 517.42C468.473 521.564 471.497 524.28 475.193 524.28C477.629 524.28 480.121 523.244 481.241 520.92L478.889 519.884C478.217 521.088 476.789 521.76 475.333 521.76C473.205 521.76 471.637 520.5 471.329 518.484H481.717C481.745 518.176 481.745 517.728 481.745 517.42ZM471.329 516.384C471.637 514.368 473.177 513.164 475.193 513.164C477.181 513.164 478.609 514.34 478.917 516.384H471.329ZM496.387 510.924H493.307L489.639 519.884L485.999 510.924H482.919L488.099 523.384L485.271 530.384H488.295L496.387 510.924ZM503.414 518.764C504.394 518.988 505.234 519.436 505.234 520.304C505.234 521.284 504.226 521.872 502.91 521.872C501.37 521.872 500.474 521.116 500.334 519.996H497.674C497.758 522.768 500.222 524.28 502.686 524.28C505.682 524.28 507.894 522.852 507.894 520.332C507.894 519.044 507.278 517.196 504.478 516.524L502.462 516.02C501.762 515.824 501.062 515.544 500.866 515.012C500.726 514.592 500.754 514.2 500.978 513.836C501.286 513.388 502.07 513.108 502.826 513.108C503.722 513.108 504.618 513.528 504.73 514.508H507.474C507.334 511.708 505.01 510.644 502.714 510.644C500.334 510.644 498.178 512.156 498.038 514.088C497.842 516.216 498.85 517.588 501.65 518.344L503.414 518.764ZM111.22 559.452C113.32 559.452 114.188 561.216 114.188 562.84C114.188 564.492 113.236 566.2 111.108 566.2H106.516V559.452H111.22ZM103.52 576H106.516V568.916H111.276C115.42 568.916 117.156 565.892 117.156 562.84C117.156 559.788 115.42 556.708 111.276 556.708H103.52V576ZM131.964 569.42C131.964 565.276 129.108 562.644 125.412 562.644C121.716 562.644 118.692 565.276 118.692 569.42C118.692 573.564 121.716 576.28 125.412 576.28C127.848 576.28 130.34 575.244 131.46 572.92L129.108 571.884C128.436 573.088 127.008 573.76 125.552 573.76C123.424 573.76 121.856 572.5 121.548 570.484H131.936C131.964 570.176 131.964 569.728 131.964 569.42ZM121.548 568.384C121.856 566.368 123.396 565.164 125.412 565.164C127.4 565.164 128.828 566.34 129.136 568.384H121.548ZM147.44 569.42C147.44 565.276 144.584 562.644 140.888 562.644C137.192 562.644 134.168 565.276 134.168 569.42C134.168 573.564 137.192 576.28 140.888 576.28C143.324 576.28 145.816 575.244 146.936 572.92L144.584 571.884C143.912 573.088 142.484 573.76 141.028 573.76C138.9 573.76 137.332 572.5 137.024 570.484H147.412C147.44 570.176 147.44 569.728 147.44 569.42ZM137.024 568.384C137.332 566.368 138.872 565.164 140.888 565.164C142.876 565.164 144.304 566.34 144.612 568.384H137.024ZM153.369 571.296C153.369 567.824 154.405 565.36 156.869 565.36C157.429 565.36 158.045 565.444 158.801 565.808L159.277 563.148C158.857 562.84 157.877 562.644 156.953 562.644C155.301 562.644 154.041 563.568 153.369 565.92V562.924H150.485V576H153.369V571.296ZM160.352 570.68H170.124V568.076H160.352V570.68ZM177.592 557.968H174.708V562.924H172.356V565.304H174.708V576H177.592V565.304H180.364V562.924H177.592V557.968ZM188.851 573.48C186.695 573.48 184.903 571.884 184.903 569.42C184.903 567.04 186.695 565.472 188.851 565.472C191.035 565.472 192.827 567.04 192.827 569.42C192.827 571.884 191.035 573.48 188.851 573.48ZM188.851 576.28C192.575 576.28 195.711 573.564 195.711 569.42C195.711 565.276 192.575 562.644 188.851 562.644C185.155 562.644 182.047 565.276 182.047 569.42C182.047 573.564 185.155 576.28 188.851 576.28ZM198.743 570.68H208.515V568.076H198.743V570.68ZM215.275 562.924H212.391V582.356H215.275V574.124C216.087 575.58 217.851 576.28 219.643 576.28C223.171 576.28 226.139 573.648 226.139 569.476C226.139 565.36 223.171 562.644 219.643 562.644C217.851 562.644 216.087 563.428 215.275 564.856V562.924ZM215.303 569.532C215.303 566.984 217.151 565.444 219.279 565.444C221.435 565.444 223.199 567.096 223.199 569.532C223.199 571.94 221.435 573.508 219.279 573.508C217.263 573.508 215.303 572.136 215.303 569.532ZM241.803 569.42C241.803 565.276 238.947 562.644 235.251 562.644C231.555 562.644 228.531 565.276 228.531 569.42C228.531 573.564 231.555 576.28 235.251 576.28C237.687 576.28 240.179 575.244 241.299 572.92L238.947 571.884C238.275 573.088 236.847 573.76 235.391 573.76C233.263 573.76 231.695 572.5 231.387 570.484H241.775C241.803 570.176 241.803 569.728 241.803 569.42ZM231.387 568.384C231.695 566.368 233.235 565.164 235.251 565.164C237.239 565.164 238.667 566.34 238.975 568.384H231.387ZM257.28 569.42C257.28 565.276 254.424 562.644 250.728 562.644C247.032 562.644 244.008 565.276 244.008 569.42C244.008 573.564 247.032 576.28 250.728 576.28C253.164 576.28 255.656 575.244 256.776 572.92L254.424 571.884C253.752 573.088 252.324 573.76 250.868 573.76C248.74 573.76 247.172 572.5 246.864 570.484H257.252C257.28 570.176 257.28 569.728 257.28 569.42ZM246.864 568.384C247.172 566.368 248.712 565.164 250.728 565.164C252.716 565.164 254.144 566.34 254.452 568.384H246.864ZM263.209 571.296C263.209 567.824 264.245 565.36 266.709 565.36C267.269 565.36 267.885 565.444 268.641 565.808L269.117 563.148C268.697 562.84 267.717 562.644 266.793 562.644C265.141 562.644 263.881 563.568 263.209 565.92V562.924H260.325V576H263.209V571.296ZM277.961 576H280.845V555.812H277.961V576ZM297.311 569.42C297.311 565.276 294.455 562.644 290.759 562.644C287.063 562.644 284.039 565.276 284.039 569.42C284.039 573.564 287.063 576.28 290.759 576.28C293.195 576.28 295.687 575.244 296.807 572.92L294.455 571.884C293.783 573.088 292.355 573.76 290.899 573.76C288.771 573.76 287.203 572.5 286.895 570.484H297.283C297.311 570.176 297.311 569.728 297.311 569.42ZM286.895 568.384C287.203 566.368 288.743 565.164 290.759 565.164C292.747 565.164 294.175 566.34 294.483 568.384H286.895ZM310.548 576H313.404V562.924H310.548V564.772C309.652 563.288 307.72 562.644 306.152 562.644C302.652 562.644 299.516 565.276 299.516 569.448C299.516 573.62 302.652 576.28 306.152 576.28C307.832 576.28 309.652 575.552 310.548 574.124V576ZM302.484 569.42C302.484 567.012 304.332 565.444 306.488 565.444C308.448 565.444 310.52 566.872 310.52 569.42C310.52 571.996 308.616 573.48 306.488 573.48C304.332 573.48 302.484 571.828 302.484 569.42ZM320.33 571.296C320.33 567.824 321.366 565.36 323.83 565.36C324.39 565.36 325.006 565.444 325.762 565.808L326.238 563.148C325.818 562.84 324.838 562.644 323.914 562.644C322.262 562.644 321.002 563.568 320.33 565.92V562.924H317.446V576H320.33V571.296ZM331.513 568.972C331.513 566.396 333.165 565.472 334.873 565.472C336.553 565.472 337.617 566.62 337.617 568.72V576H340.501V568.384C340.501 564.66 338.681 562.644 335.517 562.644C334.089 562.644 332.269 563.4 331.513 564.884V562.924H328.629V576H331.513V568.972ZM347.263 562.924H344.407V576H347.263V562.924ZM343.903 557.632C343.903 558.668 344.799 559.452 345.835 559.452C346.927 559.452 347.739 558.668 347.739 557.632C347.739 556.596 346.927 555.812 345.835 555.812C344.799 555.812 343.903 556.596 343.903 557.632ZM354.181 568.972C354.181 566.396 355.833 565.472 357.541 565.472C359.221 565.472 360.285 566.62 360.285 568.72V576H363.169V568.384C363.169 564.66 361.349 562.644 358.185 562.644C356.757 562.644 354.937 563.4 354.181 564.884V562.924H351.297V576H354.181V568.972ZM377.239 569.476C377.239 572.052 375.167 573.508 373.207 573.508C371.023 573.508 369.231 571.94 369.231 569.476C369.231 567.096 371.023 565.444 373.207 565.444C375.363 565.444 377.239 566.872 377.239 569.476ZM369.259 577.652C368.727 577.876 367.411 578.632 366.879 578.856C368.111 581.208 370.379 582.524 372.927 582.524C377.323 582.524 380.123 580.088 380.123 574.068V562.924H377.295V564.856C376.483 563.428 374.663 562.644 372.871 562.644C369.343 562.644 366.263 565.36 366.263 569.504C366.263 573.648 369.343 576.28 372.871 576.28C374.635 576.28 376.567 575.496 377.295 574.012V574.684C377.295 578.352 375.587 579.836 372.927 579.836C371.499 579.836 369.959 579.024 369.259 577.652Z" fill="white"/>
<defs>
<linearGradient id="paint0_linear_86_3768" x1="10" y1="122.68" x2="532.307" y2="704.267" gradientUnits="userSpaceOnUse">
<stop stop-color="#6F0E81"/>
<stop offset="1" stop-color="#9B204E"/>
</linearGradient>
<clipPath id="clip0_86_3768">
<rect width="128.758" height="109.409" fill="white" transform="translate(31.8364)"/>
</clipPath>
<clipPath id="clip1_86_3768">
<rect width="23.4105" height="27.3524" fill="white" transform="translate(28 132.676)"/>
</clipPath>
</defs>
</svg>
