<svg width="527" height="707" viewBox="0 0 527 707" fill="none" xmlns="http://www.w3.org/2000/svg">
<rect x="0.5" y="112.275" width="526" height="594.225" rx="14.5" fill="white" fill-opacity="0.06" stroke="white"/>
<rect x="10" y="122.68" width="509" height="576.141" rx="15" fill="url(#paint0_linear_86_3844)"/>
<path opacity="0.04" d="M446.074 158.457C450.013 159.722 453.777 161.355 457.246 163.411C455.953 162.673 454.718 161.935 453.424 161.197C457.305 163.516 460.892 166.256 464.009 169.365C463.009 168.364 461.95 167.363 460.951 166.362C464.361 169.787 467.243 173.581 469.595 177.639C468.889 176.427 468.184 175.215 467.478 173.95C470.242 178.798 472.241 183.962 473.535 189.284C473.182 187.914 472.888 186.492 472.535 185.121C473.358 188.494 473.887 191.972 474.123 195.45C474.24 197.663 474.887 199.666 476.181 201.457C477.063 203.354 478.415 204.988 480.297 206.305C482.061 207.728 484.06 208.729 486.295 209.204C488.471 210.047 490.823 210.363 493.234 210.099C494.762 209.783 496.35 209.52 497.879 209.204C500.819 208.255 503.289 206.674 505.347 204.566C506.17 203.407 506.993 202.3 507.817 201.141C509.228 198.559 509.757 195.819 509.522 192.92C509.346 190.391 508.993 187.862 508.522 185.385C508.052 182.856 507.405 180.326 506.758 177.797C506.464 176.637 506.17 175.478 505.759 174.371C503.995 168.786 501.29 163.674 498.173 158.563C495.997 154.979 493.41 151.554 490.352 148.498C487.883 146.021 485.472 143.544 482.708 141.331C481.12 140.066 479.415 138.854 477.592 137.747C472.476 134.586 467.302 131.687 461.421 129.843C459.422 128.684 457.187 128.209 454.776 128.262C452.366 127.946 450.013 128.209 447.72 129.053C445.486 129.738 443.545 130.792 441.957 132.32C440.135 133.584 438.723 135.165 437.782 137.115C437.312 138.433 436.783 139.75 436.312 141.015C435.724 143.913 435.96 146.706 437.077 149.499C437.782 150.711 438.488 151.923 439.194 153.188C440.958 155.453 443.251 157.192 446.074 158.457Z" fill="white"/>
<path d="M35.0726 102.337C33.6011 102.337 13 111.713 13 111.713C13 111.713 501.357 110.86 508.714 112.565C516.072 114.27 489.585 97.0475 486.641 96.3657C483.698 95.6838 456.292 104.042 441.577 104.894L439.737 104.042L429.621 104.894L426.862 104.042L419.504 104.894L414.905 104.042L407.548 103.189H402.03H396.512L387.315 104.894C380.57 103.758 364.322 101.314 353.286 100.632C339.491 99.78 280.63 104.894 279.711 104.894C278.791 104.894 264.076 102.337 257.638 102.337C251.2 102.337 231.887 108.303 228.208 104.894C225.265 102.167 215.332 100.348 210.734 99.78L206.135 102.337L187.742 104.894C167.876 101.485 135.319 102.337 121.524 103.189L83.8163 104.894L78.2981 103.189L70.9406 104.894L64.5028 102.337L58.0649 104.894H45.1892C42.4302 104.042 36.5441 102.337 35.0726 102.337Z" fill="white"/>
<g clip-path="url(#clip0_86_3844)">
<path d="M121.789 20.2449C122.678 21.0371 124.159 21.0371 125.146 20.2449L132.453 13.7314C133.342 12.9392 133.342 11.6189 132.453 10.7387C131.564 9.94649 130.083 9.94649 129.096 10.7387L121.789 17.2522C120.9 18.0444 120.9 19.4527 121.789 20.2449Z" fill="#FFC727"/>
<path d="M143.512 32.7437C144.203 33.3598 143.907 34.4161 143.018 34.6801C133.638 37.7609 121.69 35.2083 113.001 27.5505C104.312 19.8927 101.448 9.15419 104.904 0.792244C105.201 5.88698e-05 106.385 -0.264003 107.077 0.352141L143.512 32.7437Z" fill="#FCECF8"/>
<path d="M111.52 45.5946H116.655V31.5993C116.655 30.367 115.47 29.3108 114.087 29.3108C112.705 29.3108 111.52 30.367 111.52 31.5993V45.5946Z" fill="#D6527C"/>
<path d="M143.808 33.0077C144.302 33.4478 144.104 34.1519 143.512 34.328C137.291 36.3525 129.392 34.6801 123.764 29.5749C118.037 24.4697 116.161 17.428 118.432 11.9708C118.629 11.4427 119.419 11.2666 119.913 11.7067L143.808 33.0077Z" fill="#7C97CB"/>
<path d="M104.411 50.5239H123.764C123.764 47.7952 121.295 45.5947 118.234 45.5947H110.039C106.879 45.5947 104.411 47.7952 104.411 50.5239Z" fill="#1B3177"/>
<path d="M58.7925 64.784H61.0635V32.1284C61.0635 31.6003 60.5698 31.1602 59.9774 31.1602C59.3849 31.1602 58.8912 31.6003 58.8912 32.1284V64.784H58.7925Z" fill="#D6527C"/>
<path d="M43.4878 79.5714V92.2464C43.4878 94.4469 45.4626 96.2073 47.9311 96.2073H156.151C158.619 96.2073 160.594 94.4469 160.594 92.2464V79.5714C160.594 70.4173 152.201 62.9355 141.932 62.9355H62.1498C55.2379 62.9355 49.116 66.3683 45.9563 71.3855C44.3765 73.7621 43.4878 76.5787 43.4878 79.5714Z" fill="#FCECF8"/>
<path d="M43.4878 79.5707V92.2456C43.4878 94.4461 45.4626 96.2065 47.9311 96.2065H93.3518C100.757 96.2065 106.781 90.6612 106.781 83.7957C106.781 80.3629 105.299 77.2821 102.831 74.9936C100.362 72.7931 97.104 71.3848 93.3518 71.3848H45.9563C44.3765 73.7613 43.4878 76.578 43.4878 79.5707Z" fill="#B1FBFC"/>
<path d="M69.8516 62.9342H134.329V53.2519C134.329 51.7556 133.046 50.6113 131.367 50.6113H72.8138C71.1352 50.6113 69.8516 51.7556 69.8516 53.2519V62.9342Z" fill="#395BB4"/>
<path d="M67.4818 35.1199C67.4818 34.8559 67.1856 34.5918 66.8894 34.5918H52.967C52.6707 34.5918 52.3745 34.8559 52.3745 35.1199C52.3745 35.384 52.6707 35.648 52.967 35.648H66.8894C67.1856 35.56 67.4818 35.384 67.4818 35.1199Z" fill="#D6527C"/>
<path d="M64.4206 38.5535C64.4206 38.2895 64.1243 38.0254 63.8281 38.0254H55.9289C55.6326 38.0254 55.3364 38.2895 55.3364 38.5535C55.3364 38.8176 55.6326 39.0816 55.9289 39.0816H63.8281C64.2231 38.9936 64.4206 38.8176 64.4206 38.5535Z" fill="#1F152A"/>
<path d="M67.4818 41.898C67.4818 41.6339 67.1856 41.3699 66.8894 41.3699H52.967C52.6707 41.3699 52.3745 41.6339 52.3745 41.898C52.3745 42.1621 52.6707 42.4261 52.967 42.4261H66.8894C67.1856 42.4261 67.4818 42.2501 67.4818 41.898Z" fill="#D6527C"/>
<path d="M67.4818 49.2915C67.4818 49.0275 67.1856 48.7634 66.8894 48.7634H52.967C52.6707 48.7634 52.3745 49.0275 52.3745 49.2915C52.3745 49.5556 52.6707 49.8197 52.967 49.8197H66.8894C67.1856 49.7316 67.4818 49.5556 67.4818 49.2915Z" fill="#D6527C"/>
<path d="M64.4206 45.3309C64.4206 45.0668 64.1243 44.8027 63.8281 44.8027H55.9289C55.6326 44.8027 55.3364 45.0668 55.3364 45.3309C55.3364 45.5949 55.6326 45.859 55.9289 45.859H63.8281C64.2231 45.859 64.4206 45.5949 64.4206 45.3309Z" fill="#1F152A"/>
<path d="M146.178 108.09C153.049 108.09 158.619 103.124 158.619 96.999C158.619 90.8739 153.049 85.9084 146.178 85.9084C139.307 85.9084 133.737 90.8739 133.737 96.999C133.737 103.124 139.307 108.09 146.178 108.09Z" fill="#D6527C"/>
<path d="M146.178 102.808C149.777 102.808 152.695 100.207 152.695 96.9988C152.695 93.7904 149.777 91.1895 146.178 91.1895C142.579 91.1895 139.661 93.7904 139.661 96.9988C139.661 100.207 142.579 102.808 146.178 102.808Z" fill="#FCECF8"/>
<path d="M116.753 108.09C123.624 108.09 129.195 103.124 129.195 96.999C129.195 90.8739 123.624 85.9084 116.753 85.9084C109.882 85.9084 104.312 90.8739 104.312 96.999C104.312 103.124 109.882 108.09 116.753 108.09Z" fill="#D6527C"/>
<path d="M116.753 102.808C120.352 102.808 123.27 100.207 123.27 96.9988C123.27 93.7904 120.352 91.1895 116.753 91.1895C113.154 91.1895 110.236 93.7904 110.236 96.9988C110.236 100.207 113.154 102.808 116.753 102.808Z" fill="#FCECF8"/>
<path d="M87.329 108.09C94.2002 108.09 99.7703 103.124 99.7703 96.999C99.7703 90.8739 94.2002 85.9084 87.329 85.9084C80.4579 85.9084 74.8877 90.8739 74.8877 96.999C74.8877 103.124 80.4579 108.09 87.329 108.09Z" fill="#D6527C"/>
<path d="M87.3289 102.808C90.9281 102.808 93.8458 100.207 93.8458 96.9988C93.8458 93.7904 90.9281 91.1895 87.3289 91.1895C83.7297 91.1895 80.812 93.7904 80.812 96.9988C80.812 100.207 83.7297 102.808 87.3289 102.808Z" fill="#FCECF8"/>
<path d="M58.0028 108.09C64.874 108.09 70.4442 103.124 70.4442 96.999C70.4442 90.8739 64.874 85.9084 58.0028 85.9084C51.1317 85.9084 45.5615 90.8739 45.5615 96.999C45.5615 103.124 51.1317 108.09 58.0028 108.09Z" fill="#D6527C"/>
<path d="M58.0027 102.808C61.6019 102.808 64.5196 100.207 64.5196 96.9988C64.5196 93.7904 61.6019 91.1895 58.0027 91.1895C54.4035 91.1895 51.4858 93.7904 51.4858 96.9988C51.4858 100.207 54.4035 102.808 58.0027 102.808Z" fill="#FCECF8"/>
<path d="M69.7934 57.8499L134.271 57.8499L134.271 55.3853L69.7934 55.3853L69.7934 57.8499Z" fill="#D6527C"/>
<path d="M43.5284 80.7363L160.635 80.7363L160.635 78.2718L43.5284 78.2718L43.5284 80.7363Z" fill="#FFC727"/>
</g>
<g clip-path="url(#clip1_86_3844)">
<path opacity="0.1" fill-rule="evenodd" clip-rule="evenodd" d="M33.5163 136.567C35.6017 133.954 39.638 132.502 43.2707 132.676C47.307 132.85 50.6706 135.87 51.3433 139.238C51.9487 142.607 50.0651 146.149 47.0379 148.414C44.8852 149.982 30.5564 161.538 29.2782 159.854C28 158.112 25.8473 145.975 33.5163 136.567Z" fill="white"/>
</g>
<rect x="49" y="292" width="27" height="27" rx="4" stroke="white" stroke-width="2"/>
<path d="M61.8814 315.537C61.6268 315.536 61.3751 315.482 61.142 315.379C60.9088 315.276 60.6992 315.126 60.5261 314.938L51.5032 305.264C51.166 304.901 50.9853 304.419 51.0009 303.922C51.0166 303.426 51.2273 302.956 51.5868 302.616C51.9462 302.276 52.4249 302.094 52.9176 302.11C53.4103 302.125 53.8765 302.338 54.2138 302.7L61.8628 310.915L77.4764 293.7C77.6348 293.501 77.8319 293.337 78.0556 293.217C78.2793 293.098 78.5248 293.026 78.777 293.006C79.0293 292.986 79.283 293.018 79.5225 293.1C79.7621 293.182 79.9824 293.313 80.17 293.484C80.3576 293.655 80.5085 293.863 80.6134 294.095C80.7183 294.328 80.7751 294.579 80.7801 294.834C80.7852 295.089 80.7385 295.342 80.6428 295.578C80.5472 295.814 80.4047 296.028 80.2241 296.207L63.2552 314.919C63.0837 315.111 62.8748 315.264 62.6416 315.371C62.4084 315.477 62.1559 315.533 61.8999 315.537H61.8814Z" fill="#FFC727"/>
<rect x="49" y="248" width="27" height="27" rx="4" stroke="white" stroke-width="2"/>
<path d="M61.8814 271.537C61.6268 271.536 61.3751 271.482 61.142 271.379C60.9088 271.276 60.6992 271.126 60.5261 270.938L51.5032 261.264C51.166 260.901 50.9853 260.419 51.0009 259.922C51.0166 259.426 51.2273 258.956 51.5868 258.616C51.9462 258.276 52.4249 258.094 52.9176 258.11C53.4103 258.125 53.8765 258.338 54.2138 258.7L61.8628 266.915L77.4764 249.7C77.6348 249.501 77.8319 249.337 78.0556 249.217C78.2793 249.098 78.5248 249.026 78.777 249.006C79.0293 248.986 79.283 249.018 79.5225 249.1C79.7621 249.182 79.9824 249.313 80.17 249.484C80.3576 249.655 80.5085 249.863 80.6134 250.095C80.7183 250.328 80.7751 250.579 80.7801 250.834C80.7852 251.089 80.7385 251.342 80.6428 251.578C80.5472 251.814 80.4047 252.028 80.2241 252.207L63.2552 270.919C63.0837 271.111 62.8748 271.264 62.6416 271.371C62.4084 271.477 62.1559 271.533 61.8999 271.537H61.8814Z" fill="#FFC727"/>
<rect x="49" y="376" width="27" height="27" rx="4" stroke="white" stroke-width="2"/>
<path d="M61.8814 399.537C61.6268 399.536 61.3751 399.482 61.142 399.379C60.9088 399.276 60.6992 399.126 60.5261 398.938L51.5032 389.264C51.166 388.901 50.9853 388.419 51.0009 387.922C51.0166 387.426 51.2273 386.956 51.5868 386.616C51.9462 386.276 52.4249 386.094 52.9176 386.11C53.4103 386.125 53.8765 386.338 54.2138 386.7L61.8628 394.915L77.4764 377.7C77.6348 377.501 77.8319 377.337 78.0556 377.217C78.2793 377.098 78.5248 377.026 78.777 377.006C79.0293 376.986 79.283 377.018 79.5225 377.1C79.7621 377.182 79.9824 377.313 80.17 377.484C80.3576 377.655 80.5085 377.863 80.6134 378.095C80.7183 378.328 80.7751 378.579 80.7801 378.834C80.7852 379.089 80.7385 379.342 80.6428 379.578C80.5472 379.814 80.4047 380.028 80.2241 380.207L63.2552 398.919C63.0837 399.111 62.8748 399.264 62.6416 399.371C62.4084 399.477 62.1559 399.533 61.8999 399.537H61.8814Z" fill="#FFC727"/>
<rect x="49" y="499" width="27" height="27" rx="4" stroke="white" stroke-width="2"/>
<path d="M61.8814 522.537C61.6268 522.536 61.3751 522.482 61.142 522.379C60.9088 522.276 60.6992 522.126 60.5261 521.938L51.5032 512.264C51.166 511.901 50.9853 511.419 51.0009 510.922C51.0166 510.426 51.2273 509.956 51.5868 509.616C51.9462 509.276 52.4249 509.094 52.9176 509.11C53.4103 509.125 53.8765 509.338 54.2138 509.7L61.8628 517.915L77.4764 500.7C77.6348 500.501 77.8319 500.337 78.0556 500.217C78.2793 500.098 78.5248 500.026 78.777 500.006C79.0293 499.986 79.283 500.018 79.5225 500.1C79.7621 500.182 79.9824 500.313 80.17 500.484C80.3576 500.655 80.5085 500.863 80.6134 501.095C80.7183 501.328 80.7751 501.579 80.7801 501.834C80.7852 502.089 80.7385 502.342 80.6428 502.578C80.5472 502.814 80.4047 503.028 80.2241 503.207L63.2552 521.919C63.0837 522.111 62.8748 522.264 62.6416 522.371C62.4084 522.477 62.1559 522.533 61.8999 522.537H61.8814Z" fill="#FFC727"/>
<rect x="49" y="585" width="27" height="27" rx="4" stroke="white" stroke-width="2"/>
<path d="M61.8814 608.537C61.6268 608.536 61.3751 608.482 61.142 608.379C60.9088 608.276 60.6992 608.126 60.5261 607.938L51.5032 598.264C51.166 597.901 50.9853 597.419 51.0009 596.922C51.0166 596.426 51.2273 595.956 51.5868 595.616C51.9462 595.276 52.4249 595.094 52.9176 595.11C53.4103 595.125 53.8765 595.338 54.2138 595.7L61.8628 603.915L77.4764 586.7C77.6348 586.501 77.8319 586.337 78.0556 586.217C78.2793 586.098 78.5248 586.026 78.777 586.006C79.0293 585.986 79.283 586.018 79.5225 586.1C79.7621 586.182 79.9824 586.313 80.17 586.484C80.3576 586.655 80.5085 586.863 80.6134 587.095C80.7183 587.328 80.7751 587.579 80.7801 587.834C80.7852 588.089 80.7385 588.342 80.6428 588.578C80.5472 588.814 80.4047 589.028 80.2241 589.207L63.2552 607.919C63.0837 608.111 62.8748 608.264 62.6416 608.371C62.4084 608.477 62.1559 608.533 61.8999 608.537H61.8814Z" fill="#FFC727"/>
<path d="M119.72 197C123.52 194.44 125.92 190.12 125.92 185.28C125.92 177.48 119.8 171.12 111.8 171.12C103.92 171.12 97.76 177.48 97.76 185.28C97.76 193.04 103.92 199.4 111.8 199.4C113.12 199.4 114.44 199.2 115.76 198.84L118.76 203.68L122.44 201.44L119.72 197ZM114.28 188.16L110.6 190.36L113 194.36C112.08 194.48 111.32 194.44 110.4 194.28C106.04 193.64 102.88 189.92 102.88 185.28C102.88 180.16 106.76 175.96 111.8 175.96C116.8 175.96 120.76 180.16 120.76 185.28C120.76 188.44 119.36 191.08 117.08 192.72L114.28 188.16ZM142.72 190.28C142.72 193.52 140.72 194.64 138.68 194.64C136.96 194.64 135.12 193.52 135.12 190.48V180.32H130.2V191.36C130.2 196.64 133.12 199.4 137.56 199.4C139.44 199.4 141.68 198.36 142.72 196.36V199H147.6V180.32H142.72V190.28ZM171.135 189.6C171.135 183.68 166.935 179.92 161.655 179.92C156.335 179.92 151.975 183.68 151.975 189.6C151.975 195.48 156.335 199.4 161.655 199.4C165.095 199.4 168.655 198.08 170.375 194.88C169.135 194.24 167.815 193.52 166.655 192.88C165.735 194.48 163.855 195.28 161.975 195.28C159.215 195.28 157.135 193.8 156.815 191.28H171.055C171.095 190.84 171.135 190.08 171.135 189.6ZM156.775 187.96C157.135 185.4 159.135 184 161.695 184C164.095 184 166.015 185.4 166.375 187.96H156.775ZM182.324 191.84C183.724 192.16 184.404 192.64 184.364 193.6C184.364 194.68 183.324 195.44 181.924 195.48C180.124 195.6 178.604 194.44 178.484 193.12H173.924C174.044 197.12 177.764 199.4 181.444 199.4C185.324 199.4 189.084 197.48 189.084 193.64C189.084 192.12 188.524 189.24 184.204 188.04L181.084 187.28C180.004 187 179.124 186.48 179.124 185.72C179.124 184.32 180.244 183.88 181.484 183.88C182.604 183.88 183.884 184.4 184.004 185.8H188.644C188.444 181.52 184.924 179.92 181.364 179.92C177.684 179.92 174.484 182.44 174.484 185.48C174.484 187.64 174.924 189.92 179.764 191.2L182.324 191.84ZM199.808 173.2H194.968V180.32H191.568V184.24H194.968V199H199.808V184.24H203.768V180.32H199.808V173.2ZM213.832 173.2H208.992V180.32H205.592V184.24H208.992V199H213.832V184.24H217.792V180.32H213.832V173.2ZM242.396 176C244.956 176 246.116 178.36 246.116 180.36C246.116 182.4 244.876 184.64 242.236 184.64H236.396V176H242.396ZM231.276 199H236.396V189.2H242.476C248.596 189.2 251.236 184.84 251.236 180.36C251.236 175.88 248.596 171.44 242.476 171.44H231.276V199ZM259.734 192.4C259.734 187.44 261.094 184.48 264.414 184.48C264.894 184.48 266.094 184.48 267.254 185L268.094 180.6C267.334 180.16 266.334 179.92 265.014 179.92C262.894 179.92 260.694 181.32 259.734 184.72V180.32H254.854V199H259.734V192.4ZM279.468 194.6C276.748 194.6 274.588 192.64 274.588 189.6C274.588 186.6 276.748 184.72 279.468 184.72C282.188 184.72 284.348 186.6 284.348 189.6C284.348 192.64 282.188 194.6 279.468 194.6ZM279.468 199.36C284.748 199.36 289.188 195.48 289.188 189.6C289.188 183.68 284.748 179.92 279.468 179.92C274.188 179.92 269.748 183.68 269.748 189.6C269.748 195.48 274.188 199.36 279.468 199.36ZM312.887 190.48H319.167V186.6H312.887V180.36H309.007V186.6H302.727V190.48H309.007V196.8H312.887V190.48ZM345.638 176C348.198 176 349.358 178.36 349.358 180.36C349.358 182.4 348.118 184.64 345.478 184.64H339.638V176H345.638ZM334.518 199H339.638V189.2H345.718C351.838 189.2 354.478 184.84 354.478 180.36C354.478 175.88 351.838 171.44 345.718 171.44H334.518V199ZM358.33 199H363.21V170.16H358.33V199ZM382.881 199H387.761V180.32H382.881V182.64C381.481 180.6 378.801 179.92 377.081 179.92C372.161 179.92 367.561 183.68 367.561 189.64C367.561 195.6 372.161 199.36 377.081 199.36C378.881 199.36 381.721 198.52 382.881 196.6V199ZM372.601 189.64C372.601 186.6 375.041 184.6 377.761 184.6C380.321 184.6 382.881 186.44 382.881 189.64C382.881 192.84 380.441 194.68 377.761 194.68C375.041 194.68 372.601 192.68 372.601 189.64ZM398.171 189.04C398.171 185.8 400.011 184.68 402.251 184.68C404.371 184.68 405.811 186.12 405.811 188.84V199H410.691V187.96C410.691 182.64 408.091 179.92 403.731 179.92C401.531 179.92 399.251 181.04 398.171 183.08V180.32H393.291V199H398.171V189.04Z" fill="white"/>
<path d="M118.812 269H121.948L114.668 249.708H111.448L104.168 269H107.332L109.18 264.184H116.964L118.812 269ZM113.072 253.432L115.956 261.524H110.188L113.072 253.432ZM124.145 269H127.029V248.812H124.145V269ZM131.063 269H133.947V248.812H131.063V269ZM152.547 248.812H151.119C147.535 248.812 145.883 251.136 145.883 254.72V255.924H143.391V258.304H145.883V269H148.795V258.304H151.735V255.924H148.795V254.72C148.795 253.04 149.215 251.584 151.119 251.584H152.547V248.812ZM166.655 262.42C166.655 258.276 163.799 255.644 160.103 255.644C156.407 255.644 153.383 258.276 153.383 262.42C153.383 266.564 156.407 269.28 160.103 269.28C162.539 269.28 165.031 268.244 166.151 265.92L163.799 264.884C163.127 266.088 161.699 266.76 160.243 266.76C158.115 266.76 156.547 265.5 156.239 263.484H166.627C166.655 263.176 166.655 262.728 166.655 262.42ZM156.239 261.384C156.547 259.368 158.087 258.164 160.103 258.164C162.091 258.164 163.519 259.34 163.827 261.384H156.239ZM179.892 269H182.748V255.924H179.892V257.772C178.996 256.288 177.064 255.644 175.496 255.644C171.996 255.644 168.86 258.276 168.86 262.448C168.86 266.62 171.996 269.28 175.496 269.28C177.176 269.28 178.996 268.552 179.892 267.124V269ZM171.828 262.42C171.828 260.012 173.676 258.444 175.832 258.444C177.792 258.444 179.864 259.872 179.864 262.42C179.864 264.996 177.96 266.48 175.832 266.48C173.676 266.48 171.828 264.828 171.828 262.42ZM190.709 250.968H187.825V255.924H185.473V258.304H187.825V269H190.709V258.304H193.481V255.924H190.709V250.968ZM205.016 262.952C205.016 265.556 203.336 266.48 201.656 266.48C200.088 266.48 198.94 265.36 198.94 263.204V255.924H196.056V263.54C196.028 267.264 197.904 269.28 201.124 269.28C202.496 269.28 204.26 268.58 205.016 267.096V269H207.9V255.924H205.016V262.952ZM214.802 264.296C214.802 260.824 215.838 258.36 218.302 258.36C218.862 258.36 219.478 258.444 220.234 258.808L220.71 256.148C220.29 255.84 219.31 255.644 218.386 255.644C216.734 255.644 215.474 256.568 214.802 258.92V255.924H211.918V269H214.802V264.296ZM235.261 262.42C235.261 258.276 232.405 255.644 228.709 255.644C225.013 255.644 221.989 258.276 221.989 262.42C221.989 266.564 225.013 269.28 228.709 269.28C231.145 269.28 233.637 268.244 234.757 265.92L232.405 264.884C231.733 266.088 230.305 266.76 228.849 266.76C226.721 266.76 225.153 265.5 224.845 263.484H235.233C235.261 263.176 235.261 262.728 235.261 262.42ZM224.845 261.384C225.153 259.368 226.693 258.164 228.709 258.164C230.697 258.164 232.125 259.34 232.433 261.384H224.845ZM243.121 263.764C244.101 263.988 244.941 264.436 244.941 265.304C244.941 266.284 243.933 266.872 242.617 266.872C241.077 266.872 240.181 266.116 240.041 264.996H237.381C237.465 267.768 239.929 269.28 242.393 269.28C245.389 269.28 247.601 267.852 247.601 265.332C247.601 264.044 246.985 262.196 244.185 261.524L242.169 261.02C241.469 260.824 240.769 260.544 240.573 260.012C240.433 259.592 240.461 259.2 240.685 258.836C240.993 258.388 241.777 258.108 242.533 258.108C243.429 258.108 244.325 258.528 244.437 259.508H247.181C247.041 256.708 244.717 255.644 242.421 255.644C240.041 255.644 237.885 257.156 237.745 259.088C237.549 261.216 238.557 262.588 241.357 263.344L243.121 263.764ZM263.82 266.48C261.664 266.48 259.872 264.884 259.872 262.42C259.872 260.04 261.664 258.472 263.82 258.472C266.004 258.472 267.796 260.04 267.796 262.42C267.796 264.884 266.004 266.48 263.82 266.48ZM263.82 269.28C267.544 269.28 270.68 266.564 270.68 262.42C270.68 258.276 267.544 255.644 263.82 255.644C260.124 255.644 257.016 258.276 257.016 262.42C257.016 266.564 260.124 269.28 263.82 269.28ZM281.719 248.812H280.291C276.707 248.812 275.055 251.136 275.055 254.72V255.924H272.563V258.304H275.055V269H277.967V258.304H280.907V255.924H277.967V254.72C277.967 253.04 278.387 251.584 280.291 251.584H281.719V248.812ZM292.978 255.924H290.094V275.356H292.978V267.124C293.79 268.58 295.554 269.28 297.346 269.28C300.874 269.28 303.842 266.648 303.842 262.476C303.842 258.36 300.874 255.644 297.346 255.644C295.554 255.644 293.79 256.428 292.978 257.856V255.924ZM293.006 262.532C293.006 259.984 294.854 258.444 296.982 258.444C299.138 258.444 300.902 260.096 300.902 262.532C300.902 264.94 299.138 266.508 296.982 266.508C294.966 266.508 293.006 265.136 293.006 262.532ZM309.959 264.296C309.959 260.824 310.995 258.36 313.459 258.36C314.019 258.36 314.635 258.444 315.391 258.808L315.867 256.148C315.447 255.84 314.467 255.644 313.543 255.644C311.891 255.644 310.631 256.568 309.959 258.92V255.924H307.075V269H309.959V264.296ZM323.949 266.48C321.793 266.48 320.001 264.884 320.001 262.42C320.001 260.04 321.793 258.472 323.949 258.472C326.133 258.472 327.925 260.04 327.925 262.42C327.925 264.884 326.133 266.48 323.949 266.48ZM323.949 269.28C327.673 269.28 330.809 266.564 330.809 262.42C330.809 258.276 327.673 255.644 323.949 255.644C320.253 255.644 317.145 258.276 317.145 262.42C317.145 266.564 320.253 269.28 323.949 269.28ZM344.002 255.924H341.118V275.356H344.002V267.124C344.814 268.58 346.578 269.28 348.37 269.28C351.898 269.28 354.866 266.648 354.866 262.476C354.866 258.36 351.898 255.644 348.37 255.644C346.578 255.644 344.814 256.428 344.002 257.856V255.924ZM344.03 262.532C344.03 259.984 345.878 258.444 348.006 258.444C350.162 258.444 351.926 260.096 351.926 262.532C351.926 264.94 350.162 266.508 348.006 266.508C345.99 266.508 344.03 265.136 344.03 262.532ZM358.098 269H360.982V248.812H358.098V269ZM375.208 269H378.064V255.924H375.208V257.772C374.312 256.288 372.38 255.644 370.812 255.644C367.312 255.644 364.176 258.276 364.176 262.448C364.176 266.62 367.312 269.28 370.812 269.28C372.492 269.28 374.312 268.552 375.208 267.124V269ZM367.144 262.42C367.144 260.012 368.992 258.444 371.148 258.444C373.108 258.444 375.18 259.872 375.18 262.42C375.18 264.996 373.276 266.48 371.148 266.48C368.992 266.48 367.144 264.828 367.144 262.42ZM384.99 261.972C384.99 259.396 386.642 258.472 388.35 258.472C390.03 258.472 391.094 259.62 391.094 261.72V269H393.978V261.384C393.978 257.66 392.158 255.644 388.994 255.644C387.566 255.644 385.746 256.4 384.99 257.884V255.924H382.106V269H384.99V261.972ZM105.4 309.4C105.4 312.536 108.2 315.28 112.204 315.28C115.872 315.28 118.476 313.124 118.784 310.1C119.092 307.3 117.496 305.144 113.576 304.108L111.112 303.464C108.816 302.876 108.536 301.7 108.536 300.944C108.536 299.376 110.076 298.284 111.868 298.284C113.884 298.284 115.228 299.404 115.228 301.196H118.196C118.196 297.668 115.508 295.484 111.924 295.484C108.536 295.484 105.568 297.696 105.568 301C105.568 302.708 106.212 305.06 110.356 306.18L112.792 306.796C114.584 307.216 115.956 308.14 115.844 309.932C115.648 311.36 114.472 312.564 112.204 312.564C109.88 312.564 108.452 310.968 108.368 309.4H105.4ZM125.85 296.968H122.966V301.924H120.614V304.304H122.966V315H125.85V304.304H128.622V301.924H125.85V296.968ZM140.156 308.952C140.156 311.556 138.476 312.48 136.796 312.48C135.228 312.48 134.08 311.36 134.08 309.204V301.924H131.196V309.54C131.168 313.264 133.044 315.28 136.264 315.28C137.636 315.28 139.4 314.58 140.156 313.096V315H143.04V301.924H140.156V308.952ZM157.195 315H160.051V294.812H157.195V303.8C156.383 302.372 154.647 301.644 152.771 301.644C149.243 301.644 146.247 304.276 146.247 308.476C146.247 312.592 149.243 315.28 152.771 315.28C154.563 315.28 156.383 314.524 157.195 313.096V315ZM157.139 308.42C157.139 310.968 155.263 312.48 153.135 312.48C150.979 312.48 149.215 310.828 149.215 308.42C149.215 306.012 150.979 304.444 153.135 304.444C155.067 304.444 157.139 305.872 157.139 308.42ZM175.91 301.924H172.83L169.162 310.884L165.522 301.924H162.442L167.622 314.384L164.794 321.384H167.818L175.91 301.924ZM198.936 309.904C197.732 311.472 195.856 312.424 193.728 312.424C189.892 312.424 186.952 309.316 186.952 305.396C186.952 301.504 189.892 298.34 193.728 298.34C195.856 298.34 197.62 299.32 198.88 300.748L201.176 298.956C199.468 296.828 196.836 295.484 193.728 295.484C188.268 295.484 183.984 299.936 183.984 305.396C183.984 310.884 188.268 315.28 193.728 315.28C196.892 315.28 199.552 313.936 201.232 311.724L198.936 309.904ZM209.789 312.48C207.633 312.48 205.841 310.884 205.841 308.42C205.841 306.04 207.633 304.472 209.789 304.472C211.973 304.472 213.765 306.04 213.765 308.42C213.765 310.884 211.973 312.48 209.789 312.48ZM209.789 315.28C213.513 315.28 216.649 312.564 216.649 308.42C216.649 304.276 213.513 301.644 209.789 301.644C206.093 301.644 202.985 304.276 202.985 308.42C202.985 312.564 206.093 315.28 209.789 315.28ZM230.04 315H232.896V301.924H230.04V303.772C229.144 302.288 227.212 301.644 225.644 301.644C222.144 301.644 219.008 304.276 219.008 308.448C219.008 312.62 222.144 315.28 225.644 315.28C227.324 315.28 229.144 314.552 230.04 313.124V315ZM221.976 308.42C221.976 306.012 223.824 304.444 225.98 304.444C227.94 304.444 230.012 305.872 230.012 308.42C230.012 310.996 228.108 312.48 225.98 312.48C223.824 312.48 221.976 310.828 221.976 308.42ZM236.098 308.42C236.098 312.564 239.318 315.28 243.07 315.28C245.198 315.28 247.046 314.44 248.278 312.984L246.01 311.22C245.31 312.032 244.218 312.508 243.07 312.508C240.886 312.508 238.954 310.856 238.954 308.42C238.954 305.984 240.886 304.444 243.07 304.444C244.218 304.444 245.31 304.892 246.01 305.704L248.25 303.912C247.018 302.456 245.17 301.644 243.07 301.644C239.318 301.644 236.098 304.276 236.098 308.42ZM254.205 307.972C254.205 305.396 256.193 304.472 257.845 304.472C259.497 304.472 260.757 305.676 260.757 307.72V315H263.641V307.552C263.641 303.828 261.709 301.644 258.349 301.644C256.977 301.644 254.961 302.316 254.205 303.912V294.812H251.321V315H254.205V307.972ZM278.538 296.968H275.654V301.924H273.302V304.304H275.654V315H278.538V304.304H281.31V301.924H278.538V296.968ZM289.796 312.48C287.64 312.48 285.848 310.884 285.848 308.42C285.848 306.04 287.64 304.472 289.796 304.472C291.98 304.472 293.772 306.04 293.772 308.42C293.772 310.884 291.98 312.48 289.796 312.48ZM289.796 315.28C293.52 315.28 296.656 312.564 296.656 308.42C296.656 304.276 293.52 301.644 289.796 301.644C286.1 301.644 282.992 304.276 282.992 308.42C282.992 312.564 286.1 315.28 289.796 315.28ZM321.861 304.472C323.541 304.472 324.633 305.676 324.633 307.72V315H327.517V307.468C327.517 303.744 325.725 301.644 322.477 301.644C321.301 301.644 319.285 301.98 318.081 304.248C317.325 302.568 316.065 301.644 313.965 301.644C312.901 301.644 310.745 302.092 309.849 303.884V301.924H306.965V315H309.849V307.972C309.849 305.396 311.473 304.472 313.153 304.472C314.721 304.472 315.785 305.648 315.813 307.664V315H318.697V307.972C318.697 305.844 319.957 304.472 321.861 304.472ZM337.375 312.48C335.219 312.48 333.427 310.884 333.427 308.42C333.427 306.04 335.219 304.472 337.375 304.472C339.559 304.472 341.351 306.04 341.351 308.42C341.351 310.884 339.559 312.48 337.375 312.48ZM337.375 315.28C341.099 315.28 344.235 312.564 344.235 308.42C344.235 304.276 341.099 301.644 337.375 301.644C333.679 301.644 330.571 304.276 330.571 308.42C330.571 312.564 333.679 315.28 337.375 315.28ZM350.318 307.972C350.318 305.396 351.97 304.472 353.678 304.472C355.358 304.472 356.422 305.62 356.422 307.72V315H359.306V307.384C359.306 303.66 357.486 301.644 354.322 301.644C352.894 301.644 351.074 302.4 350.318 303.884V301.924H347.434V315H350.318V307.972ZM366.067 301.924H363.211V315H366.067V301.924ZM362.707 296.632C362.707 297.668 363.603 298.452 364.639 298.452C365.731 298.452 366.543 297.668 366.543 296.632C366.543 295.596 365.731 294.812 364.639 294.812C363.603 294.812 362.707 295.596 362.707 296.632ZM374.022 296.968H371.138V301.924H368.786V304.304H371.138V315H374.022V304.304H376.794V301.924H374.022V296.968ZM385.281 312.48C383.125 312.48 381.333 310.884 381.333 308.42C381.333 306.04 383.125 304.472 385.281 304.472C387.465 304.472 389.257 306.04 389.257 308.42C389.257 310.884 387.465 312.48 385.281 312.48ZM385.281 315.28C389.005 315.28 392.141 312.564 392.141 308.42C392.141 304.276 389.005 301.644 385.281 301.644C381.585 301.644 378.477 304.276 378.477 308.42C378.477 312.564 381.585 315.28 385.281 315.28ZM398.224 310.296C398.224 306.824 399.26 304.36 401.724 304.36C402.284 304.36 402.9 304.444 403.656 304.808L404.132 302.148C403.712 301.84 402.732 301.644 401.808 301.644C400.156 301.644 398.896 302.568 398.224 304.92V301.924H395.34V315H398.224V310.296ZM108.9 339.924H106.016V359.356H108.9V351.124C109.712 352.58 111.476 353.28 113.268 353.28C116.796 353.28 119.764 350.648 119.764 346.476C119.764 342.36 116.796 339.644 113.268 339.644C111.476 339.644 109.712 340.428 108.9 341.856V339.924ZM108.928 346.532C108.928 343.984 110.776 342.444 112.904 342.444C115.06 342.444 116.824 344.096 116.824 346.532C116.824 348.94 115.06 350.508 112.904 350.508C110.888 350.508 108.928 349.136 108.928 346.532ZM125.88 348.296C125.88 344.824 126.916 342.36 129.38 342.36C129.94 342.36 130.556 342.444 131.312 342.808L131.788 340.148C131.368 339.84 130.388 339.644 129.464 339.644C127.812 339.644 126.552 340.568 125.88 342.92V339.924H122.996V353H125.88V348.296ZM139.871 350.48C137.715 350.48 135.923 348.884 135.923 346.42C135.923 344.04 137.715 342.472 139.871 342.472C142.055 342.472 143.847 344.04 143.847 346.42C143.847 348.884 142.055 350.48 139.871 350.48ZM139.871 353.28C143.595 353.28 146.731 350.564 146.731 346.42C146.731 342.276 143.595 339.644 139.871 339.644C136.175 339.644 133.067 342.276 133.067 346.42C133.067 350.564 136.175 353.28 139.871 353.28ZM160.094 346.476C160.094 349.052 158.022 350.508 156.062 350.508C153.878 350.508 152.086 348.94 152.086 346.476C152.086 344.096 153.878 342.444 156.062 342.444C158.218 342.444 160.094 343.872 160.094 346.476ZM152.114 354.652C151.582 354.876 150.266 355.632 149.734 355.856C150.966 358.208 153.234 359.524 155.782 359.524C160.178 359.524 162.978 357.088 162.978 351.068V339.924H160.15V341.856C159.338 340.428 157.518 339.644 155.726 339.644C152.198 339.644 149.118 342.36 149.118 346.504C149.118 350.648 152.198 353.28 155.726 353.28C157.49 353.28 159.422 352.496 160.15 351.012V351.684C160.15 355.352 158.442 356.836 155.782 356.836C154.354 356.836 152.814 356.024 152.114 354.652ZM169.904 348.296C169.904 344.824 170.94 342.36 173.404 342.36C173.964 342.36 174.58 342.444 175.336 342.808L175.812 340.148C175.392 339.84 174.412 339.644 173.488 339.644C171.836 339.644 170.576 340.568 169.904 342.92V339.924H167.02V353H169.904V348.296ZM190.362 346.42C190.362 342.276 187.506 339.644 183.81 339.644C180.114 339.644 177.09 342.276 177.09 346.42C177.09 350.564 180.114 353.28 183.81 353.28C186.246 353.28 188.738 352.244 189.858 349.92L187.506 348.884C186.834 350.088 185.406 350.76 183.95 350.76C181.822 350.76 180.254 349.5 179.946 347.484H190.334C190.362 347.176 190.362 346.728 190.362 346.42ZM179.946 345.384C180.254 343.368 181.794 342.164 183.81 342.164C185.798 342.164 187.226 343.34 187.534 345.384H179.946ZM198.223 347.764C199.203 347.988 200.043 348.436 200.043 349.304C200.043 350.284 199.035 350.872 197.719 350.872C196.179 350.872 195.283 350.116 195.143 348.996H192.483C192.567 351.768 195.031 353.28 197.495 353.28C200.491 353.28 202.703 351.852 202.703 349.332C202.703 348.044 202.087 346.196 199.287 345.524L197.271 345.02C196.571 344.824 195.871 344.544 195.675 344.012C195.535 343.592 195.563 343.2 195.787 342.836C196.095 342.388 196.879 342.108 197.635 342.108C198.531 342.108 199.427 342.528 199.539 343.508H202.283C202.143 340.708 199.819 339.644 197.523 339.644C195.143 339.644 192.987 341.156 192.847 343.088C192.651 345.216 193.659 346.588 196.459 347.344L198.223 347.764ZM210.664 347.764C211.644 347.988 212.484 348.436 212.484 349.304C212.484 350.284 211.476 350.872 210.16 350.872C208.62 350.872 207.724 350.116 207.584 348.996H204.924C205.008 351.768 207.472 353.28 209.936 353.28C212.932 353.28 215.144 351.852 215.144 349.332C215.144 348.044 214.528 346.196 211.728 345.524L209.712 345.02C209.012 344.824 208.312 344.544 208.116 344.012C207.976 343.592 208.004 343.2 208.228 342.836C208.536 342.388 209.32 342.108 210.076 342.108C210.972 342.108 211.868 342.528 211.98 343.508H214.724C214.584 340.708 212.26 339.644 209.964 339.644C207.584 339.644 205.428 341.156 205.288 343.088C205.092 345.216 206.1 346.588 208.9 347.344L210.664 347.764ZM235.591 353H238.447V339.924H235.591V341.772C234.695 340.288 232.763 339.644 231.195 339.644C227.695 339.644 224.559 342.276 224.559 346.448C224.559 350.62 227.695 353.28 231.195 353.28C232.875 353.28 234.695 352.552 235.591 351.124V353ZM227.527 346.42C227.527 344.012 229.375 342.444 231.531 342.444C233.491 342.444 235.563 343.872 235.563 346.42C235.563 348.996 233.659 350.48 231.531 350.48C229.375 350.48 227.527 348.828 227.527 346.42ZM245.373 345.972C245.373 343.396 247.025 342.472 248.733 342.472C250.413 342.472 251.477 343.62 251.477 345.72V353H254.361V345.384C254.361 341.66 252.541 339.644 249.377 339.644C247.949 339.644 246.129 340.4 245.373 341.884V339.924H242.489V353H245.373V345.972ZM268.402 353H271.258V332.812H268.402V341.8C267.59 340.372 265.854 339.644 263.978 339.644C260.45 339.644 257.454 342.276 257.454 346.476C257.454 350.592 260.45 353.28 263.978 353.28C265.77 353.28 267.59 352.524 268.402 351.096V353ZM268.346 346.42C268.346 348.968 266.47 350.48 264.342 350.48C262.186 350.48 260.422 348.828 260.422 346.42C260.422 344.012 262.186 342.444 264.342 342.444C266.274 342.444 268.346 343.872 268.346 346.42ZM297.307 342.472C298.987 342.472 300.079 343.676 300.079 345.72V353H302.963V345.468C302.963 341.744 301.171 339.644 297.923 339.644C296.747 339.644 294.731 339.98 293.527 342.248C292.771 340.568 291.511 339.644 289.411 339.644C288.347 339.644 286.191 340.092 285.295 341.884V339.924H282.411V353H285.295V345.972C285.295 343.396 286.919 342.472 288.599 342.472C290.167 342.472 291.231 343.648 291.259 345.664V353H294.143V345.972C294.143 343.844 295.403 342.472 297.307 342.472ZM312.82 350.48C310.664 350.48 308.872 348.884 308.872 346.42C308.872 344.04 310.664 342.472 312.82 342.472C315.004 342.472 316.796 344.04 316.796 346.42C316.796 348.884 315.004 350.48 312.82 350.48ZM312.82 353.28C316.544 353.28 319.68 350.564 319.68 346.42C319.68 342.276 316.544 339.644 312.82 339.644C309.124 339.644 306.016 342.276 306.016 346.42C306.016 350.564 309.124 353.28 312.82 353.28ZM326.799 334.968H323.915V339.924H321.563V342.304H323.915V353H326.799V342.304H329.571V339.924H326.799V334.968ZM335.142 339.924H332.286V353H335.142V339.924ZM331.782 334.632C331.782 335.668 332.678 336.452 333.714 336.452C334.806 336.452 335.618 335.668 335.618 334.632C335.618 333.596 334.806 332.812 333.714 332.812C332.678 332.812 331.782 333.596 331.782 334.632ZM342.984 353H345.644L351.104 339.924H348.024L344.328 349.332L340.576 339.924H337.524L342.984 353ZM363.396 353H366.252V339.924H363.396V341.772C362.5 340.288 360.568 339.644 359 339.644C355.5 339.644 352.364 342.276 352.364 346.448C352.364 350.62 355.5 353.28 359 353.28C360.68 353.28 362.5 352.552 363.396 351.124V353ZM355.332 346.42C355.332 344.012 357.18 342.444 359.336 342.444C361.296 342.444 363.368 343.872 363.368 346.42C363.368 348.996 361.464 350.48 359.336 350.48C357.18 350.48 355.332 348.828 355.332 346.42ZM374.213 334.968H371.329V339.924H368.977V342.304H371.329V353H374.213V342.304H376.985V339.924H374.213V334.968ZM382.556 339.924H379.7V353H382.556V339.924ZM379.196 334.632C379.196 335.668 380.092 336.452 381.128 336.452C382.22 336.452 383.032 335.668 383.032 334.632C383.032 333.596 382.22 332.812 381.128 332.812C380.092 332.812 379.196 333.596 379.196 334.632ZM392.554 350.48C390.398 350.48 388.606 348.884 388.606 346.42C388.606 344.04 390.398 342.472 392.554 342.472C394.738 342.472 396.53 344.04 396.53 346.42C396.53 348.884 394.738 350.48 392.554 350.48ZM392.554 353.28C396.278 353.28 399.414 350.564 399.414 346.42C399.414 342.276 396.278 339.644 392.554 339.644C388.858 339.644 385.75 342.276 385.75 346.42C385.75 350.564 388.858 353.28 392.554 353.28ZM405.498 345.972C405.498 343.396 407.15 342.472 408.858 342.472C410.538 342.472 411.602 343.62 411.602 345.72V353H414.486V345.384C414.486 341.66 412.666 339.644 409.502 339.644C408.074 339.644 406.254 340.4 405.498 341.884V339.924H402.614V353H405.498V345.972ZM109.488 382.48H114.024C117.804 382.48 119.736 385.588 119.736 389.396C119.736 393.232 117.804 396.256 114.024 396.256H109.488V382.48ZM114.024 399C119.512 399 122.704 394.884 122.704 389.396C122.704 383.908 119.512 379.708 114.024 379.708H106.52V399H114.024ZM131.968 396.48C129.812 396.48 128.02 394.884 128.02 392.42C128.02 390.04 129.812 388.472 131.968 388.472C134.152 388.472 135.944 390.04 135.944 392.42C135.944 394.884 134.152 396.48 131.968 396.48ZM131.968 399.28C135.692 399.28 138.828 396.564 138.828 392.42C138.828 388.276 135.692 385.644 131.968 385.644C128.272 385.644 125.164 388.276 125.164 392.42C125.164 396.564 128.272 399.28 131.968 399.28ZM150.848 392.952C150.848 395.556 149.168 396.48 147.488 396.48C145.92 396.48 144.772 395.36 144.772 393.204V385.924H141.888V393.54C141.86 397.264 143.736 399.28 146.956 399.28C148.328 399.28 150.092 398.58 150.848 397.096V399H153.732V385.924H150.848V392.952ZM160.662 392.42C160.662 389.872 162.706 388.444 164.666 388.444C166.85 388.444 168.614 390.012 168.614 392.42C168.614 394.828 166.85 396.48 164.666 396.48C162.538 396.48 160.662 394.968 160.662 392.42ZM160.634 399V397.096C161.446 398.524 163.21 399.28 165.002 399.28C168.502 399.28 171.554 396.592 171.554 392.476C171.554 388.276 168.586 385.644 165.03 385.644C163.154 385.644 161.446 386.372 160.634 387.8V378.812H157.75V399H160.634ZM178.706 380.968H175.822V385.924H173.47V388.304H175.822V399H178.706V388.304H181.478V385.924H178.706V380.968ZM195.57 393.764C196.55 393.988 197.39 394.436 197.39 395.304C197.39 396.284 196.382 396.872 195.066 396.872C193.526 396.872 192.63 396.116 192.49 394.996H189.83C189.914 397.768 192.378 399.28 194.842 399.28C197.838 399.28 200.05 397.852 200.05 395.332C200.05 394.044 199.434 392.196 196.634 391.524L194.618 391.02C193.918 390.824 193.218 390.544 193.022 390.012C192.882 389.592 192.91 389.2 193.134 388.836C193.442 388.388 194.226 388.108 194.982 388.108C195.878 388.108 196.774 388.528 196.886 389.508H199.63C199.49 386.708 197.166 385.644 194.87 385.644C192.49 385.644 190.334 387.156 190.194 389.088C189.998 391.216 191.006 392.588 193.806 393.344L195.57 393.764ZM209.16 396.48C207.004 396.48 205.212 394.884 205.212 392.42C205.212 390.04 207.004 388.472 209.16 388.472C211.344 388.472 213.136 390.04 213.136 392.42C213.136 394.884 211.344 396.48 209.16 396.48ZM209.16 399.28C212.884 399.28 216.02 396.564 216.02 392.42C216.02 388.276 212.884 385.644 209.16 385.644C205.464 385.644 202.356 388.276 202.356 392.42C202.356 396.564 205.464 399.28 209.16 399.28ZM219.219 399H222.103V378.812H219.219V399ZM229.945 399H232.605L238.065 385.924H234.985L231.289 395.332L227.537 385.924H224.485L229.945 399ZM243.294 385.924H240.438V399H243.294V385.924ZM239.934 380.632C239.934 381.668 240.83 382.452 241.866 382.452C242.958 382.452 243.77 381.668 243.77 380.632C243.77 379.596 242.958 378.812 241.866 378.812C240.83 378.812 239.934 379.596 239.934 380.632ZM250.213 391.972C250.213 389.396 251.865 388.472 253.573 388.472C255.253 388.472 256.317 389.62 256.317 391.72V399H259.201V391.384C259.201 387.66 257.381 385.644 254.217 385.644C252.789 385.644 250.969 386.4 250.213 387.884V385.924H247.329V399H250.213V391.972ZM273.27 392.476C273.27 395.052 271.198 396.508 269.238 396.508C267.054 396.508 265.262 394.94 265.262 392.476C265.262 390.096 267.054 388.444 269.238 388.444C271.394 388.444 273.27 389.872 273.27 392.476ZM265.29 400.652C264.758 400.876 263.442 401.632 262.91 401.856C264.142 404.208 266.41 405.524 268.958 405.524C273.354 405.524 276.154 403.088 276.154 397.068V385.924H273.326V387.856C272.514 386.428 270.694 385.644 268.902 385.644C265.374 385.644 262.294 388.36 262.294 392.504C262.294 396.648 265.374 399.28 268.902 399.28C270.666 399.28 272.598 398.496 273.326 397.012V397.684C273.326 401.352 271.618 402.836 268.958 402.836C267.53 402.836 265.99 402.024 265.29 400.652ZM293.269 396.48C291.113 396.48 289.321 394.884 289.321 392.42C289.321 390.04 291.113 388.472 293.269 388.472C295.453 388.472 297.245 390.04 297.245 392.42C297.245 394.884 295.453 396.48 293.269 396.48ZM293.269 399.28C296.993 399.28 300.129 396.564 300.129 392.42C300.129 388.276 296.993 385.644 293.269 385.644C289.573 385.644 286.465 388.276 286.465 392.42C286.465 396.564 289.573 399.28 293.269 399.28ZM311.169 378.812H309.741C306.157 378.812 304.505 381.136 304.505 384.72V385.924H302.013V388.304H304.505V399H307.417V388.304H310.357V385.924H307.417V384.72C307.417 383.04 307.837 381.584 309.741 381.584H311.169V378.812ZM329.567 392.532C329.567 395.136 327.523 396.508 325.591 396.508C323.407 396.508 321.699 394.94 321.699 392.532C321.699 390.096 323.407 388.444 325.591 388.444C327.719 388.444 329.567 389.984 329.567 392.532ZM329.595 387.856C328.811 386.428 327.019 385.644 325.227 385.644C321.699 385.644 318.731 388.36 318.731 392.476C318.731 396.648 321.699 399.28 325.227 399.28C327.019 399.28 328.811 398.58 329.595 397.124V405.356H332.479V385.924H329.595V387.856ZM345.344 392.952C345.344 395.556 343.664 396.48 341.984 396.48C340.416 396.48 339.268 395.36 339.268 393.204V385.924H336.384V393.54C336.356 397.264 338.232 399.28 341.452 399.28C342.824 399.28 344.588 398.58 345.344 397.096V399H348.228V385.924H345.344V392.952ZM364.678 392.42C364.678 388.276 361.822 385.644 358.126 385.644C354.43 385.644 351.406 388.276 351.406 392.42C351.406 396.564 354.43 399.28 358.126 399.28C360.562 399.28 363.054 398.244 364.174 395.92L361.822 394.884C361.15 396.088 359.722 396.76 358.266 396.76C356.138 396.76 354.57 395.5 354.262 393.484H364.65C364.678 393.176 364.678 392.728 364.678 392.42ZM354.262 391.384C354.57 389.368 356.11 388.164 358.126 388.164C360.114 388.164 361.542 389.34 361.85 391.384H354.262ZM372.539 393.764C373.519 393.988 374.359 394.436 374.359 395.304C374.359 396.284 373.351 396.872 372.035 396.872C370.495 396.872 369.599 396.116 369.459 394.996H366.799C366.883 397.768 369.347 399.28 371.811 399.28C374.807 399.28 377.019 397.852 377.019 395.332C377.019 394.044 376.403 392.196 373.603 391.524L371.587 391.02C370.887 390.824 370.187 390.544 369.991 390.012C369.851 389.592 369.879 389.2 370.103 388.836C370.411 388.388 371.195 388.108 371.951 388.108C372.847 388.108 373.743 388.528 373.855 389.508H376.599C376.459 386.708 374.135 385.644 371.839 385.644C369.459 385.644 367.303 387.156 367.163 389.088C366.967 391.216 367.975 392.588 370.775 393.344L372.539 393.764ZM384.084 380.968H381.2V385.924H378.848V388.304H381.2V399H384.084V388.304H386.856V385.924H384.084V380.968ZM392.427 385.924H389.571V399H392.427V385.924ZM389.067 380.632C389.067 381.668 389.963 382.452 390.999 382.452C392.091 382.452 392.903 381.668 392.903 380.632C392.903 379.596 392.091 378.812 390.999 378.812C389.963 378.812 389.067 379.596 389.067 380.632ZM402.425 396.48C400.269 396.48 398.477 394.884 398.477 392.42C398.477 390.04 400.269 388.472 402.425 388.472C404.609 388.472 406.401 390.04 406.401 392.42C406.401 394.884 404.609 396.48 402.425 396.48ZM402.425 399.28C406.149 399.28 409.285 396.564 409.285 392.42C409.285 388.276 406.149 385.644 402.425 385.644C398.729 385.644 395.621 388.276 395.621 392.42C395.621 396.564 398.729 399.28 402.425 399.28ZM415.369 391.972C415.369 389.396 417.021 388.472 418.729 388.472C420.409 388.472 421.473 389.62 421.473 391.72V399H424.357V391.384C424.357 387.66 422.537 385.644 419.373 385.644C417.945 385.644 416.125 386.4 415.369 387.884V385.924H412.485V399H415.369V391.972ZM433.078 393.764C434.058 393.988 434.898 394.436 434.898 395.304C434.898 396.284 433.89 396.872 432.574 396.872C431.034 396.872 430.138 396.116 429.998 394.996H427.338C427.422 397.768 429.886 399.28 432.35 399.28C435.346 399.28 437.558 397.852 437.558 395.332C437.558 394.044 436.942 392.196 434.142 391.524L432.126 391.02C431.426 390.824 430.726 390.544 430.53 390.012C430.39 389.592 430.418 389.2 430.642 388.836C430.95 388.388 431.734 388.108 432.49 388.108C433.386 388.108 434.282 388.528 434.394 389.508H437.138C436.998 386.708 434.674 385.644 432.378 385.644C429.998 385.644 427.842 387.156 427.702 389.088C427.506 391.216 428.514 392.588 431.314 393.344L433.078 393.764ZM111.98 434.48C109.824 434.48 108.032 432.884 108.032 430.42C108.032 428.04 109.824 426.472 111.98 426.472C114.164 426.472 115.956 428.04 115.956 430.42C115.956 432.884 114.164 434.48 111.98 434.48ZM111.98 437.28C115.704 437.28 118.84 434.564 118.84 430.42C118.84 426.276 115.704 423.644 111.98 423.644C108.284 423.644 105.176 426.276 105.176 430.42C105.176 434.564 108.284 437.28 111.98 437.28ZM130.859 430.952C130.859 433.556 129.179 434.48 127.499 434.48C125.931 434.48 124.783 433.36 124.783 431.204V423.924H121.899V431.54C121.871 435.264 123.747 437.28 126.967 437.28C128.339 437.28 130.103 436.58 130.859 435.096V437H133.743V423.924H130.859V430.952ZM141.682 418.968H138.798V423.924H136.446V426.304H138.798V437H141.682V426.304H144.454V423.924H141.682V418.968ZM151.984 431.764C152.964 431.988 153.804 432.436 153.804 433.304C153.804 434.284 152.796 434.872 151.48 434.872C149.94 434.872 149.044 434.116 148.904 432.996H146.244C146.328 435.768 148.792 437.28 151.256 437.28C154.252 437.28 156.464 435.852 156.464 433.332C156.464 432.044 155.848 430.196 153.048 429.524L151.032 429.02C150.332 428.824 149.632 428.544 149.436 428.012C149.296 427.592 149.324 427.2 149.548 426.836C149.856 426.388 150.64 426.108 151.396 426.108C152.292 426.108 153.188 426.528 153.3 427.508H156.044C155.904 424.708 153.58 423.644 151.284 423.644C148.904 423.644 146.748 425.156 146.608 427.088C146.412 429.216 147.42 430.588 150.22 431.344L151.984 431.764ZM162.466 423.924H159.61V437H162.466V423.924ZM159.106 418.632C159.106 419.668 160.002 420.452 161.038 420.452C162.13 420.452 162.942 419.668 162.942 418.632C162.942 417.596 162.13 416.812 161.038 416.812C160.002 416.812 159.106 417.596 159.106 418.632ZM176.636 437H179.492V416.812H176.636V425.8C175.824 424.372 174.088 423.644 172.212 423.644C168.684 423.644 165.688 426.276 165.688 430.476C165.688 434.592 168.684 437.28 172.212 437.28C174.004 437.28 175.824 436.524 176.636 435.096V437ZM176.58 430.42C176.58 432.968 174.704 434.48 172.576 434.48C170.42 434.48 168.656 432.828 168.656 430.42C168.656 428.012 170.42 426.444 172.576 426.444C174.508 426.444 176.58 427.872 176.58 430.42ZM195.968 430.42C195.968 426.276 193.112 423.644 189.416 423.644C185.72 423.644 182.696 426.276 182.696 430.42C182.696 434.564 185.72 437.28 189.416 437.28C191.852 437.28 194.344 436.244 195.464 433.92L193.112 432.884C192.44 434.088 191.012 434.76 189.556 434.76C187.428 434.76 185.86 433.5 185.552 431.484H195.94C195.968 431.176 195.968 430.728 195.968 430.42ZM185.552 429.384C185.86 427.368 187.4 426.164 189.416 426.164C191.404 426.164 192.832 427.34 193.14 429.384H185.552ZM212.085 434.48C209.929 434.48 208.137 432.884 208.137 430.42C208.137 428.04 209.929 426.472 212.085 426.472C214.269 426.472 216.061 428.04 216.061 430.42C216.061 432.884 214.269 434.48 212.085 434.48ZM212.085 437.28C215.809 437.28 218.945 434.564 218.945 430.42C218.945 426.276 215.809 423.644 212.085 423.644C208.389 423.644 205.281 426.276 205.281 430.42C205.281 434.564 208.389 437.28 212.085 437.28ZM229.985 416.812H228.557C224.973 416.812 223.321 419.136 223.321 422.72V423.924H220.829V426.304H223.321V437H226.233V426.304H229.173V423.924H226.233V422.72C226.233 421.04 226.653 419.584 228.557 419.584H229.985V416.812ZM252.78 435.712C255.496 433.92 257.26 430.896 257.26 427.396C257.26 421.936 252.948 417.484 247.432 417.484C241.944 417.484 237.66 421.936 237.66 427.396C237.66 432.884 241.944 437.28 247.432 437.28C248.496 437.28 249.476 437.14 250.372 436.832L252.5 440.248L254.74 438.876L252.78 435.712ZM249.112 429.832L246.9 431.204L248.748 434.228C248.076 434.34 247.404 434.368 246.76 434.284C243.232 433.976 240.628 431.064 240.628 427.396C240.628 423.504 243.596 420.34 247.432 420.34C251.324 420.34 254.264 423.504 254.264 427.396C254.264 429.86 253.116 431.988 251.212 433.22L249.112 429.832ZM269.41 430.952C269.41 433.556 267.73 434.48 266.05 434.48C264.482 434.48 263.334 433.36 263.334 431.204V423.924H260.45V431.54C260.422 435.264 262.298 437.28 265.518 437.28C266.89 437.28 268.654 436.58 269.41 435.096V437H272.294V423.924H269.41V430.952ZM288.745 430.42C288.745 426.276 285.889 423.644 282.193 423.644C278.497 423.644 275.473 426.276 275.473 430.42C275.473 434.564 278.497 437.28 282.193 437.28C284.629 437.28 287.121 436.244 288.241 433.92L285.889 432.884C285.217 434.088 283.789 434.76 282.333 434.76C280.205 434.76 278.637 433.5 278.329 431.484H288.717C288.745 431.176 288.745 430.728 288.745 430.42ZM278.329 429.384C278.637 427.368 280.177 426.164 282.193 426.164C284.181 426.164 285.609 427.34 285.917 429.384H278.329ZM296.605 431.764C297.585 431.988 298.425 432.436 298.425 433.304C298.425 434.284 297.417 434.872 296.101 434.872C294.561 434.872 293.665 434.116 293.525 432.996H290.865C290.949 435.768 293.413 437.28 295.877 437.28C298.873 437.28 301.085 435.852 301.085 433.332C301.085 432.044 300.469 430.196 297.669 429.524L295.653 429.02C294.953 428.824 294.253 428.544 294.057 428.012C293.917 427.592 293.945 427.2 294.169 426.836C294.477 426.388 295.261 426.108 296.017 426.108C296.913 426.108 297.809 426.528 297.921 427.508H300.665C300.525 424.708 298.201 423.644 295.905 423.644C293.525 423.644 291.369 425.156 291.229 427.088C291.033 429.216 292.041 430.588 294.841 431.344L296.605 431.764ZM308.151 418.968H305.267V423.924H302.915V426.304H305.267V437H308.151V426.304H310.923V423.924H308.151V418.968ZM317.557 418.968H314.673V423.924H312.321V426.304H314.673V437H317.557V426.304H320.329V423.924H317.557V418.968ZM339.798 437H342.654V423.924H339.798V425.772C338.902 424.288 336.97 423.644 335.402 423.644C331.902 423.644 328.766 426.276 328.766 430.448C328.766 434.62 331.902 437.28 335.402 437.28C337.082 437.28 338.902 436.552 339.798 435.124V437ZM331.734 430.42C331.734 428.012 333.582 426.444 335.738 426.444C337.698 426.444 339.77 427.872 339.77 430.42C339.77 432.996 337.866 434.48 335.738 434.48C333.582 434.48 331.734 432.828 331.734 430.42ZM349.58 423.924H346.696V443.356H349.58V435.124C350.392 436.58 352.156 437.28 353.948 437.28C357.476 437.28 360.444 434.648 360.444 430.476C360.444 426.36 357.476 423.644 353.948 423.644C352.156 423.644 350.392 424.428 349.58 425.856V423.924ZM349.608 430.532C349.608 427.984 351.456 426.444 353.584 426.444C355.74 426.444 357.504 428.096 357.504 430.532C357.504 432.94 355.74 434.508 353.584 434.508C351.568 434.508 349.608 433.136 349.608 430.532ZM366.56 423.924H363.676V443.356H366.56V435.124C367.372 436.58 369.136 437.28 370.928 437.28C374.456 437.28 377.424 434.648 377.424 430.476C377.424 426.36 374.456 423.644 370.928 423.644C369.136 423.644 367.372 424.428 366.56 425.856V423.924ZM366.588 430.532C366.588 427.984 368.436 426.444 370.564 426.444C372.72 426.444 374.484 428.096 374.484 430.532C374.484 432.94 372.72 434.508 370.564 434.508C368.548 434.508 366.588 433.136 366.588 430.532ZM407.142 423.924H404.062L401.01 432.744L397.986 423.924H395.298L392.274 432.744L389.25 423.924H386.17L391.098 437H393.45L396.642 427.732L399.974 437H402.354L407.142 423.924ZM412.524 423.924H409.668V437H412.524V423.924ZM409.164 418.632C409.164 419.668 410.06 420.452 411.096 420.452C412.188 420.452 413 419.668 413 418.632C413 417.596 412.188 416.812 411.096 416.812C410.06 416.812 409.164 417.596 409.164 418.632ZM420.479 418.968H417.595V423.924H415.243V426.304H417.595V437H420.479V426.304H423.251V423.924H420.479V418.968ZM428.849 429.972C428.849 427.396 430.837 426.472 432.489 426.472C434.141 426.472 435.401 427.676 435.401 429.72V437H438.285V429.552C438.285 425.828 436.353 423.644 432.993 423.644C431.621 423.644 429.605 424.316 428.849 425.912V416.812H425.965V437H428.849V429.972ZM445.009 423.924H442.153V437H445.009V423.924ZM441.649 418.632C441.649 419.668 442.545 420.452 443.581 420.452C444.673 420.452 445.485 419.668 445.485 418.632C445.485 417.596 444.673 416.812 443.581 416.812C442.545 416.812 441.649 417.596 441.649 418.632ZM451.927 429.972C451.927 427.396 453.579 426.472 455.287 426.472C456.967 426.472 458.031 427.62 458.031 429.72V437H460.915V429.384C460.915 425.66 459.095 423.644 455.931 423.644C454.503 423.644 452.683 424.4 451.927 425.884V423.924H449.043V437H451.927V429.972ZM117.076 475V472.2H110.44C112.68 469.512 113.1 469.064 115.2 466.6C116.404 465.284 117.188 463.688 117.188 461.896C117.188 458.648 114.584 456.436 111.364 456.436C108.368 456.436 105.96 458.368 105.456 461.476L108.2 462.064C108.424 460.356 109.74 459.264 111.308 459.264C113.016 459.264 114.332 460.328 114.332 461.896C114.332 462.876 113.828 463.772 113.072 464.668L105.624 473.628V475H117.076ZM124.054 468.56L128.842 461.42V468.56H124.054ZM134.246 471.164V468.56H131.698V456.716H129.234L119.49 471.164H128.842V475H131.698V471.164H134.246ZM140.345 467.972C140.345 465.396 142.333 464.472 143.985 464.472C145.637 464.472 146.897 465.676 146.897 467.72V475H149.781V467.552C149.781 463.828 147.849 461.644 144.489 461.644C143.117 461.644 141.101 462.316 140.345 463.912V454.812H137.461V475H140.345V467.972ZM113.94 504.452C116.012 504.452 116.852 506.216 116.852 507.84C116.852 509.492 115.984 511.2 113.828 511.2H109.516V504.452H113.94ZM114.948 513.804C118.504 513.44 119.932 510.64 119.932 507.84C119.932 504.788 118.196 501.708 114.052 501.708H106.52V521H109.516V513.916H111.588L116.404 521H120.016L114.948 513.804ZM135.264 514.42C135.264 510.276 132.408 507.644 128.712 507.644C125.016 507.644 121.992 510.276 121.992 514.42C121.992 518.564 125.016 521.28 128.712 521.28C131.148 521.28 133.64 520.244 134.76 517.92L132.408 516.884C131.736 518.088 130.308 518.76 128.852 518.76C126.724 518.76 125.156 517.5 124.848 515.484H135.236C135.264 515.176 135.264 514.728 135.264 514.42ZM124.848 513.384C125.156 511.368 126.696 510.164 128.712 510.164C130.7 510.164 132.128 511.34 132.436 513.384H124.848ZM137.469 514.42C137.469 518.564 140.689 521.28 144.441 521.28C146.569 521.28 148.417 520.44 149.649 518.984L147.381 517.22C146.681 518.032 145.589 518.508 144.441 518.508C142.257 518.508 140.325 516.856 140.325 514.42C140.325 511.984 142.257 510.444 144.441 510.444C145.589 510.444 146.681 510.892 147.381 511.704L149.621 509.912C148.389 508.456 146.541 507.644 144.441 507.644C140.689 507.644 137.469 510.276 137.469 514.42ZM158.382 518.48C156.226 518.48 154.434 516.884 154.434 514.42C154.434 512.04 156.226 510.472 158.382 510.472C160.566 510.472 162.358 512.04 162.358 514.42C162.358 516.884 160.566 518.48 158.382 518.48ZM158.382 521.28C162.106 521.28 165.242 518.564 165.242 514.42C165.242 510.276 162.106 507.644 158.382 507.644C154.686 507.644 151.578 510.276 151.578 514.42C151.578 518.564 154.686 521.28 158.382 521.28ZM171.326 516.296C171.326 512.824 172.362 510.36 174.826 510.36C175.386 510.36 176.002 510.444 176.758 510.808L177.234 508.148C176.814 507.84 175.834 507.644 174.91 507.644C173.258 507.644 171.998 508.568 171.326 510.92V507.924H168.442V521H171.326V516.296ZM189.488 521H192.344V500.812H189.488V509.8C188.676 508.372 186.94 507.644 185.064 507.644C181.536 507.644 178.54 510.276 178.54 514.476C178.54 518.592 181.536 521.28 185.064 521.28C186.856 521.28 188.676 520.524 189.488 519.096V521ZM189.432 514.42C189.432 516.968 187.556 518.48 185.428 518.48C183.272 518.48 181.508 516.828 181.508 514.42C181.508 512.012 183.272 510.444 185.428 510.444C187.36 510.444 189.432 511.872 189.432 514.42ZM208.819 514.42C208.819 510.276 205.963 507.644 202.267 507.644C198.571 507.644 195.547 510.276 195.547 514.42C195.547 518.564 198.571 521.28 202.267 521.28C204.703 521.28 207.195 520.244 208.315 517.92L205.963 516.884C205.291 518.088 203.863 518.76 202.407 518.76C200.279 518.76 198.711 517.5 198.403 515.484H208.791C208.819 515.176 208.819 514.728 208.819 514.42ZM198.403 513.384C198.711 511.368 200.251 510.164 202.267 510.164C204.255 510.164 205.683 511.34 205.991 513.384H198.403ZM222 521H224.856V500.812H222V509.8C221.188 508.372 219.452 507.644 217.576 507.644C214.048 507.644 211.052 510.276 211.052 514.476C211.052 518.592 214.048 521.28 217.576 521.28C219.368 521.28 221.188 520.524 222 519.096V521ZM221.944 514.42C221.944 516.968 220.068 518.48 217.94 518.48C215.784 518.48 214.02 516.828 214.02 514.42C214.02 512.012 215.784 510.444 217.94 510.444C219.872 510.444 221.944 511.872 221.944 514.42ZM239.105 521H241.765L247.225 507.924H244.145L240.449 517.332L236.697 507.924H233.645L239.105 521ZM252.454 507.924H249.598V521H252.454V507.924ZM249.094 502.632C249.094 503.668 249.99 504.452 251.026 504.452C252.118 504.452 252.93 503.668 252.93 502.632C252.93 501.596 252.118 500.812 251.026 500.812C249.99 500.812 249.094 501.596 249.094 502.632ZM266.625 521H269.481V500.812H266.625V509.8C265.813 508.372 264.077 507.644 262.201 507.644C258.673 507.644 255.677 510.276 255.677 514.476C255.677 518.592 258.673 521.28 262.201 521.28C263.993 521.28 265.813 520.524 266.625 519.096V521ZM266.569 514.42C266.569 516.968 264.693 518.48 262.565 518.48C260.409 518.48 258.645 516.828 258.645 514.42C258.645 512.012 260.409 510.444 262.565 510.444C264.497 510.444 266.569 511.872 266.569 514.42ZM285.956 514.42C285.956 510.276 283.1 507.644 279.404 507.644C275.708 507.644 272.684 510.276 272.684 514.42C272.684 518.564 275.708 521.28 279.404 521.28C281.84 521.28 284.332 520.244 285.452 517.92L283.1 516.884C282.428 518.088 281 518.76 279.544 518.76C277.416 518.76 275.848 517.5 275.54 515.484H285.928C285.956 515.176 285.956 514.728 285.956 514.42ZM275.54 513.384C275.848 511.368 277.388 510.164 279.404 510.164C281.392 510.164 282.82 511.34 283.128 513.384H275.54ZM294.964 518.48C292.808 518.48 291.016 516.884 291.016 514.42C291.016 512.04 292.808 510.472 294.964 510.472C297.148 510.472 298.94 512.04 298.94 514.42C298.94 516.884 297.148 518.48 294.964 518.48ZM294.964 521.28C298.688 521.28 301.824 518.564 301.824 514.42C301.824 510.276 298.688 507.644 294.964 507.644C291.268 507.644 288.16 510.276 288.16 514.42C288.16 518.564 291.268 521.28 294.964 521.28ZM322.325 521H325.181V507.924H322.325V509.772C321.429 508.288 319.497 507.644 317.929 507.644C314.429 507.644 311.293 510.276 311.293 514.448C311.293 518.62 314.429 521.28 317.929 521.28C319.609 521.28 321.429 520.552 322.325 519.124V521ZM314.261 514.42C314.261 512.012 316.109 510.444 318.265 510.444C320.225 510.444 322.297 511.872 322.297 514.42C322.297 516.996 320.393 518.48 318.265 518.48C316.109 518.48 314.261 516.828 314.261 514.42ZM334.039 515.764C335.019 515.988 335.859 516.436 335.859 517.304C335.859 518.284 334.851 518.872 333.535 518.872C331.995 518.872 331.099 518.116 330.959 516.996H328.299C328.383 519.768 330.847 521.28 333.311 521.28C336.307 521.28 338.519 519.852 338.519 517.332C338.519 516.044 337.903 514.196 335.103 513.524L333.087 513.02C332.387 512.824 331.687 512.544 331.491 512.012C331.351 511.592 331.379 511.2 331.603 510.836C331.911 510.388 332.695 510.108 333.451 510.108C334.347 510.108 335.243 510.528 335.355 511.508H338.099C337.959 508.708 335.635 507.644 333.339 507.644C330.959 507.644 328.803 509.156 328.663 511.088C328.467 513.216 329.475 514.588 332.275 515.344L334.039 515.764ZM346.48 515.764C347.46 515.988 348.3 516.436 348.3 517.304C348.3 518.284 347.292 518.872 345.976 518.872C344.436 518.872 343.54 518.116 343.4 516.996H340.74C340.824 519.768 343.288 521.28 345.752 521.28C348.748 521.28 350.96 519.852 350.96 517.332C350.96 516.044 350.344 514.196 347.544 513.524L345.528 513.02C344.828 512.824 344.128 512.544 343.932 512.012C343.792 511.592 343.82 511.2 344.044 510.836C344.352 510.388 345.136 510.108 345.892 510.108C346.788 510.108 347.684 510.528 347.796 511.508H350.54C350.4 508.708 348.076 507.644 345.78 507.644C343.4 507.644 341.244 509.156 341.104 511.088C340.908 513.216 341.916 514.588 344.716 515.344L346.48 515.764ZM356.962 507.924H354.106V521H356.962V507.924ZM353.602 502.632C353.602 503.668 354.498 504.452 355.534 504.452C356.626 504.452 357.438 503.668 357.438 502.632C357.438 501.596 356.626 500.812 355.534 500.812C354.498 500.812 353.602 501.596 353.602 502.632ZM365.812 515.764C366.792 515.988 367.632 516.436 367.632 517.304C367.632 518.284 366.624 518.872 365.308 518.872C363.768 518.872 362.872 518.116 362.732 516.996H360.072C360.156 519.768 362.62 521.28 365.084 521.28C368.08 521.28 370.292 519.852 370.292 517.332C370.292 516.044 369.676 514.196 366.876 513.524L364.86 513.02C364.16 512.824 363.46 512.544 363.264 512.012C363.124 511.592 363.152 511.2 363.376 510.836C363.684 510.388 364.468 510.108 365.224 510.108C366.12 510.108 367.016 510.528 367.128 511.508H369.872C369.732 508.708 367.408 507.644 365.112 507.644C362.732 507.644 360.576 509.156 360.436 511.088C360.24 513.216 361.248 514.588 364.048 515.344L365.812 515.764ZM377.358 502.968H374.474V507.924H372.122V510.304H374.474V521H377.358V510.304H380.13V507.924H377.358V502.968ZM392.845 521H395.701V507.924H392.845V509.772C391.949 508.288 390.017 507.644 388.449 507.644C384.949 507.644 381.813 510.276 381.813 514.448C381.813 518.62 384.949 521.28 388.449 521.28C390.129 521.28 391.949 520.552 392.845 519.124V521ZM384.781 514.42C384.781 512.012 386.629 510.444 388.785 510.444C390.745 510.444 392.817 511.872 392.817 514.42C392.817 516.996 390.913 518.48 388.785 518.48C386.629 518.48 384.781 516.828 384.781 514.42ZM402.627 513.972C402.627 511.396 404.279 510.472 405.987 510.472C407.667 510.472 408.731 511.62 408.731 513.72V521H411.615V513.384C411.615 509.66 409.795 507.644 406.631 507.644C405.203 507.644 403.383 508.4 402.627 509.884V507.924H399.743V521H402.627V513.972ZM414.68 514.42C414.68 518.564 417.9 521.28 421.652 521.28C423.78 521.28 425.628 520.44 426.86 518.984L424.592 517.22C423.892 518.032 422.8 518.508 421.652 518.508C419.468 518.508 417.536 516.856 417.536 514.42C417.536 511.984 419.468 510.444 421.652 510.444C422.8 510.444 423.892 510.892 424.592 511.704L426.832 509.912C425.6 508.456 423.752 507.644 421.652 507.644C417.9 507.644 414.68 510.276 414.68 514.42ZM442.061 514.42C442.061 510.276 439.205 507.644 435.509 507.644C431.813 507.644 428.789 510.276 428.789 514.42C428.789 518.564 431.813 521.28 435.509 521.28C437.945 521.28 440.437 520.244 441.557 517.92L439.205 516.884C438.533 518.088 437.105 518.76 435.649 518.76C433.521 518.76 431.953 517.5 431.645 515.484H442.033C442.061 515.176 442.061 514.728 442.061 514.42ZM431.645 513.384C431.953 511.368 433.493 510.164 435.509 510.164C437.497 510.164 438.925 511.34 439.233 513.384H431.645ZM459.672 500.812H458.244C454.66 500.812 453.008 503.136 453.008 506.72V507.924H450.516V510.304H453.008V521H455.92V510.304H458.86V507.924H455.92V506.72C455.92 505.04 456.34 503.584 458.244 503.584H459.672V500.812ZM467.312 518.48C465.156 518.48 463.364 516.884 463.364 514.42C463.364 512.04 465.156 510.472 467.312 510.472C469.496 510.472 471.288 512.04 471.288 514.42C471.288 516.884 469.496 518.48 467.312 518.48ZM467.312 521.28C471.036 521.28 474.172 518.564 474.172 514.42C474.172 510.276 471.036 507.644 467.312 507.644C463.616 507.644 460.508 510.276 460.508 514.42C460.508 518.564 463.616 521.28 467.312 521.28ZM480.255 516.296C480.255 512.824 481.291 510.36 483.755 510.36C484.315 510.36 484.931 510.444 485.687 510.808L486.163 508.148C485.743 507.84 484.763 507.644 483.839 507.644C482.187 507.644 480.927 508.568 480.255 510.92V507.924H477.371V521H480.255V516.296ZM105.176 552.42C105.176 556.564 108.396 559.28 112.148 559.28C114.276 559.28 116.124 558.44 117.356 556.984L115.088 555.22C114.388 556.032 113.296 556.508 112.148 556.508C109.964 556.508 108.032 554.856 108.032 552.42C108.032 549.984 109.964 548.444 112.148 548.444C113.296 548.444 114.388 548.892 115.088 549.704L117.328 547.912C116.096 546.456 114.248 545.644 112.148 545.644C108.396 545.644 105.176 548.276 105.176 552.42ZM126.089 556.48C123.933 556.48 122.141 554.884 122.141 552.42C122.141 550.04 123.933 548.472 126.089 548.472C128.273 548.472 130.065 550.04 130.065 552.42C130.065 554.884 128.273 556.48 126.089 556.48ZM126.089 559.28C129.813 559.28 132.949 556.564 132.949 552.42C132.949 548.276 129.813 545.644 126.089 545.644C122.393 545.644 119.285 548.276 119.285 552.42C119.285 556.564 122.393 559.28 126.089 559.28ZM139.033 551.972C139.033 549.396 140.685 548.472 142.393 548.472C144.073 548.472 145.137 549.62 145.137 551.72V559H148.021V551.384C148.021 547.66 146.201 545.644 143.037 545.644C141.609 545.644 139.789 546.4 139.033 547.884V545.924H136.149V559H139.033V551.972ZM151.086 552.42C151.086 556.564 154.306 559.28 158.058 559.28C160.186 559.28 162.034 558.44 163.266 556.984L160.998 555.22C160.298 556.032 159.206 556.508 158.058 556.508C155.874 556.508 153.942 554.856 153.942 552.42C153.942 549.984 155.874 548.444 158.058 548.444C159.206 548.444 160.298 548.892 160.998 549.704L163.238 547.912C162.006 546.456 160.158 545.644 158.058 545.644C154.306 545.644 151.086 548.276 151.086 552.42ZM178.468 552.42C178.468 548.276 175.612 545.644 171.916 545.644C168.22 545.644 165.196 548.276 165.196 552.42C165.196 556.564 168.22 559.28 171.916 559.28C174.352 559.28 176.844 558.244 177.964 555.92L175.612 554.884C174.94 556.088 173.512 556.76 172.056 556.76C169.928 556.76 168.36 555.5 168.052 553.484H178.44C178.468 553.176 178.468 552.728 178.468 552.42ZM168.052 551.384C168.36 549.368 169.9 548.164 171.916 548.164C173.904 548.164 175.332 549.34 175.64 551.384H168.052ZM184.396 545.924H181.512V565.356H184.396V557.124C185.208 558.58 186.972 559.28 188.764 559.28C192.292 559.28 195.26 556.648 195.26 552.476C195.26 548.36 192.292 545.644 188.764 545.644C186.972 545.644 185.208 546.428 184.396 547.856V545.924ZM184.424 552.532C184.424 549.984 186.272 548.444 188.4 548.444C190.556 548.444 192.32 550.096 192.32 552.532C192.32 554.94 190.556 556.508 188.4 556.508C186.384 556.508 184.424 555.136 184.424 552.532ZM202.413 540.968H199.529V545.924H197.177V548.304H199.529V559H202.413V548.304H205.185V545.924H202.413V540.968ZM216.719 552.952C216.719 555.556 215.039 556.48 213.359 556.48C211.791 556.48 210.643 555.36 210.643 553.204V545.924H207.759V553.54C207.731 557.264 209.607 559.28 212.827 559.28C214.199 559.28 215.963 558.58 216.719 557.096V559H219.603V545.924H216.719V552.952ZM233.813 559H236.669V545.924H233.813V547.772C232.917 546.288 230.985 545.644 229.417 545.644C225.917 545.644 222.781 548.276 222.781 552.448C222.781 556.62 225.917 559.28 229.417 559.28C231.097 559.28 232.917 558.552 233.813 557.124V559ZM225.749 552.42C225.749 550.012 227.597 548.444 229.753 548.444C231.713 548.444 233.785 549.872 233.785 552.42C233.785 554.996 231.881 556.48 229.753 556.48C227.597 556.48 225.749 554.828 225.749 552.42ZM240.711 559H243.595V538.812H240.711V559ZM253.899 552.42C253.899 556.564 257.119 559.28 260.871 559.28C262.999 559.28 264.847 558.44 266.079 556.984L263.811 555.22C263.111 556.032 262.019 556.508 260.871 556.508C258.687 556.508 256.755 554.856 256.755 552.42C256.755 549.984 258.687 548.444 260.871 548.444C262.019 548.444 263.111 548.892 263.811 549.704L266.051 547.912C264.819 546.456 262.971 545.644 260.871 545.644C257.119 545.644 253.899 548.276 253.899 552.42ZM269.121 559H272.005V538.812H269.121V559ZM286.231 559H289.087V545.924H286.231V547.772C285.335 546.288 283.403 545.644 281.835 545.644C278.335 545.644 275.199 548.276 275.199 552.448C275.199 556.62 278.335 559.28 281.835 559.28C283.515 559.28 285.335 558.552 286.231 557.124V559ZM278.167 552.42C278.167 550.012 280.015 548.444 282.171 548.444C284.131 548.444 286.203 549.872 286.203 552.42C286.203 554.996 284.299 556.48 282.171 556.48C280.015 556.48 278.167 554.828 278.167 552.42ZM296.013 554.296C296.013 550.824 297.049 548.36 299.513 548.36C300.073 548.36 300.689 548.444 301.445 548.808L301.921 546.148C301.501 545.84 300.521 545.644 299.597 545.644C297.945 545.644 296.685 546.568 296.013 548.92V545.924H293.129V559H296.013V554.296ZM307.169 545.924H304.313V559H307.169V545.924ZM303.809 540.632C303.809 541.668 304.705 542.452 305.741 542.452C306.833 542.452 307.645 541.668 307.645 540.632C307.645 539.596 306.833 538.812 305.741 538.812C304.705 538.812 303.809 539.596 303.809 540.632ZM315.124 540.968H312.24V545.924H309.888V548.304H312.24V559H315.124V548.304H317.896V545.924H315.124V540.968ZM332.426 545.924H329.346L325.678 554.884L322.038 545.924H318.958L324.138 558.384L321.31 565.384H324.334L332.426 545.924ZM105.4 599.4C105.4 602.536 108.2 605.28 112.204 605.28C115.872 605.28 118.476 603.124 118.784 600.1C119.092 597.3 117.496 595.144 113.576 594.108L111.112 593.464C108.816 592.876 108.536 591.7 108.536 590.944C108.536 589.376 110.076 588.284 111.868 588.284C113.884 588.284 115.228 589.404 115.228 591.196H118.196C118.196 587.668 115.508 585.484 111.924 585.484C108.536 585.484 105.568 587.696 105.568 591C105.568 592.708 106.212 595.06 110.356 596.18L112.792 596.796C114.584 597.216 115.956 598.14 115.844 599.932C115.648 601.36 114.472 602.564 112.204 602.564C109.88 602.564 108.452 600.968 108.368 599.4H105.4ZM130.777 598.952C130.777 601.556 129.097 602.48 127.417 602.48C125.849 602.48 124.701 601.36 124.701 599.204V591.924H121.817V599.54C121.789 603.264 123.665 605.28 126.885 605.28C128.257 605.28 130.021 604.58 130.777 603.096V605H133.661V591.924H130.777V598.952ZM140.592 598.42C140.592 595.872 142.636 594.444 144.596 594.444C146.78 594.444 148.544 596.012 148.544 598.42C148.544 600.828 146.78 602.48 144.596 602.48C142.468 602.48 140.592 600.968 140.592 598.42ZM140.564 605V603.096C141.376 604.524 143.14 605.28 144.932 605.28C148.432 605.28 151.484 602.592 151.484 598.476C151.484 594.276 148.516 591.644 144.96 591.644C143.084 591.644 141.376 592.372 140.564 593.8V584.812H137.68V605H140.564ZM150.963 611.468H152.867C156.451 611.468 157.627 609.116 157.627 605.84V591.924H154.715V605.84C154.715 607.184 154.463 608.78 152.531 608.78H150.963V611.468ZM154.239 586.632C154.239 587.668 155.135 588.452 156.171 588.452C157.263 588.452 158.103 587.668 158.103 586.632C158.103 585.596 157.263 584.812 156.171 584.812C155.135 584.812 154.239 585.596 154.239 586.632ZM174.093 598.42C174.093 594.276 171.237 591.644 167.541 591.644C163.845 591.644 160.821 594.276 160.821 598.42C160.821 602.564 163.845 605.28 167.541 605.28C169.977 605.28 172.469 604.244 173.589 601.92L171.237 600.884C170.565 602.088 169.137 602.76 167.681 602.76C165.553 602.76 163.985 601.5 163.677 599.484H174.065C174.093 599.176 174.093 598.728 174.093 598.42ZM163.677 597.384C163.985 595.368 165.525 594.164 167.541 594.164C169.529 594.164 170.957 595.34 171.265 597.384H163.677ZM176.297 598.42C176.297 602.564 179.517 605.28 183.269 605.28C185.397 605.28 187.245 604.44 188.477 602.984L186.209 601.22C185.509 602.032 184.417 602.508 183.269 602.508C181.085 602.508 179.153 600.856 179.153 598.42C179.153 595.984 181.085 594.444 183.269 594.444C184.417 594.444 185.509 594.892 186.209 595.704L188.449 593.912C187.217 592.456 185.369 591.644 183.269 591.644C179.517 591.644 176.297 594.276 176.297 598.42ZM195.44 586.968H192.556V591.924H190.204V594.304H192.556V605H195.44V594.304H198.212V591.924H195.44V586.968ZM203.782 591.924H200.926V605H203.782V591.924ZM200.422 586.632C200.422 587.668 201.318 588.452 202.354 588.452C203.446 588.452 204.258 587.668 204.258 586.632C204.258 585.596 203.446 584.812 202.354 584.812C201.318 584.812 200.422 585.596 200.422 586.632ZM211.625 605H214.285L219.745 591.924H216.665L212.969 601.332L209.217 591.924H206.165L211.625 605ZM234.276 598.42C234.276 594.276 231.42 591.644 227.724 591.644C224.028 591.644 221.004 594.276 221.004 598.42C221.004 602.564 224.028 605.28 227.724 605.28C230.16 605.28 232.652 604.244 233.772 601.92L231.42 600.884C230.748 602.088 229.32 602.76 227.864 602.76C225.736 602.76 224.168 601.5 223.86 599.484H234.248C234.276 599.176 234.276 598.728 234.276 598.42ZM223.86 597.384C224.168 595.368 225.708 594.164 227.724 594.164C229.712 594.164 231.14 595.34 231.448 597.384H223.86ZM248.35 586.968H245.466V591.924H243.114V594.304H245.466V605H248.35V594.304H251.122V591.924H248.35V586.968ZM266.077 598.42C266.077 594.276 263.221 591.644 259.525 591.644C255.829 591.644 252.805 594.276 252.805 598.42C252.805 602.564 255.829 605.28 259.525 605.28C261.961 605.28 264.453 604.244 265.573 601.92L263.221 600.884C262.549 602.088 261.121 602.76 259.665 602.76C257.537 602.76 255.969 601.5 255.661 599.484H266.049C266.077 599.176 266.077 598.728 266.077 598.42ZM255.661 597.384C255.969 595.368 257.509 594.164 259.525 594.164C261.513 594.164 262.941 595.34 263.249 597.384H255.661ZM273.937 599.764C274.917 599.988 275.757 600.436 275.757 601.304C275.757 602.284 274.749 602.872 273.433 602.872C271.893 602.872 270.997 602.116 270.857 600.996H268.197C268.281 603.768 270.745 605.28 273.209 605.28C276.205 605.28 278.417 603.852 278.417 601.332C278.417 600.044 277.801 598.196 275.001 597.524L272.985 597.02C272.285 596.824 271.585 596.544 271.389 596.012C271.249 595.592 271.277 595.2 271.501 594.836C271.809 594.388 272.593 594.108 273.349 594.108C274.245 594.108 275.141 594.528 275.253 595.508H277.997C277.857 592.708 275.533 591.644 273.237 591.644C270.857 591.644 268.701 593.156 268.561 595.088C268.365 597.216 269.373 598.588 272.173 599.344L273.937 599.764ZM285.483 586.968H282.599V591.924H280.247V594.304H282.599V605H285.483V594.304H288.255V591.924H285.483V586.968ZM309.964 598.42C309.964 594.276 307.108 591.644 303.412 591.644C299.716 591.644 296.692 594.276 296.692 598.42C296.692 602.564 299.716 605.28 303.412 605.28C305.848 605.28 308.34 604.244 309.46 601.92L307.108 600.884C306.436 602.088 305.008 602.76 303.552 602.76C301.424 602.76 299.856 601.5 299.548 599.484H309.936C309.964 599.176 309.964 598.728 309.964 598.42ZM299.548 597.384C299.856 595.368 301.396 594.164 303.412 594.164C305.4 594.164 306.828 595.34 307.136 597.384H299.548ZM316.597 605H319.257L324.717 591.924H321.637L317.941 601.332L314.189 591.924H311.137L316.597 605ZM337.009 605H339.865V591.924H337.009V593.772C336.113 592.288 334.181 591.644 332.613 591.644C329.113 591.644 325.977 594.276 325.977 598.448C325.977 602.62 329.113 605.28 332.613 605.28C334.293 605.28 336.113 604.552 337.009 603.124V605ZM328.945 598.42C328.945 596.012 330.793 594.444 332.949 594.444C334.909 594.444 336.981 595.872 336.981 598.42C336.981 600.996 335.077 602.48 332.949 602.48C330.793 602.48 328.945 600.828 328.945 598.42ZM343.907 605H346.791V584.812H343.907V605ZM359.645 598.952C359.645 601.556 357.965 602.48 356.285 602.48C354.717 602.48 353.569 601.36 353.569 599.204V591.924H350.685V599.54C350.657 603.264 352.533 605.28 355.753 605.28C357.125 605.28 358.889 604.58 359.645 603.096V605H362.529V591.924H359.645V598.952ZM376.739 605H379.595V591.924H376.739V593.772C375.843 592.288 373.911 591.644 372.343 591.644C368.843 591.644 365.707 594.276 365.707 598.448C365.707 602.62 368.843 605.28 372.343 605.28C374.023 605.28 375.843 604.552 376.739 603.124V605ZM368.675 598.42C368.675 596.012 370.523 594.444 372.679 594.444C374.639 594.444 376.711 595.872 376.711 598.42C376.711 600.996 374.807 602.48 372.679 602.48C370.523 602.48 368.675 600.828 368.675 598.42ZM387.557 586.968H384.673V591.924H382.321V594.304H384.673V605H387.557V594.304H390.329V591.924H387.557V586.968ZM395.899 591.924H393.043V605H395.899V591.924ZM392.539 586.632C392.539 587.668 393.435 588.452 394.471 588.452C395.563 588.452 396.375 587.668 396.375 586.632C396.375 585.596 395.563 584.812 394.471 584.812C393.435 584.812 392.539 585.596 392.539 586.632ZM405.898 602.48C403.742 602.48 401.95 600.884 401.95 598.42C401.95 596.04 403.742 594.472 405.898 594.472C408.082 594.472 409.874 596.04 409.874 598.42C409.874 600.884 408.082 602.48 405.898 602.48ZM405.898 605.28C409.622 605.28 412.758 602.564 412.758 598.42C412.758 594.276 409.622 591.644 405.898 591.644C402.202 591.644 399.094 594.276 399.094 598.42C399.094 602.564 402.202 605.28 405.898 605.28ZM418.841 597.972C418.841 595.396 420.493 594.472 422.201 594.472C423.881 594.472 424.945 595.62 424.945 597.72V605H427.829V597.384C427.829 593.66 426.009 591.644 422.845 591.644C421.417 591.644 419.597 592.4 418.841 593.884V591.924H415.957V605H418.841V597.972Z" fill="white"/>
<defs>
<linearGradient id="paint0_linear_86_3844" x1="10" y1="122.68" x2="532.307" y2="704.267" gradientUnits="userSpaceOnUse">
<stop stop-color="#6F0E81"/>
<stop offset="1" stop-color="#9B204E"/>
</linearGradient>
<clipPath id="clip0_86_3844">
<rect width="128.758" height="109.409" fill="white" transform="translate(31.8364)"/>
</clipPath>
<clipPath id="clip1_86_3844">
<rect width="23.4105" height="27.3524" fill="white" transform="translate(28 132.676)"/>
</clipPath>
</defs>
</svg>
