<svg width="528" height="339" viewBox="0 0 528 339" fill="none" xmlns="http://www.w3.org/2000/svg">
<g filter="url(#filter0_f_86_2226)">
<ellipse cx="263.562" cy="231.64" rx="198.562" ry="42.3598" fill="#0070E2" fill-opacity="0.6"/>
</g>
<g opacity="0.2">
<path d="M518.439 217.007C517.701 217.765 517.019 218.575 516.4 219.433C514.935 221.539 514.163 224.049 514.193 226.614C514.222 229.18 515.051 231.672 516.564 233.744C517.207 234.584 517.907 235.377 518.661 236.119C518.403 235.979 518.163 235.808 517.945 235.611C517.354 235.095 516.817 234.52 516.342 233.894C514.743 231.809 513.862 229.262 513.831 226.635C513.8 224.007 514.621 221.44 516.171 219.318C516.627 218.678 517.153 218.09 517.738 217.565C517.945 217.348 518.181 217.16 518.439 217.007Z" fill="#F5F5F5"/>
<path d="M515.189 216.657C514.447 217.411 513.765 218.222 513.15 219.083C511.696 221.187 510.931 223.69 510.961 226.247C510.99 228.804 511.813 231.289 513.315 233.358C513.955 234.2 514.655 234.994 515.411 235.734C515.151 235.598 514.91 235.427 514.696 235.226C514.1 234.712 513.56 234.136 513.086 233.509C511.488 231.424 510.608 228.879 510.578 226.253C510.547 223.627 511.366 221.061 512.914 218.94C513.373 218.3 513.899 217.71 514.481 217.18C514.691 216.972 514.929 216.796 515.189 216.657Z" fill="#F5F5F5"/>
<path d="M516.127 200.03C515.806 199.764 515.547 199.432 515.368 199.057C514.87 198.177 514.568 197.201 514.481 196.194C514.394 195.189 514.521 194.177 514.853 193.225C514.965 192.825 515.163 192.453 515.433 192.137C515.349 192.534 515.234 192.924 515.089 193.304C514.574 195.18 514.752 197.179 515.59 198.935C515.796 199.286 515.976 199.652 516.127 200.03Z" fill="#E0E0E0"/>
<path d="M518.221 200.031C517.898 199.766 517.637 199.434 517.455 199.058C516.964 198.178 516.664 197.204 516.576 196.2C516.487 195.197 516.611 194.186 516.94 193.233C517.052 192.831 517.252 192.46 517.527 192.146C517.435 192.541 517.32 192.93 517.183 193.312C516.928 194.243 516.841 195.212 516.926 196.174C517.001 197.134 517.244 198.074 517.641 198.95C517.856 199.299 518.05 199.66 518.221 200.031Z" fill="#E0E0E0"/>
<path d="M291.945 14.3887H270.643V24.1417H291.945V14.3887Z" fill="#F5F5F5"/>
<path d="M291.944 24.1374C291.918 23.8998 291.906 23.6608 291.909 23.4218C291.909 22.9352 291.909 22.2841 291.873 21.4612C291.873 19.7438 291.823 17.3324 291.787 14.3772L291.944 14.5346L270.642 14.5918C270.449 14.785 270.9 14.3271 270.857 14.3772V16.9031C270.857 17.7474 270.857 18.5703 270.857 19.3861C270.857 21.0271 270.857 22.6037 270.857 24.1159L270.657 23.9084L285.891 24.0085L290.327 24.0658H291.529H291.959C291.832 24.0745 291.706 24.0745 291.579 24.0658H290.42L286.027 24.123L270.657 24.2232H270.42V24.0157C270.42 22.4987 270.42 20.9221 270.42 19.2859C270.42 18.4702 270.42 17.6473 270.42 16.8029V14.277L270.642 14.0552L291.944 14.1196H292.102V14.277C292.066 17.2752 292.037 19.7152 292.016 21.4326C292.016 22.234 292.016 22.8637 291.98 23.3574C291.986 23.6179 291.974 23.8785 291.944 24.1374Z" fill="#E0E0E0"/>
<path d="M422.648 23.6887C422.648 23.8954 422.586 24.0974 422.471 24.2692C422.357 24.441 422.194 24.5749 422.003 24.6539C421.812 24.733 421.602 24.7537 421.399 24.7134C421.196 24.6731 421.01 24.5736 420.864 24.4275C420.718 24.2814 420.618 24.0952 420.578 23.8926C420.538 23.6899 420.559 23.4799 420.638 23.289C420.717 23.0981 420.851 22.9349 421.022 22.8201C421.194 22.7053 421.396 22.644 421.603 22.644C421.88 22.644 422.146 22.7541 422.342 22.95C422.537 23.1459 422.648 23.4117 422.648 23.6887Z" fill="white"/>
<path d="M424.944 24.7335C425.521 24.7335 425.989 24.2657 425.989 23.6887C425.989 23.1118 425.521 22.644 424.944 22.644C424.367 22.644 423.899 23.1118 423.899 23.6887C423.899 24.2657 424.367 24.7335 424.944 24.7335Z" fill="white"/>
<path d="M428.281 24.7335C428.858 24.7335 429.326 24.2657 429.326 23.6887C429.326 23.1118 428.858 22.644 428.281 22.644C427.704 22.644 427.236 23.1118 427.236 23.6887C427.236 24.2657 427.704 24.7335 428.281 24.7335Z" fill="white"/>
</g>
<path d="M356.616 118.952L368.065 137.95C368.065 137.95 380.265 158.207 382.19 163.667C384.115 169.126 392.129 216.253 392.144 219.845C392.179 227.938 383.557 235.208 378.405 235.208C373.253 235.208 362.935 230.757 353.947 225.942C344.96 221.126 328.23 201.67 328.23 201.67L325.225 159.881L321.304 121.542L356.616 118.952Z" fill="url(#paint0_linear_86_2226)"/>
<path d="M353.661 207.396C353.631 207.327 353.61 207.255 353.597 207.181C353.561 207.024 353.511 206.816 353.454 206.559C353.332 205.979 353.153 205.17 352.939 204.133C352.495 201.986 351.865 198.967 351.092 195.217L348.416 181.979C347.923 179.489 347.393 176.87 346.856 174.158C346.274 171.357 345.839 168.526 345.554 165.679C345.432 164.212 345.382 162.752 345.404 161.314C345.425 159.876 345.518 158.452 345.59 157.092C345.661 155.733 345.726 154.359 345.704 153.035L345.618 152.062C345.621 151.746 345.6 151.43 345.554 151.117C345.448 150.49 345.299 149.871 345.11 149.264C344.383 146.98 343.424 144.777 342.248 142.688C341.182 140.699 340.102 138.91 339.071 137.271C337.039 134.008 335.386 131.368 334.37 129.472C333.869 128.513 333.483 127.776 333.268 127.254L333.01 126.66C332.953 126.524 332.932 126.452 332.932 126.452C332.975 126.513 333.014 126.578 333.046 126.645C333.118 126.788 333.218 126.982 333.332 127.218C333.576 127.733 333.976 128.463 334.492 129.4C335.543 131.275 337.232 133.887 339.293 137.135C340.309 138.767 341.44 140.549 342.52 142.538C343.715 144.641 344.691 146.861 345.432 149.164C345.623 149.786 345.776 150.419 345.89 151.06C345.961 151.383 346.007 151.711 346.026 152.04C346.026 152.377 346.091 152.713 346.112 153.042C346.112 154.38 346.112 155.747 346.005 157.128C345.898 158.509 345.847 159.912 345.819 161.335C345.79 162.759 345.855 164.198 345.976 165.629C346.25 168.465 346.668 171.286 347.228 174.08C347.758 176.791 348.28 179.403 348.767 181.901C349.747 186.909 350.634 191.374 351.372 195.153C352.109 198.931 352.688 201.958 353.096 204.09C353.289 205.127 353.439 205.943 353.547 206.53C353.597 206.788 353.633 207.002 353.654 207.16C353.67 207.237 353.672 207.317 353.661 207.396Z" fill="#263238"/>
<path d="M367.112 141.288C366.946 141.545 366.754 141.785 366.54 142.004C366.347 142.233 366.103 142.505 365.824 142.805C365.545 143.106 365.188 143.464 364.787 143.814C363.857 144.662 362.87 145.444 361.832 146.154C360.555 147.018 359.213 147.781 357.817 148.437C356.416 149.072 354.969 149.601 353.488 150.018C352.274 150.348 351.038 150.587 349.789 150.734C349.259 150.82 348.773 150.841 348.358 150.877C347.996 150.91 347.633 150.925 347.27 150.92C346.961 150.951 346.649 150.951 346.34 150.92C346.34 150.848 347.656 150.834 349.76 150.505C350.987 150.31 352.201 150.04 353.395 149.696C354.862 149.268 356.296 148.737 357.689 148.108C359.064 147.454 360.393 146.708 361.667 145.875C362.704 145.188 363.696 144.435 364.637 143.621C366.197 142.24 367.062 141.238 367.112 141.288Z" fill="#263238"/>
<g opacity="0.3">
<path opacity="0.3" d="M334.195 128.637C337.682 136.445 340.506 144.533 342.638 152.815C344.678 161.087 345.307 169.867 343.111 178.096C341.68 183.455 339.762 190.11 342.438 194.969C342.209 190.053 343.404 178.439 346.016 176.278C348.341 184.149 350.631 195.87 352.957 203.777C351.218 191.362 347.891 180.614 346.331 168.099C345.901 164.708 346.467 157.051 345.994 153.674C344.563 143.441 343.304 144.372 334.216 128.629" fill="black"/>
</g>
<path d="M346.984 174.411C347.042 174.411 346.412 175.563 345.603 177.467C344.554 179.946 343.77 182.529 343.264 185.173C342.766 187.819 342.553 190.51 342.627 193.202C342.684 195.262 342.856 196.536 342.784 196.55C342.698 196.261 342.641 195.964 342.612 195.663C342.483 194.85 342.4 194.031 342.362 193.209C342.063 187.761 343.092 182.322 345.36 177.359C345.804 176.415 346.19 175.671 346.491 175.17C346.626 174.899 346.792 174.644 346.984 174.411Z" fill="#263238"/>
<path d="M229.421 167.229C229.506 167.286 224.662 175.007 218.608 184.481C212.555 193.955 207.567 201.583 207.482 201.532C207.396 201.482 212.233 193.754 218.294 184.28C224.354 174.807 229.335 167.179 229.421 167.229Z" fill="#263238"/>
<path d="M215.475 119.696L255.396 112.333L298.408 113.192H309.063L331.853 128.297C331.853 128.297 336.146 189.355 327.109 208.833C324.125 215.273 312.318 235.222 312.318 235.222L223.124 235.552L200.227 215.795L208.763 179.223L215.475 119.696Z" fill="url(#paint1_linear_86_2226)"/>
<g opacity="0.3">
<path opacity="0.3" d="M279.865 212.367L279.393 212.295C275.034 215.694 271.875 220.398 270.377 225.719C276.302 225.461 281.532 221.383 284.688 216.36C287.844 211.336 289.203 205.433 290.413 199.63C287.264 204.188 284.094 208.818 279.865 212.367Z" fill="black"/>
</g>
<path d="M153.785 235.204C148.533 233.35 151.009 203.497 164.297 189.294C166.036 187.433 195.559 132.013 208.218 122.99C217.377 116.457 225.742 119.026 227.902 132.006C230.063 144.986 229.448 167.226 229.448 167.226L207.452 201.53L214.25 205.236L237.427 206.782L233.097 235.204H153.785Z" fill="url(#paint2_linear_86_2226)"/>
<path d="M233.126 235.203C233.126 235.203 233.126 235.16 233.126 235.074L233.169 234.695C233.219 234.337 233.283 233.843 233.369 233.214C233.555 231.897 233.827 230.015 234.164 227.654C234.879 222.867 235.881 216.119 237.026 208.191L237.176 208.384L219.423 206.094L214.221 205.414H214.185L210.557 203.346C209.355 202.702 208.275 201.915 207.101 201.307C204.896 200.108 202.584 199.114 200.196 198.338C198.042 197.66 195.842 197.139 193.613 196.778C191.679 196.492 189.729 196.337 187.774 196.313C184.96 196.265 182.148 196.519 179.388 197.071C178.408 197.228 177.67 197.45 177.162 197.558L176.583 197.686L176.39 197.722C176.39 197.722 176.447 197.722 176.576 197.658L177.148 197.493C177.649 197.357 178.386 197.121 179.359 196.935C182.122 196.326 184.945 196.028 187.774 196.048C189.742 196.056 191.708 196.199 193.656 196.477C195.905 196.818 198.125 197.33 200.296 198.008C202.707 198.784 205.041 199.783 207.266 200.992C208.461 201.579 209.541 202.423 210.743 203.032L214.371 205.071H214.3L219.502 205.744L237.255 208.069H237.427V208.241C236.189 216.162 235.144 222.903 234.4 227.683C234.02 230.044 233.684 231.919 233.505 233.228C233.398 233.858 233.312 234.344 233.255 234.702C233.255 234.852 233.198 234.981 233.183 235.081C233.169 235.182 233.133 235.21 233.126 235.203Z" fill="#263238"/>
<path d="M214.936 205.502C213.692 205.898 212.475 206.377 211.294 206.933C208.456 208.311 206.05 210.44 204.337 213.089C202.624 215.738 201.669 218.806 201.577 221.96C201.56 223.265 201.632 224.571 201.792 225.867C201.792 225.867 201.749 225.781 201.706 225.602C201.637 225.35 201.582 225.094 201.541 224.836C201.375 223.892 201.298 222.933 201.312 221.974C201.337 218.757 202.278 215.614 204.026 212.913C205.774 210.212 208.255 208.066 211.18 206.726C212.053 206.313 212.963 205.985 213.899 205.745C214.228 205.652 214.493 205.616 214.664 205.581C214.836 205.545 214.936 205.502 214.936 205.502Z" fill="#263238"/>
<g opacity="0.3">
<path opacity="0.3" d="M207.625 201.307C200.427 193.544 188.963 190.295 179.003 193.816C178.065 194.145 176.971 194.81 177.114 195.791C177.285 197.028 179.039 197.086 180.262 196.864C189.566 195.098 199.195 196.672 207.453 201.307" fill="black"/>
</g>
<path d="M230.558 152.369C230.558 152.369 230.623 151.875 230.744 151.009C230.918 149.782 230.997 148.543 230.98 147.303C230.958 143.203 229.84 139.184 227.743 135.662C225.645 132.139 222.645 129.241 219.052 127.267C217.97 126.663 216.843 126.141 215.682 125.707C215.246 125.569 214.818 125.407 214.401 125.221C214.518 125.228 214.634 125.252 214.744 125.292C215.076 125.366 215.404 125.459 215.725 125.571C216.918 125.951 218.072 126.443 219.174 127.038C222.86 128.979 225.938 131.9 228.068 135.48C230.198 139.06 231.298 143.159 231.245 147.324C231.237 148.575 231.117 149.823 230.887 151.052C230.816 151.489 230.716 151.818 230.665 152.047C230.645 152.159 230.609 152.267 230.558 152.369Z" fill="#263238"/>
<path d="M328.465 140.46C328.494 140.526 328.513 140.596 328.522 140.667L328.637 141.297C328.737 141.877 328.873 142.685 329.052 143.723C329.395 145.827 329.889 148.868 330.433 152.646C330.977 156.424 331.563 160.925 331.986 165.955C332.469 171.408 332.619 176.885 332.436 182.356C332.225 187.835 331.518 193.283 330.325 198.635C329.353 203.004 327.956 207.267 326.154 211.364C324.943 214.13 323.507 216.791 321.86 219.321C321.302 220.237 320.787 220.881 320.472 221.346C320.315 221.561 320.193 221.733 320.093 221.862C320.055 221.924 320.009 221.982 319.957 222.033C319.957 222.033 319.957 221.962 320.064 221.84L320.408 221.303C320.701 220.831 321.202 220.166 321.739 219.25C323.323 216.693 324.713 214.022 325.896 211.257C327.657 207.163 329.023 202.91 329.975 198.556C331.145 193.223 331.838 187.797 332.043 182.341C332.479 170.721 331.148 160.224 330.154 152.682C329.624 148.925 329.195 145.877 328.887 143.744C328.744 142.707 328.63 141.891 328.551 141.311L328.465 140.675C328.457 140.603 328.457 140.531 328.465 140.46Z" fill="#263238"/>
<path d="M351.794 232.811H252.217V239.88H351.794V232.811Z" fill="#EBEBEB"/>
<path d="M375.636 222.672L273.255 225.213L256.396 230.164L252.217 232.812H351.794L360.681 235.717L373.397 231.932L375.636 222.672Z" fill="white"/>
<path d="M351.791 232.812C351.791 232.812 362.847 234.515 367.183 232.812C371.519 231.109 375.605 222.672 375.605 222.672L376.092 235.717L351.763 239.881L351.791 232.812Z" fill="#E0E0E0"/>
<path d="M351.786 232.763C351.985 233.944 352.057 235.144 352.001 236.34C352.079 237.535 352.026 238.735 351.844 239.918C351.653 238.736 351.581 237.537 351.629 236.34C351.56 235.146 351.613 233.947 351.786 232.763Z" fill="#263238"/>
<path d="M375.16 224.103C375.153 224.196 375.131 224.288 375.095 224.374C375.024 224.617 374.94 224.856 374.845 225.09C374.481 225.989 374 226.836 373.414 227.609C371.436 230.164 368.697 232.023 365.593 232.918C362.505 233.764 359.279 233.985 356.105 233.569C354.888 233.426 353.915 233.254 353.242 233.111C352.891 233.058 352.546 232.969 352.212 232.847C352.565 232.863 352.916 232.904 353.264 232.968C353.936 233.061 354.917 233.197 356.126 233.305C359.263 233.651 362.437 233.408 365.485 232.589C368.518 231.709 371.213 229.93 373.213 227.487C373.995 226.441 374.648 225.304 375.16 224.103Z" fill="#263238"/>
<path d="M366.235 234.28C365.617 234.572 364.969 234.795 364.303 234.946C361.128 235.827 357.858 236.322 354.564 236.42C353.882 236.473 353.196 236.454 352.518 236.363C353.188 236.241 353.868 236.174 354.55 236.162C355.802 236.062 357.526 235.897 359.423 235.611C361.319 235.325 363 234.967 364.238 234.688C364.894 234.507 365.561 234.37 366.235 234.28Z" fill="#263238"/>
<path d="M365.821 237.094C365.174 237.256 364.512 237.354 363.846 237.387C362.615 237.509 360.912 237.631 359.023 237.688C357.134 237.745 355.445 237.724 354.2 237.688C353.53 237.698 352.861 237.638 352.204 237.509C352.866 237.43 353.533 237.403 354.2 237.43C355.438 237.43 357.134 237.394 359.016 237.337C360.898 237.28 362.593 237.201 363.824 237.144C364.487 237.066 365.155 237.049 365.821 237.094Z" fill="#263238"/>
<path d="M347.112 240.247C346.594 240.142 346.122 239.874 345.767 239.481C345.29 239.049 344.923 238.51 344.694 237.908C344.466 237.306 344.383 236.658 344.453 236.018C344.523 235.378 344.743 234.764 345.096 234.225C345.449 233.687 345.924 233.239 346.483 232.92C346.918 232.62 347.435 232.463 347.964 232.469C347.506 232.669 347.059 232.893 346.626 233.142C346.137 233.473 345.723 233.904 345.412 234.406C345.1 234.907 344.897 235.469 344.815 236.054C344.763 236.643 344.836 237.236 345.029 237.795C345.223 238.354 345.533 238.865 345.939 239.295C346.306 239.641 346.698 239.959 347.112 240.247Z" fill="#263238"/>
<path d="M346.147 240.56C345.659 240.452 345.214 240.203 344.866 239.845C343.933 239.075 343.336 237.972 343.202 236.77C343.069 235.568 343.409 234.361 344.15 233.405C344.419 232.994 344.795 232.665 345.238 232.453C345.281 232.503 344.837 232.832 344.365 233.555C343.737 234.488 343.465 235.615 343.596 236.732C343.727 237.849 344.254 238.882 345.081 239.644C345.66 240.288 346.175 240.51 346.147 240.56Z" fill="#263238"/>
<path d="M340.896 240.247C340.377 240.142 339.906 239.874 339.551 239.481C339.073 239.05 338.704 238.511 338.474 237.908C338.245 237.306 338.162 236.658 338.232 236.018C338.301 235.377 338.522 234.762 338.876 234.224C339.23 233.685 339.706 233.238 340.266 232.92C340.701 232.619 341.219 232.462 341.748 232.469C341.286 232.666 340.837 232.891 340.402 233.142C339.901 233.459 339.477 233.885 339.161 234.388C338.845 234.891 338.645 235.458 338.577 236.048C338.508 236.638 338.572 237.235 338.764 237.797C338.956 238.359 339.272 238.871 339.687 239.295C340.065 239.643 340.469 239.961 340.896 240.247Z" fill="#263238"/>
<path d="M339.929 240.56C339.442 240.452 338.996 240.203 338.648 239.845C337.715 239.075 337.118 237.972 336.985 236.77C336.851 235.568 337.191 234.361 337.933 233.405C338.201 232.991 338.58 232.661 339.027 232.453C339.063 232.503 338.62 232.832 338.147 233.555C337.52 234.488 337.247 235.615 337.378 236.732C337.509 237.849 338.036 238.882 338.863 239.644C339.45 240.288 339.958 240.51 339.929 240.56Z" fill="#263238"/>
<path d="M334.679 240.247C334.16 240.142 333.689 239.874 333.334 239.481C332.855 239.05 332.486 238.511 332.257 237.908C332.028 237.306 331.944 236.658 332.014 236.018C332.084 235.377 332.305 234.762 332.659 234.224C333.012 233.685 333.489 233.238 334.049 232.92C334.484 232.619 335.002 232.462 335.53 232.469C335.069 232.666 334.62 232.891 334.185 233.142C333.684 233.459 333.259 233.885 332.944 234.388C332.628 234.891 332.428 235.458 332.36 236.048C332.291 236.638 332.355 237.235 332.547 237.797C332.739 238.359 333.054 238.871 333.47 239.295C333.848 239.643 334.252 239.961 334.679 240.247Z" fill="#263238"/>
<path d="M333.712 240.56C333.225 240.45 332.78 240.202 332.431 239.845C331.498 239.075 330.901 237.972 330.767 236.77C330.634 235.568 330.974 234.361 331.715 233.405C331.983 232.991 332.363 232.661 332.81 232.453C332.846 232.503 332.402 232.832 331.93 233.555C331.302 234.488 331.03 235.615 331.161 236.732C331.292 237.849 331.819 238.882 332.646 239.644C333.232 240.288 333.74 240.51 333.712 240.56Z" fill="#263238"/>
<path d="M328.465 240.247C327.943 240.145 327.468 239.876 327.112 239.481C326.634 239.05 326.265 238.511 326.036 237.908C325.806 237.306 325.723 236.658 325.793 236.018C325.863 235.377 326.084 234.762 326.438 234.224C326.791 233.685 327.268 233.238 327.828 232.92C328.263 232.619 328.781 232.462 329.309 232.469C328.85 232.665 328.403 232.89 327.971 233.142C327.467 233.458 327.041 233.883 326.724 234.386C326.406 234.888 326.206 235.456 326.137 236.047C326.068 236.637 326.133 237.236 326.327 237.798C326.52 238.361 326.838 238.872 327.256 239.295C327.63 239.647 328.035 239.966 328.465 240.247Z" fill="#263238"/>
<path d="M327.494 240.56C327.009 240.451 326.566 240.202 326.22 239.845C325.285 239.076 324.687 237.973 324.554 236.77C324.42 235.567 324.761 234.36 325.505 233.405C325.773 232.991 326.152 232.661 326.6 232.453C326.643 232.503 326.192 232.832 325.719 233.555C325.092 234.488 324.819 235.615 324.95 236.732C325.081 237.849 325.608 238.882 326.435 239.644C327.015 240.288 327.523 240.51 327.494 240.56Z" fill="#263238"/>
<path d="M322.251 240.247C321.731 240.146 321.259 239.877 320.906 239.481C320.429 239.049 320.061 238.51 319.833 237.908C319.604 237.306 319.522 236.658 319.591 236.018C319.661 235.378 319.882 234.764 320.234 234.225C320.587 233.687 321.062 233.239 321.621 232.92C322.057 232.62 322.574 232.463 323.103 232.469C322.643 232.665 322.196 232.89 321.764 233.142C321.261 233.458 320.834 233.883 320.517 234.386C320.2 234.888 319.999 235.456 319.931 236.047C319.862 236.637 319.927 237.236 320.12 237.798C320.314 238.361 320.631 238.872 321.049 239.295C321.421 239.647 321.823 239.965 322.251 240.247Z" fill="#263238"/>
<path d="M321.275 240.561C320.79 240.452 320.347 240.203 320.001 239.845C319.074 239.074 318.479 237.974 318.341 236.776C318.218 235.577 318.552 234.375 319.278 233.413C319.548 233 319.927 232.671 320.373 232.461C320.416 232.511 319.965 232.84 319.493 233.563C318.861 234.492 318.582 235.617 318.707 236.733C318.832 237.85 319.352 238.885 320.173 239.652C320.795 240.289 321.303 240.511 321.275 240.561Z" fill="#263238"/>
<path d="M316.03 240.247C315.51 240.144 315.038 239.875 314.685 239.481C314.208 239.049 313.84 238.51 313.612 237.908C313.383 237.306 313.3 236.658 313.37 236.018C313.44 235.378 313.66 234.764 314.013 234.225C314.366 233.687 314.841 233.239 315.4 232.92C315.836 232.62 316.353 232.463 316.881 232.469C316.423 232.667 315.976 232.892 315.543 233.142C315.04 233.458 314.613 233.883 314.296 234.386C313.978 234.888 313.778 235.456 313.709 236.047C313.641 236.637 313.705 237.236 313.899 237.798C314.093 238.361 314.41 238.872 314.828 239.295C315.2 239.647 315.602 239.965 316.03 240.247Z" fill="#263238"/>
<path d="M315.054 240.56C314.569 240.451 314.126 240.202 313.78 239.845C312.848 239.074 312.253 237.971 312.119 236.77C311.986 235.568 312.325 234.361 313.065 233.405C313.335 232.993 313.714 232.663 314.159 232.453C314.202 232.503 313.752 232.832 313.279 233.555C312.647 234.484 312.369 235.609 312.493 236.725C312.618 237.842 313.138 238.878 313.959 239.644C314.575 240.288 315.083 240.51 315.054 240.56Z" fill="#263238"/>
<path d="M309.813 240.247C309.293 240.144 308.821 239.875 308.467 239.481C307.99 239.049 307.623 238.51 307.394 237.908C307.166 237.306 307.083 236.658 307.153 236.018C307.223 235.378 307.443 234.764 307.796 234.225C308.149 233.687 308.624 233.239 309.183 232.92C309.618 232.62 310.136 232.463 310.664 232.469C310.205 232.667 309.759 232.892 309.326 233.142C308.824 233.459 308.4 233.885 308.084 234.388C307.769 234.891 307.569 235.458 307.5 236.048C307.432 236.638 307.496 237.235 307.688 237.797C307.88 238.359 308.195 238.871 308.61 239.295C308.985 239.645 309.387 239.963 309.813 240.247Z" fill="#263238"/>
<path d="M308.837 240.56C308.351 240.451 307.909 240.202 307.563 239.845C306.631 239.074 306.036 237.971 305.902 236.77C305.769 235.568 306.108 234.361 306.847 233.405C307.117 232.993 307.496 232.663 307.942 232.453C307.985 232.503 307.534 232.832 307.062 233.555C306.448 234.492 306.173 235.61 306.282 236.725C306.409 237.834 306.914 238.865 307.713 239.644C308.343 240.288 308.872 240.51 308.837 240.56Z" fill="#263238"/>
<path d="M303.595 240.247C303.076 240.142 302.605 239.874 302.25 239.481C301.773 239.049 301.405 238.51 301.177 237.908C300.948 237.306 300.865 236.658 300.935 236.018C301.005 235.378 301.225 234.764 301.578 234.225C301.931 233.687 302.406 233.239 302.965 232.92C303.401 232.62 303.918 232.463 304.446 232.469C303.988 232.667 303.541 232.892 303.108 233.142C302.607 233.459 302.182 233.885 301.867 234.388C301.551 234.891 301.351 235.458 301.283 236.048C301.214 236.638 301.278 237.235 301.47 237.797C301.662 238.359 301.977 238.871 302.393 239.295C302.767 239.645 303.169 239.963 303.595 240.247Z" fill="#263238"/>
<path d="M302.618 240.56C302.131 240.452 301.685 240.203 301.337 239.845C300.406 239.074 299.81 237.971 299.676 236.77C299.543 235.568 299.882 234.361 300.622 233.405C300.892 232.993 301.271 232.663 301.717 232.453C301.76 232.503 301.309 232.832 300.836 233.555C300.21 234.489 299.938 235.615 300.069 236.732C300.201 237.848 300.726 238.881 301.552 239.644C302.139 240.288 302.654 240.51 302.618 240.56Z" fill="#263238"/>
<path d="M297.378 240.247C296.859 240.142 296.388 239.874 296.033 239.481C295.556 239.049 295.188 238.509 294.96 237.908C294.731 237.306 294.649 236.658 294.718 236.018C294.788 235.378 295.008 234.764 295.361 234.225C295.714 233.687 296.189 233.239 296.748 232.92C297.184 232.621 297.701 232.463 298.229 232.469C297.772 232.669 297.325 232.893 296.891 233.142C296.39 233.459 295.966 233.885 295.65 234.388C295.334 234.891 295.134 235.458 295.066 236.048C294.997 236.638 295.061 237.235 295.253 237.797C295.445 238.359 295.761 238.871 296.176 239.295C296.552 239.642 296.954 239.961 297.378 240.247Z" fill="#263238"/>
<path d="M296.408 240.56C295.92 240.452 295.475 240.203 295.127 239.845C294.193 239.075 293.597 237.972 293.463 236.77C293.329 235.568 293.67 234.361 294.411 233.405C294.68 232.994 295.056 232.665 295.499 232.453C295.542 232.503 295.098 232.832 294.626 233.555C293.994 234.484 293.715 235.609 293.84 236.725C293.964 237.842 294.484 238.878 295.306 239.644C295.928 240.288 296.436 240.51 296.408 240.56Z" fill="#263238"/>
<path d="M291.173 240.247C290.655 240.142 290.183 239.874 289.828 239.481C289.35 239.05 288.981 238.511 288.752 237.908C288.522 237.306 288.439 236.658 288.509 236.018C288.579 235.377 288.8 234.762 289.153 234.224C289.507 233.685 289.984 233.238 290.544 232.92C290.979 232.619 291.496 232.462 292.025 232.469C291.564 232.666 291.114 232.891 290.68 233.142C290.178 233.459 289.754 233.885 289.438 234.388C289.122 234.891 288.923 235.458 288.854 236.048C288.786 236.638 288.85 237.235 289.042 237.797C289.234 238.359 289.549 238.871 289.964 239.295C290.343 239.643 290.747 239.961 291.173 240.247Z" fill="#263238"/>
<path d="M290.19 240.56C289.703 240.45 289.259 240.202 288.909 239.845C287.976 239.075 287.379 237.972 287.246 236.77C287.112 235.568 287.452 234.361 288.194 233.405C288.462 232.991 288.841 232.661 289.289 232.453C289.289 232.503 288.881 232.832 288.409 233.555C287.781 234.488 287.508 235.615 287.639 236.732C287.771 237.849 288.297 238.882 289.124 239.644C289.74 240.288 290.219 240.51 290.19 240.56Z" fill="#263238"/>
<path d="M284.94 240.247C284.421 240.142 283.95 239.874 283.595 239.481C283.117 239.05 282.748 238.511 282.518 237.908C282.289 237.306 282.206 236.658 282.275 236.018C282.345 235.377 282.566 234.762 282.92 234.224C283.274 233.685 283.75 233.238 284.31 232.92C284.745 232.619 285.263 232.462 285.792 232.469C285.332 232.665 284.885 232.89 284.454 233.142C283.951 233.459 283.526 233.884 283.209 234.387C282.892 234.89 282.692 235.457 282.624 236.047C282.555 236.638 282.62 237.236 282.812 237.798C283.005 238.36 283.321 238.872 283.738 239.295C284.114 239.643 284.516 239.961 284.94 240.247Z" fill="#263238"/>
<path d="M283.973 240.56C283.486 240.45 283.041 240.202 282.692 239.845C281.759 239.075 281.162 237.972 281.028 236.77C280.895 235.568 281.235 234.361 281.977 233.405C282.245 232.991 282.624 232.661 283.071 232.453C283.114 232.503 282.664 232.832 282.191 233.555C281.564 234.488 281.291 235.615 281.422 236.732C281.553 237.849 282.08 238.882 282.907 239.644C283.494 240.288 284.016 240.51 283.973 240.56Z" fill="#263238"/>
<path d="M278.726 240.247C278.204 240.145 277.73 239.876 277.374 239.481C276.895 239.05 276.526 238.511 276.297 237.908C276.068 237.306 275.984 236.658 276.054 236.018C276.124 235.377 276.345 234.762 276.699 234.224C277.053 233.685 277.529 233.238 278.089 232.92C278.524 232.619 279.042 232.462 279.57 232.469C279.111 232.665 278.664 232.89 278.232 233.142C277.729 233.458 277.302 233.883 276.985 234.386C276.667 234.888 276.467 235.456 276.398 236.047C276.33 236.637 276.395 237.236 276.588 237.798C276.782 238.361 277.099 238.872 277.517 239.295C277.891 239.647 278.296 239.966 278.726 240.247Z" fill="#263238"/>
<path d="M277.755 240.561C277.269 240.452 276.827 240.203 276.481 239.845C275.554 239.072 274.957 237.974 274.814 236.776C274.696 235.576 275.033 234.376 275.758 233.413C276.026 232.999 276.406 232.669 276.853 232.461C276.896 232.511 276.445 232.84 275.973 233.563C275.345 234.496 275.072 235.623 275.204 236.74C275.335 237.857 275.861 238.89 276.688 239.652C277.275 240.289 277.783 240.511 277.755 240.561Z" fill="#263238"/>
<path d="M272.509 240.247C271.979 240.151 271.495 239.882 271.135 239.481C270.658 239.049 270.291 238.51 270.062 237.908C269.834 237.306 269.751 236.658 269.821 236.018C269.891 235.378 270.111 234.764 270.464 234.225C270.817 233.687 271.292 233.239 271.851 232.92C272.286 232.62 272.804 232.463 273.332 232.469C272.873 232.665 272.426 232.89 271.994 233.142C271.49 233.458 271.064 233.883 270.747 234.386C270.429 234.888 270.229 235.456 270.16 236.047C270.091 236.637 270.156 237.236 270.35 237.798C270.543 238.361 270.861 238.872 271.278 239.295C271.66 239.648 272.072 239.967 272.509 240.247Z" fill="#263238"/>
<path d="M271.536 240.561C271.051 240.452 270.608 240.203 270.262 239.845C269.335 239.074 268.741 237.974 268.602 236.776C268.479 235.577 268.814 234.375 269.54 233.413C269.81 233 270.189 232.671 270.634 232.461C270.677 232.511 270.227 232.84 269.754 233.563C269.127 234.496 268.854 235.623 268.985 236.74C269.116 237.857 269.643 238.89 270.47 239.652C271.057 240.289 271.565 240.511 271.536 240.561Z" fill="#263238"/>
<path d="M266.291 240.247C265.772 240.144 265.3 239.875 264.946 239.481C264.469 239.049 264.101 238.51 263.873 237.908C263.644 237.306 263.562 236.658 263.631 236.018C263.701 235.378 263.922 234.764 264.274 234.225C264.627 233.687 265.102 233.239 265.661 232.92C266.097 232.62 266.614 232.463 267.143 232.469C266.684 232.667 266.237 232.892 265.804 233.142C265.303 233.459 264.879 233.885 264.563 234.388C264.247 234.891 264.048 235.458 263.979 236.048C263.91 236.638 263.974 237.235 264.167 237.797C264.359 238.359 264.674 238.871 265.089 239.295C265.463 239.645 265.865 239.963 266.291 240.247Z" fill="#263238"/>
<path d="M265.319 240.56C264.834 240.451 264.391 240.202 264.045 239.845C263.114 239.074 262.518 237.971 262.384 236.77C262.251 235.568 262.59 234.361 263.33 233.405C263.6 232.993 263.979 232.663 264.425 232.453C264.468 232.503 264.017 232.832 263.544 233.555C262.921 234.49 262.651 235.616 262.782 236.731C262.913 237.847 263.437 238.88 264.26 239.644C264.84 240.288 265.348 240.51 265.319 240.56Z" fill="#263238"/>
<path d="M260.074 240.247C259.554 240.144 259.082 239.875 258.729 239.481C258.252 239.049 257.884 238.51 257.656 237.908C257.427 237.306 257.344 236.658 257.414 236.018C257.484 235.378 257.704 234.764 258.057 234.225C258.41 233.687 258.885 233.239 259.444 232.92C259.88 232.62 260.397 232.463 260.925 232.469C260.467 232.667 260.02 232.892 259.587 233.142C259.086 233.459 258.661 233.885 258.346 234.388C258.03 234.891 257.83 235.458 257.762 236.048C257.693 236.638 257.757 237.235 257.949 237.797C258.141 238.359 258.456 238.871 258.872 239.295C259.246 239.645 259.648 239.963 260.074 240.247Z" fill="#263238"/>
<path d="M259.098 240.56C258.613 240.451 258.17 240.202 257.824 239.845C256.892 239.074 256.297 237.971 256.163 236.77C256.03 235.568 256.369 234.361 257.109 233.405C257.379 232.993 257.758 232.663 258.203 232.453C258.246 232.503 257.796 232.832 257.323 233.555C256.709 234.492 256.434 235.61 256.543 236.725C256.679 237.839 257.198 238.871 258.01 239.644C258.618 240.288 259.134 240.51 259.098 240.56Z" fill="#263238"/>
<path d="M253.855 240.247C253.344 240.138 252.88 239.87 252.531 239.481C252.054 239.049 251.686 238.51 251.458 237.908C251.229 237.306 251.147 236.658 251.216 236.018C251.286 235.378 251.507 234.764 251.859 234.225C252.212 233.687 252.687 233.239 253.246 232.92C253.682 232.62 254.199 232.463 254.728 232.469C254.269 232.667 253.822 232.892 253.389 233.142C252.888 233.459 252.464 233.885 252.148 234.388C251.832 234.891 251.633 235.458 251.564 236.048C251.495 236.638 251.559 237.235 251.751 237.797C251.944 238.359 252.259 238.871 252.674 239.295C253.041 239.644 253.436 239.962 253.855 240.247Z" fill="#263238"/>
<path d="M252.887 240.56C252.4 240.452 251.954 240.203 251.606 239.845C250.675 239.074 250.079 237.971 249.945 236.77C249.812 235.568 250.151 234.361 250.891 233.405C251.161 232.993 251.54 232.663 251.986 232.453C252.029 232.503 251.585 232.832 251.113 233.555C250.485 234.488 250.212 235.615 250.343 236.732C250.475 237.849 251.001 238.882 251.828 239.644C252.401 240.288 252.916 240.51 252.887 240.56Z" fill="#263238"/>
<path d="M237.941 185.237C246.714 193.681 277.712 223.355 277.712 223.355L283.973 225.659L282.034 219.183L242.385 180.643C242.082 180.348 241.723 180.115 241.329 179.959C240.935 179.804 240.515 179.727 240.091 179.735C239.668 179.743 239.25 179.835 238.863 180.006C238.475 180.177 238.126 180.422 237.834 180.729C237.251 181.342 236.935 182.16 236.955 183.005C236.975 183.851 237.33 184.653 237.941 185.237Z" fill="#0070E2"/>
<path d="M281.419 215.171L272.117 203.35L254.028 198.542L237.205 209.382L233.756 231.614C233.756 231.614 237.462 231.614 239.266 231.486C240.446 231.4 249.527 230.219 249.527 230.219C249.527 230.219 257.062 230.126 260.46 229.396C263.859 228.666 265.111 227.149 267.516 227.149C269.92 227.149 270.55 224.373 270.55 224.373C272.082 223.872 273.556 223.205 274.943 222.384C276.718 221.239 276.718 218.52 276.718 218.52C276.718 218.52 277.662 218.935 280.067 218.52C282.471 218.105 281.419 215.171 281.419 215.171Z" fill="#FFBE9D"/>
<path d="M276.946 217.922C276.735 217.743 276.548 217.539 276.388 217.313L274.957 215.596C273.424 213.686 271.533 212.094 269.39 210.909C267.174 209.854 264.824 209.108 262.406 208.691L260.209 208.269C259.933 208.233 259.662 208.168 259.4 208.076C259.678 208.057 259.957 208.074 260.23 208.126C260.753 208.183 261.518 208.283 262.456 208.433C264.921 208.777 267.318 209.501 269.561 210.58C271.751 211.782 273.661 213.436 275.164 215.431C275.758 216.147 276.209 216.791 276.516 217.227C276.682 217.444 276.825 217.677 276.946 217.922Z" fill="#FC7A42"/>
<path d="M271.717 222.884C271.444 222.183 271.004 221.56 270.436 221.067C269.384 220.144 267.466 219.593 265.47 218.777C263.474 217.961 261.635 217.246 260.325 216.695C259.601 216.434 258.899 216.113 258.229 215.736C258.977 215.912 259.71 216.151 260.418 216.451C261.749 216.938 263.588 217.632 265.606 218.426C266.608 218.827 267.567 219.199 268.468 219.564C269.255 219.872 269.981 220.315 270.615 220.874C271.046 221.255 271.382 221.733 271.595 222.269C271.692 222.459 271.734 222.672 271.717 222.884Z" fill="#FC7A42"/>
<path d="M266.516 226.522C265.973 226.51 265.435 226.428 264.913 226.279C263.933 226.079 262.587 225.742 261.121 225.306C259.654 224.869 258.351 224.404 257.421 224.039C256.898 223.866 256.401 223.626 255.94 223.324C256.476 223.41 257.002 223.554 257.507 223.753C258.459 224.061 259.768 224.469 261.228 224.912C262.688 225.356 264.011 225.721 264.977 225.993C265.508 226.112 266.024 226.29 266.516 226.522Z" fill="#FC7A42"/>
<path d="M288.932 225.652C288.558 225.977 288.145 226.253 287.701 226.475C286.914 226.933 285.812 227.548 284.567 228.178C283.322 228.807 282.184 229.351 281.347 229.716C280.911 229.95 280.443 230.121 279.959 230.224C281.394 229.353 282.875 228.56 284.395 227.849C285.864 227.03 287.379 226.297 288.932 225.652Z" fill="#263238"/>
<path d="M293.942 225.223C292.438 226.284 290.863 227.24 289.227 228.085C287.654 229.042 286.016 229.888 284.325 230.618C285.832 229.561 287.408 228.605 289.041 227.756C290.618 226.806 292.255 225.96 293.942 225.223Z" fill="#263238"/>
<path d="M295.724 225.533C294.63 226.491 293.457 227.355 292.217 228.116C291.043 228.975 289.798 229.734 288.497 230.384C289.592 229.425 290.767 228.56 292.01 227.801C293.181 226.941 294.424 226.182 295.724 225.533Z" fill="#263238"/>
<path d="M304.765 225.223C303.284 226.35 301.731 227.377 300.114 228.3C298.563 229.326 296.945 230.246 295.27 231.054C296.752 229.929 298.305 228.901 299.921 227.978C301.474 226.955 303.093 226.035 304.765 225.223Z" fill="#263238"/>
<path d="M307.938 225.374C307.981 225.474 305.898 226.497 303.473 228.014C301.047 229.531 299.215 230.941 299.144 230.876C299.467 230.479 299.845 230.129 300.267 229.839C301.229 229.066 302.235 228.349 303.279 227.692C304.321 227.041 305.401 226.453 306.514 225.932C306.961 225.682 307.44 225.494 307.938 225.374Z" fill="#263238"/>
<path d="M311.322 224.96C309.991 226.057 308.585 227.059 307.114 227.959C305.71 228.961 304.234 229.86 302.699 230.649C304.032 229.56 305.44 228.568 306.914 227.68C308.315 226.668 309.788 225.759 311.322 224.96Z" fill="#263238"/>
<path d="M315.939 224.373C314.523 225.542 313.029 226.613 311.467 227.578C309.973 228.637 308.41 229.593 306.787 230.44C308.205 229.274 309.699 228.203 311.259 227.235C312.753 226.176 314.316 225.22 315.939 224.373Z" fill="#263238"/>
<path d="M321.797 224.206C321.854 224.299 319.994 225.472 317.868 227.139C315.743 228.807 314.148 230.316 314.069 230.238C314.334 229.833 314.655 229.467 315.021 229.15C315.845 228.329 316.72 227.559 317.639 226.846C318.553 226.129 319.509 225.467 320.502 224.864C320.897 224.579 321.334 224.357 321.797 224.206Z" fill="#263238"/>
<path d="M324.395 224.714C324.459 224.8 322.771 226.038 320.817 227.684C318.864 229.33 317.318 230.761 317.239 230.689C319.272 228.31 321.691 226.29 324.395 224.714Z" fill="#263238"/>
<path d="M329.961 224.714C330.025 224.8 328.336 226.038 326.383 227.684C324.429 229.33 322.884 230.761 322.805 230.689C323.781 229.462 324.9 228.357 326.14 227.398C327.298 226.35 328.582 225.449 329.961 224.714Z" fill="#263238"/>
<path d="M334.156 224.714C334.22 224.8 332.532 226.038 330.578 227.684C328.625 229.33 327.079 230.761 327 230.689C327.976 229.462 329.095 228.357 330.335 227.398C331.494 226.35 332.777 225.449 334.156 224.714Z" fill="#263238"/>
<path d="M336.317 224.714C336.374 224.8 334.693 226.038 332.739 227.684C330.786 229.33 329.247 230.761 329.162 230.689C331.194 228.31 333.613 226.29 336.317 224.714Z" fill="#263238"/>
<path d="M343.953 224.492C344.017 224.578 342.329 225.815 340.375 227.461C338.422 229.107 336.883 230.545 336.797 230.467C337.77 229.237 338.89 228.132 340.132 227.175C341.289 226.125 342.573 225.224 343.953 224.492Z" fill="#263238"/>
<path d="M351.584 224.285C351.649 224.378 349.96 225.609 348.006 227.262C346.053 228.915 344.507 230.339 344.429 230.26C345.405 229.036 346.525 227.934 347.763 226.976C348.923 225.927 350.206 225.024 351.584 224.285Z" fill="#263238"/>
<path d="M359.22 224.103C359.284 224.188 357.596 225.426 355.642 227.072C353.689 228.718 352.143 230.149 352.064 230.077C353.04 228.85 354.159 227.745 355.399 226.786C356.558 225.738 357.841 224.837 359.22 224.103Z" fill="#263238"/>
<path d="M366.856 223.856C366.92 223.942 365.231 225.18 363.278 226.826C361.325 228.471 359.779 229.91 359.7 229.831C361.73 227.448 364.15 225.428 366.856 223.856Z" fill="#263238"/>
<path d="M321.647 39.4092C321.647 39.4092 324.888 71.7022 325.289 93.6411L326.72 119.537C326.72 119.537 311.529 114.707 296.173 115.423L283.765 83.6162L321.647 39.4092Z" fill="#263238"/>
<path d="M235.808 45.0446C238.742 31.4491 241.747 17.324 252.803 8.90907C262.656 1.40289 273.783 -0.579192 286.162 0.136363C292.251 0.472674 299.085 3.38498 304.351 6.46187C311.564 10.6836 314.527 19.0771 317.947 26.7192C324.759 42.0178 323.578 62.5829 318.734 68.2214L254.742 100.858C243.586 94.8473 236.102 92.0065 233.275 79.6489C231.365 71.2339 233.984 53.481 235.808 45.0446Z" fill="#263238"/>
<path d="M253.999 21.4744L294.134 10.2474C307.014 8.55867 316.038 24.2723 317.182 37.231C318.456 51.6351 319.436 69.2664 317.998 80.0713C315.136 101.796 298.585 104.965 298.585 104.965C298.585 104.965 298.542 105.295 298.585 111.727L298.964 126.196C293.956 143.856 276.131 142.067 252.532 113.667L247.695 34.4832C247.373 28.2651 250.078 21.9896 253.999 21.4744Z" fill="#FFBE9D"/>
<path d="M313.551 55.03C313.573 55.7529 313.313 56.4559 312.825 56.9901C312.338 57.5244 311.661 57.8479 310.94 57.8922C310.587 57.9296 310.231 57.8959 309.892 57.793C309.552 57.6901 309.237 57.5202 308.965 57.2933C308.693 57.0665 308.469 56.7872 308.307 56.4722C308.144 56.1571 308.047 55.8127 308.02 55.4593C307.996 54.7371 308.255 54.0341 308.742 53.4996C309.228 52.9652 309.903 52.6414 310.625 52.5971C310.977 52.5607 311.334 52.5951 311.673 52.6982C312.012 52.8014 312.327 52.9713 312.6 53.1979C312.872 53.4245 313.097 53.7033 313.26 54.0179C313.424 54.3325 313.523 54.6766 313.551 55.03Z" fill="#263238"/>
<path d="M313.653 50.225C313.317 50.597 311.177 49.0944 308.186 49.1731C305.195 49.2518 303.048 50.8046 302.719 50.4468C302.555 50.2894 302.891 49.631 303.828 48.9083C305.102 47.9946 306.626 47.4949 308.193 47.4772C309.746 47.4319 311.273 47.8831 312.551 48.7652C313.488 49.4092 313.818 50.0604 313.653 50.225Z" fill="#263238"/>
<path d="M285.318 55.0307C285.343 55.7534 285.085 56.4574 284.598 56.9923C284.112 57.5271 283.435 57.8504 282.713 57.8929C282.361 57.9303 282.004 57.8966 281.665 57.7937C281.326 57.6909 281.011 57.5209 280.739 57.294C280.467 57.0672 280.243 56.7879 280.08 56.4729C279.918 56.1578 279.82 55.8134 279.794 55.46C279.768 54.7373 280.026 54.0333 280.513 53.4984C281 52.9636 281.676 52.6403 282.398 52.5978C282.751 52.5604 283.107 52.5941 283.446 52.697C283.785 52.7999 284.1 52.9698 284.373 53.1966C284.645 53.4235 284.869 53.7028 285.031 54.0178C285.194 54.3329 285.291 54.6773 285.318 55.0307Z" fill="#263238"/>
<path d="M284.287 50.1615C283.95 50.5336 281.804 49.0309 278.82 49.1096C275.836 49.1883 273.682 50.7411 273.353 50.3833C273.189 50.2259 273.518 49.5676 274.462 48.8449C275.734 47.9273 277.259 47.4272 278.827 47.4138C280.38 47.3684 281.906 47.8196 283.185 48.7017C284.122 49.3457 284.451 49.9969 284.287 50.1615Z" fill="#263238"/>
<path d="M295.637 69.6794C295.637 69.5077 297.469 69.1427 300.467 68.6776C301.225 68.5846 301.948 68.4129 302.062 67.8905C302.177 67.3682 301.891 66.5167 301.497 65.6437L299.093 59.9192C295.751 51.7261 293.318 44.9856 293.647 44.8926C293.977 44.7996 296.953 51.2897 300.295 59.4828C301.096 61.5006 301.869 63.4255 302.599 65.2716C302.914 66.1303 303.429 67.0963 303.071 68.2483C302.969 68.5209 302.805 68.7664 302.593 68.9661C302.381 69.1658 302.126 69.3143 301.848 69.4004C301.427 69.524 300.991 69.5937 300.553 69.6079C297.533 69.7868 295.651 69.844 295.637 69.6794Z" fill="#263238"/>
<path d="M298.585 104.966C288.4 105.38 278.3 102.958 269.412 97.9678C269.412 97.9678 276.954 112.93 298.563 110.361L298.585 104.966Z" fill="#FC7A42"/>
<path d="M285.911 75.4985C286.328 74.8241 286.906 74.2637 287.593 73.8678C288.28 73.4719 289.054 73.2528 289.847 73.2302C290.952 73.124 292.066 73.3155 293.072 73.7848C294.079 74.2541 294.942 74.9842 295.571 75.8992C296.093 76.5003 296.093 78.2176 295.893 78.697C295.693 79.1764 295.893 78.9403 295.492 79.2766C294.19 80.4859 292.809 81.7024 291.099 82.1389C290.19 82.3932 289.226 82.3674 288.332 82.0648C287.439 81.7622 286.657 81.197 286.09 80.443C285.611 79.7138 285.341 78.8674 285.31 77.9957C285.278 77.124 285.486 76.2603 285.911 75.4985Z" fill="#FC7A42"/>
<path d="M286.366 72.0815C286.852 72.0385 286.96 75.28 289.8 77.4982C292.641 79.7164 296.083 79.2442 296.126 79.7021C296.176 79.9025 295.41 80.3533 293.922 80.4177C292.023 80.5043 290.155 79.9162 288.648 78.7576C287.2 77.6479 286.241 76.0184 285.972 74.2138C285.808 72.8829 286.165 72.0672 286.366 72.0815Z" fill="#263238"/>
<path d="M285.569 39.2454C285.347 40.0826 282.342 39.961 278.886 40.6765C275.43 41.3921 272.682 42.5727 272.152 41.8858C271.916 41.5566 272.346 40.7481 273.419 39.8751C274.86 38.7891 276.53 38.045 278.302 37.6992C280.073 37.3533 281.9 37.4147 283.644 37.8787C284.968 38.2722 285.669 38.8518 285.569 39.2454Z" fill="#263238"/>
<path d="M313.52 42.1931C312.804 42.7656 310.657 41.7137 307.953 41.2415C305.248 40.7692 302.836 40.8908 302.414 40.1037C302.235 39.7316 302.708 39.1163 303.845 38.6726C305.35 38.1041 306.985 37.9726 308.561 38.2934C310.142 38.5588 311.612 39.2742 312.797 40.3542C313.627 41.1627 313.827 41.9069 313.52 42.1931Z" fill="#263238"/>
<path d="M293.609 7.90527C293.645 8.0627 293.667 8.22012 293.702 8.37754H293.624C293.624 8.24159 293.617 8.07701 293.609 7.90527Z" fill="#263238"/>
<path d="M251.403 113.078C251.768 113.264 252.555 135.439 255.431 144.949C256.454 148.334 267.238 148.284 267.238 148.284C268.504 148.284 265.979 105.73 265.413 96.1912C265.048 90.152 258.172 81.3793 256.655 75.5189C254.236 66.1451 257.836 60.3276 259.259 50.6962C264.683 50.1023 272.633 46.4458 276.297 42.2956C280.705 37.2867 283.417 31.0686 286.064 24.9506C285.811 31.0282 283.67 36.876 279.939 41.6802C282.329 42.2169 284.884 41.2223 286.708 39.5837C288.469 37.8608 289.847 35.7858 290.751 33.4943C293.172 28.05 294.555 22.2015 294.83 16.2494C295.519 24.7868 294.435 33.3745 291.646 41.4727C293.17 41.0291 294.78 41.4727 296.347 41.7232C297.914 41.9736 299.71 41.9522 300.833 40.8359C301.517 40.0205 301.956 39.0282 302.1 37.9737C303.695 30.7517 304.046 23.3104 303.137 15.9704C305.005 19.9488 306.865 23.9703 307.924 28.2421C308.983 32.514 309.205 37.0792 307.831 41.2581C308.44 42.0595 309.763 41.9736 310.515 41.2581C311.209 40.5192 311.637 39.5699 311.731 38.5604C312.354 34.9326 311.731 31.2188 311.173 27.591C313.284 31.455 313.935 35.9129 315.073 40.1704C316.211 44.428 318.05 48.7929 321.699 51.2615C322.4 45.7376 322.299 40.1413 321.398 34.6463C320.733 30.1026 318.643 25.5731 316.719 21.4014C314.572 16.736 311.531 12.1493 308.132 9.0724C301.842 3.39805 299.137 5.76653 295.037 7.83448L294.558 8.02768C294.558 7.92751 294.558 7.82733 294.558 7.72715L294.386 6.86133C283.753 4.31913 272.632 4.67995 262.186 7.90604C254.48 10.296 244.927 18.0526 240.92 25.0794C240.848 25.2082 240.762 25.337 240.691 25.4801C232.104 42.5675 221.643 84.4704 222.323 118.445L232.634 116.542L251.403 113.078Z" fill="#263238"/>
<path d="M257.128 61.7533C257.128 61.7533 257.128 61.6746 257.128 61.5243C257.128 61.3741 257.128 61.1236 257.078 60.8446C257.063 60.4769 257.02 60.1108 256.949 59.7498C256.88 59.252 256.777 58.7596 256.641 58.2757C256.3 56.9439 255.763 55.6704 255.045 54.4976C254.107 52.9398 252.878 51.577 251.425 50.4833C249.672 49.1498 247.63 48.2477 245.464 47.8501C242.975 47.3924 240.408 47.6074 238.029 48.4726C236.745 48.9275 235.539 49.5766 234.452 50.3975C233.888 50.8177 233.353 51.2742 232.849 51.7642C232.348 52.2771 231.884 52.8247 231.461 53.4028C229.685 55.8257 228.723 58.7493 228.713 61.7533C228.729 63.2666 228.97 64.7691 229.429 66.2112C229.889 67.6081 230.57 68.9223 231.446 70.1038C232.274 71.2608 233.284 72.2758 234.437 73.1092C235.525 73.93 236.731 74.5792 238.015 75.034C240.238 75.8466 242.629 76.0884 244.969 75.7371C247.31 75.3858 249.524 74.4527 251.41 73.0233C252.867 71.9331 254.096 70.5696 255.031 69.009C255.741 67.842 256.274 66.576 256.612 65.2524C256.748 64.7685 256.851 64.2761 256.92 63.7783C256.991 63.4173 257.034 63.0512 257.049 62.6835C257.049 62.4045 257.085 62.1827 257.099 62.0038C257.113 61.8249 257.099 61.7748 257.099 61.7748C257.11 61.8531 257.11 61.9326 257.099 62.0109C257.099 62.1826 257.099 62.4045 257.099 62.6907C257.102 63.0601 257.071 63.429 257.006 63.7927C256.954 64.2974 256.863 64.7974 256.734 65.2882C256.417 66.6444 255.89 67.9432 255.174 69.1378C254.137 70.8998 252.738 72.4215 251.069 73.602C249.4 74.7826 247.499 75.5951 245.493 75.9857C242.949 76.4694 240.321 76.2593 237.886 75.3775C236.57 74.9148 235.332 74.2537 234.216 73.4169C233.638 72.9875 233.088 72.5214 232.57 72.0215C232.055 71.4942 231.577 70.9324 231.139 70.34C230.235 69.1302 229.534 67.7817 229.064 66.3472C228.063 63.3809 228.063 60.1686 229.064 57.2024C229.534 55.7678 230.235 54.4193 231.139 53.2096C231.579 52.6186 232.057 52.0569 232.57 51.528C233.088 51.0282 233.638 50.5621 234.216 50.1327C235.333 49.2973 236.571 48.6362 237.886 48.1721C240.32 47.2974 242.943 47.0875 245.486 47.5639C247.697 47.9844 249.779 48.9209 251.561 50.2973C253.03 51.4179 254.265 52.8158 255.196 54.4117C255.912 55.6064 256.438 56.9051 256.756 58.2614C256.885 58.7521 256.976 59.2522 257.027 59.7569C257.092 60.1206 257.124 60.4895 257.121 60.8589C257.121 61.1451 257.121 61.3669 257.121 61.5744C257.129 61.6336 257.132 61.6936 257.128 61.7533Z" fill="#263238"/>
<path d="M247.42 55.874C247.492 55.9456 244.937 58.6146 241.696 61.8418C238.454 65.0689 235.8 67.6163 235.728 67.5662C235.656 67.5161 238.204 64.8185 241.452 61.5985C244.701 58.3785 247.349 55.8025 247.42 55.874Z" fill="#263238"/>
<path d="M245.175 60.9575C244.555 61.8262 243.834 62.6187 243.029 63.3189C242.308 64.1077 241.499 64.8112 240.617 65.4154C241.957 63.7585 243.484 62.2626 245.168 60.9575H245.175Z" fill="#263238"/>
<path d="M292.338 54.6188C292.265 53.5924 292.111 52.5732 291.88 51.5706C291.571 50.4032 291.088 49.2888 290.449 48.2647C289.625 46.8983 288.547 45.703 287.272 44.7442C285.735 43.5766 283.946 42.7873 282.048 42.4401C279.869 42.0437 277.625 42.2339 275.544 42.9911C274.418 43.3877 273.36 43.9575 272.409 44.6798C271.401 45.4066 270.519 46.2937 269.798 47.3059C268.236 49.4241 267.393 51.9869 267.393 54.6188C267.393 57.2508 268.236 59.8135 269.798 61.9318C270.519 62.944 271.401 63.8311 272.409 64.5579C273.36 65.2802 274.418 65.8499 275.544 66.2466C277.625 67.0038 279.869 67.1939 282.048 66.7976C283.946 66.4504 285.735 65.661 287.272 64.4935C288.551 63.5311 289.632 62.3309 290.456 60.9587C291.096 59.9345 291.578 58.8202 291.887 57.6528C292.118 56.6501 292.271 55.6309 292.345 54.6045C292.355 54.6709 292.355 54.7385 292.345 54.8049C292.345 54.9623 292.345 55.1627 292.345 55.406C292.346 55.732 292.32 56.0575 292.266 56.3791C292.217 56.821 292.136 57.2586 292.023 57.6886C291.744 58.8771 291.286 60.0161 290.663 61.066C289.753 62.6182 288.522 63.9582 287.053 64.996C285.583 66.0339 283.908 66.7457 282.141 67.0838C279.906 67.5091 277.598 67.3262 275.458 66.5543C274.302 66.1487 273.216 65.567 272.238 64.8298C271.192 64.0897 270.28 63.1775 269.54 62.1322C267.934 59.9564 267.067 57.3232 267.067 54.6188C267.067 51.9145 267.934 49.2813 269.54 47.1055C269.922 46.5872 270.338 46.0948 270.785 45.6315C271.234 45.1913 271.712 44.7824 272.216 44.4079C273.193 43.668 274.279 43.0861 275.436 42.6834C277.434 41.96 279.583 41.7519 281.683 42.0783C283.782 42.4047 285.766 43.2551 287.45 44.551C288.74 45.5384 289.824 46.7684 290.642 48.1717C291.266 49.221 291.724 50.3602 292.001 51.5491C292.114 51.9791 292.196 52.4167 292.245 52.8586C292.299 53.1801 292.325 53.5057 292.323 53.8317C292.323 54.075 292.323 54.2754 292.323 54.4256C292.337 54.489 292.342 54.5541 292.338 54.6188Z" fill="url(#paint3_linear_86_2226)"/>
<path d="M324.803 54.6182C324.724 53.5919 324.569 52.5729 324.338 51.5699C324.029 50.4026 323.546 49.2882 322.907 48.2641C322.084 46.8993 321.008 45.7044 319.737 44.7435C318.197 43.5773 316.406 42.7881 314.506 42.4394C312.327 42.0431 310.083 42.2332 308.002 42.9904C306.876 43.3871 305.818 43.9568 304.868 44.6791C303.859 45.406 302.977 46.2931 302.256 47.3052C300.694 49.4235 299.851 51.9863 299.851 54.6182C299.851 57.2501 300.694 59.8129 302.256 61.9312C302.626 62.4352 303.03 62.9133 303.465 63.3623C303.916 63.7907 304.394 64.1899 304.896 64.5572C305.847 65.2795 306.904 65.8493 308.03 66.246C310.111 67.0031 312.356 67.1933 314.535 66.7969C316.434 66.4482 318.226 65.6591 319.765 64.4929C321.037 63.532 322.113 62.337 322.935 60.9723C323.575 59.9482 324.057 58.8338 324.366 57.6664C324.597 56.6633 324.752 55.6444 324.832 54.6182C324.839 54.6848 324.839 54.752 324.832 54.8185C324.832 54.976 324.832 55.1763 324.832 55.4196C324.833 55.7456 324.806 56.0712 324.753 56.3928C324.707 56.8345 324.628 57.2722 324.517 57.7022C324.239 58.892 323.778 60.0314 323.15 61.0796C321.657 63.6264 319.32 65.5699 316.543 66.5725C313.767 67.5752 310.727 67.5735 307.952 66.568C306.794 66.1625 305.705 65.5808 304.724 64.8435C304.218 64.4709 303.74 64.0619 303.293 63.6199C302.844 63.1567 302.426 62.6643 302.041 62.1458C300.435 59.9701 299.568 57.3369 299.568 54.6325C299.568 51.9281 300.435 49.295 302.041 47.1192C302.426 46.6007 302.844 46.1083 303.293 45.6451C303.74 45.2031 304.218 44.7941 304.724 44.4215C305.703 43.6815 306.792 43.0996 307.952 42.697C310.089 41.9254 312.395 41.7425 314.628 42.1675C316.395 42.5057 318.069 43.2175 319.539 44.2553C321.009 45.2932 322.24 46.6331 323.15 48.1853C323.779 49.233 324.24 50.3726 324.517 51.5628C324.628 51.9928 324.707 52.4305 324.753 52.8722C324.795 53.1804 324.811 53.4915 324.803 53.8025C324.803 54.0457 324.803 54.2461 324.803 54.3964C324.812 54.47 324.812 54.5445 324.803 54.6182Z" fill="url(#paint4_linear_86_2226)"/>
<path d="M300.338 50.815C299.907 50.701 299.482 50.5649 299.065 50.4071C297.009 49.8256 294.806 50.0829 292.939 51.1227C292.224 51.5163 291.845 51.8383 291.802 51.8383C292.06 51.4597 292.403 51.1462 292.804 50.9223C293.735 50.3237 294.793 49.9478 295.894 49.8237C296.994 49.6996 298.109 49.8307 299.151 50.2068C299.587 50.3175 299.993 50.5254 300.338 50.815Z" fill="url(#paint5_linear_86_2226)"/>
<path d="M252.532 44.8281C250.882 44.1705 249.19 43.6277 247.466 43.2038C245.715 42.9045 243.946 42.7252 242.17 42.6671C242.682 42.5199 243.213 42.457 243.745 42.4811C246.303 42.4333 248.84 42.9641 251.165 44.0338C251.661 44.2228 252.122 44.491 252.532 44.8281Z" fill="#263238"/>
<path d="M318.959 104.221L294.63 105.53L288.054 117.594C287.941 117.797 287.883 118.026 287.885 118.259C287.887 118.491 287.95 118.719 288.067 118.919C288.184 119.12 288.351 119.287 288.552 119.403C288.753 119.52 288.981 119.582 289.213 119.584C290.379 119.584 291.739 119.419 292.49 118.746C293.986 117.401 296.827 113.358 296.827 113.358L295.331 122.339L302.222 129.823L303.725 131.333C303.877 131.486 304.061 131.605 304.264 131.681C304.466 131.758 304.682 131.791 304.898 131.777C305.114 131.764 305.325 131.704 305.516 131.603C305.707 131.502 305.875 131.361 306.007 131.19C306.759 130.21 307.61 128.936 307.61 128.178C307.61 128.178 310.902 127.276 311.052 125.179C311.095 123.328 310.994 121.477 310.751 119.641C310.751 119.641 312.998 118.296 313.299 116.95L316.876 120.693L332.926 126.417L342.458 123.555L355.495 118.775C355.495 118.775 347.567 111.863 345.914 110.668C344.261 109.473 318.959 104.221 318.959 104.221Z" fill="#FFBE9D"/>
<path d="M318.958 104.221C318.958 104.221 319.201 104.256 319.674 104.35L321.77 104.772C323.609 105.144 326.307 105.702 329.742 106.446C333.176 107.19 337.355 108.092 342.121 109.308C343.368 109.6 344.593 109.982 345.784 110.453C346.345 110.817 346.878 111.221 347.38 111.662L348.954 112.972C351.101 114.754 353.248 116.657 355.573 118.646L355.773 118.818L355.573 118.918L344.84 122.854C343.902 123.183 342.965 123.569 341.978 123.87L339.029 124.764L332.969 126.61H332.911H332.854L316.797 120.886H316.754L313.176 117.144L313.491 117.051C313.328 117.598 313.022 118.092 312.604 118.482C312.209 118.888 311.775 119.255 311.309 119.577L310.858 119.87L310.951 119.684C311.188 121.424 311.293 123.18 311.266 124.936C311.274 125.399 311.158 125.857 310.93 126.26C310.693 126.648 310.385 126.988 310.021 127.262C309.31 127.783 308.513 128.175 307.667 128.421L307.81 128.242C307.771 128.667 307.641 129.08 307.431 129.451C307.243 129.806 307.035 130.15 306.808 130.482C306.579 130.811 306.357 131.126 306.092 131.448C305.799 131.779 305.388 131.984 304.946 132.019C304.504 132.054 304.066 131.916 303.724 131.634C303.416 131.347 303.166 131.083 302.887 130.804C302.329 130.267 301.799 129.709 301.291 129.136L295.209 122.525L295.152 122.46V122.374L296.654 113.394L296.962 113.516C296.218 114.56 295.459 115.574 294.686 116.557C294.3 117.043 293.907 117.523 293.499 117.988C293.112 118.481 292.648 118.909 292.125 119.255C291.571 119.535 290.969 119.705 290.35 119.755C290.05 119.791 289.749 119.806 289.456 119.813C289.136 119.844 288.813 119.784 288.526 119.641C288.24 119.489 288.011 119.248 287.873 118.956C287.735 118.663 287.696 118.334 287.76 118.017C287.838 117.727 287.961 117.452 288.125 117.201L288.533 116.485L294.508 105.566L294.543 105.502H294.615L312.504 104.6L317.32 104.378L318.572 104.328H318.994L318.565 104.371L317.32 104.457L312.497 104.75L294.644 105.766L294.744 105.695L288.812 116.636L288.411 117.351C288.262 117.571 288.149 117.812 288.075 118.067C288.022 118.319 288.052 118.582 288.162 118.816C288.272 119.05 288.455 119.241 288.683 119.362C288.926 119.477 289.196 119.522 289.463 119.491C289.749 119.491 290.043 119.491 290.329 119.433C290.907 119.385 291.47 119.227 291.989 118.968C292.475 118.635 292.907 118.23 293.27 117.766C293.67 117.315 294.057 116.836 294.443 116.335C295.209 115.362 295.96 114.346 296.697 113.308L297.119 112.714L297.005 113.43C296.528 116.335 296.029 119.328 295.509 122.41L295.466 122.26L301.549 128.864C302.064 129.437 302.593 129.995 303.144 130.532C303.416 130.796 303.702 131.09 303.96 131.333C304.227 131.552 304.568 131.659 304.912 131.634C305.084 131.622 305.253 131.576 305.408 131.498C305.562 131.421 305.7 131.314 305.813 131.183C306.042 130.904 306.278 130.567 306.529 130.253C306.75 129.934 306.95 129.602 307.13 129.258C307.315 128.94 307.43 128.586 307.466 128.22V128.084L307.602 128.042C308.401 127.807 309.154 127.437 309.828 126.947C310.163 126.719 310.438 126.413 310.629 126.055C310.82 125.697 310.92 125.299 310.922 124.893C310.949 123.161 310.843 121.429 310.608 119.712V119.591L310.715 119.526L311.137 119.247C311.586 118.942 312.004 118.592 312.382 118.203C312.747 117.859 313.018 117.428 313.169 116.95L313.255 116.621L313.484 116.865C314.722 118.145 315.946 119.419 317.062 120.607L316.997 120.557L333.047 126.281H332.933L338.994 124.449L341.942 123.555C342.915 123.269 343.845 122.875 344.804 122.553L355.537 118.639L355.487 118.904C353.197 116.908 350.994 114.997 348.89 113.179L347.323 111.87C346.832 111.431 346.308 111.032 345.756 110.675C344.591 110.214 343.396 109.836 342.178 109.544C337.427 108.299 333.248 107.398 329.82 106.604L321.87 104.843L319.781 104.385C319.194 104.292 318.958 104.221 318.958 104.221Z" fill="#FC7A42"/>
<path d="M313.761 107.018C313.658 107.079 313.547 107.127 313.432 107.161L312.48 107.511L308.938 108.713L303.686 110.467C303.203 110.623 302.771 110.904 302.434 111.282C302.11 111.706 301.88 112.194 301.761 112.713C301.461 113.837 301.222 114.977 301.045 116.127C300.671 118.344 300.606 120.603 300.852 122.839C301.126 124.654 301.641 126.425 302.383 128.105C302.87 129.247 303.451 130.345 304.122 131.389C304.609 132.105 304.924 132.499 304.895 132.52C304.801 132.445 304.717 132.358 304.645 132.262C304.413 132.013 304.2 131.748 304.008 131.468C303.278 130.449 302.655 129.358 302.147 128.212C301.355 126.524 300.805 124.731 300.516 122.889C300.242 120.62 300.295 118.323 300.673 116.069C300.86 114.904 301.111 113.751 301.425 112.613C301.56 112.045 301.816 111.513 302.176 111.053C302.562 110.627 303.057 110.313 303.607 110.145C305.603 109.493 307.392 108.942 308.902 108.463L312.48 107.368L313.46 107.089C313.557 107.053 313.658 107.029 313.761 107.018Z" fill="#FC7A42"/>
<path d="M320.134 109.258C319.805 109.425 319.463 109.564 319.111 109.673L316.249 110.675L312.02 112.106C311.185 112.349 310.37 112.652 309.58 113.015C308.794 113.481 308.178 114.185 307.82 115.026C307.031 116.655 306.415 118.363 305.981 120.12C305.635 121.554 305.558 123.038 305.752 124.5C305.952 125.847 306.44 127.136 307.183 128.278C307.183 128.278 307.104 128.213 306.982 128.07C306.808 127.859 306.65 127.634 306.51 127.398C305.994 126.516 305.646 125.545 305.487 124.535C305.245 123.042 305.296 121.516 305.637 120.042C306.058 118.25 306.675 116.511 307.476 114.854C307.872 113.951 308.547 113.199 309.401 112.707C310.217 112.332 311.058 112.016 311.92 111.763L316.17 110.403L319.032 109.509C319.391 109.389 319.76 109.305 320.134 109.258Z" fill="#FC7A42"/>
<path d="M319.27 114.462C318.582 115.381 317.624 116.061 316.53 116.409C315.483 116.871 314.319 117.001 313.195 116.781C314.282 116.634 315.355 116.394 316.401 116.065C317.402 115.614 318.362 115.078 319.27 114.462Z" fill="#FC7A42"/>
<path d="M334.676 123.832C334.1 124.023 333.494 124.111 332.888 124.09C331.416 124.106 329.957 123.829 328.594 123.274C327.231 122.728 325.993 121.913 324.952 120.877C324.505 120.468 324.132 119.983 323.85 119.446C323.9 119.41 324.322 119.947 325.138 120.684C327.273 122.603 330.012 123.714 332.88 123.825C333.982 123.861 334.662 123.768 334.676 123.832Z" fill="#FC7A42"/>
<path d="M307.134 105.726C307.134 105.769 306.311 105.833 304.987 106.091C304.329 106.212 303.556 106.37 302.683 106.563C301.748 106.715 300.84 107 299.985 107.407C299.148 107.821 298.448 108.467 297.967 109.268C297.586 109.936 297.313 110.661 297.159 111.414C296.873 112.71 296.787 113.561 296.722 113.561C296.688 113.367 296.688 113.168 296.722 112.974C296.751 112.442 296.811 111.911 296.901 111.386C297.032 110.591 297.296 109.825 297.681 109.117C298.18 108.244 298.927 107.539 299.828 107.092C300.714 106.676 301.657 106.391 302.626 106.248C303.499 106.076 304.293 105.94 304.958 105.855C305.672 105.696 306.406 105.652 307.134 105.726Z" fill="#FC7A42"/>
<path d="M226.77 171.376C226.856 171.434 222.298 178.217 216.602 186.51C210.906 194.804 206.205 201.494 206.119 201.437C206.033 201.38 210.591 194.603 216.294 186.303C221.997 178.002 226.67 171.319 226.77 171.376Z" fill="#263238"/>
<defs>
<filter id="filter0_f_86_2226" x="0.0894775" y="124.37" width="526.945" height="214.541" filterUnits="userSpaceOnUse" color-interpolation-filters="sRGB">
<feFlood flood-opacity="0" result="BackgroundImageFix"/>
<feBlend mode="normal" in="SourceGraphic" in2="BackgroundImageFix" result="shape"/>
<feGaussianBlur stdDeviation="32.4553" result="effect1_foregroundBlur_86_2226"/>
</filter>
<linearGradient id="paint0_linear_86_2226" x1="356.724" y1="118.952" x2="356.724" y2="235.208" gradientUnits="userSpaceOnUse">
<stop offset="0.123264" stop-color="#A95EF1"/>
<stop offset="0.9999" stop-color="#7056C2"/>
<stop offset="1" stop-color="#A95EF1" stop-opacity="0"/>
</linearGradient>
<linearGradient id="paint1_linear_86_2226" x1="266.549" y1="112.333" x2="266.549" y2="235.552" gradientUnits="userSpaceOnUse">
<stop offset="0.123264" stop-color="#A95EF1"/>
<stop offset="0.9999" stop-color="#7056C2"/>
<stop offset="1" stop-color="#A95EF1" stop-opacity="0"/>
</linearGradient>
<linearGradient id="paint2_linear_86_2226" x1="194.322" y1="119.532" x2="194.322" y2="235.204" gradientUnits="userSpaceOnUse">
<stop offset="0.123264" stop-color="#A95EF1"/>
<stop offset="0.9999" stop-color="#7056C2"/>
<stop offset="1" stop-color="#A95EF1" stop-opacity="0"/>
</linearGradient>
<linearGradient id="paint3_linear_86_2226" x1="279.71" y1="41.9282" x2="279.71" y2="67.3077" gradientUnits="userSpaceOnUse">
<stop offset="0.123264" stop-color="#A95EF1"/>
<stop offset="0.9999" stop-color="#7056C2"/>
<stop offset="1" stop-color="#A95EF1" stop-opacity="0"/>
</linearGradient>
<linearGradient id="paint4_linear_86_2226" x1="312.203" y1="41.9438" x2="312.203" y2="67.3233" gradientUnits="userSpaceOnUse">
<stop offset="0.123264" stop-color="#A95EF1"/>
<stop offset="0.9999" stop-color="#7056C2"/>
<stop offset="1" stop-color="#A95EF1" stop-opacity="0"/>
</linearGradient>
<linearGradient id="paint5_linear_86_2226" x1="296.07" y1="49.7783" x2="296.07" y2="51.8383" gradientUnits="userSpaceOnUse">
<stop offset="0.123264" stop-color="#A95EF1"/>
<stop offset="0.9999" stop-color="#7056C2"/>
<stop offset="1" stop-color="#A95EF1" stop-opacity="0"/>
</linearGradient>
</defs>
</svg>
