<svg width="432" height="374" viewBox="0 0 432 374" fill="none" xmlns="http://www.w3.org/2000/svg">
<g filter="url(#filter0_f_86_2354)">
<ellipse cx="216.02" cy="276.361" rx="151.02" ry="32.2176" fill="#0070E2" fill-opacity="0.6"/>
</g>
<path d="M197.902 43.5093L195.872 24.4114L186.129 26.6095L177.732 11.7783L182.965 31.827L192.844 29.5605L197.902 43.5093Z" fill="#E0E0E0"/>
<path d="M184.934 48.9776L175.883 39.6606L171.617 44.901L160.961 40.5125L172.111 49.0005L176.423 43.6689L184.934 48.9776Z" fill="#E0E0E0"/>
<path d="M218.734 34.0323L223.723 22.0381L217.228 20.1823L217.061 8.65967L213.661 22.2511L220.255 24.1145L218.734 34.0323Z" fill="#F5F5F5"/>
<path d="M295.483 58.6219L303.705 43.6538L310.946 48.8029L322.917 39.5239L311.744 54.1725L304.42 48.917L295.483 58.6219Z" fill="#E0E0E0"/>
<path d="M310.581 67.1631L319.084 63.5352L320.445 68.1442L328.652 68.1975L318.993 70.6997L317.623 66.0146L310.581 67.1631Z" fill="#E0E0E0"/>
<path d="M270.461 4.77325C270.815 4.65755 271.176 4.56107 271.541 4.48423C272.609 4.23683 273.7 4.0967 274.796 4.06591C276.59 3.99795 278.385 4.1979 280.12 4.65916C281.221 4.94624 282.291 5.34111 283.314 5.83805C283.891 6.09912 284.429 6.4396 284.911 6.8496C285.451 7.27698 285.818 7.88457 285.946 8.56089C286.008 8.91949 285.991 9.28718 285.898 9.63892C285.805 9.99066 285.637 10.3182 285.406 10.5992C284.925 11.1798 284.326 11.6517 283.649 11.9835C282.947 12.3319 282.203 12.5876 281.436 12.744C280.675 12.8885 279.846 13.0559 279.017 13.1547C275.426 13.6462 271.785 13.6462 268.194 13.1547C264.057 12.6037 260.033 11.4051 256.268 9.60287C255.241 9.12555 254.3 8.48037 253.485 7.69384C253.046 7.28943 252.709 6.7875 252.5 6.22861C252.291 5.66972 252.217 5.06956 252.283 4.47662C252.403 3.87745 252.659 3.31375 253.031 2.82865C253.403 2.34354 253.881 1.94986 254.428 1.67772C255.499 1.08061 256.669 0.678853 257.881 0.491232C262.969 -0.397557 268.196 -0.0770962 273.138 1.42673C275.761 2.21487 278.274 3.33434 280.614 4.75803C281.841 5.48749 282.975 6.36351 283.991 7.36679C285.048 8.36964 285.871 9.59263 286.402 10.9491C286.928 12.3598 286.911 13.9153 286.357 15.3148C285.763 16.7107 284.781 17.9067 283.527 18.7601C282.262 19.611 280.844 20.2101 279.352 20.5247C277.849 20.8547 276.324 21.0658 274.788 21.1559C268.452 21.6009 262.093 20.6855 256.139 18.4711C254.584 17.9382 253.104 17.2071 251.735 16.2959C250.281 15.3944 249.2 13.9981 248.693 12.3637C248.491 11.5155 248.53 10.6275 248.807 9.80062C249.092 8.98236 249.557 8.23881 250.169 7.62539C251.418 6.41278 253.012 5.61587 254.732 5.34367C256.419 5.03928 258.129 4.88655 259.843 4.88733C261.57 4.85852 263.298 4.93982 265.015 5.13071C268.502 5.51505 271.928 6.33 275.214 7.55693C278.563 8.80111 281.737 10.4703 284.66 12.5235C286.152 13.5648 287.488 14.8118 288.631 16.2274C289.812 17.6662 290.537 19.4245 290.715 21.2776C290.829 23.1659 290.313 25.0387 289.247 26.6016C288.208 28.166 286.804 29.4532 285.155 30.3512C281.846 32.169 277.99 32.5493 274.271 32.5797C270.542 32.6086 266.821 32.2286 263.174 31.4465C261.376 31.0573 259.599 30.575 257.85 30.0014C256.101 29.4483 254.397 28.7591 252.755 27.9402C251.108 27.118 249.619 26.0108 248.358 24.6698C247.698 24.0186 247.178 23.2383 246.831 22.3775C246.485 21.5168 246.32 20.594 246.345 19.6665C246.371 18.7391 246.587 17.8268 246.981 16.9866C247.374 16.1463 247.936 15.396 248.632 14.7824C249.953 13.5455 251.56 12.6568 253.31 12.1964C255.017 11.7386 256.769 11.4633 258.535 11.375C260.278 11.2697 262.027 11.29 263.768 11.4358C267.199 11.7248 270.573 12.4928 273.792 13.7176C276.954 14.9089 279.914 16.5788 282.569 18.6689C283.85 19.7326 284.903 21.0442 285.664 22.525C286.047 23.2736 286.27 24.0932 286.32 24.9323C286.369 25.7714 286.245 26.6117 285.953 27.4002C285.298 28.926 284.167 30.1987 282.729 31.0282C281.356 31.8615 279.87 32.4917 278.317 32.8992C275.301 33.7495 272.171 34.1292 269.038 34.0248C265.999 33.918 262.994 33.3512 260.124 32.3439C258.71 31.8764 257.356 31.2405 256.093 30.4501C254.825 29.6679 253.79 28.5594 253.097 27.2405C252.732 26.6077 252.501 25.9065 252.419 25.1807C252.337 24.4548 252.405 23.7199 252.619 23.0214C252.833 22.323 253.188 21.6761 253.663 21.1209C254.138 20.5658 254.722 20.1143 255.378 19.7945C257.911 18.4559 260.771 18.357 263.425 18.4407C266.057 18.5392 268.665 18.9789 271.183 19.7489C272.406 20.1076 273.597 20.568 274.743 21.1255C275.883 21.6662 276.894 22.4442 277.709 23.4072C278.093 23.9004 278.389 24.4562 278.584 25.0501C278.763 25.6435 278.835 26.2642 278.796 26.883C278.733 27.4898 278.581 28.0841 278.348 28.6476C278.097 29.1883 277.786 29.6987 277.42 30.1687C276.696 31.1038 275.778 31.8695 274.727 32.4124C273.701 32.8973 272.596 33.1936 271.465 33.287C269.312 33.4185 267.153 33.2366 265.053 32.747C264.034 32.5341 263.03 32.3515 262.011 32.0777C261.035 31.8336 260.119 31.3937 259.318 30.7848C258.546 30.1695 258.009 29.3075 257.797 28.3433C257.71 27.8734 257.734 27.3897 257.866 26.9305C257.998 26.4712 258.235 26.0488 258.558 25.6965C259.181 25.0276 259.967 24.5323 260.839 24.2591C261.652 23.9746 262.504 23.8206 263.364 23.8027C264.898 23.7342 266.429 23.9825 267.861 24.5321C269.294 25.0817 270.599 25.9209 271.693 26.9971C272.615 27.9258 273.29 29.0712 273.655 30.3284C273.962 31.4355 273.986 32.602 273.723 33.7206C273.341 35.4846 272.36 37.062 270.947 38.1851C270.098 38.8944 269.053 39.327 267.951 39.4249C267.673 39.4591 267.392 39.4591 267.114 39.4249H266.833C266.833 39.4249 267.213 39.4705 267.943 39.4249C269.033 39.3079 270.063 38.8683 270.902 38.1623C272.281 37.0372 273.236 35.476 273.609 33.7358C273.856 32.6354 273.828 31.4911 273.526 30.4045C273.169 29.1498 272.496 28.0079 271.571 27.0884C270.49 26.0337 269.204 25.2126 267.792 24.6762C266.38 24.1397 264.873 23.8994 263.364 23.9701C262.525 23.9949 261.693 24.1488 260.9 24.4264C260.071 24.698 259.322 25.174 258.725 25.8106C258.425 26.1417 258.206 26.5382 258.086 26.9686C257.966 27.399 257.948 27.8515 258.033 28.2901C258.245 29.1951 258.76 30.0004 259.493 30.5718C261.014 31.7887 263.091 32.093 265.099 32.4732C267.174 32.9557 269.308 33.1324 271.434 32.998C272.537 32.9052 273.614 32.6141 274.613 32.1386C275.626 31.6306 276.516 30.9093 277.222 30.0242C277.574 29.5719 277.87 29.0791 278.104 28.5563C278.33 28.0208 278.474 27.454 278.53 26.8754C278.564 26.2954 278.497 25.7139 278.333 25.1565C278.146 24.5925 277.863 24.065 277.496 23.5974C276.709 22.6624 275.728 21.9098 274.621 21.3917C273.489 20.8393 272.31 20.3864 271.099 20.0379C268.618 19.275 266.049 18.8328 263.456 18.7221C260.817 18.6385 258.002 18.7221 255.576 20.0531C254.35 20.6764 253.412 21.7503 252.96 23.0498C252.584 24.3993 252.748 25.842 253.416 27.0732C254.094 28.3248 255.091 29.3746 256.306 30.1155C257.547 30.8886 258.874 31.5115 260.261 31.9713C266.059 33.9957 272.341 34.1816 278.249 32.5037C279.769 32.1031 281.224 31.4858 282.569 30.6707C283.926 29.8743 284.992 28.6642 285.611 27.2177C285.879 26.4782 285.992 25.6917 285.944 24.9068C285.895 24.1219 285.686 23.3552 285.33 22.6543C284.582 21.2099 283.547 19.9339 282.287 18.9047C279.665 16.8434 276.741 15.1989 273.617 14.0294C270.445 12.808 267.116 12.0399 263.73 11.7477C262.006 11.6082 260.276 11.5904 258.55 11.6944C256.813 11.7802 255.089 12.0505 253.409 12.5006C251.722 12.941 250.171 13.7959 248.898 14.9877C248.24 15.5661 247.708 16.2743 247.336 17.0677C246.964 17.8612 246.76 18.723 246.736 19.599C246.713 20.4751 246.87 21.3466 247.199 22.1589C247.528 22.9713 248.021 23.7069 248.647 24.3199C249.877 25.6224 251.327 26.6985 252.929 27.4991C254.553 28.3099 256.24 28.989 257.972 29.5298C259.72 30.1033 261.497 30.5832 263.296 30.9673C266.915 31.7431 270.608 32.1205 274.309 32.093C277.998 32.093 281.793 31.6822 285.003 29.9177C286.568 29.0505 287.901 27.8191 288.889 26.3278C289.909 24.8455 290.407 23.0662 290.304 21.27C290.129 19.4966 289.43 17.8155 288.296 16.4404C287.178 15.0542 285.869 13.8329 284.409 12.8125C281.513 10.7804 278.37 9.12669 275.054 7.89158C271.806 6.68548 268.421 5.8834 264.977 5.50339C263.277 5.31611 261.568 5.23483 259.858 5.26001C258.168 5.25659 256.48 5.40422 254.816 5.70114C253.177 5.9693 251.66 6.73078 250.465 7.88398C249.878 8.43581 249.443 9.12941 249.202 9.89801C248.961 10.6666 248.922 11.4843 249.089 12.2725C249.569 13.8171 250.59 15.1372 251.964 15.9917C253.304 16.89 254.756 17.6085 256.284 18.1289C262.185 20.3295 268.489 21.2423 274.773 20.8061C277.815 20.5779 280.858 20.1672 283.322 18.4863C284.524 17.6722 285.467 16.5288 286.037 15.1931C286.565 13.8673 286.581 12.3926 286.083 11.0556C285.571 9.74707 284.776 8.56793 283.755 7.60257C282.761 6.63114 281.652 5.78331 280.455 5.07748C278.138 3.66375 275.651 2.5495 273.054 1.76139C268.158 0.263129 262.978 -0.0599783 257.934 0.818276C256.752 0.993691 255.61 1.38012 254.565 1.95913C254.054 2.21321 253.607 2.57893 253.257 3.02919C252.907 3.47946 252.662 4.00274 252.542 4.56029C252.48 5.11311 252.55 5.67258 252.746 6.19325C252.942 6.71393 253.257 7.18114 253.667 7.55693C254.463 8.32416 255.38 8.95386 256.382 9.42033C260.118 11.2225 264.114 12.4238 268.225 12.9798C271.798 13.4709 275.421 13.4709 278.994 12.9798C279.816 12.8809 280.622 12.7288 281.398 12.5843C282.15 12.4248 282.878 12.1692 283.565 11.8237C284.224 11.5067 284.807 11.053 285.277 10.4927C285.495 10.2307 285.655 9.92441 285.744 9.59487C285.834 9.26534 285.85 8.92038 285.794 8.5837C285.672 7.94095 285.327 7.36182 284.82 6.94848C284.338 6.54812 283.803 6.21547 283.231 5.95974C280.611 4.67705 277.719 4.05307 274.803 4.14197C273.712 4.16833 272.624 4.29564 271.556 4.52226C271.198 4.59071 270.932 4.66677 270.75 4.70479L270.461 4.77325Z" fill="#263238"/>
<path d="M150.975 153.731C155.423 152.265 159.97 151.119 164.582 150.301C172.994 148.78 202.093 148.445 202.093 148.445C202.093 148.445 204.778 175.681 229.474 178.602C238.661 179.69 247.917 166.851 247.917 166.851C247.917 166.851 264.84 175.461 269.814 179.355C269.814 179.355 270.849 227.271 269.814 236.831C268.78 246.392 263.981 266.052 263.981 266.052H145.332V218.752L150.975 153.731Z" fill="url(#paint0_linear_86_2354)"/>
<path d="M161.585 209.336C153.736 223.11 142.791 238.284 142.791 238.284L96.5864 216.296C96.5864 215.246 123.275 170.471 133.603 162.599C143.932 154.727 155.067 150.521 162.672 152.621" fill="url(#paint1_linear_86_2354)"/>
<path d="M162.673 152.62C162.673 152.62 162.513 152.62 162.209 152.544C161.904 152.468 161.448 152.354 160.847 152.301C159.077 152.086 157.286 152.112 155.523 152.377C152.747 152.8 150.033 153.566 147.446 154.659C144.019 156.088 140.738 157.846 137.65 159.907C136.798 160.492 135.916 161.07 135.049 161.717L133.733 162.69C133.315 163.04 132.873 163.383 132.463 163.77C130.773 165.385 129.193 167.111 127.732 168.935C124.69 172.7 121.647 176.906 118.506 181.4C112.323 190.406 105.858 200.552 99.4539 211.42L98.0241 213.907L97.3395 215.147L97.0125 215.771C96.9136 215.968 96.7995 216.212 96.7539 216.326L96.6398 216.143L142.829 238.2L142.639 238.246C148.785 229.643 153.508 222.41 156.694 217.353C158.276 214.812 159.486 212.789 160.3 211.458L161.227 209.937C161.433 209.595 161.555 209.42 161.555 209.42C161.555 209.42 161.463 209.61 161.266 209.96C161.068 210.31 160.764 210.85 160.376 211.534C159.615 212.911 158.406 214.919 156.839 217.474C153.698 222.57 149.013 229.826 142.89 238.459L142.814 238.565L142.7 238.512L96.5029 216.47L96.3584 216.41V216.295C96.4311 216.031 96.5331 215.776 96.6626 215.535L96.9897 214.904L97.6818 213.656L99.1117 211.162C105.523 200.285 111.996 190.147 118.21 181.142C121.328 176.647 124.385 172.441 127.473 168.669C128.954 166.84 130.552 165.11 132.257 163.489C132.676 163.101 133.124 162.728 133.55 162.401L134.881 161.428C135.748 160.781 136.638 160.203 137.498 159.618C140.615 157.56 143.927 155.812 147.385 154.4C149.996 153.332 152.73 152.594 155.523 152.202C157.289 151.949 159.082 151.949 160.847 152.202C161.307 152.266 161.762 152.36 162.209 152.484L162.673 152.62Z" fill="#263238"/>
<path d="M164.452 154.735C164.607 154.827 164.755 154.931 164.893 155.047C165.305 155.364 165.696 155.707 166.064 156.073C167.432 157.409 168.584 158.948 169.479 160.637C170.8 163.157 171.663 165.892 172.027 168.714C172.44 172.168 172.366 175.663 171.807 179.096C170.808 185.317 169.019 191.384 166.483 197.152C165.517 199.365 164.627 201.107 163.988 202.293C163.669 202.887 163.402 203.335 163.227 203.647C163.147 203.809 163.05 203.961 162.938 204.104C162.995 203.932 163.069 203.766 163.159 203.609C163.334 203.252 163.57 202.795 163.859 202.217C164.46 201.016 165.304 199.266 166.239 197.045C168.684 191.279 170.426 185.24 171.426 179.058C171.984 175.663 172.068 172.208 171.677 168.79C171.34 166.001 170.516 163.293 169.244 160.789C168.382 159.102 167.281 157.55 165.973 156.18C165.022 155.222 164.422 154.765 164.452 154.735Z" fill="#263238"/>
<path d="M281.991 244.315L302.663 264.432L331.732 247.928L302.344 197.738L275.138 179.385L270.689 238.885L281.991 244.315Z" fill="#7658C7"/>
<path d="M311.554 140.2C307.904 113.862 298.442 87.2571 284.257 63.5957L280.599 78.7463C285.15 90.9903 288.81 103.547 291.551 116.318C292.312 119.848 292.996 123.491 292.403 127.05C291.696 131.264 289.277 134.952 287.399 138.793C284.752 144.224 283.124 150.445 284.524 156.286C285.923 162.128 290.996 167.421 297.035 167.558C302.907 167.695 308.071 162.995 310.239 157.564C312.406 152.134 312.368 146.019 311.554 140.2Z" fill="#263238"/>
<path d="M300.283 166.273C300.475 166.253 300.669 166.253 300.861 166.273L301.56 166.341H302.511C304.538 166.307 306.539 165.872 308.398 165.064C311.161 163.879 313.534 161.939 315.243 159.466C316.234 158.006 316.941 156.373 317.327 154.651C317.739 152.798 317.875 150.894 317.73 149C317.377 145.332 316.585 141.719 315.372 138.238C314.346 134.991 313.243 132.154 312.246 129.758C311.25 127.362 310.36 125.499 309.729 124.198L309.006 122.677C308.909 122.508 308.83 122.33 308.771 122.145C308.884 122.301 308.986 122.467 309.075 122.639C309.268 122.974 309.521 123.46 309.835 124.099C310.505 125.377 311.433 127.248 312.467 129.613C313.501 131.979 314.635 134.846 315.684 138.094C316.925 141.6 317.732 145.245 318.088 148.947C318.234 150.876 318.093 152.817 317.669 154.705C317.268 156.472 316.535 158.147 315.509 159.641C313.754 162.159 311.312 164.121 308.474 165.292C306.579 166.093 304.538 166.492 302.481 166.463L301.522 166.417L300.823 166.318C300.642 166.318 300.461 166.302 300.283 166.273Z" fill="#263238"/>
<path d="M201.766 63.5957L171.799 108.637C168.521 113.565 165.152 118.729 164.437 124.609C163.228 134.496 169.32 150.772 179.162 152.081C189.003 153.389 201.591 156.88 202.998 147.053L223.647 78.3128L201.766 63.5957Z" fill="#263238"/>
<path d="M293.05 218.372C292.243 210.006 288.577 202.271 285.444 194.49C278.334 176.885 273.714 158.374 271.716 139.493L245.856 162.843C246.868 174.806 247.742 187.485 242.335 198.202C240.814 201.244 238.745 204.187 238.494 207.579C238.053 213.626 243.354 218.516 244.845 224.388C246.008 229.005 244.7 233.956 242.35 238.078C240 242.201 236.676 245.684 233.466 249.206C232.059 250.727 230.561 252.735 231.223 254.712C231.884 256.69 234.128 257.359 236.113 257.633C242.956 258.558 249.912 257.183 255.888 253.723C256.192 255.1 256.504 256.477 256.808 257.853C261.86 257.901 266.866 256.886 271.5 254.874C276.134 252.862 280.293 249.897 283.707 246.174C287.121 242.45 289.713 238.049 291.317 233.259C292.92 228.468 293.497 223.393 293.012 218.364L293.05 218.372Z" fill="#263238"/>
<path d="M206.785 57.9828C219.715 47.0838 235.2 42.3074 251.864 45.1291C261.265 46.7111 264.794 49.3807 271.191 52.461C277.587 55.5414 283.017 60.2949 285.984 66.7522C289.497 74.4339 292.106 82.785 291.475 91.2045C290.821 99.8522 290.22 108.576 287.946 116.95C285.664 125.445 277.754 143.783 271.837 149.297L253.18 139.174C241.156 137.371 228.964 135.5 217.821 130.602C206.679 125.704 196.525 117.338 192.205 105.975C186.182 90.2158 193.871 68.9198 206.785 57.9828Z" fill="#263238"/>
<path d="M245.962 168.456L247.286 160.09C247.286 160.09 266.939 161.801 276.02 140.094C280.538 129.294 284.455 110.744 287.17 95.4639C289.619 81.7052 281.397 60.8275 264.452 57.6103L257.082 55.3286L226.096 61.4132C224.068 61.1394 222.011 61.637 220.332 62.8074C218.653 63.9778 217.475 65.7358 217.03 67.7335L202.427 150.301C202.306 155.154 207.569 166.95 212.079 171.354C223.647 184.04 240.547 180.625 245.932 168.471L245.962 168.456Z" fill="#FFBF9D"/>
<path d="M243.05 128.48C243.443 127.353 244.232 126.407 245.27 125.818C246.22 125.266 247.325 125.042 248.415 125.18C249.504 125.317 250.519 125.808 251.302 126.579C252.098 127.468 252.643 128.553 252.881 129.723C253.119 130.892 253.041 132.104 252.656 133.234C252.03 133.839 251.282 134.302 250.462 134.594C249.642 134.885 248.769 134.997 247.902 134.922C247.631 134.897 247.362 134.856 247.096 134.8C245.75 134.541 244.551 133.787 243.734 132.686C243.31 132.082 243.028 131.39 242.91 130.661C242.791 129.933 242.839 129.187 243.05 128.48Z" fill="#FF9A6C"/>
<path d="M274.712 111.352C274.544 112.116 274.083 112.784 273.427 113.211C272.771 113.638 271.973 113.79 271.206 113.634C270.831 113.573 270.471 113.438 270.148 113.236C269.825 113.035 269.546 112.771 269.327 112.46C269.108 112.148 268.954 111.797 268.873 111.425C268.792 111.053 268.786 110.669 268.856 110.295C269.031 109.538 269.494 108.88 270.148 108.46C270.802 108.041 271.594 107.894 272.355 108.051C272.727 108.112 273.083 108.246 273.403 108.445C273.723 108.644 274.001 108.904 274.22 109.211C274.439 109.518 274.595 109.865 274.68 110.232C274.764 110.6 274.775 110.98 274.712 111.352Z" fill="#263238"/>
<path d="M280.553 102.119C280.105 102.408 278.272 100.255 275.184 99.5024C272.096 98.7494 269.403 99.7533 269.16 99.2894C269.031 99.084 269.563 98.4908 270.734 98.004C272.313 97.4008 274.039 97.2973 275.678 97.7074C277.297 98.0997 278.751 98.9943 279.831 100.263C280.614 101.236 280.774 101.997 280.553 102.119Z" fill="#263238"/>
<path d="M255.721 123.049C255.721 122.867 257.774 123.004 261.007 123.369C261.82 123.483 262.619 123.506 262.885 122.996C263.151 122.487 263.083 121.528 262.923 120.509C262.639 118.4 262.348 116.189 262.049 113.877C260.877 104.454 260.238 96.7794 260.619 96.7414C260.999 96.7033 262.254 104.294 263.425 113.717C263.694 116.034 263.947 118.25 264.186 120.365C264.269 121.346 264.536 122.494 263.836 123.59C263.652 123.841 263.413 124.047 263.138 124.194C262.862 124.34 262.558 124.422 262.246 124.434C261.776 124.446 261.305 124.398 260.847 124.289C257.652 123.681 255.69 123.232 255.721 123.049Z" fill="#263238"/>
<path d="M247.294 160.067C236.621 157.638 226.832 152.296 219.016 144.635C219.016 144.635 223.26 162.25 246.396 165.642L247.294 160.067Z" fill="#FF9A6C"/>
<path d="M272.248 83.7587C273.176 83.561 274.591 85.6373 276.812 87.4399C279.032 89.2424 281.291 90.3453 281.261 91.296C281.261 91.7371 280.5 92.0565 279.207 91.9577C277.545 91.732 275.984 91.0292 274.712 89.9346C273.408 88.8845 272.44 87.4751 271.929 85.8807C271.617 84.6638 271.822 83.8652 272.248 83.7587Z" fill="#263238"/>
<path d="M240.38 105.617C240.215 106.377 240.355 107.171 240.769 107.829C241.182 108.487 241.837 108.958 242.593 109.139C242.959 109.245 243.342 109.276 243.72 109.232C244.098 109.187 244.463 109.068 244.794 108.88C245.125 108.692 245.415 108.44 245.647 108.138C245.879 107.836 246.048 107.491 246.145 107.123C246.308 106.364 246.167 105.571 245.754 104.913C245.34 104.255 244.687 103.785 243.932 103.602C243.566 103.496 243.183 103.464 242.805 103.509C242.427 103.553 242.062 103.673 241.731 103.861C241.4 104.049 241.11 104.301 240.878 104.602C240.646 104.904 240.477 105.249 240.38 105.617Z" fill="#263238"/>
<path d="M238.167 92.9766C238.456 93.4253 240.996 92.216 244.137 92.8929C247.279 93.5698 249.264 95.5853 249.682 95.2659C249.887 95.1366 249.682 94.3684 248.8 93.4329C247.633 92.2153 246.119 91.3867 244.465 91.06C242.831 90.7227 241.132 90.9118 239.612 91.6C238.494 92.1476 238.022 92.7636 238.167 92.9766Z" fill="#263238"/>
<path d="M253.363 85.3936C252.724 84.6711 250.252 85.4468 247.279 85.5001C244.305 85.5533 241.78 85.0513 241.194 85.8195C240.943 86.1922 241.346 86.9147 242.449 87.5993C243.958 88.4423 245.674 88.843 247.4 88.7553C249.127 88.7201 250.808 88.1924 252.245 87.2342C253.302 86.504 253.645 85.7511 253.363 85.3936Z" fill="#263238"/>
<path d="M213.783 106.819C214.186 105.138 213.212 100.734 211.615 100.035C207.348 98.2626 199.263 96.673 196.449 107.922C192.601 123.293 208.824 123.985 208.961 123.552C209.098 123.118 212.383 112.63 213.783 106.819Z" fill="#FFBF9D"/>
<path d="M206.131 116.874C206.07 116.813 205.812 116.996 205.31 117.087C204.604 117.201 203.882 117.038 203.294 116.631C201.819 115.627 201.104 112.706 201.72 109.915C202.012 108.588 202.597 107.344 203.431 106.272C204.192 105.26 205.105 104.659 205.956 104.75C206.284 104.746 206.604 104.855 206.859 105.061C207.115 105.267 207.29 105.555 207.356 105.876C207.455 106.363 207.28 106.637 207.356 106.69C207.432 106.743 207.751 106.515 207.782 105.853C207.793 105.45 207.664 105.054 207.417 104.735C207.25 104.523 207.042 104.346 206.805 104.216C206.569 104.085 206.309 104.003 206.04 103.975C204.831 103.762 203.492 104.583 202.64 105.656C201.654 106.824 200.967 108.216 200.64 109.709C199.963 112.828 200.823 116.129 202.884 117.315C203.267 117.54 203.695 117.675 204.138 117.711C204.58 117.746 205.025 117.681 205.439 117.52C206.01 117.239 206.177 116.92 206.131 116.874Z" fill="#FF9A6C"/>
<path d="M210.976 99.9662L214.163 104.796C234.265 91.6379 275.214 56.9559 272.902 59.0474C272.902 59.0474 262.109 52.0654 249.02 51.8676C235.93 51.6699 210.687 53.5409 208.269 68.6002C205.85 83.6595 210.976 99.9662 210.976 99.9662Z" fill="#263238"/>
<path d="M252.541 134.329C252.465 134.283 252.541 134.055 252.541 133.682C252.563 133.145 252.42 132.614 252.131 132.161C251.945 131.87 251.711 131.613 251.438 131.401C251.1 131.157 250.732 130.958 250.343 130.807C249.392 130.427 248.403 130.149 247.392 129.978C245.512 129.67 243.608 129.537 241.703 129.583C240.235 129.621 239.3 129.697 239.269 129.53C239.239 129.362 240.106 129.005 241.619 128.769C243.6 128.467 245.616 128.487 247.59 128.83C248.698 129.013 249.775 129.349 250.792 129.826C251.266 130.046 251.705 130.336 252.093 130.686C252.417 131.016 252.675 131.406 252.853 131.834C253.144 132.446 253.182 133.149 252.96 133.789C252.807 134.245 252.602 134.397 252.541 134.329Z" fill="#263238"/>
<path d="M259.774 84.1313C260.134 84.4166 260.399 84.8036 260.535 85.2418C260.99 86.284 261.015 87.4642 260.603 88.5245C260.191 89.5848 259.377 90.439 258.337 90.9004C257.934 91.1316 257.468 91.2301 257.006 91.1818C257.006 91.121 257.508 91.0373 258.208 90.6494C259.136 90.1597 259.856 89.3516 260.236 88.3736C260.616 87.3956 260.63 86.3133 260.276 85.3254C260.041 84.5497 259.714 84.1313 259.774 84.1313Z" fill="#FF9A6C"/>
<path d="M268.513 91.5923C268.025 91.6671 267.526 91.5984 267.076 91.3945C265.933 91.0089 264.964 90.2318 264.339 89.2004C263.714 88.1691 263.474 86.95 263.661 85.7587C263.689 85.2652 263.858 84.7901 264.148 84.3896C264.209 84.3896 263.996 84.922 263.935 85.7891C263.847 86.9044 264.113 88.019 264.694 88.9747C265.276 89.9304 266.144 90.6786 267.175 91.1131C267.966 91.4782 268.521 91.5314 268.513 91.5923Z" fill="#FF9A6C"/>
<path d="M236.996 111.421C235.992 111.179 235.072 110.67 234.335 109.946C233.598 109.223 233.072 108.313 232.812 107.313C233.349 108.144 233.952 108.93 234.615 109.664C235.361 110.311 236.157 110.899 236.996 111.421Z" fill="#FF9A6C"/>
<path d="M274.743 116.03C274.743 116.136 274.21 116.387 273.488 116.593C272.765 116.798 272.157 116.882 272.126 116.783C272.096 116.684 272.651 116.418 273.374 116.212C274.096 116.007 274.712 115.923 274.743 116.03Z" fill="#FF9A6C"/>
<path d="M274.241 117.528C274.241 117.634 273.906 117.825 273.427 117.969C272.948 118.114 272.529 118.129 272.499 118.022C272.468 117.916 272.833 117.726 273.313 117.589C273.792 117.452 274.21 117.421 274.241 117.528Z" fill="#FF9A6C"/>
<path d="M295.537 86.6334C295.52 86.4233 295.52 86.2122 295.537 86.0021C295.537 85.5914 295.651 84.9829 295.78 84.1996C296.031 82.6784 296.541 80.3967 297.225 77.6967C297.91 74.9966 298.549 71.6121 297.948 67.9766C297.682 66.0702 296.954 64.2579 295.826 62.6982C295.221 61.8906 294.486 61.1889 293.651 60.6219C292.778 60.0488 291.838 59.5864 290.852 59.2452C288.87 58.6212 286.854 58.1133 284.813 57.7241L279.124 56.4387L269.541 54.195L263.061 52.6739L261.296 52.2404C261.088 52.2017 260.884 52.1431 260.688 52.0654C260.898 52.0802 261.107 52.1133 261.311 52.1643L263.091 52.5218L269.601 53.9212L279.253 56.0432L284.957 57.3058C287.015 57.7057 289.047 58.2289 291.042 58.8725C292.058 59.2259 293.026 59.7036 293.924 60.2948C294.801 60.8876 295.572 61.6228 296.206 62.47C297.366 64.0796 298.113 65.9497 298.381 67.9157C298.967 71.6577 298.206 75.0423 297.56 77.7575C296.914 80.4728 296.297 82.686 296.001 84.23C295.849 84.9906 295.75 85.6066 295.689 86.0097C295.657 86.2218 295.606 86.4305 295.537 86.6334Z" fill="#263238"/>
<path d="M176.492 138.603C176.406 138.613 176.32 138.613 176.234 138.603H175.473C175.054 138.614 174.635 138.593 174.218 138.542C173.645 138.489 173.076 138.397 172.515 138.268C170.979 137.902 169.508 137.307 168.149 136.504C166.356 135.421 164.761 134.04 163.433 132.42C162.662 131.482 161.977 130.477 161.387 129.415C160.757 128.251 160.247 127.025 159.866 125.757C159.08 122.949 158.845 120.015 159.174 117.117C159.813 110.987 162.772 104.621 167.244 99.1751C171.716 93.7294 176.857 89.2876 181.383 85.2338L193.484 74.5174L201.667 67.2767L203.903 65.3297L204.497 64.8277L204.702 64.668C204.702 64.668 204.649 64.7364 204.519 64.8581L203.957 65.3905L201.774 67.3984L193.674 74.7227L181.626 85.5609C177.116 89.6527 171.967 94.0108 167.556 99.4717C163.144 104.933 160.186 111.169 159.539 117.208C159.203 120.06 159.423 122.95 160.186 125.719C160.542 126.968 161.029 128.177 161.638 129.324C162.212 130.375 162.881 131.371 163.639 132.298C164.932 133.907 166.491 135.283 168.248 136.367C169.582 137.174 171.027 137.781 172.537 138.17C173.088 138.308 173.647 138.409 174.211 138.474C174.624 138.535 175.04 138.568 175.458 138.573H176.219L176.492 138.603Z" fill="#263238"/>
<path d="M219.776 69.9541C219.814 70.0073 218.917 70.5778 217.647 71.7262C216.016 73.2337 214.575 74.9348 213.357 76.7916C212.141 78.6598 211.027 80.5919 210.018 82.5796C209.628 83.4193 209.178 84.2301 208.672 85.0058C208.727 84.7624 208.814 84.5272 208.93 84.3061C209.121 83.8649 209.402 83.2261 209.767 82.4503C210.711 80.4142 211.802 78.4493 213.03 76.5711C214.261 74.6839 215.754 72.981 217.464 71.5133C217.986 71.0725 218.537 70.6685 219.115 70.304C219.318 70.1569 219.54 70.0392 219.776 69.9541Z" fill="#455A64"/>
<path d="M172.948 124.358C172.937 124.29 172.937 124.221 172.948 124.152C172.948 124 172.948 123.803 172.986 123.567C172.986 123.042 173.092 122.281 173.221 121.285C173.634 118.526 174.338 115.819 175.32 113.208C176.788 109.338 178.71 105.656 181.048 102.24C183.927 98.076 187.18 94.1835 190.768 90.6113C194.571 86.8084 198.373 83.3554 201.826 80.2447C205.279 77.1339 208.383 74.3046 210.892 71.8784C213.402 69.4522 215.357 67.315 216.665 65.8699L218.186 64.1662L218.574 63.7251L218.719 63.5806C218.719 63.5806 218.719 63.6414 218.612 63.7479L218.247 64.2194C217.935 64.6302 217.487 65.2158 216.81 65.9688C215.54 67.4899 213.615 69.5891 211.121 72.0533C208.626 74.5176 205.546 77.3773 202.1 80.5185C198.655 83.6596 194.852 87.0746 191.08 90.8927C187.51 94.4508 184.265 98.3196 181.382 102.453C179.047 105.84 177.11 109.484 175.61 113.314C174.611 115.902 173.872 118.582 173.404 121.316C173.252 122.281 173.138 123.042 173.092 123.597C173.092 123.833 173.039 124.023 173.016 124.183C173.002 124.244 172.979 124.303 172.948 124.358Z" fill="#455A64"/>
<path d="M195.172 75.3769C195.136 75.2171 195.119 75.0539 195.118 74.8902C195.118 74.5631 195.058 74.1296 195.118 73.4755C195.132 71.7429 195.331 70.0168 195.712 68.3264C196.627 63.9521 198.673 59.8942 201.647 56.5578C204.62 53.2214 208.417 50.7231 212.657 49.3122C215.096 48.4855 217.643 48.0192 220.217 47.9279C221.949 47.8615 223.683 47.9814 225.389 48.2854C225.99 48.3691 226.446 48.5136 226.766 48.582C226.928 48.6097 227.086 48.6556 227.237 48.7189C227.237 48.7189 226.568 48.6124 225.366 48.4375C221.13 47.841 216.813 48.2608 212.771 49.662C206.8 51.6587 201.79 55.8144 198.723 61.314C197.468 63.5287 196.534 65.9101 195.947 68.3873C195.545 70.0561 195.305 71.7603 195.232 73.4755C195.187 74.7 195.21 75.3769 195.172 75.3769Z" fill="#263238"/>
<path d="M295.354 157.237C295.354 157.237 335.832 219.072 339.718 229.773C343.605 240.474 339.954 265.908 326.028 265.854C306.702 265.786 301.812 257.678 296.305 244.391C290.799 231.104 276.941 168.555 276.941 168.555L295.354 157.237Z" fill="#FFBF9D"/>
<path d="M277.64 171.239C276.279 165.55 268.818 156.241 271.837 149.297C274.309 143.608 279.755 136.131 281.542 132.298C283.329 128.465 284.356 116.714 284.356 116.714L285.208 102.507C285.208 102.507 281.785 92.8245 284.082 89.5008C285.231 87.8428 286.509 87.8428 287.497 88.2535C288.002 88.4835 288.443 88.8329 288.782 89.2715C289.121 89.7102 289.349 90.2248 289.444 90.771L289.977 93.4634C289.977 93.4634 291.498 91.4175 294.061 93.7144C296.624 96.0113 298.99 111.322 300.032 116.782C301.21 122.913 300.861 126.465 299.857 130.047C298.161 136.131 294.571 148.392 294.32 151.457C294.069 154.522 297.681 160.789 297.681 160.789" fill="#FFBF9D"/>
<path d="M297.682 160.789C297.609 160.689 297.543 160.585 297.484 160.478C297.354 160.265 297.18 159.945 296.951 159.519C296.285 158.274 295.691 156.992 295.172 155.678C294.785 154.726 294.495 153.737 294.305 152.727C294.188 151.5 294.301 150.262 294.639 149.077C295.194 146.498 295.955 143.6 296.822 140.391C297.689 137.181 298.693 133.667 299.75 129.872C300.303 127.924 300.592 125.911 300.61 123.886C300.605 121.727 300.397 119.572 299.986 117.452C299.157 113.071 298.396 108.432 297.339 103.663C296.837 101.23 296.179 98.8316 295.369 96.4831C294.905 95.327 294.464 94.0797 293.377 93.4408C292.891 93.0698 292.3 92.8622 291.688 92.8476C291.396 92.8639 291.111 92.9398 290.849 93.0706C290.587 93.2014 290.355 93.3843 290.167 93.6081L289.924 93.9123L289.825 93.5321C289.376 91.8512 289.498 89.7292 287.939 88.7329C287.589 88.4732 287.176 88.3146 286.742 88.2744C286.309 88.2342 285.873 88.3138 285.482 88.5047C284.703 88.9666 284.123 89.701 283.854 90.5658C283.57 91.5533 283.465 92.5836 283.543 93.6081C283.592 94.6296 283.714 95.6463 283.908 96.6504C284.273 98.6216 284.782 100.564 285.429 102.461V102.499C285.102 107.663 284.836 112.668 284.493 117.482C284.25 119.886 283.961 122.236 283.611 124.518C283.298 126.761 282.82 128.977 282.181 131.15C281.824 132.184 281.36 133.178 280.797 134.116C280.272 135.052 279.724 135.949 279.184 136.831C278.089 138.588 277.032 140.3 276.013 141.942C274.994 143.585 274.066 145.205 273.229 146.78C272.349 148.236 271.729 149.834 271.396 151.503C271.207 153.028 271.299 154.575 271.67 156.066C271.991 157.402 272.413 158.711 272.933 159.983C273.898 162.371 274.902 164.349 275.663 165.992C276.266 167.231 276.804 168.5 277.275 169.795C277.432 170.25 277.561 170.715 277.663 171.186C277.663 171.186 277.618 171.065 277.542 170.836C277.466 170.608 277.382 170.258 277.207 169.817C276.888 168.927 276.317 167.657 275.534 166.014C274.75 164.372 273.731 162.417 272.742 160.021C272.209 158.743 271.774 157.426 271.442 156.081C271.054 154.559 270.951 152.979 271.138 151.419C272.712 144.916 278.302 138.9 281.854 130.983C282.483 128.83 282.951 126.633 283.254 124.411C283.596 122.13 283.885 119.787 284.121 117.391C284.455 112.592 284.714 107.58 285.033 102.423V102.499C284.383 100.582 283.874 98.6194 283.512 96.6276C283.315 95.6008 283.19 94.5613 283.139 93.5168C283.058 92.4456 283.172 91.3685 283.474 90.3377C283.775 89.3775 284.423 88.564 285.292 88.056C285.746 87.8126 286.263 87.7144 286.775 87.7745C287.269 87.8429 287.74 88.0252 288.152 88.3069C288.551 88.5861 288.891 88.9415 289.152 89.3527C289.413 89.7639 289.59 90.2227 289.673 90.7027C289.848 91.6002 290.023 92.4825 290.198 93.3571L289.848 93.2735C290.076 93.0001 290.359 92.7776 290.679 92.6204C290.998 92.4632 291.348 92.3747 291.703 92.3608C292.396 92.382 293.065 92.6157 293.62 93.0301C293.894 93.2231 294.149 93.4422 294.381 93.6842C294.598 93.9381 294.789 94.2133 294.951 94.5056C295.246 95.0774 295.501 95.6697 295.712 96.2777C296.53 98.643 297.193 101.059 297.697 103.511C298.746 108.302 299.499 112.942 300.313 117.323C300.722 119.464 300.928 121.638 300.929 123.818C300.902 125.877 300.6 127.923 300.032 129.903C298.959 133.705 297.971 137.204 297.065 140.406C296.16 143.608 295.392 146.491 294.822 149.061C294.483 150.223 294.362 151.438 294.464 152.644C294.639 153.645 294.914 154.626 295.286 155.572C295.79 156.885 296.361 158.173 296.997 159.428C297.218 159.846 297.377 160.188 297.499 160.401C297.621 160.614 297.682 160.789 297.682 160.789Z" fill="#FF9A6C"/>
<path d="M286.052 137.257C285.317 137.771 284.555 138.246 283.77 138.68C281.939 139.769 280.267 141.108 278.804 142.657C277.37 144.23 276.383 146.157 275.944 148.24C275.818 149.111 275.762 149.991 275.777 150.872C275.688 150.646 275.639 150.407 275.632 150.164C275.547 149.51 275.547 148.848 275.632 148.194C275.998 146.029 276.983 144.016 278.469 142.399C279.955 140.816 281.683 139.478 283.588 138.436C284.311 138.033 284.904 137.729 285.322 137.531C285.551 137.404 285.797 137.312 286.052 137.257Z" fill="#FF9A6C"/>
<path d="M291.741 119.969C291.698 119.598 291.685 119.224 291.703 118.851C291.703 118.091 291.703 117.087 291.657 115.809C291.564 112.461 291.164 109.129 290.463 105.853C289.665 102.05 288.265 98.6354 288.608 95.9658C288.741 94.9113 289.264 93.945 290.076 93.2581C290.306 93.082 290.563 92.9434 290.836 92.8474C291.026 92.7866 291.125 92.7638 291.125 92.779C290.8 92.9501 290.492 93.1513 290.205 93.3798C289.474 94.063 289.012 94.9861 288.904 95.981C288.839 97.4738 289.034 98.9667 289.482 100.392C289.901 102.028 290.456 103.838 290.859 105.77C291.578 109.065 291.945 112.428 291.954 115.801C291.954 117.094 291.908 118.136 291.87 118.844C291.866 119.222 291.822 119.6 291.741 119.969Z" fill="#FF9A6C"/>
<path d="M284.706 106.857C284.942 107.46 285.11 108.088 285.208 108.728C285.553 110.253 285.79 111.801 285.915 113.36C286.005 114.921 285.982 116.487 285.847 118.045C285.833 118.694 285.749 119.339 285.596 119.969C285.536 119.324 285.536 118.675 285.596 118.03C285.596 116.843 285.672 115.193 285.55 113.39C285.429 111.588 285.147 109.96 284.965 108.781C284.813 108.15 284.726 107.506 284.706 106.857Z" fill="#FF9A6C"/>
<path d="M287.254 120.023C287.197 119.75 287.169 119.472 287.17 119.194C287.17 118.57 287.094 117.817 287.041 116.912C286.927 115.003 286.699 112.348 286.28 109.473C285.862 106.599 285.368 103.982 284.965 102.111C284.775 101.244 284.615 100.499 284.486 99.8903C284.403 99.6239 284.357 99.3476 284.349 99.0688C284.473 99.3101 284.567 99.5655 284.63 99.8294C284.797 100.347 285.003 101.092 285.239 102.027C285.847 104.457 286.326 106.917 286.676 109.397C287.029 111.876 287.243 114.372 287.315 116.874C287.315 117.84 287.315 118.616 287.315 119.156C287.334 119.446 287.314 119.738 287.254 120.023Z" fill="#FF9A6C"/>
<path d="M288.752 119.817C288.167 120.064 287.521 120.133 286.896 120.015C286.28 120.021 285.665 119.955 285.063 119.817C285.063 119.688 285.9 119.543 286.919 119.619C287.536 119.613 288.151 119.679 288.752 119.817Z" fill="#FF9A6C"/>
<path d="M291.741 119.969C291.741 120.015 291.589 119.969 291.407 119.924C291.224 119.878 290.996 119.718 290.821 119.756C290.258 119.878 289.726 119.756 289.756 119.635C289.787 119.513 290.197 119.483 290.775 119.361C290.948 119.341 291.123 119.381 291.27 119.475C291.374 119.535 291.471 119.606 291.559 119.688C291.703 119.817 291.772 119.924 291.741 119.969Z" fill="#FF9A6C"/>
<path d="M88.2659 236.352C88.2659 236.352 78.0286 249.555 80.1582 263.147C81.801 273.536 86.4025 278.419 105.691 278.312C121.206 278.229 185.809 257.45 185.809 257.45L191.217 231.788C191.977 232.549 130.371 242.695 130.371 242.695L135.969 235.333L99.5756 217.718L88.2659 236.352Z" fill="#FFBF9D"/>
<path d="M225.724 211.816C226.69 211.397 256.603 193.707 256.603 193.707L263.615 193.22L259.554 199.472L223.465 220.638L225.724 211.816Z" fill="#455A64"/>
<path d="M172.476 237.964C172.476 237.964 180.28 236.025 180.842 235.264C181.405 234.504 193.118 213.002 194.266 212.044C195.415 211.086 213.281 200.917 217.487 200.727C221.693 200.537 237.414 206.279 238.182 207.237C238.95 208.196 240.083 213.01 234.379 212.812C231.261 212.706 231.078 212.569 231.078 212.569L232.417 220.175C232.464 220.439 232.456 220.711 232.394 220.972C232.331 221.233 232.215 221.479 232.053 221.693C231.891 221.908 231.686 222.086 231.451 222.217C231.217 222.349 230.958 222.43 230.69 222.456C229.542 222.563 228.348 222.578 228.348 222.183C228.348 221.787 228.348 225.172 228.408 227.818C228.413 228.221 228.326 228.619 228.155 228.982C227.983 229.346 227.731 229.666 227.417 229.918C227.104 230.17 226.737 230.348 226.345 230.437C225.952 230.527 225.545 230.526 225.153 230.435C223.328 230.009 221.35 228.914 220.902 226.16L217.586 230.374L219.913 235.926L219.335 243.288C219.335 243.288 214.771 243.38 213.684 239.828C212.33 235.409 212.672 234.679 212.672 234.679C212.672 234.679 209.866 241.935 205.987 246.186C199.705 253.085 181.892 258.812 181.892 258.812L172.476 237.964Z" fill="#FFBF9D"/>
<path d="M205.713 220.387L205.85 220.319L206.284 220.144L207.934 219.513L214.216 217.124H214.277H214.33L220.712 221.247L220.803 221.308V221.422C220.485 223.116 220.6 224.864 221.138 226.502C221.381 227.384 221.835 228.193 222.461 228.86C223.16 229.507 224.018 229.956 224.948 230.161C225.428 230.274 225.917 230.353 226.408 230.396C226.637 230.445 226.875 230.438 227.1 230.376C227.326 230.313 227.533 230.197 227.704 230.037C227.875 229.877 228.005 229.679 228.083 229.458C228.16 229.237 228.183 229.001 228.15 228.769C228.15 228.252 228.15 227.719 228.15 227.194C228.15 225.072 228.15 222.89 228.15 220.669C228.15 219.977 228.15 219.277 228.15 218.592C228.171 217.932 228.008 217.279 227.678 216.706C227.015 215.561 226.202 214.51 225.26 213.58C223.48 211.793 221.565 210.146 219.533 208.652C218.569 207.927 217.609 207.25 216.65 206.621C216.179 206.317 215.699 206.005 215.22 205.746C214.739 205.548 214.215 205.48 213.699 205.549C211.744 205.868 209.845 206.462 208.056 207.313C204.709 208.781 202.116 210.226 200.313 211.192L198.244 212.31L197.697 212.591C197.636 212.628 197.569 212.653 197.499 212.668C197.499 212.668 198.465 212.082 200.237 211.055C202.009 210.028 204.595 208.568 207.942 207.062C209.755 206.177 211.687 205.557 213.676 205.222C214.252 205.145 214.838 205.223 215.372 205.45C215.874 205.716 216.354 206.02 216.833 206.332C217.799 206.956 218.772 207.64 219.746 208.363C221.802 209.858 223.738 211.514 225.534 213.314C226.504 214.267 227.34 215.346 228.021 216.524C228.376 217.149 228.555 217.858 228.538 218.577C228.538 219.269 228.538 219.961 228.538 220.661C228.538 222.89 228.538 225.072 228.538 227.194C228.538 227.727 228.538 228.259 228.538 228.776C228.558 229.06 228.521 229.344 228.431 229.613C228.333 229.887 228.168 230.133 227.952 230.328C227.74 230.515 227.488 230.653 227.216 230.73C226.943 230.808 226.657 230.824 226.378 230.777C225.865 230.732 225.357 230.648 224.857 230.526C223.864 230.302 222.948 229.819 222.202 229.126C221.539 228.413 221.058 227.549 220.803 226.609C220.249 224.908 220.142 223.093 220.491 221.338L220.56 221.513L214.216 217.337H214.33L208.003 219.619L206.306 220.212L205.865 220.357C205.766 220.38 205.713 220.395 205.713 220.387Z" fill="#FF9A6C"/>
<path d="M228.166 222.19C228.166 222.19 228.584 222.304 229.36 222.38C229.819 222.443 230.286 222.418 230.736 222.304C231.023 222.216 231.288 222.071 231.517 221.877C231.746 221.684 231.933 221.446 232.067 221.179C232.22 220.869 232.293 220.527 232.28 220.182C232.247 219.794 232.191 219.408 232.113 219.026C231.961 218.205 231.809 217.345 231.641 216.433C231.307 214.615 230.919 212.63 230.402 210.538C230.222 209.537 229.822 208.589 229.23 207.762C228.634 207.014 227.941 206.349 227.169 205.785C225.847 204.824 224.451 203.969 222.994 203.229C221.754 202.583 220.712 202.088 220.043 201.708C219.668 201.537 219.323 201.306 219.023 201.023C219.023 201.023 219.404 201.244 220.111 201.571C220.818 201.898 221.86 202.332 223.153 202.978C224.645 203.694 226.072 204.536 227.42 205.496C228.223 206.073 228.945 206.756 229.565 207.526C229.729 207.732 229.877 207.951 230.006 208.18C230.151 208.406 230.269 208.649 230.356 208.903C230.547 209.398 230.702 209.907 230.82 210.424C231.337 212.516 231.71 214.524 232.037 216.357C232.189 217.269 232.326 218.136 232.463 218.958C232.539 219.355 232.592 219.756 232.622 220.159C232.619 220.691 232.443 221.207 232.12 221.63C231.798 222.052 231.347 222.358 230.835 222.502C230.354 222.605 229.856 222.605 229.375 222.502C229.072 222.458 228.775 222.386 228.485 222.289C228.373 222.277 228.265 222.243 228.166 222.19Z" fill="#FF9A6C"/>
<path d="M191.559 254.408C192.784 253.194 193.772 251.763 194.472 250.187C195.872 247.22 196.929 242.49 196.815 236.778V236.709L196.853 236.664L200.595 232.405L200.648 232.344H200.732H208.923H208.976H209.014L212.771 234.511L212.893 234.58V234.739C212.742 235.658 212.799 236.599 213.06 237.493C213.326 238.436 213.712 239.341 214.209 240.185C214.714 241.145 215.451 241.964 216.354 242.566C216.786 242.848 217.271 243.041 217.779 243.134C218.287 243.226 218.808 243.217 219.312 243.106L219.183 243.273C219.426 240.573 219.662 237.949 219.883 235.5V235.584C218.217 231.781 216.278 228.366 213.92 225.864C212.78 224.725 211.373 223.888 209.828 223.43C208.511 222.995 207.163 222.657 205.797 222.418C203.31 221.97 201.31 221.779 199.941 221.658C199.231 221.625 198.526 221.528 197.834 221.369C197.834 221.369 198.594 221.445 199.948 221.528C201.302 221.612 203.333 221.787 205.843 222.205C207.223 222.436 208.585 222.764 209.919 223.186C211.514 223.643 212.968 224.493 214.148 225.658C216.574 228.199 218.529 231.621 220.233 235.462V235.5V235.546C220.012 238.018 219.784 240.626 219.548 243.326V243.463H219.426C218.868 243.593 218.29 243.61 217.726 243.512C217.161 243.414 216.622 243.203 216.141 242.893C215.182 242.254 214.398 241.386 213.859 240.368C212.863 238.611 212.133 236.603 212.513 234.61L212.604 234.838L208.854 232.663H208.953H200.762L200.891 232.602L197.134 236.846L197.172 236.725C197.256 242.505 196.138 247.251 194.67 250.232C194.351 250.897 193.987 251.54 193.582 252.157C193.187 252.666 192.875 253.115 192.571 253.442L191.848 254.142C191.767 254.245 191.669 254.335 191.559 254.408Z" fill="#FF9A6C"/>
<path d="M216.11 218.402C216.178 218.532 214.406 219.277 212.505 220.6C211.562 221.277 210.733 221.947 210.101 222.388C209.782 222.661 209.423 222.884 209.037 223.049C209.037 223.004 209.348 222.677 209.934 222.167C210.52 221.658 211.311 220.965 212.277 220.273C213.107 219.695 213.994 219.204 214.923 218.805C215.293 218.604 215.694 218.467 216.11 218.402Z" fill="#FF9A6C"/>
<path d="M98.6782 251.541C98.9855 251.213 99.3187 250.91 99.6746 250.636C99.994 250.354 100.435 250.019 100.899 249.662C101.363 249.305 101.941 248.863 102.595 248.453C103.249 248.042 103.949 247.563 104.748 247.129C105.546 246.696 106.406 246.239 107.318 245.783C109.33 244.846 111.413 244.07 113.547 243.463C115.69 242.888 117.875 242.481 120.081 242.246C121.1 242.17 122.066 242.079 122.971 242.079C123.876 242.079 124.728 242.079 125.496 242.079C126.264 242.079 126.964 242.186 127.572 242.239C128.181 242.292 128.706 242.376 129.131 242.452C129.575 242.508 130.015 242.594 130.447 242.71C130.001 242.715 129.556 242.679 129.116 242.604C128.69 242.551 128.166 242.49 127.557 242.459C126.949 242.429 126.257 242.353 125.488 242.361C124.72 242.368 123.884 242.361 122.986 242.361C122.089 242.361 121.123 242.482 120.119 242.566C117.925 242.834 115.754 243.263 113.623 243.851C111.51 244.462 109.443 245.224 107.44 246.133C106.535 246.582 105.66 246.985 104.877 247.441C104.093 247.897 103.356 248.301 102.717 248.711C102.078 249.122 101.508 249.517 100.998 249.86C100.488 250.202 100.078 250.514 99.7354 250.78C99.4042 251.062 99.0506 251.316 98.6782 251.541Z" fill="#FF9A6C"/>
<path d="M152.684 310.772L167.789 288.29L236.552 288.069L254.425 310.772H152.684Z" fill="#EBEBEB"/>
<path d="M125.957 303.836L141.062 281.353L220.23 281.095L227.699 303.836H125.957Z" fill="#FAFAFA"/>
<path d="M125.957 303.836V306.559L227.699 306.194V303.836H125.957Z" fill="#E0E0E0"/>
<path d="M216.83 296.268C216.83 296.375 199.626 296.466 178.413 296.466C157.201 296.466 139.989 296.375 139.989 296.268C139.989 296.162 157.186 296.07 178.413 296.07C199.641 296.07 216.83 296.192 216.83 296.268Z" fill="#E0E0E0"/>
<path d="M326.261 292.815L236.278 292.389C236.278 292.389 236.879 294.017 233.144 294.017L203.398 293.819C203.398 293.819 201.2 294.017 201.162 292.389C201.162 292.389 131.403 293.492 114.176 293.911C112.883 293.911 110.601 293.211 111.673 291.682L117.69 284.943L217.218 275.908L287.814 282.844L312.023 274.668H312.829C313.15 274.664 313.467 274.734 313.755 274.873C314.044 275.011 314.297 275.215 314.495 275.467L326.915 291.667C326.983 291.782 327.02 291.914 327.021 292.048C327.022 292.182 326.988 292.315 326.922 292.431C326.855 292.548 326.759 292.645 326.643 292.712C326.527 292.78 326.395 292.815 326.261 292.815Z" fill="#455A64"/>
<g opacity="0.2">
<path d="M288.217 290.891L127.919 292.055L165.62 281.133L212.616 282.365L259.635 280.616L288.217 290.891Z" fill="black"/>
</g>
<path d="M218.108 287.933L217.218 269.489C217.218 269.489 217.035 259.35 230.102 255.966C243.169 252.581 259.46 256.886 274.671 257.654C289.883 258.422 289.708 257.35 289.708 257.35L302.052 275.178L253.55 281.787C253.55 281.787 225.409 283.308 224.915 283.476C224.421 283.643 218.108 287.933 218.108 287.933Z" fill="#FAFAFA"/>
<path d="M218.267 288.586L217.218 271.261C217.218 271.261 217.393 261.115 204.326 257.73C191.259 254.345 174.976 258.658 159.764 259.426C149.116 259.958 145.815 259.867 144.796 259.768C144.652 259.75 144.506 259.77 144.373 259.826C144.239 259.882 144.123 259.972 144.036 260.088L132.361 276.942L180.885 283.551C180.885 283.551 208.981 285.072 209.521 285.247C210.061 285.422 218.267 288.586 218.267 288.586Z" fill="#FAFAFA"/>
<path d="M323.173 291.469L302.052 275.178C302.052 275.178 258.312 268.264 243.488 270.721C228.664 273.177 220.184 277.946 218.138 288.085L232.391 291.469C238.328 288.66 244.793 287.141 251.36 287.012C262.099 286.86 288.947 291.469 288.947 291.469H323.173Z" fill="#E0E0E0"/>
<path d="M202.995 291.469L218.031 287.932C218.031 287.932 216.959 271.816 192.53 269.123C192.53 269.123 185.631 267.032 161.11 271.337C136.59 275.641 134.087 275.482 134.087 275.482L113.681 292.389C113.681 292.389 125.85 293.317 135.875 291.469C145.899 289.621 163.438 283.323 182.414 285.171C201.39 287.019 202.995 291.469 202.995 291.469Z" fill="#E0E0E0"/>
<path d="M302.052 275.178L290.104 257.92L311.308 273.748L324.702 291.469H323.173L302.052 275.178Z" fill="#E0E0E0"/>
<path d="M134.164 275.482L143.907 260.179C143.907 260.179 124.504 275.953 124.329 276.417C124.155 276.881 113.765 292.389 113.765 292.389L134.164 275.482Z" fill="#E0E0E0"/>
<path d="M233.144 291.469H203.079L218.108 287.933L218.899 288.092" fill="#263238"/>
<path d="M218.108 287.933C218.207 287.933 218.108 283.909 217.887 278.95C217.667 273.991 217.393 269.968 217.294 269.976C217.195 269.983 217.294 273.999 217.522 278.958C217.75 283.917 218.009 287.94 218.108 287.933Z" fill="#263238"/>
<path d="M280.984 272.326C281.116 272.376 281.254 272.407 281.395 272.417L282.589 272.607L287.023 273.261L302.029 275.345H301.946L304.828 277.422L318.838 287.438L323.105 290.442L324.276 291.249C324.412 291.345 324.554 291.431 324.702 291.507C324.582 291.395 324.455 291.291 324.322 291.195L323.188 290.336L318.99 287.248L305.049 277.155L302.166 275.087H302.121L287.099 273.117L282.642 272.561L281.441 272.432C281.292 272.382 281.14 272.347 280.984 272.326Z" fill="#263238"/>
<path d="M220.085 278.258L220.222 278.121L220.587 277.718C220.906 277.353 221.386 276.836 222.055 276.197C223.981 274.413 226.165 272.931 228.535 271.801C232.108 270.105 235.92 268.964 239.837 268.416C244.666 267.757 249.536 267.455 254.41 267.511C263.272 267.482 272.123 268.109 280.893 269.39C284.254 269.876 286.977 270.363 288.833 270.713L290.978 271.116L291.541 271.223H291.731C291.674 271.192 291.612 271.171 291.548 271.162L290.993 271.032C290.506 270.918 289.791 270.751 288.856 270.561C287 270.173 284.292 269.648 280.938 269.131C272.158 267.777 263.286 267.115 254.402 267.153C249.51 267.092 244.62 267.405 239.776 268.089C235.832 268.657 232 269.829 228.413 271.565C226.036 272.733 223.857 274.268 221.956 276.113C221.453 276.595 220.976 277.103 220.526 277.634L220.191 278.068C220.115 278.205 220.077 278.25 220.085 278.258Z" fill="#263238"/>
<path d="M220.085 276.007L220.214 275.885L220.549 275.505C220.693 275.337 220.884 275.132 221.112 274.896C221.34 274.661 221.598 274.387 221.91 274.098C223.675 272.43 225.667 271.022 227.828 269.915C231.091 268.258 234.582 267.095 238.187 266.462C242.636 265.696 247.142 265.306 251.656 265.298C259.874 265.149 268.092 265.561 276.253 266.53C279.379 266.903 281.904 267.291 283.646 267.542L285.646 267.861L286.171 267.937H286.354L286.179 267.884L285.661 267.777C285.205 267.686 284.536 267.549 283.669 267.405C281.935 267.093 279.417 266.682 276.284 266.279C268.105 265.243 259.861 264.803 251.618 264.963C247.082 264.971 242.555 265.37 238.088 266.157C234.457 266.807 230.946 268.005 227.675 269.709C225.506 270.841 223.517 272.289 221.773 274.006C221.469 274.311 221.211 274.584 221.013 274.835C220.824 275.033 220.646 275.242 220.48 275.459L220.169 275.862C220.115 275.953 220.077 275.999 220.085 276.007Z" fill="#263238"/>
<path d="M220.085 273.756L220.207 273.634L220.549 273.261C220.686 273.086 220.876 272.888 221.097 272.66C221.318 272.432 221.584 272.151 221.858 271.862C223.608 270.21 225.582 268.812 227.722 267.709C230.956 266.052 234.419 264.885 237.997 264.248C242.402 263.477 246.865 263.08 251.337 263.062C259.467 262.889 267.598 263.27 275.676 264.203C278.779 264.56 281.281 264.918 283.007 265.176L284.993 265.481L285.51 265.557C285.57 265.563 285.632 265.563 285.692 265.557L285.517 265.511L285.008 265.404C284.551 265.321 283.89 265.184 283.03 265.039C281.311 264.735 278.809 264.34 275.706 263.952C267.621 262.958 259.474 262.549 251.33 262.727C246.836 262.741 242.351 263.148 237.928 263.944C234.332 264.6 230.857 265.8 227.623 267.504C225.48 268.633 223.515 270.071 221.789 271.77C221.485 272.067 221.234 272.348 221.029 272.592C220.823 272.835 220.633 273.041 220.496 273.216C220.359 273.39 220.268 273.505 220.192 273.611C220.15 273.654 220.114 273.703 220.085 273.756Z" fill="#263238"/>
<path d="M220.085 271.504L220.207 271.383L220.534 271.018C220.816 270.69 221.257 270.257 221.842 269.648C223.528 268.01 225.405 266.58 227.433 265.389C230.474 263.568 233.806 262.282 237.282 261.586C241.222 260.765 245.686 260.727 250.349 260.78C259.688 260.841 268.138 261.214 274.215 261.807C277.258 262.104 279.714 262.4 281.41 262.636L283.357 262.91L283.867 262.978H284.042L283.875 262.933L283.365 262.834C282.924 262.758 282.277 262.628 281.433 262.499C279.745 262.225 277.288 261.883 274.246 261.564C268.161 260.902 259.696 260.491 250.349 260.438C245.686 260.385 241.222 260.438 237.206 261.275C233.71 261.984 230.364 263.297 227.318 265.154C225.291 266.368 223.425 267.835 221.766 269.519C221.32 269.97 220.899 270.445 220.504 270.941L220.2 271.329C220.152 271.381 220.114 271.44 220.085 271.504Z" fill="#263238"/>
<path d="M220.085 269.253L220.207 269.131L220.526 268.766C220.808 268.439 221.226 267.96 221.789 267.374C223.372 265.673 225.16 264.176 227.113 262.917C228.481 262.041 229.936 261.309 231.456 260.735C233.224 260.087 235.05 259.608 236.909 259.305C241.202 258.633 245.55 258.378 249.892 258.544C259.156 258.803 267.514 259.639 273.576 260.065C276.618 260.301 279.06 260.461 280.756 260.552L282.711 260.643H283.22C283.278 260.652 283.337 260.652 283.395 260.643H283.22L282.718 260.59L280.764 260.438L273.599 259.845C267.514 259.343 259.194 258.476 249.9 258.217C245.535 258.036 241.162 258.291 236.848 258.978C234.97 259.293 233.126 259.787 231.342 260.453C229.811 261.049 228.345 261.801 226.968 262.697C225.003 263.98 223.213 265.514 221.644 267.26C221.097 267.869 220.694 268.363 220.435 268.705L220.138 269.093C220.108 269.2 220.078 269.253 220.085 269.253Z" fill="#263238"/>
<path d="M215.742 277.642C215.712 277.587 215.677 277.536 215.636 277.49L215.286 277.064C214.829 276.528 214.342 276.021 213.826 275.542C211.888 273.743 209.681 272.257 207.285 271.139C203.674 269.463 199.826 268.354 195.876 267.853C191.02 267.259 186.126 267.03 181.235 267.169C172.348 267.278 163.484 268.082 154.722 269.572C151.375 270.15 148.683 270.72 146.827 271.139C145.899 271.352 145.192 271.527 144.705 271.648L144.15 271.793L143.967 271.846C144.033 271.856 144.1 271.856 144.165 271.846L144.72 271.74L146.857 271.291C148.721 270.911 151.421 270.378 154.767 269.831C163.513 268.401 172.352 267.623 181.212 267.503C186.085 267.358 190.961 267.577 195.8 268.157C199.728 268.634 203.56 269.709 207.163 271.344C209.553 272.434 211.766 273.878 213.727 275.626C214.411 276.242 214.906 276.759 215.248 277.147L215.621 277.55L215.742 277.642Z" fill="#263238"/>
<path d="M215.697 275.391C215.697 275.391 215.697 275.337 215.598 275.246L215.279 274.851C215.107 274.636 214.924 274.43 214.731 274.235C214.51 273.984 214.244 273.717 213.97 273.421C212.192 271.735 210.175 270.321 207.985 269.222C204.681 267.577 201.147 266.438 197.504 265.845C193.014 265.145 188.472 264.824 183.928 264.887C175.695 264.869 167.472 265.449 159.323 266.621C156.205 267.078 153.688 267.526 151.961 267.869C151.094 268.036 150.44 268.188 149.976 268.279L149.466 268.401C149.407 268.411 149.348 268.426 149.292 268.447H149.474L149.991 268.363L151.992 268.013C153.726 267.716 156.243 267.298 159.361 266.872C167.504 265.769 175.712 265.226 183.928 265.245C188.443 265.177 192.957 265.487 197.42 266.173C201.038 266.737 204.551 267.842 207.84 269.451C210.024 270.518 212.045 271.89 213.841 273.527C214.161 273.816 214.434 274.075 214.655 274.288C214.876 274.501 215.081 274.721 215.233 274.889L215.575 275.261L215.697 275.391Z" fill="#263238"/>
<path d="M215.651 273.139C215.651 273.139 215.651 273.086 215.552 272.995L215.24 272.607C215.068 272.392 214.886 272.187 214.693 271.991C214.48 271.748 214.221 271.481 213.932 271.185C212.175 269.512 210.181 268.108 208.015 267.017C204.74 265.369 201.235 264.228 197.618 263.632C193.18 262.915 188.689 262.584 184.194 262.644C176.039 262.604 167.892 263.155 159.817 264.294C156.722 264.735 154.235 265.176 152.516 265.511C151.664 265.671 150.995 265.815 150.546 265.906L150.036 266.02L149.869 266.074C149.927 266.082 149.986 266.082 150.044 266.074L150.561 265.99L152.546 265.648C154.265 265.359 156.76 264.956 159.855 264.545C167.924 263.487 176.056 262.979 184.194 263.024C188.665 262.965 193.133 263.285 197.549 263.982C201.131 264.562 204.606 265.669 207.863 267.268C210.022 268.335 212.022 269.699 213.803 271.322C214.115 271.611 214.381 271.869 214.609 272.082C214.837 272.295 215.027 272.508 215.172 272.675L215.522 273.041L215.651 273.139Z" fill="#263238"/>
<path d="M215.606 269.253C215.103 268.575 214.524 267.957 213.879 267.412C212.078 265.892 210.034 264.686 207.833 263.845C206.441 263.275 204.882 262.75 203.185 262.24C201.382 261.677 199.546 261.225 197.687 260.886C193.732 260.202 189.32 260.255 184.704 260.392C175.47 260.666 167.21 261.731 161.194 262.392L154.098 263.191L152.166 263.404L151.664 263.465H151.497H151.672H152.174L154.113 263.313C155.794 263.168 158.228 262.932 161.225 262.621C167.226 262.02 175.508 260.993 184.711 260.719C189.313 260.59 193.716 260.521 197.641 261.191C199.487 261.513 201.31 261.95 203.102 262.499C204.798 262.993 206.349 263.503 207.734 264.058C209.934 264.868 211.989 266.029 213.818 267.496C214.1 267.735 214.37 267.989 214.624 268.256C214.822 268.434 215.009 268.622 215.187 268.819L215.522 269.169L215.606 269.253Z" fill="#263238"/>
<path d="M185.555 275.125V286.069L181.676 282.784L177.873 285.894L177.653 275.246C177.653 275.246 183.928 274.896 185.555 275.125Z" fill="#FF725E"/>
<path d="M141.678 281.475C141.744 281.482 141.81 281.482 141.876 281.475L142.446 281.354L144.644 280.859C146.545 280.433 149.314 279.84 152.752 279.209C156.19 278.577 160.304 277.908 164.883 277.208L172.063 276.098C174.622 275.677 177.206 275.423 179.798 275.337C182.394 275.239 184.993 275.274 187.586 275.444C189.995 275.581 192.388 275.915 194.743 276.44C198.69 277.342 202.418 279.02 205.71 281.376C206.955 282.265 208.139 283.236 209.255 284.282C210.243 285.194 211.057 286.016 211.711 286.7L213.232 288.282L213.62 288.693L213.765 288.83C213.732 288.775 213.694 288.724 213.651 288.678L213.286 288.244C212.966 287.856 212.487 287.309 211.848 286.609C211.209 285.909 210.411 285.088 209.429 284.145C208.319 283.083 207.14 282.095 205.9 281.186C202.595 278.78 198.839 277.062 194.857 276.136C192.483 275.6 190.069 275.259 187.639 275.117C185.034 274.937 182.422 274.899 179.813 275.003C177.205 275.08 174.606 275.335 172.032 275.763L164.86 276.881C160.297 277.642 156.167 278.296 152.737 278.965C149.306 279.635 146.538 280.251 144.636 280.715C143.686 280.943 142.956 281.141 142.461 281.27L141.891 281.422C141.739 281.445 141.67 281.468 141.678 281.475Z" fill="#263238"/>
<path d="M223.242 288.959C223.305 288.911 223.364 288.858 223.417 288.799L223.896 288.305C224.109 288.092 224.36 287.818 224.656 287.506L225.774 286.472C228.25 284.322 231.015 282.53 233.989 281.148C238.476 279.083 243.255 277.726 248.158 277.125C254.203 276.433 260.308 276.474 266.343 277.246C272.77 278.007 278.817 279.186 284.323 280.25C289.83 281.315 294.796 282.228 299.002 282.798C302.327 283.26 305.672 283.555 309.027 283.681C310.221 283.681 311.141 283.681 311.765 283.681H312.479H312.723C312.642 283.671 312.56 283.671 312.479 283.681H311.765C311.141 283.681 310.243 283.635 309.034 283.589C306.661 283.475 303.239 283.194 299.04 282.601C294.842 282.007 289.913 281.079 284.384 279.984C278.855 278.889 272.839 277.703 266.389 276.942C260.331 276.163 254.201 276.13 248.135 276.843C243.203 277.467 238.399 278.858 233.897 280.965C230.916 282.378 228.154 284.215 225.698 286.419L224.603 287.476C224.291 287.795 224.048 288.077 223.843 288.297L223.386 288.814C223.334 288.859 223.286 288.907 223.242 288.959Z" fill="#263238"/>
<path d="M223.242 291.233C223.305 291.186 223.364 291.132 223.417 291.074L223.896 290.579C224.109 290.366 224.36 290.085 224.656 289.781L225.774 288.746C228.25 286.596 231.015 284.804 233.989 283.422C238.476 281.358 243.256 279.999 248.158 279.391C254.203 278.7 260.308 278.741 266.343 279.513C272.77 280.273 278.817 281.46 284.323 282.517C289.83 283.574 294.796 284.502 299.002 285.073C302.327 285.535 305.672 285.829 309.027 285.955C310.221 285.955 311.141 285.993 311.765 285.955H312.479C312.56 285.966 312.642 285.966 312.723 285.955H312.479H311.765C311.141 285.955 310.243 285.917 309.034 285.864C306.661 285.757 303.239 285.476 299.04 284.883C294.842 284.289 289.913 283.361 284.384 282.266C278.855 281.171 272.839 279.984 266.389 279.224C260.331 278.451 254.201 278.421 248.135 279.133C243.203 279.753 238.398 281.144 233.897 283.255C230.916 284.668 228.154 286.505 225.698 288.708L224.603 289.765C224.291 290.077 224.048 290.366 223.843 290.587L223.386 291.104C223.335 291.143 223.286 291.187 223.242 291.233Z" fill="#263238"/>
<path d="M230.36 289.301C230.494 289.225 230.621 289.139 230.741 289.043C230.992 288.868 231.326 288.571 231.813 288.282C233.148 287.333 234.557 286.494 236.027 285.772C238.217 284.697 240.51 283.845 242.872 283.232C245.803 282.448 248.804 281.949 251.831 281.741C257.349 281.483 262.88 281.738 268.351 282.502L273.317 283.156L274.664 283.331C274.821 283.362 274.982 283.375 275.143 283.369C274.991 283.323 274.836 283.287 274.679 283.262L273.34 283.027C272.169 282.829 270.48 282.563 268.381 282.266C262.912 281.43 257.373 281.14 251.846 281.399C248.807 281.596 245.794 282.088 242.849 282.867C240.461 283.503 238.146 284.387 235.943 285.506C234.473 286.248 233.073 287.121 231.76 288.115C231.296 288.457 230.999 288.769 230.733 288.959C230.594 289.056 230.469 289.171 230.36 289.301Z" fill="#263238"/>
<path d="M217.256 270.371L217.172 270.188L216.944 269.633L216.115 267.496C215.124 264.869 213.313 262.632 210.951 261.115C208.015 259.137 203.885 257.867 199.246 257.312C194.193 256.755 189.098 256.699 184.034 257.145C181.326 257.35 178.71 257.631 176.155 257.958C173.599 258.285 171.173 258.628 168.815 258.81C164.122 259.198 159.886 259.373 156.334 259.517C152.782 259.662 149.9 259.738 147.907 259.776H145.625H145.032H144.827C144.895 259.766 144.964 259.766 145.032 259.776L145.625 259.738L147.907 259.632L156.319 259.251C159.871 259.069 164.107 258.856 168.785 258.453C171.127 258.263 173.569 257.905 176.109 257.578C178.649 257.251 181.288 256.962 184.004 256.757C189.101 256.307 194.23 256.374 199.314 256.954C203.984 257.563 208.159 258.871 211.126 260.909C213.518 262.473 215.33 264.779 216.282 267.473C216.602 268.393 216.86 269.116 217.043 269.641L217.233 270.204C217.248 270.258 217.255 270.314 217.256 270.371Z" fill="#263238"/>
<path d="M217.347 270.188C217.339 270.12 217.339 270.051 217.347 269.983L217.385 269.374C217.44 268.587 217.562 267.806 217.75 267.04C218.039 265.828 218.468 264.654 219.028 263.541C219.761 262.046 220.834 260.743 222.162 259.738C225.029 257.456 229.166 255.654 233.943 254.817C239.129 253.97 244.404 253.806 249.633 254.33C252.417 254.559 255.117 254.916 257.718 255.327C260.319 255.737 262.799 256.262 265.179 256.62C269.398 257.259 273.653 257.625 277.919 257.715C281.562 257.783 284.513 257.715 286.551 257.57L288.886 257.403L289.495 257.357H289.708L289.503 257.403L288.894 257.487C288.362 257.555 287.571 257.631 286.551 257.715C284.521 257.875 281.562 258.027 277.911 257.989C273.627 257.935 269.35 257.594 265.111 256.97C262.715 256.62 260.243 256.103 257.65 255.707C255.056 255.312 252.364 254.946 249.595 254.711C244.397 254.199 239.155 254.354 233.996 255.175C229.775 255.788 225.769 257.428 222.329 259.951C221.017 260.922 219.951 262.188 219.218 263.647C218.65 264.741 218.203 265.894 217.887 267.085C217.692 267.835 217.547 268.598 217.454 269.367C217.454 269.61 217.4 269.808 217.385 269.968C217.38 270.042 217.367 270.116 217.347 270.188Z" fill="#263238"/>
<defs>
<filter id="filter0_f_86_2354" x="0.0894775" y="179.233" width="431.862" height="194.256" filterUnits="userSpaceOnUse" color-interpolation-filters="sRGB">
<feFlood flood-opacity="0" result="BackgroundImageFix"/>
<feBlend mode="normal" in="SourceGraphic" in2="BackgroundImageFix" result="shape"/>
<feGaussianBlur stdDeviation="32.4553" result="effect1_foregroundBlur_86_2354"/>
</filter>
<linearGradient id="paint0_linear_86_2354" x1="207.803" y1="148.445" x2="207.803" y2="266.052" gradientUnits="userSpaceOnUse">
<stop stop-color="#A95FF1"/>
<stop offset="1" stop-color="#7557C6"/>
</linearGradient>
<linearGradient id="paint1_linear_86_2354" x1="129.629" y1="152.083" x2="129.629" y2="238.284" gradientUnits="userSpaceOnUse">
<stop stop-color="#A75FF0"/>
<stop offset="1" stop-color="#7758C7"/>
</linearGradient>
</defs>
</svg>
