<svg width="411" height="66" viewBox="0 0 411 66" fill="none" xmlns="http://www.w3.org/2000/svg">
<path d="M378.353 0.964844C360.657 0.964844 346.312 15.3096 346.312 33.0051C346.312 50.7007 360.657 65.0454 378.353 65.0454C396.048 65.0454 410.393 50.7007 410.393 33.0051C410.393 15.3096 396.048 0.964844 378.353 0.964844ZM391.386 27.2112C391.399 27.4849 391.403 27.7585 391.403 28.0256C391.403 36.3694 385.058 45.9848 373.45 45.9848C370.02 45.9905 366.661 45.0054 363.778 43.1479C364.268 43.208 364.772 43.2313 365.283 43.2313C368.24 43.2313 370.96 42.2267 373.12 40.5313C371.804 40.5054 370.529 40.0697 369.472 39.2848C368.415 38.4999 367.63 37.4049 367.225 36.1524C368.171 36.3321 369.144 36.2945 370.072 36.0423C368.644 35.7535 367.36 34.9795 366.437 33.8518C365.514 32.724 365.01 31.3117 365.009 29.8545V29.7778C365.86 30.2483 366.835 30.5354 367.87 30.5688C366.531 29.6774 365.583 28.3081 365.22 26.741C364.857 25.1739 365.106 23.5274 365.917 22.1381C367.502 24.0873 369.479 25.6818 371.72 26.8184C373.96 27.955 376.414 28.6085 378.924 28.7364C378.605 27.3824 378.742 25.961 379.314 24.693C379.886 23.4251 380.861 22.3817 382.088 21.7252C383.314 21.0686 384.723 20.8356 386.096 21.0624C387.468 21.2891 388.727 21.963 389.677 22.9792C391.089 22.6998 392.444 22.1817 393.682 21.4473C393.211 22.9096 392.226 24.1513 390.909 24.9417C392.16 24.791 393.381 24.4546 394.533 23.9437C393.687 25.2117 392.621 26.3182 391.386 27.2112Z" fill="#C2D7FF"/>
<path d="M263.008 0.964844C245.312 0.964844 230.968 15.3096 230.968 33.0051C230.968 50.7007 245.312 65.0454 263.008 65.0454C280.704 65.0454 295.048 50.7007 295.048 33.0051C295.048 15.3096 280.704 0.964844 263.008 0.964844ZM255.165 46.2852H248.677V25.4056H255.165V46.2852ZM251.881 22.8424C249.831 22.8424 248.507 21.3905 248.507 19.5949C248.507 17.7626 249.872 16.3542 251.964 16.3542C254.057 16.3542 255.338 17.7626 255.378 19.5949C255.378 21.3905 254.057 22.8424 251.881 22.8424ZM278.861 46.2852H272.373V34.714C272.373 32.0206 271.432 30.1916 269.086 30.1916C267.293 30.1916 266.229 31.4298 265.758 32.6213C265.585 33.0452 265.541 33.646 265.541 34.2434V46.2818H259.05V32.064C259.05 29.4574 258.966 27.2779 258.88 25.4022H264.517L264.814 28.3026H264.944C265.798 26.9408 267.891 24.9317 271.392 24.9317C275.661 24.9317 278.861 27.7919 278.861 33.9397V46.2852Z" fill="#C2D7FF"/>
<path d="M157.675 33.0051C157.675 35.6607 156.62 38.2074 154.742 40.0851C152.865 41.9628 150.318 43.0177 147.662 43.0177C145.007 43.0177 142.46 41.9628 140.582 40.0851C138.705 38.2074 137.65 35.6607 137.65 33.0051C137.65 32.4344 137.71 31.8771 137.813 31.3364H134.312V44.6765C134.312 45.6043 135.063 46.3553 135.991 46.3553H159.337C159.782 46.3544 160.208 46.1771 160.522 45.8624C160.836 45.5477 161.013 45.1212 161.013 44.6765V31.3364H157.511C157.615 31.8771 157.675 32.4344 157.675 33.0051ZM147.662 39.6802C148.539 39.68 149.407 39.5071 150.217 39.1713C151.027 38.8356 151.763 38.3436 152.383 37.7235C153.003 37.1033 153.495 36.3671 153.83 35.557C154.165 34.7469 154.338 33.8786 154.337 33.0018C154.337 32.125 154.164 31.2568 153.829 30.4469C153.493 29.6369 153.001 28.901 152.381 28.2811C151.761 27.6613 151.024 27.1697 150.214 26.8343C149.404 26.499 148.536 26.3265 147.659 26.3267C145.888 26.3272 144.19 27.0311 142.938 28.2835C141.687 29.5359 140.984 31.2344 140.984 33.0051C140.984 34.7759 141.688 36.474 142.941 37.7258C144.193 38.9776 145.892 39.6807 147.662 39.6802ZM155.672 25.9963H159.674C159.94 25.9963 160.195 25.8909 160.383 25.7033C160.572 25.5156 160.678 25.2609 160.679 24.9951V20.9934C160.679 20.7269 160.573 20.4714 160.385 20.283C160.196 20.0946 159.941 19.9888 159.674 19.9888H155.672C155.406 19.9888 155.15 20.0946 154.962 20.283C154.774 20.4714 154.668 20.7269 154.668 20.9934V24.9951C154.671 25.5458 155.122 25.9963 155.672 25.9963ZM147.662 0.964844C139.165 0.964844 131.015 4.34051 125.006 10.3492C118.998 16.358 115.622 24.5075 115.622 33.0051C115.622 41.5028 118.998 49.6523 125.006 55.6611C131.015 61.6698 139.165 65.0454 147.662 65.0454C151.87 65.0454 156.036 64.2167 159.924 62.6065C163.811 60.9964 167.343 58.6363 170.318 55.6611C173.294 52.6858 175.654 49.1537 177.264 45.2664C178.874 41.3791 179.703 37.2127 179.703 33.0051C179.703 28.7976 178.874 24.6312 177.264 20.7439C175.654 16.8565 173.294 13.3244 170.318 10.3492C167.343 7.37401 163.811 5.01394 159.924 3.40377C156.036 1.79359 151.87 0.964844 147.662 0.964844ZM164.35 45.9848C164.35 48.024 162.681 49.6928 160.642 49.6928H134.683C132.643 49.6928 130.975 48.024 130.975 45.9848V20.0255C130.975 17.9863 132.643 16.3175 134.683 16.3175H160.642C162.681 16.3175 164.35 17.9863 164.35 20.0255V45.9848Z" fill="#C2D7FF"/>
<path d="M64.3579 33.2014C64.3579 15.3972 50.0137 0.964844 32.3216 0.964844C14.6216 0.968848 0.277344 15.3972 0.277344 33.2054C0.277344 49.2916 11.9946 62.6267 27.308 65.0454V42.5199H19.1788V33.2054H27.316V26.0973C27.316 18.0202 32.1014 13.5591 39.4177 13.5591C42.9257 13.5591 46.5898 14.1878 46.5898 14.1878V22.1168H42.5492C38.5727 22.1168 37.3313 24.6036 37.3313 27.1545V33.2014H46.2134L44.7958 42.5159H37.3273V65.0415C52.6407 62.6227 64.3579 49.2876 64.3579 33.2014Z" fill="#C2D7FF"/>
</svg>
