<svg width="166" height="168" viewBox="0 0 166 168" fill="none" xmlns="http://www.w3.org/2000/svg">
<g filter="url(#filter0_f_86_3195)">
<ellipse cx="83.0125" cy="83.6179" rx="57.9593" ry="58.6179" fill="#D1537E"/>
</g>
<path d="M82.7223 124.091C78.8148 124.091 74.9134 124.091 71.0059 124.091C68.9056 124.091 68.2767 123.385 68.1607 121.293C67.9165 116.86 67.0861 112.545 65.3888 108.435C65.0408 107.593 64.5402 106.844 63.8869 106.206C59.9427 102.313 56.9938 97.7625 55.5223 92.3767C53.2511 84.0567 54.4844 76.1947 59.1673 68.9704C63.6488 62.0556 69.974 57.7779 77.9967 56.3293C86.8191 54.7384 94.7501 56.9422 101.576 62.8418C107.309 67.7942 110.734 74.1209 111.51 81.7229C112.468 91.0891 109.715 99.2296 102.883 105.742C100.923 107.612 99.8604 109.89 99.0606 112.378C98.0776 115.436 97.4793 118.569 97.2839 121.782C97.1862 123.379 96.4719 124.054 94.8906 124.072C92.4484 124.103 90.0001 124.085 87.5579 124.085C85.946 124.085 84.3403 124.085 82.7284 124.085L82.7223 124.091ZM82.7223 119.856C85.8788 119.856 89.0415 119.832 92.198 119.875C92.9917 119.887 93.3153 119.634 93.3947 118.829C93.7549 115.356 94.5914 111.994 95.898 108.763C96.771 106.603 97.8639 104.566 99.6712 103.012C101.906 101.087 103.689 98.7653 104.934 96.1034C108.64 88.1981 108.53 80.3176 104.25 72.6599C98.8164 62.9346 88.0341 58.2113 77.3067 60.7989C71.8057 62.1237 67.3059 65.1199 63.8136 69.608C60.5044 73.8671 58.7399 78.7328 58.6056 84.1681C58.4408 90.8291 60.8219 96.6049 65.1934 101.384C68.0264 104.485 69.9863 107.859 70.9143 111.933C71.4333 114.205 71.8545 116.483 72.0865 118.798C72.172 119.621 72.4773 119.9 73.3199 119.881C76.4459 119.832 79.578 119.863 82.7101 119.863L82.7223 119.856Z" fill="white"/>
<path d="M82.984 133.205C79.6504 133.205 76.3107 133.224 72.9771 133.199C71.237 133.187 70.2846 131.701 70.9684 130.159C71.2065 129.627 71.5973 129.274 72.1406 129.132C72.5131 129.039 72.9038 128.983 73.2885 128.983C79.8091 128.977 86.3359 128.983 92.8566 128.983C93.7174 128.983 94.5295 129.113 95.0362 129.943C95.9765 131.484 95.0301 133.18 93.168 133.205C90.9028 133.236 88.6438 133.211 86.3786 133.205C85.2491 133.205 84.1135 133.205 82.984 133.205Z" fill="white"/>
<path d="M83.0146 142.986C81.4944 142.986 79.9741 143.024 78.4538 142.974C76.842 142.931 75.9018 141.711 76.2803 140.256C76.5306 139.309 77.2999 138.74 78.4538 138.734C81.5554 138.721 84.657 138.715 87.7525 138.734C89.0957 138.74 89.9077 139.526 89.9322 140.739C89.9566 142.008 89.169 142.906 87.838 142.955C86.2322 143.017 84.6204 142.968 83.0085 142.968C83.0085 142.968 83.0085 142.968 83.0085 142.974L83.0146 142.986Z" fill="white"/>
<path d="M120.496 52.9205C120.46 53.5581 120.209 54.0658 119.8 54.4867C118.201 56.1148 116.613 57.7553 114.995 59.3587C114.116 60.2315 112.816 60.2253 112.022 59.4082C111.179 58.5477 111.149 57.3282 112.028 56.3996C113.622 54.7281 115.246 53.0877 116.882 51.4534C117.602 50.7353 118.476 50.6362 119.355 51.0386C120.173 51.4162 120.411 52.1281 120.503 52.9081L120.496 52.9205Z" fill="white"/>
<path d="M84.7433 40.8054C84.7433 41.8268 84.7677 42.8545 84.7433 43.8759C84.7128 45.0583 83.919 45.8693 82.7895 45.9435C81.776 46.0054 80.7869 45.2564 80.6831 44.1607C80.4694 41.9383 80.5 39.7035 80.6587 37.4811C80.7503 36.2244 81.7882 35.432 82.9116 35.5497C84.0167 35.6611 84.725 36.5339 84.7494 37.8216C84.7494 37.8525 84.7494 37.8835 84.7494 37.9144C84.7494 38.8802 84.7494 39.8459 84.7494 40.8054H84.7433Z" fill="white"/>
<path d="M54.1243 57.6802C54.045 58.5159 53.6542 59.1288 52.9399 59.5064C52.1278 59.9336 51.3524 59.7726 50.6992 59.1969C49.9787 58.5716 49.3193 57.8721 48.6477 57.1912C47.8906 56.4297 47.1336 55.6621 46.3887 54.8821C45.5156 53.9659 45.4301 52.6349 46.175 51.8549C47.0114 50.9821 48.3058 50.9016 49.2338 51.7992C50.7358 53.254 52.1645 54.7768 53.6115 56.2935C53.9717 56.6711 54.106 57.1788 54.1304 57.6802H54.1243Z" fill="white"/>
<path d="M39.5133 82.1153C40.5268 82.1153 41.5403 82.1091 42.5538 82.1153C43.7016 82.1277 44.4892 82.951 44.5015 84.1396C44.5137 85.3592 43.8054 86.2011 42.6271 86.2196C40.484 86.2568 38.3349 86.2568 36.1858 86.2196C35.0624 86.2011 34.2442 85.2415 34.2748 84.1211C34.3053 83.0377 35.1173 82.1648 36.2041 82.1277C37.3031 82.0906 38.4082 82.1215 39.5133 82.1215V82.1153Z" fill="white"/>
<path d="M126.711 86.2374C125.728 86.2374 124.745 86.2498 123.762 86.2374C122.474 86.2127 121.668 85.4079 121.662 84.1698C121.662 82.9441 122.401 82.1517 123.671 82.1331C125.753 82.1022 127.841 82.1083 129.923 82.1331C131.058 82.1517 131.883 83.0617 131.877 84.176C131.87 85.3212 131.077 86.1879 129.923 86.225C128.854 86.2622 127.78 86.2312 126.705 86.2312L126.711 86.2374Z" fill="white"/>
<path d="M81.806 97.0037C82.27 96.2856 82.4959 95.6108 82.7584 94.9485C85.4265 88.1946 88.0885 81.4346 90.7688 74.6807C91.3061 73.325 92.4234 72.7555 93.498 73.2012C94.713 73.7026 95.1709 74.7736 94.6275 76.1974C93.5835 78.9584 92.4662 81.6946 91.3794 84.4432C89.389 89.4884 87.3925 94.5337 85.4204 99.5852C84.8404 101.065 83.8513 102.012 82.2639 102.148C80.6765 102.284 79.5286 101.517 78.741 100.142C76.3416 95.9637 73.9299 91.7975 71.5304 87.6189C71.158 86.9689 70.755 86.3189 70.9382 85.4955C71.1458 84.567 71.7197 83.9851 72.6172 83.8303C73.5086 83.6755 74.2901 84.016 74.7602 84.8208C76.83 88.3865 78.8754 91.9646 80.9268 95.5428C81.1893 96.0009 81.4763 96.4528 81.806 96.9975V97.0037Z" fill="white"/>
<defs>
<filter id="filter0_f_86_3195" x="0.0532227" y="0" width="165.918" height="167.236" filterUnits="userSpaceOnUse" color-interpolation-filters="sRGB">
<feFlood flood-opacity="0" result="BackgroundImageFix"/>
<feBlend mode="normal" in="SourceGraphic" in2="BackgroundImageFix" result="shape"/>
<feGaussianBlur stdDeviation="12.5" result="effect1_foregroundBlur_86_3195"/>
</filter>
</defs>
</svg>
