<svg width="219" height="221" viewBox="0 0 219 221" fill="none" xmlns="http://www.w3.org/2000/svg">
<g filter="url(#filter0_f_86_3105)">
<ellipse cx="109.148" cy="110.722" rx="59.1479" ry="60.2432" fill="#CC4E89"/>
</g>
<g clip-path="url(#clip0_86_3105)">
<path d="M118.763 86.898C122.592 86.1624 126.414 86.323 130.205 87.2151C131.467 87.5127 132.7 87.949 133.924 88.4049C136.769 89.4554 139.299 91.0116 141.621 92.9118C143.417 94.3841 145.005 96.067 146.374 97.9533C148.152 100.404 149.491 103.053 150.438 105.936C151.137 108.065 151.557 110.24 151.726 112.45C151.867 114.282 151.801 116.129 151.573 117.968C151.32 120.017 150.832 122 150.163 123.945C149.735 125.183 149.24 126.393 148.589 127.532C148.34 127.968 148.44 128.231 148.793 128.534C149.43 129.08 150.071 129.626 150.643 130.237C151.243 130.879 151.359 131.66 150.965 132.46C150.837 132.719 150.826 132.885 151.048 133.082C152.035 133.967 153.019 134.857 153.998 135.749C154.179 135.917 154.339 135.911 154.539 135.755C156.064 134.563 156.733 134.561 158.147 135.816C161.786 139.05 165.41 142.305 169.037 145.551C171.944 148.154 174.843 150.763 177.745 153.37C179.009 154.505 180.28 155.634 181.538 156.769C182.616 157.741 182.719 158.849 181.793 160.024C181.556 160.324 181.545 160.491 181.859 160.747C183.484 162.09 183.579 164.286 182.024 165.741C181.577 166.164 181.206 166.666 180.779 167.106C179.5 168.428 177.563 168.451 176.28 167.15C175.937 166.801 175.71 166.81 175.355 167.149C174.277 168.191 173.154 168.149 172.038 167.14C169.327 164.685 166.6 162.242 163.874 159.798C160.987 157.205 158.092 154.618 155.206 152.03C153.232 150.259 151.263 148.488 149.294 146.717C148.949 146.408 148.623 146.079 148.266 145.777C147.457 145.092 147.396 143.762 148.148 142.894C148.508 142.479 148.536 142.233 148.1 141.865C147.187 141.096 146.311 140.28 145.435 139.469C145.19 139.24 145.022 139.199 144.719 139.408C143.959 139.93 143.148 139.887 142.385 139.283C141.73 138.757 141.112 138.19 140.489 137.623C140.207 137.366 139.999 137.376 139.668 137.599C137.568 139.044 135.321 140.195 132.905 141.045C130.299 141.956 127.613 142.441 124.888 142.598C121.468 142.794 118.099 142.321 114.841 141.237C110.828 139.899 107.279 137.802 104.208 134.872C101.69 132.472 99.7051 129.706 98.1887 126.585C96.8271 123.785 96.0268 120.827 95.6523 117.754C95.3358 115.133 95.4527 112.516 95.8739 109.903C96.4909 106.102 97.852 102.597 99.9232 99.3712C102.282 95.7028 105.34 92.7343 109.097 90.4839C111.127 89.2695 113.265 88.3345 115.533 87.6346C116.595 87.3041 117.676 87.135 118.761 86.885L118.763 86.898ZM144.735 110.806C142.762 99.1538 131.459 91.2237 119.523 93.5326C108.316 95.7034 100.457 106.62 102.595 118.373C104.678 129.81 115.79 137.898 127.941 135.467C139.088 133.235 146.823 122.421 144.735 110.806Z" fill="white"/>
<path d="M144.225 142.261C144.057 142.273 143.887 142.268 143.719 142.28C142.553 142.37 141.542 141.957 140.666 141.244C139.831 140.563 139.857 140.532 138.927 141.075C138.878 141.101 138.83 141.132 138.782 141.163C138.466 141.344 138.304 141.568 138.332 141.977C138.401 142.923 138.342 143.873 138.35 144.824C138.369 146.927 138.29 149.026 138.292 151.127C138.295 152.253 138.333 152.269 137.232 152.299C136.17 152.327 135.105 152.337 134.042 152.334C132.551 152.33 131.059 152.296 129.567 152.289C128.58 152.285 127.589 152.309 126.602 152.306C124.44 152.297 122.279 152.269 120.117 152.256C119.089 152.251 118.064 152.281 117.041 152.275C114.954 152.261 112.867 152.221 110.781 152.212C109.084 152.205 107.387 152.251 105.691 152.249C103.548 152.245 101.407 152.201 99.2621 152.189C97.6184 152.182 95.9739 152.245 94.3335 152.206C92.7689 152.167 91.2041 152.177 89.6369 152.174C88.6681 152.172 87.6954 152.224 86.7275 152.177C85.3093 152.107 83.8924 152.171 82.4775 152.145C80.973 152.118 79.4578 152.105 77.9495 152.132C77.4381 152.142 77.3744 151.908 77.384 151.484C77.422 150.034 77.4599 148.585 77.435 147.133C77.4155 146.09 77.4546 145.05 77.4213 144.004C77.3747 142.481 77.4532 140.957 77.4644 139.432C77.4703 138.407 77.4366 137.384 77.4433 136.363C77.4533 134.932 77.5029 133.498 77.5086 132.067C77.5124 130.374 77.4671 128.681 77.4752 126.988C77.4843 124.871 77.5331 122.751 77.5501 120.628C77.5568 119.607 77.5101 118.587 77.5168 117.566C77.5277 115.409 77.566 113.255 77.5769 111.098C77.5856 109.458 77.5545 107.82 77.5588 106.18C77.5666 104.006 77.6055 101.83 77.6177 99.6546C77.6218 98.6697 77.5942 97.6815 77.5984 96.6966C77.6065 95.1543 77.6501 93.6102 77.6358 92.0674C77.6263 91.0805 77.621 90.0928 77.6389 89.1099C77.667 87.6041 77.6459 86.0982 77.6739 84.5925C77.7019 82.9353 77.6497 81.279 77.6553 79.6214C77.6636 77.5001 77.7081 75.3814 77.7208 73.2594C77.723 72.591 77.8701 72.4135 78.5442 72.4901C79.4186 72.5892 80.2948 72.4964 81.1708 72.5284C82.3243 72.5647 83.4759 72.5657 84.6273 72.54C85.6899 72.5167 86.7522 72.6181 87.8198 72.5226C88.1627 72.4931 88.3155 72.3725 88.333 72.0176C88.3769 71.1058 88.4027 70.1928 88.689 69.3138C88.7928 68.9926 88.5835 68.945 88.3154 68.9435C87.2012 68.927 86.0839 68.9689 84.9704 68.9567C83.2037 68.9354 81.4373 68.9408 79.6711 68.8972C78.5726 68.869 77.4711 68.8235 76.3727 68.871C75.2338 68.9167 74.0922 68.7714 72.9625 68.9447C71.8934 69.1072 71.0847 69.9852 71.0605 71.0583C71.021 72.9535 71.0221 74.8504 71.0231 76.7473C71.0219 78.4042 71.056 80.0592 71.0461 81.7176C71.0365 83.8569 71.0001 85.9965 70.9811 88.133C70.9781 88.7214 70.9787 89.3046 70.9801 89.8922C71.0905 90.9949 71.1439 92.1033 71.0768 93.1617C71.0644 93.3687 71.0257 93.5537 70.971 93.7237C70.9811 94.764 70.9912 95.8043 70.9875 96.8426C70.9723 98.925 70.9261 101.008 70.9065 103.092C70.8877 104.952 70.887 106.814 70.8812 108.672C70.877 111.295 70.8685 113.92 70.8686 116.543C70.8686 118.182 70.9401 119.821 70.8816 121.457C70.8086 123.465 70.8158 125.472 70.8049 127.478C70.7951 130.045 70.8034 132.613 70.7798 135.178C70.7563 137.743 70.7559 140.312 70.7591 142.877C70.7609 144.551 70.7988 146.228 70.792 147.903C70.7829 150.172 70.7298 152.443 70.7388 154.713C70.7389 155.243 70.6135 155.795 70.8258 156.314C71.2965 157.46 72.087 157.992 73.3631 157.94C75.0957 157.87 76.8344 157.909 78.5626 157.915C80.6478 157.92 82.7411 157.946 84.8258 157.973C85.8323 157.986 86.8391 157.951 87.8485 157.955C89.3578 157.959 90.8677 158.017 92.376 157.99C93.4039 157.973 94.4301 157.996 95.4537 157.98C97.5941 157.944 99.7414 158.023 101.883 158.018C102.909 158.014 103.938 158.006 104.962 158.016C106.469 158.03 107.981 158.025 109.488 158.043C110.494 158.052 111.501 158.021 112.511 158.029C114.003 158.036 115.491 158.094 116.982 158.07C118.028 158.054 119.069 158.084 120.117 158.054C121.604 158.009 123.096 158.119 124.586 158.091C126.246 158.06 127.906 158.114 129.566 158.083C131.744 158.035 133.926 158.108 136.108 158.127C137.247 158.135 138.384 158.178 139.52 158.142C140.732 158.106 141.948 158.269 143.155 158.028C144.16 157.828 144.842 157.146 144.902 156.121C144.964 155.01 144.945 153.895 144.953 152.78C144.965 151.665 144.968 150.547 144.976 149.432C144.987 148.334 145.016 147.238 145.014 146.139C145.014 145.079 144.991 144.018 144.973 142.957C144.963 142.474 144.717 142.241 144.223 142.275L144.225 142.261Z" fill="white"/>
<path d="M115.111 64.4614C115.153 64.6989 115.2 64.94 115.237 65.1782C115.325 65.7462 115.704 66.022 116.225 66.0944C116.683 66.156 117.157 66.1612 117.618 66.1463C119.45 66.0803 121.272 66.0873 122.827 67.2326C124.598 68.5401 125.576 70.2553 125.501 72.5308C125.474 73.2881 125.472 74.0546 125.499 74.8157C125.53 75.6207 125.11 76.372 123.959 76.3753C122.278 76.3835 120.601 76.4399 118.92 76.399C116.813 76.3488 114.711 76.4226 112.604 76.3457C111.004 76.286 109.396 76.3748 107.794 76.3554C105.594 76.3308 103.397 76.3991 101.199 76.3116C100.174 76.2704 99.1467 76.3409 98.1244 76.3393C96.1874 76.3393 94.2461 76.34 92.3096 76.3176C91.6434 76.3109 91.0527 75.8989 90.992 75.3039C90.8059 73.3952 90.603 71.4672 91.4769 69.647C92.6228 67.2709 94.5882 66.1704 97.1794 66.0591C97.7954 66.0347 98.4054 66.1271 99.0232 66.0622C99.7991 65.9828 100.159 65.6431 100.202 64.856C100.338 62.4717 102.027 60.6185 104.38 60.4469C105.825 60.3381 107.287 60.4044 108.74 60.4412C109.448 60.4583 110.151 60.3962 110.864 60.4659C113.253 60.702 114.734 62.0565 115.111 64.4614ZM110.997 64.2411C111.545 64.1885 111.932 64.0266 111.937 63.4779C111.941 62.9429 111.591 62.7331 111.102 62.6906C110.952 62.677 110.805 62.654 110.658 62.6534C108.909 62.6601 107.157 62.6718 105.413 62.6734C104.904 62.6744 104.546 62.947 104.545 63.3926C104.544 63.9182 104.837 64.2137 105.382 64.2152C106.146 64.2224 106.91 64.2252 107.674 64.2281C108.808 64.2322 109.943 64.2362 111.001 64.2403L110.997 64.2411Z" fill="white"/>
<path d="M144.395 71.695C143.062 71.9309 142.697 69.8669 144.03 69.6309C144.19 69.6026 144.329 69.6091 144.46 69.6394C144.11 69.3496 143.67 69.1603 143.176 69.1185C142.5 69.0557 141.835 69.1066 141.165 69.1049C139.044 69.0974 136.918 69.064 134.799 69.0428C133.645 69.0289 132.486 69.0114 131.331 69.0198C130.229 69.0233 129.133 69.0571 128.034 69.0736C127.646 69.0798 127.523 69.293 127.644 69.6234C127.962 70.4622 127.94 71.3435 127.974 72.2149C127.985 72.5334 128.115 72.6842 128.454 72.6864C130.391 72.6821 132.329 72.6908 134.267 72.6951C135.57 72.696 136.874 72.6968 138.179 72.7063C138.389 72.7092 138.621 72.6815 138.614 73.0479C138.584 74.5183 138.585 75.9877 138.582 77.4535C138.572 79.4414 138.571 81.4277 138.561 83.4113C138.554 84.508 138.579 85.608 138.513 86.6974C138.467 87.4982 138.747 87.992 139.492 88.2921C139.867 88.444 140.195 88.7109 140.538 88.9352C142.012 89.899 143.372 90.9987 144.655 92.201C144.769 92.3101 144.877 92.4914 145.074 92.4208C145.229 92.3666 145.192 92.2084 145.192 92.0793C145.199 91.0359 145.211 89.9961 145.21 88.9543C145.209 87.3335 145.176 85.7138 145.189 84.095C145.203 82.0307 145.262 79.9716 145.276 77.9073C145.287 76.3289 145.253 74.7495 145.24 73.1664C145.237 72.4411 145.346 71.7182 145.231 70.9948C145.225 70.9603 145.214 70.9265 145.204 70.8927C145.137 71.2698 144.879 71.6048 144.386 71.6922L144.395 71.695Z" fill="white"/>
<path d="M102.915 85.0319C103.746 84.9649 104.573 84.8719 105.409 84.8531C106.235 84.8315 107.372 85 108.203 84.6524C108.782 84.2427 108.94 83.6224 108.811 83.0174C108.672 82.3829 108.209 81.9126 107.527 81.7394C107.447 81.7179 107.356 81.7073 107.276 81.6858C107.167 81.7007 107.06 81.6974 106.954 81.6805C106.909 81.6795 106.867 81.6692 106.826 81.6631C106.677 81.6762 106.526 81.685 106.409 81.679C106.166 81.6642 105.909 81.6027 105.669 81.6052C105.023 81.6127 104.464 81.7072 103.855 81.6234C103.256 81.6671 102.654 81.6936 102.045 81.6855C100.35 81.6649 98.6543 81.7157 96.9571 81.7089C94.8712 81.6996 92.7835 81.655 90.6961 81.6371C88.8499 81.621 87.0069 81.6221 85.1623 81.6147C84.5106 81.6142 83.8592 81.7162 83.2319 81.6268C82.4573 81.7639 81.8304 82.6097 81.8496 83.4747C81.8632 84.1314 82.5687 84.8393 83.2897 84.9031C84.8341 85.0305 86.3816 84.9481 87.9259 84.9731C89.6218 84.998 91.3177 84.9472 93.0141 84.9497C95.1354 84.9572 97.2606 84.9863 99.3842 85.0067C100.56 85.0168 101.732 85.032 102.906 85.0335C102.91 85.0327 102.915 85.0319 102.919 85.0312L102.915 85.0319Z" fill="white"/>
<path d="M106.466 89.0837C105.533 89.8145 104.67 90.4882 103.804 91.167C103.788 91.1787 103.767 91.1869 103.761 91.2014C102.854 92.4531 101.551 92.3051 100.241 92.2431C99.1612 92.1937 98.0804 92.2648 96.9987 92.2559C94.8723 92.2449 92.75 92.2064 90.6236 92.1954C88.9841 92.1872 87.3407 92.2065 85.6992 92.212C85.0078 92.2142 84.3187 92.2293 83.6329 92.2126C82.7816 92.1941 82.0074 91.4761 81.9614 90.6871C81.9109 89.7965 82.4965 89.0204 83.4163 88.9466C84.5114 88.8552 85.617 88.8732 86.7188 88.8697C87.8378 88.8631 88.9536 88.8882 90.0714 88.8997C92.2485 88.9196 94.4321 88.9516 96.6112 88.9578C98.255 88.9652 99.899 88.9236 101.538 88.9317C103.101 88.9356 104.67 88.9741 106.232 88.9961C106.281 88.9963 106.332 89.0318 106.474 89.0779L106.466 89.0837Z" fill="white"/>
<path d="M105.356 139.367C104.956 139.504 104.522 139.448 104.103 139.45C102.987 139.47 101.87 139.441 100.752 139.429C98.5708 139.41 96.3915 139.377 94.2116 139.367C92.5722 139.358 90.9302 139.386 89.288 139.388C87.3467 139.388 85.4105 139.393 83.4689 139.367C82.5563 139.355 81.8014 138.62 81.7783 137.809C81.7558 136.9 82.3664 136.164 83.3403 136.094C84.38 136.017 85.4278 136.036 86.4725 136.038C87.588 136.037 88.7066 136.053 89.8259 136.073C92.0249 136.115 94.2246 136.087 96.4241 136.107C98.0469 136.123 99.6713 136.147 101.292 136.1C101.567 136.092 101.812 136.115 102.017 136.315C103.036 137.306 104.118 138.223 105.236 139.094C105.308 139.148 105.375 139.221 105.351 139.363L105.356 139.367Z" fill="white"/>
<path d="M83.1464 128.771C83.7615 128.867 84.4297 128.785 85.0987 128.782C86.2142 128.781 87.3336 128.801 88.4514 128.812C90.6111 128.835 92.7821 128.972 94.9301 128.828C96.1871 128.743 96.8114 129.194 97.2731 130.239C97.5043 130.763 97.8593 131.23 98.189 131.706C98.4177 132.04 98.2815 132.153 97.96 132.152C96.2635 132.15 94.5691 132.134 92.8763 132.126C91.8315 132.124 90.7863 132.144 89.7451 132.137C87.5688 132.121 85.3889 132.111 83.2116 132.064C82.4319 132.046 81.7083 131.337 81.6758 130.675C81.6324 129.774 82.2529 128.943 83.15 128.766L83.1464 128.771Z" fill="white"/>
<path d="M113.247 145.14C113.153 144.738 113.131 144.261 113.205 143.771C113.251 143.474 113.392 143.435 113.629 143.514C113.966 143.628 114.293 143.765 114.635 143.856C114.945 143.94 115.083 144.116 115.052 144.419C114.904 145.804 116.334 147.176 117.986 147.08C119.691 146.978 121.413 147.101 123.128 147.105C124.842 147.109 126.563 147.018 128.272 147.094C129.199 147.135 129.959 146.969 130.615 146.314C131.059 145.87 131.329 145.355 131.32 144.724C131.315 144.315 131.49 144.093 131.889 144.026C132.036 144 132.181 143.966 132.325 143.918C133.182 143.642 133.255 143.704 133.236 144.63C133.193 146.704 131.548 148.785 129.094 148.912C127.156 149.01 125.217 148.899 123.282 148.934C121.548 148.97 119.817 148.898 118.081 148.973C115.756 149.078 113.589 147.6 113.248 145.144L113.247 145.14Z" fill="white"/>
<path d="M81.7736 107.122C81.6451 106.094 82.5194 105.209 83.5479 105.245C84.5728 105.286 85.5982 105.229 86.6213 105.235C88.8141 105.243 91.0113 105.251 93.2051 105.29C94.3064 105.309 94.3023 105.336 94.026 106.423C93.8828 107 93.749 107.581 93.6203 108.165C93.56 108.429 93.4633 108.589 93.1366 108.584C92.039 108.56 90.941 108.585 89.8425 108.557C87.6456 108.501 85.4525 108.617 83.2564 108.489C82.5306 108.449 81.8628 107.828 81.7728 107.118L81.7736 107.122Z" fill="white"/>
<path d="M117.15 81.746C117.912 81.7402 118.678 81.7293 119.442 81.7322C120.575 81.7319 121.715 81.7395 122.85 81.7479C124.338 81.7605 125.824 81.7826 127.313 81.7952C128 81.7981 128.689 81.7563 129.381 81.8075C131.063 81.9285 132.72 83.1939 133.216 84.7893C133.268 84.9539 133.346 85.1182 133.196 85.256C133.047 85.3938 132.884 85.3068 132.724 85.2595C131.883 85.0209 131.062 84.7742 130.429 84.0937C130.093 83.7346 129.557 83.6558 129.07 83.6529C126.831 83.6394 124.595 83.6656 122.362 83.6557C120.911 83.6499 119.461 83.6037 118.008 83.5893C117.064 83.5782 116.34 84.0003 115.716 84.6896C115.209 85.2515 114.46 85.3573 113.761 85.4944C113.46 85.5566 113.482 85.2543 113.541 85.0568C113.916 83.7479 114.707 82.7664 115.939 82.1919C116.318 82.0135 116.709 81.7974 117.147 81.751L117.15 81.746Z" fill="white"/>
<path d="M83.5002 112.49C84.4538 112.481 85.5532 112.465 86.6558 112.466C87.811 112.462 88.9642 112.471 90.1217 112.48C90.9396 112.487 91.7591 112.502 92.5785 112.517C92.9008 112.522 93.0352 112.677 93.0147 113.014C92.9621 113.776 92.9492 114.536 92.9906 115.299C93.009 115.63 92.8827 115.799 92.4535 115.795C90.124 115.771 87.7945 115.822 85.4692 115.797C84.8341 115.79 84.2015 115.821 83.5684 115.8C82.7242 115.771 81.868 115.019 81.8496 114.31C81.8263 113.396 82.4463 112.663 83.5053 112.493L83.5002 112.49Z" fill="white"/>
<path d="M131.511 111.989C131.343 111.948 131.31 112.118 131.245 112.228C131.052 112.547 130.81 112.848 130.669 113.185C130.382 113.881 129.756 114.406 129.768 115.255C129.791 117.152 129.766 119.049 129.753 120.944C129.743 122.425 128.503 123.588 127.031 123.542C125.599 123.497 124.164 123.461 122.727 123.457C120.454 123.45 118.176 123.47 115.902 123.481C114.792 123.486 113.476 122.334 113.437 121.254C113.405 120.365 113.452 119.47 113.499 118.58C113.496 118.563 113.507 118.547 113.508 118.529C113.494 118.22 113.519 117.909 113.545 117.601C113.572 117.249 113.572 116.897 113.563 116.547C113.56 116.454 113.558 116.365 113.555 116.272C113.555 116.272 113.555 116.272 113.554 116.268C113.553 116.259 113.552 116.255 113.55 116.242C113.537 115.995 113.528 115.743 113.52 115.495C113.508 115.198 113.508 114.9 113.514 114.605C113.512 114.592 113.51 114.583 113.509 114.575C113.508 114.521 113.499 114.47 113.499 114.416C113.468 112.93 113.463 111.439 113.467 109.951C113.471 108.16 114.839 107.161 116.089 107.166C118.251 107.176 120.416 107.202 122.575 107.221C123.693 107.232 124.809 107.262 125.928 107.251C126.261 107.245 126.657 107.34 126.894 106.959C127.119 106.594 127.349 106.229 127.574 105.864C127.741 105.594 127.732 105.444 127.347 105.387C126.528 105.27 125.705 105.362 124.888 105.337C122.781 105.283 120.672 105.295 118.567 105.329C117.249 105.349 115.925 105.205 114.615 105.597C113.025 106.07 111.612 107.892 111.624 109.547C111.63 110.819 111.624 112.094 111.63 113.366C111.682 113.812 111.695 114.263 111.703 114.712C111.708 114.965 111.708 115.219 111.714 115.476C111.718 115.604 111.719 115.733 111.725 115.866C111.725 115.866 111.732 116.061 111.735 116.078C111.79 117.146 111.833 118.194 111.614 119.248C111.612 119.315 111.608 119.391 111.596 119.474C111.507 120.184 111.556 120.888 111.68 121.587C112.061 123.769 113.51 125.173 115.741 125.295C117.877 125.411 120.024 125.361 122.169 125.377C123.345 125.388 124.518 125.407 125.69 125.4C126.51 125.393 127.376 125.516 128.14 125.296C130.34 124.666 131.613 123.18 131.646 120.694C131.673 118.627 131.66 116.563 131.665 114.5C131.666 113.774 131.667 113.048 131.659 112.324C131.66 112.203 131.661 112.034 131.507 111.994L131.511 111.989Z" fill="#FFC727"/>
<path d="M133.352 105.121C133.481 105.624 133.292 106.09 133.026 106.529C131.876 108.456 130.72 110.37 129.565 112.294C127.776 115.273 125.947 118.229 124.227 121.246C123.403 122.692 121.581 122.556 120.853 121.371C118.964 118.285 116.941 115.281 114.988 112.238C114.445 111.394 114.716 110.273 115.549 109.711C116.354 109.168 117.381 109.343 117.967 110.21C119.036 111.784 120.048 113.395 121.085 114.993C121.441 115.54 121.801 116.086 122.145 116.64C122.371 117.01 122.54 116.957 122.743 116.619C124.527 113.635 126.317 110.66 128.106 107.68C128.761 106.593 129.421 105.506 130.093 104.434C130.465 103.838 131.262 103.527 131.957 103.667C132.711 103.819 133.217 104.335 133.357 105.121L133.352 105.121Z" fill="white"/>
<path d="M142.264 110.99C142.927 115.695 142.31 119.924 140.04 123.866C139.675 124.501 139.288 125.113 138.851 125.693C138.786 125.781 138.731 125.902 138.6 125.889C138.422 125.867 138.427 125.697 138.429 125.581C138.414 124.818 138.409 124.057 138.407 123.291C138.41 121.189 138.4 119.089 138.421 116.992C138.449 114.426 138.45 111.861 138.447 109.296C138.445 107.417 138.524 105.542 138.454 103.662C138.447 103.494 138.437 103.286 138.622 103.222C138.832 103.149 138.894 103.374 138.984 103.501C140.255 105.311 141.278 107.237 141.806 109.41C141.954 110.02 142.24 110.602 142.264 110.99Z" fill="white"/>
<path d="M129.714 101.713C128.432 101.882 127.108 101.765 125.784 101.799C124.611 101.828 123.436 101.8 122.265 101.789C120.606 101.771 118.946 101.824 117.296 101.707C115.61 101.586 114.47 100.564 113.707 99.1044C113.599 98.8965 113.571 98.6387 113.79 98.4886C114.156 98.2367 114.556 98.0278 114.947 97.8118C115.106 97.7258 115.237 97.7871 115.299 97.9631C115.831 99.5791 117.068 99.939 118.608 99.9114C120.823 99.871 123.038 99.9511 125.253 99.9374C126.537 99.9284 127.823 99.9323 129.107 99.9456C129.969 99.9532 131.259 99.146 131.459 97.9571C131.54 97.4797 131.741 97.4574 132.103 97.6606C133.441 98.4123 133.594 98.118 132.706 99.6825C132.063 100.816 131.029 101.453 129.713 101.709L129.714 101.713Z" fill="white"/>
<path d="M116.839 128.922C117.627 128.911 118.391 128.892 119.155 128.895C120.293 128.894 121.427 128.898 122.565 128.923C124.112 128.961 125.659 128.901 127.205 128.962C127.91 128.988 128.62 128.889 129.328 128.982C130.559 129.152 131.607 129.652 132.368 130.671C132.562 130.935 132.57 131.134 132.23 131.283C131.974 131.395 131.739 131.557 131.487 131.673C131.157 131.825 130.866 131.818 130.577 131.522C130.05 130.992 129.384 130.811 128.635 130.815C126.491 130.829 124.348 130.826 122.203 130.813C120.751 130.803 119.3 130.748 117.848 130.743C117.205 130.741 116.575 130.888 116.08 131.345C115.789 131.615 115.531 131.594 115.238 131.374C115.165 131.32 115.081 131.273 114.998 131.234C114.017 130.757 114.01 130.643 114.832 129.941C115.429 129.43 116.142 129.17 116.847 128.916L116.839 128.922Z" fill="url(#paint0_linear_86_3105)"/>
</g>
<defs>
<filter id="filter0_f_86_3105" x="0" y="0.478699" width="218.296" height="220.486" filterUnits="userSpaceOnUse" color-interpolation-filters="sRGB">
<feFlood flood-opacity="0" result="BackgroundImageFix"/>
<feBlend mode="normal" in="SourceGraphic" in2="BackgroundImageFix" result="shape"/>
<feGaussianBlur stdDeviation="25" result="effect1_foregroundBlur_86_3105"/>
</filter>
<linearGradient id="paint0_linear_86_3105" x1="122.846" y1="127.854" x2="123.771" y2="133.079" gradientUnits="userSpaceOnUse">
<stop stop-color="white"/>
<stop offset="1" stop-color="#D1537E"/>
</linearGradient>
<clipPath id="clip0_86_3105">
<rect width="109.576" height="119.022" fill="white" transform="translate(55.356 69.0999) rotate(-10.0384)"/>
</clipPath>
</defs>
</svg>
