<svg width="219" height="220" viewBox="0 0 219 220" fill="none" xmlns="http://www.w3.org/2000/svg">
<g filter="url(#filter0_f_86_3158)">
<ellipse cx="109.412" cy="110" rx="59.4118" ry="60" fill="#CC4E89"/>
</g>
<g clip-path="url(#clip0_86_3158)">
<path d="M67.678 110.508C67.678 95.9315 67.7214 81.3549 67.6471 66.7782C67.6285 63.0631 70.546 60.5884 73.7794 60.5884C97.4538 60.6007 121.134 60.6007 144.809 60.5884C147.286 60.5884 149.17 61.582 150.427 63.7172C151.046 64.7725 151.183 65.9451 151.17 67.13C150.984 95.2095 151.146 123.283 151.077 151.362C151.077 152.64 151.257 153.911 151.102 155.201C150.724 158.348 148.321 160.564 145.106 160.576C138.807 160.595 132.507 160.576 126.214 160.582C108.864 160.582 91.5073 160.582 74.1572 160.595C72.4476 160.595 70.9114 160.224 69.6106 159.052C68.2541 157.817 67.6533 156.287 67.6533 154.473C67.6533 139.816 67.6533 125.165 67.6533 110.508H67.6718H67.678ZM71.6114 110.65C71.6114 125.153 71.6114 139.655 71.6114 154.152C71.6114 155.954 72.3051 156.657 74.1324 156.657C97.5777 156.657 121.023 156.657 144.474 156.657C146.091 156.657 147.305 156.188 147.163 153.985C147.156 153.855 147.163 153.726 147.163 153.602C147.163 127.134 147.163 100.671 147.163 74.2023C147.163 71.7153 147.175 69.2344 147.163 66.7474C147.156 65.4699 146.58 64.8096 145.323 64.5936C144.995 64.538 144.66 64.5195 144.326 64.5195C121.06 64.5195 97.7945 64.5195 74.5289 64.5195C74.0643 64.5195 73.6059 64.5442 73.1537 64.6553C72.2927 64.8589 71.7229 65.4946 71.6485 66.3832C71.6114 66.8399 71.6238 67.3028 71.6238 67.7656C71.6238 82.0646 71.6238 96.3573 71.6238 110.656L71.6114 110.65Z" fill="white"/>
<path d="M127.713 151.529C125.445 151.591 123.346 151.035 121.283 150.282C120.67 150.06 120.546 149.77 120.831 149.19C121.797 147.209 122.739 145.216 123.693 143.235C124.838 140.859 125.997 138.483 127.161 136.113C127.452 135.52 127.57 134.922 127.57 134.262C127.558 129.448 127.558 124.628 127.564 119.815C127.564 118.932 127.7 118.821 128.536 118.876C132.104 119.123 135.319 120.333 138.069 122.598C141.699 125.585 143.669 129.454 144.003 134.15C144.542 141.729 139.884 148.024 133.548 150.455C131.664 151.177 129.707 151.597 127.719 151.529H127.713Z" fill="white"/>
<path d="M117.12 135.78C119.561 135.78 122.001 135.78 124.448 135.78C125.328 135.78 125.39 135.872 125.024 136.631C122.906 141.075 120.781 145.506 118.675 149.955C118.378 150.578 118.037 150.64 117.467 150.307C112.376 147.314 109.452 142.932 108.907 137.039C108.801 135.878 108.919 135.78 110.102 135.78C112.444 135.78 114.779 135.78 117.12 135.78Z" fill="white"/>
<path d="M91.1106 136.897C87.5117 136.897 83.9129 136.897 80.314 136.897C79.8247 136.897 79.3353 136.897 78.8584 136.804C77.6319 136.582 76.7895 135.57 76.8019 134.385C76.8143 133.126 77.6505 132.132 78.9203 131.935C80.4813 131.694 82.0484 131.886 83.6156 131.873C89.655 131.83 95.6943 131.83 101.734 131.824C102.297 131.824 102.867 131.855 103.425 131.935C104.713 132.126 105.58 133.132 105.574 134.36C105.574 135.595 104.707 136.6 103.443 136.804C103.016 136.872 102.576 136.897 102.136 136.897C98.457 136.903 94.7838 136.897 91.1044 136.897H91.1106Z" fill="white"/>
<path d="M91.1108 151.523C87.2022 151.523 83.2999 151.535 79.3913 151.523C77.4091 151.51 76.226 149.684 77.0685 147.949C77.5454 146.968 78.4188 146.573 79.4594 146.549C80.8469 146.518 82.2345 146.542 83.622 146.542C89.9153 146.542 96.2149 146.542 102.508 146.536C103.239 146.536 103.945 146.604 104.559 147.061C105.438 147.721 105.779 148.77 105.45 149.789C105.122 150.813 104.168 151.517 102.979 151.529C100.489 151.547 97.9926 151.535 95.5025 151.535C94.0407 151.535 92.5727 151.535 91.1108 151.535V151.523Z" fill="white"/>
<path d="M128.542 76.8189C124.69 76.8189 120.831 76.8189 116.978 76.8189C115.237 76.8189 114.128 75.8624 114.128 74.3813C114.128 72.9125 115.237 71.8881 116.953 71.8695C119.883 71.8387 122.813 71.8449 125.743 71.8449C130.314 71.8449 134.892 71.8449 139.463 71.8449C139.896 71.8449 140.336 71.8695 140.764 71.9374C142.12 72.1596 143.012 73.2766 142.907 74.5911C142.802 75.8932 141.811 76.8128 140.417 76.8189C136.459 76.8313 132.501 76.8189 128.542 76.8189Z" fill="white"/>
<path d="M128.53 86.5573C132.488 86.5573 136.446 86.5511 140.405 86.5573C141.52 86.5573 142.449 87.267 142.789 88.2976C143.118 89.2912 142.765 90.4082 141.91 91.0377C141.247 91.5191 140.473 91.5437 139.698 91.5437C132.656 91.5437 125.613 91.5376 118.564 91.5314C117.845 91.5314 117.12 91.5746 116.408 91.4882C114.99 91.3216 114.029 90.1737 114.129 88.8777C114.234 87.5139 115.275 86.5635 116.724 86.5573C120.193 86.545 123.668 86.5573 127.137 86.5511C127.601 86.5511 128.059 86.5511 128.524 86.5511L128.53 86.5573Z" fill="white"/>
<path d="M91.1047 122.16C87.2519 122.16 83.3991 122.16 79.5401 122.16C77.9791 122.16 76.8394 121.172 76.7898 119.771C76.7403 118.383 77.7561 117.34 79.2985 117.192C79.5277 117.167 79.7631 117.167 79.9922 117.167C87.4935 117.167 94.9947 117.167 102.502 117.173C102.886 117.173 103.276 117.21 103.648 117.297C104.918 117.605 105.711 118.735 105.562 119.981C105.42 121.154 104.373 122.129 103.128 122.141C100.508 122.166 97.8874 122.153 95.2673 122.153C93.8797 122.153 92.4922 122.153 91.1047 122.153V122.16Z" fill="white"/>
<path d="M128.549 106.176C124.566 106.176 120.583 106.182 116.6 106.176C115.349 106.176 114.506 105.491 114.203 104.3C113.93 103.232 114.438 102.121 115.442 101.566C115.789 101.375 116.16 101.325 116.557 101.313C119.61 101.189 122.67 101.226 125.73 101.22C130.277 101.214 134.83 101.22 139.376 101.22C139.81 101.22 140.25 101.245 140.683 101.301C142.096 101.486 142.981 102.516 142.907 103.862C142.833 105.25 141.835 106.17 140.349 106.176C136.415 106.182 132.482 106.176 128.549 106.176Z" fill="white"/>
<path d="M93.1426 104.8C88.4102 104.8 83.684 104.8 78.9516 104.8C77.5579 104.8 77.2048 104.405 77.3349 103.041C77.3782 102.584 77.403 102.121 77.403 101.658C77.403 93.9505 77.403 86.2364 77.3906 78.5284C77.3906 77.3003 77.3287 76.0722 77.2977 74.8441C77.2915 74.48 77.3163 74.1159 77.5145 73.8073C77.7313 73.4556 78.072 73.2766 78.4932 73.3136C78.9144 73.3507 79.2055 73.5666 79.3852 73.9493C79.54 74.2887 79.509 74.6528 79.509 75.0107C79.5028 83.7185 79.4905 92.4324 79.4843 101.14C79.4843 102.597 79.4843 102.547 80.9585 102.597C85.406 102.745 89.8472 102.683 94.2947 102.689C98.1413 102.695 101.994 102.689 105.841 102.689C106.454 102.689 107.073 102.603 107.687 102.64C108.504 102.689 108.969 103.121 108.95 103.707C108.932 104.411 108.455 104.8 107.569 104.8C102.762 104.8 97.9555 104.8 93.1488 104.8H93.1426Z" fill="white"/>
<path d="M107.866 74.9984C107.748 76.0414 107.451 77.0041 107.47 78.01C107.47 78.2445 107.333 78.4605 107.104 78.3988C106.497 78.2383 106.373 78.6765 106.15 79.053C104.119 82.5212 102.081 85.9895 100.03 89.4516C99.4915 90.3588 99.188 90.4637 98.1907 90.1613C97.1315 89.8404 96.0847 89.501 95.0317 89.1616C94.4928 88.9888 94.1273 89.0752 93.861 89.6553C93.0124 91.4943 92.1328 93.3149 91.2408 95.1292C90.6957 96.2463 90.4665 96.3203 89.3144 95.8328C88.0136 95.2835 86.7004 94.759 85.4244 94.1665C84.7245 93.8394 84.3218 93.9567 83.975 94.6664C82.9653 96.7646 81.9061 98.8444 80.8469 100.918C80.6486 101.301 80.5681 102.016 80.0478 101.893C79.4841 101.757 79.9611 101.146 79.9115 100.745C79.7195 99.1961 80.2522 97.8384 80.9893 96.5054C81.6955 95.228 82.3025 93.895 82.9653 92.599C83.4608 91.6301 83.7458 91.5128 84.7307 91.914C86.1553 92.5003 87.5862 93.0742 88.9799 93.7284C89.5869 94.0184 89.8595 93.858 90.1073 93.3149C90.8506 91.7103 91.6125 90.1181 92.3682 88.5198C92.5416 88.1495 92.7088 87.773 92.9194 87.4213C93.1796 86.9769 93.5513 86.798 94.0902 86.9769C95.3104 87.3781 96.5493 87.7113 97.7633 88.1248C98.3022 88.3099 98.6182 88.205 98.9031 87.7175C100.829 84.4529 102.774 81.1944 104.713 77.9421C104.837 77.7385 104.961 77.504 104.812 77.3003C104.422 76.7757 104.769 76.5412 105.147 76.2697C105.853 75.7575 106.534 75.2144 107.228 74.6898C107.383 74.5726 107.513 74.3257 107.742 74.4738C107.94 74.6034 107.86 74.8441 107.86 74.9922L107.866 74.9984Z" fill="#FFC727"/>
<path d="M103.01 94.1726C102.985 92.2225 103.084 89.6059 102.911 86.9954C102.874 86.4091 102.997 85.866 103.282 85.3723C104.261 83.6876 105.258 82.0151 106.262 80.3427C106.398 80.1082 106.553 79.7318 106.856 79.8305C107.259 79.9539 107.018 80.3427 107.018 80.6328C106.999 83.2988 106.98 85.9586 106.98 88.6246C106.974 92.7717 106.962 96.925 106.993 101.072C106.999 101.85 106.782 102.134 105.989 102.06C105.277 101.992 104.552 102.016 103.834 102.047C103.202 102.078 102.985 101.862 102.997 101.208C103.035 99.085 103.01 96.9559 103.01 94.1726Z" fill="white"/>
<path d="M125.953 125.967C126.009 127.745 125.83 130.355 126.034 132.959C126.077 133.484 125.805 133.663 125.34 133.626C122.033 133.385 118.719 133.774 115.411 133.577C113.85 133.484 112.283 133.62 110.716 133.638C109.607 133.651 109.601 133.607 109.644 132.54C109.96 125.48 115.337 119.062 122.602 117.556C123.451 117.377 124.324 117.303 125.192 117.186C125.755 117.105 125.972 117.334 125.966 117.914C125.941 120.321 125.953 122.727 125.953 125.961V125.967ZM117.814 132.385C119.821 132.385 121.822 132.385 123.829 132.385C124.869 132.385 124.919 132.348 124.919 131.312C124.919 127.368 124.919 123.425 124.919 119.481C124.919 118.482 124.795 118.377 123.798 118.5C117.176 119.327 111.564 125.085 110.901 131.707C110.84 132.305 111.056 132.398 111.57 132.392C113.652 132.373 115.733 132.385 117.814 132.385Z" fill="#FFC727"/>
<path d="M101.536 95.4192C101.536 97.3385 101.517 99.2578 101.548 101.171C101.56 101.819 101.368 102.109 100.668 102.066C99.8508 102.01 99.027 102.029 98.2093 102.041C97.689 102.053 97.466 101.85 97.466 101.319C97.4722 98.0235 97.466 94.7219 97.4536 91.4264C97.4536 91.0376 97.6147 90.7846 97.9987 90.9142C99.5535 91.4326 100.359 90.6118 100.947 89.3528C101.028 89.18 101.052 88.8776 101.313 88.927C101.591 88.9825 101.548 89.2849 101.548 89.5133C101.548 91.4819 101.548 93.4506 101.548 95.4192H101.536Z" fill="white"/>
<path d="M95.998 96.1352C95.998 97.8261 95.9794 99.5109 96.0042 101.202C96.0104 101.831 95.775 102.072 95.1432 102.047C94.3256 102.01 93.5017 102.023 92.6779 102.047C92.17 102.06 91.916 101.874 91.916 101.344C91.9284 99.5294 91.916 97.7089 91.9346 95.8945C91.9346 95.481 92.0709 95.086 92.2505 94.7158C92.9133 93.3334 93.5761 91.9448 94.2512 90.5686C94.4309 90.1984 94.6353 89.7911 95.1742 89.97C95.6573 90.1305 96.029 90.3773 96.0228 90.9945C95.998 92.7101 96.0166 94.4195 96.0166 96.1352H96.0042H95.998Z" fill="white"/>
<path d="M86.372 98.758C86.372 97.9372 86.3844 97.1164 86.372 96.3018C86.3596 95.697 86.626 95.4872 87.1834 95.7094C88.1621 96.0982 89.1037 96.5734 90.1133 96.8819C90.4478 96.9807 90.485 97.2584 90.485 97.5608C90.4726 98.7889 90.4602 100.017 90.4664 101.251C90.4664 101.788 90.293 102.066 89.7107 102.047C88.8373 102.023 87.9639 102.023 87.0905 102.047C86.5454 102.06 86.3658 101.8 86.372 101.301C86.3844 100.455 86.372 99.6097 86.372 98.7642V98.758Z" fill="white"/>
<path d="M84.9105 94.9996C84.9105 95.913 84.9105 96.8263 84.9105 97.7459C84.9105 98.9246 84.8981 100.097 84.9167 101.276C84.9291 101.831 84.7061 102.06 84.1424 102.047C83.3743 102.029 82.6001 102.023 81.832 102.078C81.2125 102.121 81.163 101.918 81.4108 101.424C82.2718 99.7392 83.1204 98.0421 83.969 96.3512C84.2044 95.8821 84.4398 95.4131 84.6689 94.9441C84.7495 94.9626 84.8238 94.9811 84.9043 94.9996H84.9105Z" fill="white"/>
</g>
<defs>
<filter id="filter0_f_86_3158" x="0" y="0" width="218.824" height="220" filterUnits="userSpaceOnUse" color-interpolation-filters="sRGB">
<feFlood flood-opacity="0" result="BackgroundImageFix"/>
<feBlend mode="normal" in="SourceGraphic" in2="BackgroundImageFix" result="shape"/>
<feGaussianBlur stdDeviation="25" result="effect1_foregroundBlur_86_3158"/>
</filter>
<clipPath id="clip0_86_3158">
<rect width="83.5294" height="100" fill="white" transform="translate(67.647 60.5884)"/>
</clipPath>
</defs>
</svg>
