<svg width="221" height="223" viewBox="0 0 221 223" fill="none" xmlns="http://www.w3.org/2000/svg">
<g filter="url(#filter0_f_86_3077)">
<ellipse cx="110.466" cy="111.5" rx="60.4664" ry="61.5" fill="#CC4E89"/>
</g>
<path d="M119.063 168.331C119.124 168.038 118.879 167.992 118.71 167.9C117.79 167.329 117.33 166.481 117.376 165.401C117.452 163.658 117.575 161.9 117.698 160.158C117.851 158.014 118.035 155.886 118.189 153.758C118.434 150.612 118.664 147.466 118.925 144.319C118.986 143.595 119.232 142.932 119.661 142.33C122.545 138.367 125.429 134.388 128.298 130.424C137.241 118.087 146.2 105.749 155.112 93.3965C157.107 90.6206 159.714 89.0629 163.12 89.0321C165.053 89.0321 166.894 89.5719 168.489 90.6977C171.235 92.6254 173.965 94.584 176.558 96.6968C179.657 99.2414 181.022 104.331 178.506 108.633C177.126 111.008 175.407 113.152 173.812 115.373C171.864 118.087 169.824 120.724 167.906 123.454C161.847 132.075 155.557 140.541 149.406 149.1C147.105 152.293 144.773 155.469 142.472 158.662C141.935 159.402 141.276 159.911 140.447 160.25C134.281 162.749 128.114 165.262 121.962 167.792C121.702 167.9 121.287 167.869 121.241 168.3H119.032L119.063 168.331ZM154.238 113.83C154.223 113.522 153.993 113.414 153.809 113.291C152.612 112.412 151.385 111.533 150.188 110.638C149.835 110.376 149.605 110.407 149.36 110.792C148.731 111.733 148.102 112.658 147.442 113.568C143.592 118.904 139.726 124.225 135.861 129.545C133.038 133.432 130.185 137.303 127.347 141.189C126.887 141.806 126.902 141.821 127.684 142.022C129.096 142.376 130.476 142.824 131.734 143.548C132.302 143.872 132.562 143.733 132.915 143.255C134.802 140.618 136.72 138.012 138.637 135.375C143.715 128.373 148.808 121.372 153.885 114.37C154.023 114.185 154.146 113.985 154.253 113.815L154.238 113.83ZM140.493 151.845C140.708 151.599 140.815 151.491 140.907 151.367C141.536 150.519 142.15 149.655 142.779 148.792C149.483 139.523 156.186 130.239 162.89 120.971C163.258 120.462 163.258 120.169 162.721 119.799C161.663 119.074 160.635 118.303 159.592 117.532C158.809 116.961 158.794 116.946 158.242 117.717C155.695 121.264 153.164 124.842 150.602 128.389C147.166 133.139 143.699 137.889 140.248 142.638C139.266 143.996 138.254 145.353 137.257 146.694C137.057 146.957 136.858 147.219 137.18 147.543C138.361 148.746 139.419 150.056 140.309 151.491C140.371 151.583 140.417 151.691 140.478 151.845H140.493ZM123.358 160.173C123.358 160.173 123.358 160.312 123.358 160.466C123.312 160.944 123.466 161.114 123.941 160.913C127.899 159.325 131.811 157.629 135.799 156.148C136.321 155.963 136.321 155.701 136.091 155.269C135.508 154.189 134.848 153.172 134.02 152.277C131.611 149.686 128.712 147.928 125.215 147.234C124.463 147.08 124.355 147.157 124.294 147.959C124.11 150.134 123.957 152.308 123.788 154.498C123.65 156.333 123.512 158.168 123.358 160.189V160.173ZM163.105 94.7228C161.525 94.6148 160.451 95.4476 159.546 96.6659C159.116 97.2365 159.193 97.5141 159.745 97.9305C163.734 100.814 167.676 103.729 171.649 106.644C172.769 107.461 172.784 107.461 173.551 106.258C174.794 104.315 174.426 102.094 172.6 100.737C170.207 98.9484 167.783 97.2057 165.36 95.4476C164.685 94.9541 163.964 94.6611 163.105 94.7382V94.7228ZM169.317 112.026C169.317 111.718 169.087 111.641 168.934 111.533C167.4 110.422 165.866 109.343 164.347 108.232C161.678 106.274 159.024 104.3 156.386 102.31C155.925 101.971 155.665 101.986 155.343 102.465C154.729 103.39 154.1 104.284 153.44 105.179C153.134 105.595 153.134 105.857 153.594 106.181C154.974 107.168 156.34 108.186 157.705 109.204C160.497 111.27 163.289 113.322 166.065 115.403C166.51 115.743 166.786 115.727 167.108 115.234C167.722 114.293 168.412 113.399 169.057 112.473C169.164 112.319 169.241 112.165 169.317 112.042V112.026Z" fill="white"/>
<path d="M72.2451 75.8773C72.4752 76.3554 72.3985 76.8797 72.3985 77.3732C72.3985 87.1507 72.3985 96.9282 72.3985 106.706C72.3985 120.477 72.3985 134.249 72.3832 148.005C72.3832 148.375 72.4445 148.746 72.2451 149.085V75.8773Z" fill="white"/>
<path d="M72.659 112.751C72.659 100.783 72.659 88.8006 72.659 76.8332C72.659 72.1912 76.3713 68.3049 80.9887 68.0736C81.9091 68.0273 82.8142 67.9656 83.7346 67.9656C84.3329 67.9656 84.4709 67.7189 84.4709 67.1791C84.4556 65.3748 84.4709 63.5858 84.4709 61.7815C84.4709 60.6711 84.8851 59.7458 85.8362 59.1443C87.6617 57.9723 89.978 59.2523 90.0394 61.473C90.0854 63.3699 90.0854 65.2514 90.0547 67.1483C90.0547 67.7806 90.2388 67.9965 90.8678 67.9965C93.4909 67.9656 96.0987 67.9656 98.7219 67.9965C99.3048 67.9965 99.4736 67.7806 99.4736 67.2254C99.4582 65.4056 99.4736 63.5858 99.4736 61.7506C99.4736 59.9925 100.701 58.6817 102.265 58.6971C103.784 58.6971 105.011 60.0542 105.042 61.7352C105.073 63.5858 105.073 65.421 105.042 67.2717C105.042 67.8268 105.226 67.9965 105.763 67.9965C108.402 67.9811 111.04 67.9811 113.679 67.9965C114.185 67.9965 114.369 67.8114 114.369 67.3179C114.354 65.6832 114.369 64.0485 114.369 62.3984C114.369 61.7661 114.43 61.1492 114.645 60.5631C115.028 59.4219 116.072 58.6663 117.207 58.6663C118.327 58.6663 119.446 59.4682 119.815 60.594C119.983 61.0721 120.045 61.581 120.045 62.0899C120.045 63.8172 120.06 65.5444 120.045 67.2871C120.045 67.796 120.213 67.9811 120.72 67.9656C123.358 67.9656 125.997 67.9656 128.635 67.9656C129.233 67.9656 129.371 67.7189 129.371 67.1791C129.341 65.421 129.341 63.6784 129.371 61.9203C129.371 60.7636 129.724 59.7304 130.783 59.0827C132.685 57.9414 134.986 59.314 135.063 61.6581C135.124 63.3237 135.078 64.9738 135.078 66.6394C135.078 68.1353 134.955 67.9348 136.351 67.9502C138.115 67.9502 139.895 67.9656 141.536 68.7676C144.911 70.4177 146.829 73.1011 146.89 76.8949C146.982 83.2333 146.921 89.5871 146.936 95.9255C146.936 97.1438 146.537 98.1 145.433 98.6551C144.374 99.1949 143.346 99.087 142.38 98.3775C141.644 97.8378 141.321 97.0513 141.321 96.1568C141.321 94.2908 141.306 92.4247 141.321 90.5587C141.321 89.9109 141.107 89.7413 140.478 89.7413C119.968 89.7413 99.4429 89.7413 78.9331 89.7413C78.3502 89.7413 78.1354 89.8955 78.1354 90.5278C78.1508 109.42 78.1661 128.311 78.1661 147.203C78.1661 147.712 78.1661 148.221 78.1661 148.73C78.2428 150.534 79.5928 151.891 81.3876 151.953C82.1239 151.969 82.8602 151.953 83.5965 151.953C92.0796 151.953 100.578 151.953 109.061 151.953C110.396 151.953 111.439 152.416 112.022 153.68C112.789 155.361 111.776 157.258 109.951 157.567C109.521 157.644 109.076 157.675 108.647 157.675C99.9798 157.675 91.2973 157.675 82.6301 157.675C81.1268 157.675 79.6234 157.597 78.1661 156.996C74.776 155.577 72.5977 152.431 72.5977 148.745C72.5977 140.711 72.5977 132.691 72.5977 124.656C72.5977 120.693 72.5977 116.714 72.5977 112.751H72.659ZM109.767 84.1278C119.492 84.1278 129.218 84.1278 138.944 84.1278C139.542 84.1278 140.14 84.1123 140.739 84.1278C141.199 84.1432 141.337 83.9427 141.337 83.5109C141.337 81.321 141.352 79.1311 141.321 76.9412C141.291 75.1214 139.864 73.7334 138.054 73.7026C137.456 73.7026 136.857 73.7026 136.259 73.7026C118.143 73.7026 100.01 73.7026 81.8938 73.7026C79.5774 73.7026 78.2121 75.0443 78.1968 77.3884C78.1815 79.3007 78.1968 81.213 78.1968 83.1253C78.1968 84.1278 78.1968 84.1278 79.1632 84.1278C89.3644 84.1278 99.581 84.1278 109.782 84.1278H109.767Z" fill="white"/>
<path d="M115.458 108.849C111.07 108.849 106.699 108.849 102.311 108.849C101.176 108.849 100.24 108.448 99.6267 107.461C98.5376 105.703 99.6727 103.482 101.774 103.251C101.974 103.22 102.189 103.236 102.388 103.236C111.055 103.236 119.738 103.236 128.405 103.236C129.11 103.236 129.77 103.343 130.368 103.76C131.365 104.469 131.826 105.749 131.488 106.86C131.105 108.078 130.123 108.834 128.819 108.849C127.3 108.865 125.797 108.849 124.278 108.849C121.348 108.849 118.403 108.849 115.473 108.849H115.458Z" fill="white"/>
<path d="M110.979 117.64C113.863 117.64 116.762 117.64 119.646 117.64C121.241 117.64 122.346 118.426 122.76 119.768C123.281 121.48 122.054 123.192 120.137 123.346C119.799 123.377 119.446 123.361 119.109 123.361C113.863 123.361 108.601 123.361 103.355 123.361C102.833 123.361 102.296 123.361 101.775 123.269C100.179 122.991 99.1054 121.773 99.1821 120.292C99.2741 118.781 100.501 117.64 102.158 117.624C105.088 117.609 108.033 117.624 110.963 117.624L110.979 117.64Z" fill="white"/>
<path d="M106.438 132.167C107.834 132.167 109.23 132.167 110.626 132.167C112.298 132.182 113.541 133.37 113.587 134.927C113.618 136.439 112.344 137.749 110.718 137.765C107.834 137.796 104.95 137.796 102.051 137.765C100.379 137.749 99.1672 136.454 99.1978 134.835C99.2132 133.308 100.456 132.167 102.112 132.151C103.554 132.151 104.996 132.151 106.438 132.151V132.167Z" fill="white"/>
<path d="M93.0922 135.004C93.0922 136.84 91.5582 138.32 89.6713 138.336C87.8919 138.336 86.4039 136.747 86.4345 134.896C86.4652 133.154 88.0453 131.642 89.8247 131.642C91.6655 131.642 93.1075 133.123 93.1075 135.02L93.0922 135.004Z" fill="white"/>
<path d="M93.077 120.585C93.077 122.389 91.6043 123.824 89.7481 123.839C87.8767 123.854 86.4654 122.405 86.4347 120.431C86.4193 118.765 88.0454 117.177 89.8095 117.161C91.5736 117.146 93.0616 118.719 93.0616 120.6L93.077 120.585Z" fill="white"/>
<path d="M86.5112 106.042C86.5112 104.207 87.9839 102.711 89.8247 102.696C91.6348 102.68 93.0921 104.192 93.0768 106.089C93.0768 107.878 91.5121 109.404 89.7173 109.42C87.9685 109.42 86.5266 107.908 86.5112 106.058V106.042Z" fill="white"/>
<defs>
<filter id="filter0_f_86_3077" x="0" y="0" width="220.933" height="223" filterUnits="userSpaceOnUse" color-interpolation-filters="sRGB">
<feFlood flood-opacity="0" result="BackgroundImageFix"/>
<feBlend mode="normal" in="SourceGraphic" in2="BackgroundImageFix" result="shape"/>
<feGaussianBlur stdDeviation="25" result="effect1_foregroundBlur_86_3077"/>
</filter>
</defs>
</svg>
