<svg width="47" height="24" viewBox="0 0 47 24" fill="none" xmlns="http://www.w3.org/2000/svg">
<g clip-path="url(#clip0_86_2010)">
<path fill-rule="evenodd" clip-rule="evenodd" d="M22.0418 23.3572L16.7995 17.7145L13.63 16.7342L0 5.96173C0 5.96173 0.9159 4.89018 1.57872 4.5938L9.6772 5.16377C9.6772 5.16377 14.9557 3.71604 17.4021 2.6445C17.4021 2.6445 25.5247 0.911793 34.8765 1.11698L35.3586 3.47666L36.9734 3.30567L46.7952 3.41966C46.7952 3.41966 40.0827 13.018 38.0701 14.1009L28.4411 18.6379L27.2601 20.7011L25.2113 23.3458C25.2113 23.3572 23.0662 23.437 22.0418 23.3572Z" fill="url(#paint0_linear_86_2010)"/>
<path opacity="0.5" fill-rule="evenodd" clip-rule="evenodd" d="M15.6788 3.625L16.9562 9.58689L20.3667 12.243L20.5354 13.2233L20.1859 15.3778L23.4639 21.2485L22.0419 23.3574L16.7995 17.7147L13.63 16.7343L0 5.96188L1.67513 4.36596L9.66515 5.16392C9.66515 5.17532 14.4495 4.36596 15.6788 3.625Z" fill="url(#paint1_linear_86_2010)"/>
<path fill-rule="evenodd" clip-rule="evenodd" d="M13.0635 12.2429L16.956 9.58683L30.6343 7.94531L29.8027 9.22205L20.3666 12.2429C20.3666 12.2429 16.1245 12.7103 13.0635 12.2429Z" fill="url(#paint2_linear_86_2010)"/>
<path fill-rule="evenodd" clip-rule="evenodd" d="M13.6299 16.7339C14.7507 16.164 15.8714 15.594 16.9922 15.0354C17.7635 14.6478 18.5348 14.2489 19.306 13.8613C19.5591 13.7359 19.9689 13.6105 20.1737 13.4167C20.6678 12.9607 20.2099 12.6757 20.5112 12.1628C20.5714 12.0602 20.704 12.0146 20.8245 11.9804C23.4999 11.1596 26.2114 10.3959 28.923 9.6891C31.4778 9.02794 34.2617 8.65176 36.7442 7.7968C40.1789 6.61126 43.4809 4.85576 46.783 3.41943L42.9145 8.69735L38.564 13.8499L28.4409 18.6376L20.1858 15.3774L17.1248 17.7143L13.6299 16.7339Z" fill="url(#paint3_linear_86_2010)"/>
<path fill-rule="evenodd" clip-rule="evenodd" d="M22.042 23.3573L23.4641 21.2484L27.2602 20.7126C27.2602 20.7126 26.0792 22.6961 25.2115 23.3573H22.042Z" fill="url(#paint4_linear_86_2010)"/>
<path fill-rule="evenodd" clip-rule="evenodd" d="M29.8027 9.22217L35.3463 3.47687L34.8643 1.11719L30.6343 7.94544L29.8027 9.22217Z" fill="url(#paint5_linear_86_2010)"/>
<path fill-rule="evenodd" clip-rule="evenodd" d="M17.1851 4.06958L20.8005 3.34002L24.1026 2.51926L27.7903 2.92964L30.0318 3.34002L31.0441 2.92964L36.5275 4.06958L46.7831 3.41982L44.6259 1.33373L41.0226 1.03734L35.7924 0L32.8518 0.0113994L26.2116 0.695363L20.0293 0.775158L11.6295 0L5.5918 1.56172L1.92821 2.02909L1.31359 3.6478L0 5.99608H3.49488L6.15821 6.83963H9.19514L13.5216 5.30071L17.1851 4.06958Z" fill="url(#paint6_linear_86_2010)"/>
<path fill-rule="evenodd" clip-rule="evenodd" d="M33.864 6.13311L37.3709 6.69168C37.2384 6.98807 37.142 7.45544 36.913 7.69483C36.5997 8.01401 35.8525 8.1964 35.4307 8.356C34.2256 8.82337 32.9722 9.16535 31.6827 9.35914C32.1407 9.63273 32.6589 9.80372 33.1891 9.86072C32.8397 10.6245 32.5384 11.411 32.2853 12.209C31.3573 12.2432 30.333 12.323 29.7063 12.9614C29.4894 13.1779 29.3327 13.4515 29.1038 13.6681C28.4771 14.2381 27.4527 14.2153 26.7417 14.6827C27.742 14.6713 28.7422 14.8309 29.6702 15.15C30.0438 15.2754 28.7663 16.1874 28.6338 16.233C28.3686 16.3356 28.1638 16.3242 28.0191 16.5294C27.8384 16.7802 27.8745 17.4869 27.8263 17.7947C27.7902 17.9999 27.7661 18.2279 27.8866 18.3989C28.0312 18.6155 28.3686 18.6611 28.6217 18.5813C28.8748 18.5015 29.0917 18.3305 29.3207 18.1823C30.2245 17.5895 31.3453 17.3957 32.3697 17.0195C34.4063 16.2786 36.0935 14.8309 38.1061 14.0443C38.2868 13.9759 38.4676 13.9075 38.6243 13.8049C38.7809 13.6909 38.9135 13.5541 39.034 13.4059C40.3476 11.8556 41.6733 10.3053 42.9868 8.74357C43.6617 7.94562 44.3366 7.14766 44.9392 6.3041C45.5779 5.40355 46.1684 4.446 46.6986 3.47705C46.0238 3.77344 45.2766 3.95583 44.5897 4.28641C44.0715 4.5372 43.5533 4.78798 43.023 5.03877C41.9504 5.56314 41.0707 5.24396 39.9138 5.31235C39.1786 5.35795 38.6725 5.76833 37.9615 5.87093C36.9491 6.03052 33.864 6.13311 33.864 6.13311Z" fill="url(#paint7_linear_86_2010)"/>
</g>
<defs>
<linearGradient id="paint0_linear_86_2010" x1="23.3918" y1="23.3895" x2="23.3918" y2="1.10399" gradientUnits="userSpaceOnUse">
<stop stop-color="#3E5BA1"/>
<stop offset="1" stop-color="#58C7DD"/>
</linearGradient>
<linearGradient id="paint1_linear_86_2010" x1="11.7323" y1="23.3529" x2="11.7323" y2="3.62704" gradientUnits="userSpaceOnUse">
<stop stop-color="#8CC3DE"/>
<stop offset="1" stop-color="#556BB2"/>
</linearGradient>
<linearGradient id="paint2_linear_86_2010" x1="21.8481" y1="12.4532" x2="21.8481" y2="7.94542" gradientUnits="userSpaceOnUse">
<stop stop-color="#2959A7"/>
<stop offset="0.9777" stop-color="#1D439A"/>
</linearGradient>
<linearGradient id="paint3_linear_86_2010" x1="30.8585" y1="12.0401" x2="32.5732" y2="17.8412" gradientUnits="userSpaceOnUse">
<stop stop-color="#647CBC"/>
<stop offset="1" stop-color="#548FBC"/>
</linearGradient>
<linearGradient id="paint4_linear_86_2010" x1="24.6552" y1="23.3528" x2="24.6552" y2="20.7082" gradientUnits="userSpaceOnUse">
<stop stop-color="#30528C"/>
<stop offset="1" stop-color="#3D61AC"/>
</linearGradient>
<linearGradient id="paint5_linear_86_2010" x1="32.573" y1="9.22056" x2="32.573" y2="1.12128" gradientUnits="userSpaceOnUse">
<stop stop-color="#2959A7"/>
<stop offset="0.9777" stop-color="#1D439A"/>
</linearGradient>
<linearGradient id="paint6_linear_86_2010" x1="23.3918" y1="6.84132" x2="23.3918" y2="0" gradientUnits="userSpaceOnUse">
<stop stop-color="#53C7E8"/>
<stop offset="1" stop-color="#4FC4D3"/>
</linearGradient>
<linearGradient id="paint7_linear_86_2010" x1="36.722" y1="18.6128" x2="36.722" y2="3.48102" gradientUnits="userSpaceOnUse">
<stop stop-color="#2499B9"/>
<stop offset="1" stop-color="#4752A2"/>
</linearGradient>
<clipPath id="clip0_86_2010">
<rect width="46.7831" height="23.3916" fill="white"/>
</clipPath>
</defs>
</svg>
