<svg width="54" height="63" viewBox="0 0 54 63" fill="none" xmlns="http://www.w3.org/2000/svg">
<path fill-rule="evenodd" clip-rule="evenodd" d="M40.2906 40.9628L34.5559 43.7113L25.1478 47.7538C25.1478 47.7538 22.563 52.8121 19.1409 54.2031C15.7187 55.5941 12.8581 54.7797 12.8581 54.7797L13.7659 47.6334C13.7659 47.6334 9.30228 43.4909 7.99265 41.1985C7.76855 40.8815 7.6643 40.5529 7.62186 40.3636C7.30945 38.6286 13.5751 15.0378 16.7092 9.15333C17.0419 8.58963 17.2663 8.15716 17.5139 7.96425C26.4326 0.100264 41.155 8.77399 41.155 8.77399L41.6696 16.8722C41.6696 16.8722 44.4412 17.7676 46.4934 19.4813C47.4132 20.2396 48.1551 21.1598 48.4485 22.1955C48.5952 22.7134 48.622 23.2427 48.529 23.7835C47.8467 28.2488 40.2906 40.9628 40.2906 40.9628Z" fill="url(#paint0_linear_86_2006)"/>
<path fill-rule="evenodd" clip-rule="evenodd" d="M48.5796 23.8027C45.9282 22.1463 38.3592 19.9206 38.3592 19.9206L37.0211 20.8464C30.4996 19.1974 17.6178 9.79164 16.8294 9.14174C17.1621 8.57804 17.3865 8.1456 17.6341 7.95269C26.5528 0.0887033 41.2752 8.7624 41.2752 8.7624L41.7898 16.8606C41.7395 16.8413 49.3122 19.3568 48.5796 23.8027Z" fill="#68F6FF"/>
<path fill-rule="evenodd" clip-rule="evenodd" d="M40.2908 40.9623L42.9128 30.2674L37.0708 30.8986L27.1522 44.2012L22.9875 46.1709L19.1566 45.3284L13.9169 47.691C13.9169 47.691 9.45329 43.5485 8.14365 41.2561L7.77286 40.4212L15.2332 43.5277L22.2938 41.2327L28.5679 33.7909L37.0713 20.8654L37.2118 17.8057L46.6444 19.539L48.5995 22.2532C48.7462 22.771 48.773 23.3003 48.68 23.8411C47.8469 28.2483 40.2908 40.9623 40.2908 40.9623Z" fill="url(#paint1_linear_86_2006)"/>
<defs>
<linearGradient id="paint0_linear_86_2006" x1="17.2791" y1="56.5111" x2="36.5236" y2="6.59309" gradientUnits="userSpaceOnUse">
<stop stop-color="#4C51DD"/>
<stop offset="0.9944" stop-color="#86F9FF"/>
</linearGradient>
<linearGradient id="paint1_linear_86_2006" x1="20.4885" y1="50.5038" x2="35.6079" y2="14.8529" gradientUnits="userSpaceOnUse">
<stop stop-color="#3E1EC0"/>
<stop offset="1" stop-color="#4395BA"/>
</linearGradient>
</defs>
</svg>
