<svg width="152" height="291" viewBox="0 0 152 291" fill="none" xmlns="http://www.w3.org/2000/svg">
<path d="M75.5293 96.001V290.206H40.7256C40.7256 290.206 92.8707 191.218 51.6319 103.664L75.5293 96.001Z" fill="#9A87C4"/>
<path d="M75.5288 96.001V290.206H110.333C110.333 290.206 58.1874 191.218 99.4261 103.664L75.5288 96.001Z" fill="#D2D4F0"/>
<path d="M112.267 87.8555H38.7619C33.1425 87.8555 28.5806 92.4112 28.5806 98.0228C28.5806 103.634 33.1425 108.19 38.7619 108.19H112.267C117.886 108.19 122.448 103.634 122.448 98.0228C122.448 92.4112 117.886 87.8555 112.267 87.8555Z" fill="#654DAD"/>
<path d="M75.5289 0.0302734C75.1664 0.0302734 74.8643 0.331975 74.8643 0.694016V72.0162H76.2238V0.694016C76.1936 0.331975 75.8915 0.0302734 75.5289 0.0302734Z" fill="#D2D4F0"/>
<path d="M80.0909 42.0576H70.967C69.4564 42.0576 68.2178 43.2946 68.2178 44.8031V60.4312H82.8704V44.8031C82.8402 43.2644 81.6015 42.0576 80.0909 42.0576Z" fill="#613356"/>
<path d="M84.6227 48.6338H66.4353C52.0547 48.6338 40.3628 60.2795 40.3628 74.6706H110.695C110.695 60.2795 99.0034 48.6338 84.6227 48.6338Z" fill="white"/>
<path d="M83.8979 53.9443H67.1305C53.8677 53.9443 43.1426 63.2066 43.1426 74.6712H107.886C107.886 63.2367 97.1608 53.9443 83.8979 53.9443Z" fill="#6BCCF6"/>
<path d="M130.151 70.1152H20.8763C12.5379 70.1152 5.77051 76.8733 5.77051 85.2003C5.77051 93.5273 12.5379 100.285 20.8763 100.285H130.121C138.46 100.285 145.227 93.5273 145.227 85.2003C145.257 76.8733 138.49 70.1152 130.151 70.1152Z" fill="#D2D4F0"/>
<path d="M148.731 82.9365H2.29608C1.02719 82.9365 0 83.9623 0 85.2295C0 86.4966 1.02719 87.5224 2.29608 87.5224H148.731C150 87.5224 151.027 86.4966 151.027 85.2295C151.027 83.9623 150 82.9365 148.731 82.9365Z" fill="#613356"/>
<path d="M46.5566 103.635H33.7771C33.4448 103.635 33.1729 103.906 33.1729 104.238C33.1729 104.57 33.4448 104.842 33.7771 104.842H46.5566C46.8889 104.842 47.1608 104.57 47.1608 104.238C47.1306 103.906 46.8587 103.635 46.5566 103.635Z" fill="#17265D"/>
<path d="M56.1336 103.635H51.6623C51.33 103.635 51.0581 103.906 51.0581 104.238C51.0581 104.57 51.33 104.842 51.6623 104.842H56.1336C56.466 104.842 56.7379 104.57 56.7379 104.238C56.7077 103.906 56.466 103.635 56.1336 103.635Z" fill="#17265D"/>
</svg>
